<svg xmlns="http://www.w3.org/2000/svg" width="126" height="33" viewBox="0 0 126 33">
  <defs>
    <filter id="anep-a">
      <feColorMatrix in="SourceGraphic" values="0 0 0 0 0.388235 0 0 0 0 0.376471 0 0 0 0 0.368627 0 0 0 1.000000 0"/>
    </filter>
  </defs>
  <g fill="none" fill-rule="evenodd" filter="url(#anep-a)">
    <g transform="translate(6)">
      <path fill="#00A3DA" d="M76.5098462,6.64076757 L72.8713846,6.64076757 C72.4752308,6.64076757 72.1536923,6.95709189 72.1536923,7.34757838 L72.1536923,18.9637946 L63.8283077,6.91698378 C63.6975385,6.74898378 63.4906154,6.64076757 63.2590769,6.64076757 L63.2583077,6.64076757 L59.9698462,6.64076757 C59.5736923,6.64076757 59.2521538,6.95709189 59.2521538,7.34757838 L59.2521538,26.8734162 C59.2521538,27.2639027 59.5736923,27.580227 59.9698462,27.580227 L63.6121538,27.580227 C64.0083077,27.580227 64.3298462,27.2639027 64.3298462,26.8734162 L64.3275385,26.8734162 L64.3329231,14.6684432 C64.3329231,14.6684432 72.6852308,26.7508216 72.9067692,27.0399027 C73.1283077,27.328227 73.5390769,27.580227 73.9075385,27.580227 L74.0944615,27.580227 L76.5098462,27.580227 C76.9067692,27.580227 77.2283077,27.2639027 77.2283077,26.8734162 L77.2283077,7.34757838 C77.2283077,6.95709189 76.9067692,6.64076757 76.5098462,6.64076757 L76.5098462,6.64076757 Z M46.0736923,6.39179459 C41.0936923,6.39179459 37.0444615,10.3761189 37.0444615,15.2776324 L37.0375385,14.8614162 L37.0375385,26.4397946 C37.0375385,27.2464973 37.3590769,27.5628216 37.756,27.5628216 L41.3521538,27.5628216 C41.7490769,27.5628216 42.0706154,27.2464973 42.0706154,26.8560108 L42.0706154,23.2750378 C42.0706154,22.8845514 42.3921538,22.568227 42.7890769,22.568227 L49.3583077,22.568227 C49.7552308,22.568227 50.0767692,22.8845514 50.0767692,23.2750378 L50.0767692,26.8560108 L50.0767692,26.8560108 C50.0767692,27.2464973 50.3983077,27.5628216 50.7944615,27.5628216 L54.3921538,27.5628216 C54.7883077,27.5628216 55.1098462,27.2464973 55.1098462,26.4397946 L55.1098462,14.8614162 L55.1036923,15.2776324 C55.1036923,10.3761189 51.0506154,6.39179459 46.0736923,6.39179459 L46.0736923,6.39179459 Z M50.0790769,18.4439027 C50.0790769,18.8336324 49.7575385,19.1499568 49.3606154,19.1499568 L42.7890769,19.1499568 C42.3921538,19.1499568 42.0706154,18.8336324 42.0706154,18.4439027 L42.0706154,14.4769838 L42.0644615,14.4769838 C42.0644615,12.3028216 43.8629231,10.5335243 46.0736923,10.5335243 C48.286,10.5335243 50.0836923,12.3028216 50.0836923,14.4769838 L50.0767692,14.4769838 L50.0767692,18.4439027 L50.0790769,18.4439027 Z M97.1898462,6.64076757 L82.3113846,6.64076757 C81.9144615,6.64076757 81.5929231,6.95709189 81.5929231,7.34757838 L81.5929231,26.8734162 C81.5929231,27.2639027 81.9144615,27.580227 82.3113846,27.580227 L97.1898462,27.580227 C97.5867692,27.580227 97.9083077,27.2639027 97.9083077,26.8734162 L97.9083077,24.4184973 C97.9083077,24.0280108 97.5867692,23.7116865 97.1898462,23.7116865 L97.1898462,23.7079027 L87.3836923,23.7079027 C86.9875385,23.7079027 86.666,23.3915784 86.666,23.0010919 L86.666,19.5147135 C86.666,19.1249838 86.9875385,18.8086595 87.3836923,18.8086595 L93.9867692,18.8086595 C94.3836923,18.8086595 94.7052308,18.4915784 94.7052308,18.1018486 L94.7052308,16.1168757 C94.7052308,15.7271459 94.3836923,15.4100649 93.9867692,15.4100649 L87.3836923,15.4100649 C86.9875385,15.4100649 86.666,15.0937405 86.666,14.7032541 L86.666,11.2146054 C86.666,10.8241189 86.9875385,10.5077946 87.3836923,10.5077946 L87.3836923,10.5062811 L97.1898462,10.5062811 L97.1898462,10.5077946 C97.5867692,10.5077946 97.9083077,10.1907135 97.9083077,9.80098378 L97.9083077,7.34757838 C97.9083077,6.95709189 97.5867692,6.64076757 97.1898462,6.64076757 L97.1898462,6.64076757 Z M111.656,6.64076757 L102.619077,6.64303784 L102.618308,6.64303784 C102.221385,6.64303784 101.899846,6.95936216 101.899846,7.34984865 L101.899846,26.8734162 C101.899846,27.2639027 102.221385,27.580227 102.618308,27.580227 L102.618308,27.5840108 L106.169077,27.5840108 L106.169077,27.580227 C106.566,27.580227 106.887538,27.2639027 106.887538,26.8734162 L106.887538,23.7018486 C106.887538,23.3113622 107.208308,22.9950378 107.605231,22.9950378 L107.605231,22.9950378 L111.656,22.9950378 C116.229846,22.9950378 119.956769,19.6146054 119.956769,14.8258486 C119.956769,10.3231459 116.229846,6.64076757 111.656,6.64076757 L111.656,6.64076757 Z M110.843692,19.208227 L107.662923,19.2195784 C107.233692,19.2195784 106.885231,18.8767676 106.885231,18.4544973 L106.885231,11.3107135 C106.885231,10.8884432 107.233692,10.5456324 107.662923,10.5456324 L107.662923,10.5426054 L110.843692,10.5426054 L110.843692,10.5335243 C113.242923,10.5335243 115.194462,12.4572 115.194462,14.8190378 C115.194462,17.1823892 113.242923,19.208227 110.843692,19.208227 L110.843692,19.208227 Z"/>
      <path fill="#F9C623" d="M13.9632308,4.69643243 C12.5063077,3.96994595 12.5601538,5.24886486 10.584,5.27913514 L12.5055385,2.54951351 L9.55476923,4.55794595 C10.494,2.34594595 9.20938462,2.28540541 10.3224615,1.11394595 C8.86092308,1.58389189 9.62246154,2.38 8.57015385,3.63545946 C8.51784615,3.69827027 8.46092308,3.76108108 8.40092308,3.82464865 C8.38323077,3.84281081 8.36784615,3.85945946 8.35015385,3.87686486 L7.74630769,0.609945946 L7.10476923,4.0827027 C6.17861538,1.86464865 5.22707692,2.716 5.17092308,1.11394595 C4.43169231,2.548 5.73246154,2.49502703 5.764,4.43913514 L2.98861538,2.54951351 L5.03015385,5.45091892 C2.78169231,4.52767568 2.71938462,5.79221622 1.52938462,4.69643243 C1.97861538,6.05027027 2.72169231,5.46681081 3.87169231,6.25459459 C3.91476923,6.28410811 3.95707692,6.31513514 4.00169231,6.34918919 C4.11015385,6.43091892 4.22169231,6.52551351 4.33784615,6.63675676 L1.01784615,7.23081081 L4.54707692,7.86118919 C2.29169231,8.77308108 3.15707692,9.70918919 1.52938462,9.76291892 C2.82938462,10.4114595 2.93630769,9.47005405 4.344,9.23621622 C5.37630769,8.36216216 6.56553846,7.88616216 7.81169231,7.88616216 C9.08092308,7.88616216 10.2916923,8.37881081 11.3378462,9.28464865 C12.744,9.59189189 12.9547692,8.83664865 13.9632308,9.76291892 C13.4947692,8.35081081 12.7063077,9.04854054 11.4678462,8.09427027 C11.414,8.05264865 11.3593846,8.008 11.3032308,7.95805405 C11.2916923,7.94897297 11.2793846,7.93989189 11.2678462,7.92854054 C11.2309231,7.89524324 11.1932308,7.85967568 11.1555385,7.82410811 L14.4763077,7.23081081 L10.9455385,6.59891892 C13.2001538,5.68702703 12.3355385,4.75016216 13.9632308,4.69643243"/>
      <path fill="#00A3DA" d="M14.3240769 16.9035243L14.2963846 16.9035243 7.73946154 16.9035243 7.73946154 23.3442811 7.73946154 25.7908757 7.73946154 25.8650378C7.78638462 25.8665514 7.801 25.8665514 7.81407692 25.8665514 11.4117692 25.8665514 14.3063846 21.9087135 14.3063846 16.9693622 14.3063846 16.9451459 14.3240769 16.9035243 14.3240769 16.9035243M13.0033077 19.244173C13.041 19.7512 12.9386923 20.2688216 12.9486923 20.7660108 13.0133077 21.0331459 12.9756154 21.2193081 12.8725385 21.4667676L12.7971538 21.3381189 12.7971538 21.2457946C12.8725385 21.070227 12.8533077 21.0248216 12.751 20.8590919L12.8356154 20.6933622C12.9194615 20.2400649 13.0225385 19.6868757 12.9486923 19.2350919 12.8917692 19.1329297 12.8725385 19.1238486 12.7602308 19.1427676L12.6856154 19.1889297 12.7417692 19.2623351 12.8256154 19.4280649 12.8440769 19.5196324 12.8440769 19.7050378 12.7971538 19.8518486 12.7694615 20.1295784 12.7602308 20.3603892 12.731 20.5995243 12.7225385 20.7478486 12.6940769 20.8674162C12.7886923 21.0513081 12.7886923 21.0800649 12.731 21.2647135 12.7417692 21.4024432 12.7694615 21.5136865 12.8079231 21.6514162 12.8356154 21.8269838 12.7417692 21.9185514 12.5817692 21.9927135L12.441 21.9836324 12.3471538 21.9283892C12.3763846 21.882227 12.441 21.8179027 12.5071538 21.7437405 12.6856154 21.5409297 12.6194615 21.3192 12.5348462 21.1163892 12.4994615 21.0747676 12.4648462 21.036173 12.4286923 20.9990919L12.3763846 21.0513081 12.2817692 21.1814703 12.1879231 21.3479568C12.1879231 21.568173 12.1979231 21.6150919 12.0663846 21.7899027L12.0194615 21.8640649C11.9256154 21.9283892 11.8694615 21.9283892 11.7663846 21.938227L11.7102308 21.854227 11.7663846 21.7800649 11.7756154 21.7074162 11.8779231 21.6710919C11.9633077 21.5220108 12.0386923 21.4122811 12.1040769 21.2541189L12.0940769 21.1617946 12.0279231 21.0883892C11.9340769 20.8674162 11.8225385 20.7206054 11.7663846 20.4701189L11.7563846 20.4701189C11.0094615 20.5344432 11.1140769 20.8333622 10.8179231 20.8863351 10.6263846 20.9309838 10.3879231 20.9786595 10.1248462 21.0059027L10.0971538 21.1897946 10.0402308 21.3933622C10.0594615 21.5500108 10.1063846 21.6975784 10.0494615 21.8451459L9.98407692 21.9745514C9.85330769 21.9745514 9.76792308 21.9836324 9.741 21.9654703 9.71253846 21.9283892 9.79715385 21.854227 9.881 21.6710919L9.90946154 21.5046054 9.90946154 21.3933622 9.86176923 21.3562811 9.81484615 21.4122811 9.80638462 21.568173 9.81484615 21.7074162C9.76792308 21.7899027 9.741 21.8640649 9.65561538 21.9185514L9.58023077 21.910227C9.50638462 21.910227 9.47792308 21.9019027 9.47792308 21.882227 9.46869231 21.8451459 9.50638462 21.7528216 9.55330769 21.6975784L9.64638462 21.5787676 9.66561538 21.4667676C9.66561538 21.3017946 9.631 21.1943351 9.53792308 21.0989838 9.53638462 21.098227 9.53561538 21.098227 9.53484615 21.098227L9.53638462 21.098227C9.49869231 21.0596324 9.45253846 21.0248216 9.39407692 20.9877405 9.29023077 20.7107676 9.19638462 20.5541189 8.96253846 20.3687135 8.87869231 20.1023351 8.62407692 20.0644973 8.37176923 20.0644973 8.22176923 19.9903351 8.19330769 19.9540108 8.19330769 19.7875243L8.23023077 19.7232 8.24023077 19.5120649C8.09023077 19.4923892 8.02407692 19.4833081 7.921 19.4000649L8.081 19.3364973 8.15638462 19.2986595 7.96792308 19.1427676C7.89330769 18.9392 7.89330769 18.8377946 7.99638462 18.6440649 7.99638462 18.8105514 7.96792308 19.0504432 8.21176923 19.0504432 8.24023077 19.0042811 8.28715385 18.9664432 8.33407692 18.9497946 8.39946154 18.9301189 8.50253846 18.9392 8.56715385 18.9392L8.67176923 19.0042811C8.73638462 19.0406054 9.02869231 19.0587676 9.121 18.9112 9.17792308 18.8272 9.01792308 18.8007135 8.90638462 18.7636324 9.00946154 18.7356324 9.131 18.718227 9.23407692 18.7923892 9.29023077 18.8272 9.28023077 18.9301189 9.27176923 19.0133622L9.31869231 19.0133622C9.50638462 18.9861189 9.61869231 18.9112 9.81484615 18.9210378 10.021 18.9301189 9.96484615 19.1155243 10.9694615 19.2169297 11.3994615 19.2070919 11.6256154 19.0232 12.0279231 18.9944432 12.2440769 18.9762811 12.3571538 19.0504432 12.5817692 19.0504432 12.8533077 18.9944432 12.9386923 18.9497946 13.0033077 19.244173M7.74823077 7.96796757C4.18053846 8.00202162 1.31284615 11.9992108 1.299 16.9037514L7.739 16.9037514 7.739 7.97629189 7.74823077 7.96796757zM2.30438462 15.2404L3.04669231 12.7166162 3.15361538 12.7166162 2.41669231 15.2608324 3.16976923 15.2608324 3.20130769 12.7166162 3.26592308 12.7166162 3.29823077 15.2608324 3.97746154 15.2608324 3.31823077 12.7166162 3.38284615 12.7166162 4.099 15.2388865C4.099 15.2388865 4.10361538 15.2615892 4.10669231 15.3380216 4.07976923 15.4205081 3.21823077 16.3278595 2.32053846 15.3365081 2.30207692 15.2638595 2.30438462 15.2404 2.30438462 15.2404L2.30438462 15.2404zM6.82207692 12.7166162L5.08284615 12.7166162 5.08284615 13.1759676 4.899 13.8971568 4.70592308 13.1759676 4.70592308 12.717373 4.70592308 12.717373 4.70592308 12.7166162 3.01361538 12.7166162 3.01361538 12.3616973C3.01361538 12.3616973 3.29515385 12.3692649 3.38361538 12.3616973 3.73976923 12.5327243 3.859 12.6076432 4.72976923 12.3685081 4.76284615 12.1626703 4.77746154 11.1909946 4.77746154 11.1909946L4.83823077 11.1909946C4.689 11.1728324 4.57361538 11.0494811 4.57361538 10.8981297 4.57361538 10.7339135 4.70823077 10.6007243 4.87592308 10.6007243 5.04361538 10.6007243 5.17746154 10.7339135 5.17746154 10.8981297 5.17746154 11.0494811 5.06284615 11.1728324 4.91361538 11.1909946L4.96207692 11.1909946C4.96207692 11.1909946 5.04823077 12.2776973 5.05361538 12.3934811L5.08284615 12.3934811 5.08284615 12.4063459C5.31130769 12.4472108 5.87592308 12.7029946 6.35669231 12.3934811L6.36053846 12.3934811 6.82207692 12.3934811 6.82207692 12.7166162zM7.41823077 15.3380216C7.39284615 15.4205081 6.52976923 16.3278595 5.63284615 15.3365081 5.61438462 15.2638595 5.61592308 15.2404 5.61592308 15.2404L6.35976923 12.7166162 6.46592308 12.7166162 5.72823077 15.2608324 6.48207692 15.2608324 6.51438462 12.7166162 6.57746154 12.7166162 6.60976923 15.2608324 7.289 15.2608324 6.63053846 12.7166162 6.69438462 12.7166162 7.41053846 15.2388865C7.41053846 15.2388865 7.41669231 15.2615892 7.41823077 15.3380216L7.41823077 15.3380216zM4.88130769 11.0290486C4.96669231 11.0290486 5.03592308 10.9601838 5.03592308 10.8746703 5.03592308 10.7906703 4.96669231 10.7218054 4.88130769 10.7218054 4.79515385 10.7218054 4.72515385 10.7906703 4.72515385 10.8746703 4.72515385 10.9601838 4.79515385 11.0290486 4.88130769 11.0290486L4.88130769 11.0290486z"/>
      <path fill="#174489" d="M.647384615 16.9592216C.649692308 16.9569514.651230769 16.9539243.653538462 16.9508973.648153846 16.9531676.647384615 16.9592216.647384615 16.9592216M.690076923 16.8943676C.680076923 16.9095027.665461538 16.9261514.657769231 16.9412865L.657769231 16.9465838C.668538462 16.9306919.679307692 16.917827.690076923 16.8943676"/>
    </g>
    <polygon fill="#174489" points="6.481 15.537 6.516 15.475 6.519 15.463"/>
    <g fill="#00A3DA" transform="translate(0 7)">
      <path d="M12.5483892 13.5017235C12.5272 13.6049588 12.5082811 13.7135471 12.4515243 13.7831353 12.4613622 13.8496647 12.5029838 13.7403118 12.5362811 13.7403118 12.4855784 13.8733706 12.4696865 14.0492529 12.4939027 14.2182529 12.5158486 14.2044882 12.5097946 14.1593706 12.5211459 14.1341353 12.5688216 14.3857235 12.7088216 14.5440176 12.8397405 14.7099588 12.8639568 14.6908412 12.8072 14.6327235 12.7988757 14.5975471 12.8669838 14.6923706 12.9699027 14.7543118 13.0773622 14.8078412 13.0614703 14.7443706 12.9358486 14.6709588 12.9101189 14.5692529 12.9464432 14.5394294 12.9842811 14.6258412 13.0637405 14.5975471 12.804173 14.3941353 13.0334703 13.9452529 13.0077405 13.5996059 13.0206054 13.5674882 13.0501189 13.6317235 13.0501189 13.6577235 13.0735784 13.5621353 13.0039568 13.4405471 12.9668757 13.3625471 12.9714162 13.3136059 13.0206054 13.3992529 13.0077405 13.3342529 12.8526054 13.1591353 12.7897946 12.8226647 12.5362811 12.7851941 12.4469838 12.7721941 12.3652541 12.8494294 12.2714162 12.8410176 12.1934703 12.8356647 12.1215784 12.7354882 12.0209297 12.6735471 11.8665514 12.5771941 11.6455784 12.4831353 11.3814703 12.5466059 11.1884973 12.5924882 11.0114162 12.6704882 10.7563892 12.6873118 10.4476324 12.7079588 10.1706595 12.6421941 10.032173 12.4900176 9.94892973 12.3982529 9.90957838 12.2690176 9.83768649 12.1673118 9.61368649 11.8476647 9.12255135 11.3636059 8.60038919 11.6335471 8.53076757 11.5861353 8.46417297 11.4928412 8.40363243 11.5119588 8.38547027 11.5654882 8.42482162 11.6190176 8.42482162 11.6190176 8.42482162 11.6190176 8.35292973 11.5800176 8.30147027 11.6106059 8.30676757 11.6855471 8.43692973 11.7260765 8.44752432 11.8155471 8.45509189 11.8889588 8.39228108 11.9524294 8.37865946 12.0419 8.37336216 12.0709588 8.39303784 12.1053706 8.39228108 12.1397824 8.38395676 12.4410765 8.23033514 12.6888412 8.36503784 12.8700765 8.67530811 13.0031353 8.66622703 12.5802529 8.83725405 12.4624882 8.87509189 12.4372529 8.91898378 12.4693706 8.96211892 12.4059 9.17325405 12.7140765 8.92125405 13.3992529 9.18460541 13.6707235 9.13768649 13.7640176 9.05217297 13.8183118 8.97574054 13.8963118 8.92579459 13.9475471 8.78352432 14.0461941 8.76687568 14.1058412 8.74417297 14.1960765 8.81984865 14.3344882 8.85011892 14.4438412 8.88492973 14.5608412 8.90838919 14.6594882 8.93487568 14.7803118 9.08395676 14.8246647 9.09682162 15.0089588 9.30947027 14.9906059 9.34957838 14.8789588 9.27314595 14.7680765 9.25271351 14.6679 9.20882162 14.6778412 9.1672 14.6931353 9.12784865 14.7099588 9.08698378 14.5417235 8.91065946 14.4193706 8.96211892 14.2327824 9.00828108 14.0645471 9.31552432 14.1142529 9.46309189 14.0217235 9.47444324 14.1723706 9.62806486 14.2863118 9.6432 14.4713706 9.64622703 14.5073118 9.62352432 14.5593118 9.62957838 14.5975471 9.65606486 14.7711353 9.78925405 14.9141353 9.76806486 15.0892529 9.75822703 15.1710765 9.67725405 15.2299588 9.72644324 15.3148412 9.60763243 15.3538412 9.57282162 15.4777235 9.53195676 15.5954882 9.61595676 15.6581941 9.76957838 15.6627824 9.86568649 15.6092529 9.91260541 15.4792529 9.87476757 15.3484882 9.97617297 15.2720176 9.8444973 14.8957824 9.89671351 14.4729 9.90806486 14.0217235 10.3333622 14.0446647 10.6754162 13.9827235 10.9228757 13.8251941 10.9750919 14.0576647 11.3368216 14.1012529 11.3110919 14.3451941 11.3035243 14.4308412 11.0447135 14.6824294 10.9781189 14.7527824 10.9274162 14.8047824 10.850227 14.8445471 10.8108757 14.9064882 10.788173 15.0907824 10.7404973 15.1794882 10.7563892 15.3844294 10.9175784 15.4410176 11.0197405 15.3270765 11.0749838 15.2299588 11.0712 15.1580765 11.0212541 15.1343706 10.9917405 15.0892529 11.0038486 15.0395471 11.0727135 15.0510176 11.0893622 15.0043706 11.0908757 14.7107235 11.5244973 14.6701941 11.6032 14.4576059 11.6660108 14.2909 11.5267676 14.2289588 11.5207135 14.0362529 11.7379027 14.0729588 11.8544432 14.3344882 12.0754162 14.4163118 12.2146595 14.6036647 12.4106595 14.9561941 12.3539027 15.2857824 12.334227 15.4050765 12.1715243 15.5029588 12.160173 15.6520765 12.2025514 15.7553118 12.3879568 15.7469 12.4795243 15.6941353 12.5567135 15.5404294 12.4727135 15.3943706 12.5763892 15.2720176 12.4500108 14.9883118 12.4969297 14.6671353 12.4515243 14.3451941 12.4424432 14.2809588 12.3304432 14.2289588 12.2850378 14.1761941 11.9846054 13.8259588 12.3569297 13.4627235 12.2714162 12.9970176 12.3660108 13.0268412 12.4189838 13.0994882 12.4515243 13.1935471 12.4817946 13.1958412 12.4583351 13.1430765 12.4651459 13.1224294 12.5536865 13.2096059 12.5294703 13.4642529 12.4651459 13.5590765 12.4878486 13.5889 12.5150919 13.5055471 12.5483892 13.5017235M20.2390054 9.99799412C20.2382486 9.93146471 20.2374919 9.86493529 20.2352216 9.79687647 20.0104649 9.79534706 19.8076541 9.6707 19.5828973 9.6707 19.3558703 9.6707 19.1523027 9.79687647 18.9260324 9.79687647 18.6982486 9.79687647 18.4954378 9.6707 18.2684108 9.6707 18.0413838 9.6707 17.8378162 9.79687647 17.6107892 9.79687647 17.3845189 9.79687647 17.1809514 9.6707 16.9531676 9.6707 16.7261405 9.6707 16.5240865 9.79687647 16.2970595 9.79687647 16.0685189 9.79687647 15.8664649 9.6707 15.6394378 9.6707 15.4124108 9.6707 15.2088432 9.79687647 14.982573 9.79687647 14.7563027 9.79687647 14.5519784 9.6707 14.3257081 9.6707 14.0986811 9.6707 13.8951135 9.79687647 13.6680865 9.79687647L13.6680865 9.99799412C13.8951135 9.99799412 14.0986811 9.87105294 14.3257081 9.87105294 14.5519784 9.87105294 14.7563027 9.99799412 14.982573 9.99799412 15.2088432 9.99799412 15.4124108 9.87105294 15.6394378 9.87105294 15.8664649 9.87105294 16.0685189 9.99799412 16.2970595 9.99799412 16.5240865 9.99799412 16.7261405 9.87105294 16.9531676 9.87105294 17.1809514 9.87105294 17.3845189 9.99799412 17.6107892 9.99799412 17.8378162 9.99799412 18.0413838 9.87105294 18.2684108 9.87105294 18.4954378 9.87105294 18.6982486 9.99799412 18.9260324 9.99799412 19.1523027 9.99799412 19.3558703 9.87105294 19.5828973 9.87105294 19.8091676 9.87105294 20.0119784 9.99799412 20.2390054 9.99799412L20.2390054 9.99799412zM19.5828973 9.46958235C19.804627 9.46958235 20.0036541 9.5927 20.2268973 9.59652353 20.2223568 9.52922941 20.2170595 9.4627 20.2125189 9.39617059 19.9968432 9.38775882 19.8008432 9.26922941 19.5828973 9.26922941 19.3558703 9.26922941 19.1523027 9.39693529 18.9260324 9.39693529 18.6982486 9.39693529 18.4954378 9.26922941 18.2684108 9.26922941 18.0413838 9.26922941 17.8378162 9.39693529 17.6107892 9.39693529 17.3845189 9.39693529 17.1809514 9.26922941 16.9531676 9.26922941 16.7261405 9.26922941 16.5240865 9.39693529 16.2970595 9.39693529 16.0685189 9.39693529 15.8664649 9.26922941 15.6394378 9.26922941 15.4124108 9.26922941 15.2088432 9.39693529 14.982573 9.39693529 14.7563027 9.39693529 14.5519784 9.26922941 14.3257081 9.26922941 14.0986811 9.26922941 13.8951135 9.39693529 13.6680865 9.39693529L13.6680865 9.59805294C13.8951135 9.59805294 14.0986811 9.46958235 14.3257081 9.46958235 14.5519784 9.46958235 14.7563027 9.59805294 14.982573 9.59805294 15.2088432 9.59805294 15.4124108 9.46958235 15.6394378 9.46958235 15.8664649 9.46958235 16.0685189 9.59805294 16.2970595 9.59805294 16.5240865 9.59805294 16.7261405 9.46958235 16.9531676 9.46958235 17.1809514 9.46958235 17.3845189 9.59805294 17.6107892 9.59805294 17.8378162 9.59805294 18.0413838 9.46958235 18.2684108 9.46958235 18.4954378 9.46958235 18.6982486 9.59805294 18.9260324 9.59805294 19.1523027 9.59805294 19.3558703 9.46958235 19.5828973 9.46958235L19.5828973 9.46958235zM19.5828973 9.06811176C19.7940324 9.06811176 19.9862486 9.18128824 20.1951135 9.19505294 20.1883027 9.12775882 20.1807351 9.0597 20.1724108 8.99240588 19.9718703 8.97175882 19.7864649 8.86852353 19.5828973 8.86852353 19.3558703 8.86852353 19.1523027 8.99622941 18.9260324 8.99622941 18.6982486 8.99622941 18.4954378 8.86852353 18.2684108 8.86852353 18.0413838 8.86852353 17.8378162 8.99622941 17.6107892 8.99622941 17.3845189 8.99622941 17.1809514 8.86852353 16.9531676 8.86852353 16.7261405 8.86852353 16.5240865 8.99622941 16.2970595 8.99622941 16.0685189 8.99622941 15.8664649 8.86852353 15.6394378 8.86852353 15.4124108 8.86852353 15.2088432 8.99622941 14.982573 8.99622941 14.7563027 8.99622941 14.5519784 8.86852353 14.3257081 8.86852353 14.0986811 8.86852353 13.8951135 8.99622941 13.6680865 8.99622941L13.6680865 9.19734706C13.8951135 9.19734706 14.0986811 9.06811176 14.3257081 9.06811176 14.5519784 9.06811176 14.7563027 9.19734706 14.982573 9.19734706 15.2088432 9.19734706 15.4124108 9.06811176 15.6394378 9.06811176 15.8664649 9.06811176 16.0685189 9.19734706 16.2970595 9.19734706 16.5240865 9.19734706 16.7261405 9.06811176 16.9531676 9.06811176 17.1809514 9.06811176 17.3845189 9.19734706 17.6107892 9.19734706 17.8378162 9.19734706 18.0413838 9.06811176 18.2684108 9.06811176 18.4954378 9.06811176 18.6982486 9.19734706 18.9260324 9.19734706 19.1523027 9.19734706 19.3558703 9.06811176 19.5828973 9.06811176L19.5828973 9.06811176zM19.5828973 8.66817059C19.7773838 8.66817059 19.9544649 8.76222941 20.1444108 8.78899412 20.1338162 8.72017059 20.1232216 8.65211176 20.1111135 8.58328824 19.9347892 8.55117059 19.7660324 8.46858235 19.5828973 8.46858235 19.3558703 8.46858235 19.1523027 8.59628824 18.9260324 8.59628824 18.6982486 8.59628824 18.4954378 8.46858235 18.2684108 8.46858235 18.0413838 8.46858235 17.8378162 8.59628824 17.6107892 8.59628824 17.3845189 8.59628824 17.1809514 8.46858235 16.9531676 8.46858235 16.7261405 8.46858235 16.5240865 8.59628824 16.2970595 8.59628824 16.0685189 8.59628824 15.8664649 8.46858235 15.6394378 8.46858235 15.4124108 8.46858235 15.2088432 8.59628824 14.982573 8.59628824 14.7563027 8.59628824 14.5519784 8.46858235 14.3257081 8.46858235 14.0986811 8.46858235 13.8951135 8.59628824 13.6680865 8.59628824L13.6680865 8.79664118C13.8951135 8.79664118 14.0986811 8.66817059 14.3257081 8.66817059 14.5519784 8.66817059 14.7563027 8.79664118 14.982573 8.79664118 15.2088432 8.79664118 15.4124108 8.66817059 15.6394378 8.66817059 15.8664649 8.66817059 16.0685189 8.79664118 16.2970595 8.79664118 16.5240865 8.79664118 16.7261405 8.66817059 16.9531676 8.66817059 17.1809514 8.66817059 17.3845189 8.79664118 17.6107892 8.79664118 17.8378162 8.79664118 18.0413838 8.66817059 18.2684108 8.66817059 18.4954378 8.66817059 18.6982486 8.79664118 18.9260324 8.79664118 19.1523027 8.79664118 19.3558703 8.66817059 19.5828973 8.66817059L19.5828973 8.66817059zM19.5828973 8.26746471C19.7531676 8.26746471 19.9090595 8.33858235 20.0732757 8.37528824 20.0581405 8.30340588 20.0437622 8.23381765 20.0271135 8.16346471 19.8803027 8.12522941 19.7365189 8.06711176 19.5828973 8.06711176 19.4376 8.06711176 19.3013838 8.11758235 19.1636541 8.15581765 18.7784649 7.77117059 17.7659243 6.75793529 17.6228973 6.58587647 17.4730595 6.40617059 17.3262486 6.41687647 17.3262486 6.41687647 17.3262486 6.41687647 17.3148973 6.41687647 17.2959784 6.41687647L17.2959784 6.03681765 17.396627 6.03681765 17.396627 5.84640588 17.1976 5.84640588 17.1976 5.90987647 16.5959784 5.90987647 16.5959784 5.84640588 16.3961946 5.84640588 16.3961946 6.03681765 16.4960865 6.03681765 16.4960865 6.41687647 16.5240865 6.41687647C16.5218162 6.41687647 16.5187892 6.41687647 16.5172757 6.41687647 16.3878703 6.42146471 16.2160865 6.57593529 16.2160865 6.57593529L14.6851676 8.13899412C14.5671135 8.10458235 14.4498162 8.06711176 14.3257081 8.06711176 14.0986811 8.06711176 13.8951135 8.19481765 13.6680865 8.19481765L13.6680865 8.39593529C13.8951135 8.39593529 14.0986811 8.26746471 14.3257081 8.26746471 14.5519784 8.26746471 14.7563027 8.39593529 14.982573 8.39593529 15.2088432 8.39593529 15.4124108 8.26746471 15.6394378 8.26746471 15.8664649 8.26746471 16.0685189 8.39593529 16.2970595 8.39593529 16.5240865 8.39593529 16.7261405 8.26746471 16.9531676 8.26746471 17.1809514 8.26746471 17.3845189 8.39593529 17.6107892 8.39593529 17.8378162 8.39593529 18.0413838 8.26746471 18.2684108 8.26746471 18.4954378 8.26746471 18.6982486 8.39593529 18.9260324 8.39593529 19.1523027 8.39593529 19.3558703 8.26746471 19.5828973 8.26746471L19.5828973 8.26746471zM16.9970595 6.41228824L16.7957622 6.41228824 16.7957622 6.22646471C16.7957622 6.15687647 16.8411676 6.10028824 16.8964108 6.10028824 16.9516541 6.10028824 16.9970595 6.15687647 16.9970595 6.22646471L16.9970595 6.41228824zM17.1067892 5.84105294C17.1067892 5.80664118 17.0863568 5.77758235 17.060627 5.77758235L16.9894919 5.77758235 16.8426811 5.77758235 16.7518703 5.77758235C16.7268973 5.77758235 16.7064649 5.80664118 16.7064649 5.84105294 16.7064649 5.87546471 16.7268973 5.95958235 16.7518703 5.95958235L17.060627 5.97028824C17.0863568 5.97028824 17.1067892 5.87546471 17.1067892 5.84105294L17.1067892 5.84105294zM16.9902486 5.77758235C17.0114378 5.73322941 17.0243027 5.72252353 17.0243027 5.69499412 17.0243027 5.63993529 16.970573 5.58793529 16.9070054 5.58793529 16.8419243 5.58793529 16.7904649 5.64146471 16.7904649 5.69805294 16.7904649 5.72558235 16.8033297 5.73322941 16.8237622 5.77758235L16.9902486 5.77758235z"/>
      <path d="M24.0809838,8.1315 C24.1664973,7.90208824 24.1180649,7.66273529 23.9667135,7.60844118 C23.8161189,7.54267647 23.6186054,7.68032353 23.5224973,7.9105 C23.4468216,8.12232353 23.4846595,8.34255882 23.6072541,8.41597059 L23.6367676,8.36167647 L23.7026054,8.27755882 L23.7601189,8.30585294 L23.6844432,8.45267647 C23.8259568,8.47102941 23.996227,8.33414706 24.0809838,8.1315 L24.0809838,8.1315 Z M23.7124432,11.3585588 L23.6844432,11.2109706 L23.6844432,11.1192059 L23.7124432,10.9899706 L23.7972,10.8156176 L23.8819568,10.6221471 L23.9773081,10.3835588 L24.0620649,10.0983235 L24.1566595,9.83067647 L24.2406595,9.50185294 L24.3458486,9.09732353 L24.4215243,8.71038235 L24.4593622,8.37926471 L24.4593622,8.14985294 L24.5062811,7.77361765 L24.5252,7.50673529 L24.2603351,7.93038235 L24.1097405,8.25155882 L23.9667135,8.52685294 L23.8350378,8.83044118 L23.7684432,9.02314706 L23.7124432,9.20667647 L23.7200108,9.35044118 L23.7026054,9.08814706 L23.5716865,8.82585294 L23.6186054,8.90385294 L23.5989297,8.72032353 L23.6738486,8.46338235 L23.7593622,8.30508824 L23.7026054,8.27832353 L23.6367676,8.36167647 L23.5694162,8.51767647 L23.514173,8.67367647 L23.5671459,8.81514706 L23.4384973,8.51767647 L23.3060649,8.2875 L23.2818486,8.25002941 L23.2954703,8.26991176 L23.2954703,8.19573529 L23.4188216,7.91967647 C24.0908216,6.80779412 24.5736324,5.98038235 24.4222811,4.66585294 C24.2020649,5.23632353 23.8660649,5.76626471 23.6163351,6.33138235 C23.4884432,6.30308824 23.3302811,6.34055882 23.2008757,6.44761765 C23.1244432,6.51414706 23.0767676,6.59367647 23.0464973,6.67320588 C23.1229297,6.21667647 23.2266054,5.76932353 23.2773081,5.30973529 C23.3597946,4.49379412 23.2334162,3.85144118 22.9647676,3.07985294 L22.9640108,3.05691176 L22.9640108,3.07755882 C22.9572,3.05767647 22.9534162,3.04008824 22.9458486,3.02097059 C22.7944973,3.79255882 22.5107135,5.06120588 22.5863892,5.25467647 L22.6234703,5.38314706 L22.6234703,5.40991176 L22.5493081,5.31891176 C22.2390378,4.59779412 21.8372,3.92332353 21.5344973,3.19455882 C21.5466054,3.16626471 21.5579568,3.13720588 21.5715784,3.10891176 C21.9333081,2.34726471 22.0384973,1.91673529 21.9423892,1.07097059 L21.8984973,0.414852941 C21.6979568,1.05491176 21.3702811,1.63532353 21.3619568,2.32355882 C21.3574162,2.67838235 21.3960108,3.02938235 21.3816324,3.37426471 C21.3369838,3.01408824 21.3180649,2.61567647 21.2249838,2.27079412 C21.0486595,1.64526471 20.5999027,1.29961765 20.1799027,0.8385 C20.2699568,1.23691176 20.3706054,1.54891176 20.5378486,1.92055882 C20.7315784,2.32661765 20.9949297,2.66997059 21.1697405,3.07985294 C21.2401189,3.23202941 21.2726595,3.38344118 21.3226054,3.54785294 C21.0584973,3.06226471 20.7028216,2.48032353 20.1753622,2.24326471 C19.8469297,2.09797059 19.5116865,1.94426471 19.1855243,1.79055882 C19.3875784,2.05591176 19.5888757,2.3205 19.8022811,2.57208824 C20.1496324,2.9705 20.5416324,2.96055882 20.6513622,3.02326471 C20.8526595,3.14408824 21.0206595,3.29397059 21.2045514,3.44691176 C21.2620649,3.61361765 21.2499568,3.77191176 21.3490919,3.91185294 L21.4368757,4.00285294 L21.4323351,4.11373529 L21.4232541,4.30032353 C21.3778486,4.25673529 21.3324432,4.21391176 21.2870378,4.17032353 C21.3574162,4.0235 21.3006595,3.82544118 21.1356865,3.68014706 C20.9464973,3.52338235 20.6907135,3.50502941 20.5673622,3.64344118 L20.5204432,3.70691176 C20.4629297,3.8545 20.5204432,4.04797059 20.6816324,4.18485294 C20.8700649,4.35079412 21.1356865,4.36914706 21.2582811,4.2315 C21.2597946,4.22920588 21.2597946,4.22691176 21.2613081,4.22461765 L21.4497405,4.42497059 L21.4883351,4.59167647 L21.6396865,5.03367647 L21.6669297,5.19044118 L21.4035784,4.94114706 L21.0441189,4.65667647 L20.7603351,4.48155882 L20.2767676,4.14126471 L20.6657405,4.77597059 L21.0070378,5.29902941 L21.0441189,5.35561765 L20.8927676,5.32732353 L20.2018486,5.09714706 L19.482173,4.88685294 C20.2972,5.75097059 21.0539568,6.22814706 22.2360108,6.59597059 C22.3116865,6.64185294 22.3881189,6.68773529 22.4539568,6.74432353 L22.7089838,6.98138235 L22.7944973,7.01044118 L22.7755784,6.93626471 L22.7657405,6.91714706 L22.7188216,6.9095 L22.6423892,6.78944118 L22.568227,6.66020588 L22.5008757,6.54091176 L22.4350378,6.4675 L22.5636865,6.54702941 L22.5720108,6.55620588 L22.6900649,6.71526471 L22.7755784,6.93626471 L22.8035784,7.04638235 L22.898173,7.33161765 L22.7475784,7.26738235 L22.5296324,7.20314706 L22.5674703,7.21079412 C22.5387135,7.05555882 22.3495243,6.93702941 22.1315784,6.93702941 C21.8954703,6.93702941 21.6964432,7.08308824 21.6964432,7.26738235 C21.6964432,7.45014706 21.8954703,7.60844118 22.1315784,7.60844118 C22.3669297,7.60844118 22.5530919,7.46314706 22.5757946,7.29032353 L22.6423892,7.3125 L22.8232541,7.38744118 L22.9746054,7.52508824 L23.1153622,7.81797059 L23.1441189,7.99308824 L23.1441189,8.03132353 L23.0972,7.95638235 L22.9556865,7.70785294 L22.8512541,7.47002941 L22.8043351,7.67191176 L22.8217405,7.83785294 L22.8512541,8.09479412 L22.8883351,8.32497059 L22.9647676,8.59108824 L23.0502811,8.87632353 L23.1229297,9.21432353 L23.0601189,8.94055882 L22.9170919,8.72032353 C22.6711459,8.35173529 22.3495243,8.06726471 22.0755784,7.71779412 C22.2458486,8.30585294 22.3692,8.84802941 22.5954703,9.4185 L22.6575243,9.59132353 L22.6431459,9.57526471 C22.2458486,9.13326471 21.9333081,8.7295 21.498173,8.36167647 C21.6972,9.01397059 21.9703892,9.60202941 22.3116865,10.0983235 L22.4917946,10.3552647 L22.5205514,10.3835588 L22.5205514,10.3835588 L22.2836865,10.2910294 L21.8296324,10.0440294 L21.2900649,9.76797059 L20.9010919,9.64791176 L21.0630378,9.92397059 L21.2423892,10.1717353 L21.4126595,10.3652059 L21.6306054,10.5579118 L21.8107135,10.7055 L22.0460649,10.7965 L22.3116865,10.9532647 L22.6234703,11.0549706 L22.7135243,11.1230294 L23.2697405,11.5749706 L23.2863892,11.5971471 L23.3423892,11.8823824 L23.3673622,11.8617353 L23.3431459,11.8823824 L23.2856324,12.0108529 L23.2773081,12.1217353 L23.2773081,12.2861471 L23.2773081,12.4153824 L23.2296324,12.6149706 L23.2296324,12.6080882 L23.2099568,12.6080882 L23.1917946,12.5079118 L23.1532,12.3786765 L23.0972,12.2043235 L23.0026054,12.0475588 L22.9170919,11.8816176 L22.7944973,11.6881471 L22.6423892,11.5053824 L22.5568757,11.4036765 L22.4062811,11.2293235 L22.2360108,11.0832647 L22.0460649,10.9807941 L21.8954703,10.8714412 L21.6866054,10.7146765 L21.5450919,10.6037941 L21.3846595,10.4753235 L21.2325514,10.3476176 L21.0441189,10.1350294 L21.0728757,10.2459118 L21.1667135,10.4026765 L21.224227,10.5395588 L21.3263892,10.7238529 L21.5080108,11.0725588 L21.6207676,11.2667941 L21.7637946,11.4595 L21.8954703,11.6246765 L22.0279027,11.7997941 L22.1883351,12.0016765 L22.3215243,12.1943824 L22.4630378,12.3511471 L22.6151459,12.5079118 L22.7664973,12.7013824 L22.9360108,12.8566176 L23.0873622,13.0317353 L23.0782811,13.2145 L23.0502811,13.4446765 L23.0313622,13.5915 L23.0313622,13.5922647 L23.0313622,13.5731471 L22.9935243,13.4347353 L22.9556865,13.2795 L22.8603351,13.0867941 L22.7089838,12.8566176 L22.5674703,12.6539706 L22.3881189,12.4520882 L22.2458486,12.3144412 L22.1323351,12.2127353 L21.9605514,12.0942059 L21.7637946,11.9458529 L21.6207676,11.8647941 L21.3937405,11.7447353 L21.2514703,11.6713235 L21.0819568,11.5604412 L20.9116865,11.4036765 L20.8163351,11.3486176 L20.9018486,11.4786176 L20.9873622,11.6514412 L21.1288757,11.9106765 L21.2613081,12.1477353 L21.4323351,12.3511471 L21.5836865,12.5430882 L21.8190378,12.7640882 L21.9809838,12.8933235 L22.226173,13.0768529 L22.4721189,13.2145 L22.5485514,13.2703235 L22.7839027,13.4179118 L22.8792541,13.5089118 L22.9746054,13.7658529 L23.0283351,13.6006765 L22.9647676,13.8033235 L22.926173,13.9317941 L22.8323351,14.1436176 L22.7846595,14.0250882 L22.7286595,13.9142059 L22.6620649,13.8132647 L22.6529838,13.7299118 L22.6529838,13.7299118 L22.6613081,13.7849706 C22.7089838,13.6572647 22.6613081,13.4722059 22.5387135,13.3345588 C22.3775243,13.1502647 22.1504973,13.1043824 22.0188216,13.2336176 C21.8954703,13.3628529 21.9234703,13.6098529 22.0748216,13.7849706 C22.2360108,13.9685 22.4721189,14.0143824 22.5954703,13.8866765 C22.6045514,13.8759706 22.6045514,13.8759706 22.6143892,13.8675588 L22.6143892,13.8591471 L22.6151459,13.8591471 L22.6809838,13.9516765 L22.7369838,14.0877941 L22.7846595,14.2445588 L22.7559027,14.4930882 L22.6809838,14.5657353 L22.6234703,14.6582647 L22.6045514,14.8517353 L22.5387135,14.9985588 L22.3692,15.3564412 L22.1134162,15.8718529 L22.0755784,15.9085588 L22.1504973,15.6332647 L22.1974162,15.3480294 L22.1974162,15.0627941 L22.1974162,14.7683824 L22.1792541,14.4930882 L22.142173,14.2177941 L22.0377405,13.8866765 L21.924227,13.6006765 L21.8296324,13.3162059 L21.8296324,13.6106176 L21.8107135,13.8591471 L21.7539568,14.2361471 L21.6782811,14.6215588 L21.6306054,14.9343235 L21.6026054,15.1125 L21.5640108,14.9435 L21.5163351,14.7507941 L21.3846595,14.3554412 L21.2514703,13.9233824 L21.1099568,13.4722059 L21.0070378,13.1135588 L20.9873622,13.8759706 L20.9586054,14.4831471 L20.9586054,15.0169118 L20.9684432,15.5002059 L20.9586054,15.3197353 L20.9018486,15.2555 C20.5991459,14.8326176 20.3426054,14.2636765 20.1829297,13.7857353 L20.154173,13.9975588 C20.1647676,14.5756765 20.1829297,15.1186176 20.3244432,15.6875588 C20.4477946,16.1930294 20.6559027,16.5792059 21.0335243,16.9470294 L21.1477946,17.1680294 L21.1477946,17.3423824 L21.1197946,17.5450294 L20.9972,17.6276176 L20.9396865,17.7010294 L20.9018486,17.8577941 L20.8829297,17.6375588 L20.8360108,17.5259118 L20.7883351,17.4249706 L20.7800108,17.4127353 C20.8640108,17.2835 20.8443351,17.0655588 20.7028216,16.8927353 C20.5423892,16.6809118 20.2873622,16.5883824 20.126173,16.6992647 C19.9748216,16.8101471 19.9748216,17.0762647 20.1360108,17.2965 C20.2972,17.5083235 20.5613081,17.5909118 20.7134162,17.4800294 L20.7224973,17.4800294 L20.6740649,17.4157941 L20.6559027,17.3523235 L20.6559027,17.3523235 L20.6740649,17.4157941 L20.7595784,17.5259118 L20.798173,17.6643235 L20.8163351,17.8478529 L20.7694162,18.0046176 L20.7028216,18.2057353 L20.608227,18.2531471 L20.5923351,18.3089706 L20.6377405,18.1422647 L20.6748216,17.9036765 L20.6929838,17.6551471 C20.4470378,18.0787941 20.1640108,18.3915588 19.8514703,18.7769706 L19.7099568,18.9972059 L19.6539568,18.9337353 C19.8620649,18.2164412 19.8136324,17.5167353 19.8703892,16.7917941 C19.6146054,17.2865588 19.3595784,17.7744412 19.1613081,18.2906176 L19.0750378,18.4917353 L19.0667135,18.5001471 L19.0659568,18.5001471 L19.0954703,18.2623235 C19.124227,17.8478529 19.0954703,17.4433235 19.0954703,17.0403235 L19.1037946,16.6900882 L19.0099568,16.9669118 C18.7640108,17.4983824 18.4885514,17.9686765 18.3667135,18.5460294 L18.3568757,18.7119706 L18.2055243,18.8962647 L17.9504973,19.1990882 L17.7037946,19.4935 L17.6856324,19.5294412 L17.6856324,19.3375 C17.7885514,18.7769706 17.8460649,18.2256176 17.8369838,17.6551471 C17.5433622,18.3173824 17.136227,18.9146176 16.9848757,19.6135588 L16.9568757,19.8337941 L16.9182811,20.2291471 L16.8902811,20.4860882 L16.8864973,20.5105588 L16.8902811,20.4860882 L16.8993622,20.3576176 L16.8993622,20.2383235 L16.8902811,20.1106176 C16.7964432,19.4850882 16.5119027,19.0805588 16.4839027,18.2256176 C16.3227135,18.7945588 16.2750378,19.3099706 16.3037946,19.8896176 C16.3408757,20.5151471 16.5686595,20.8539118 16.5308216,21.0848529 L16.4801189,21.4457941 L16.4649838,21.4519118 L16.2099568,21.6270294 L15.8308216,21.7922059 L15.6514703,21.8763235 L15.4365514,21.9290882 L15.5281189,21.9023235 L15.6703892,21.7830294 C15.8868216,21.6163235 16.0389297,21.4886176 16.2099568,21.2683824 C16.3416324,21.0932647 16.3128757,20.4035 16.1146054,20.2658529 C15.954173,20.1465588 15.7271459,19.9339706 15.6128757,19.7512059 C15.5652,19.6785588 15.5281189,19.6785588 15.4335243,19.6961471 C15.310173,19.7236765 14.666173,19.8987941 14.3543892,19.9813824 C14.2688757,20.0096765 14.2128757,20.0555588 14.2037946,20.1197941 C14.0993622,20.6245 13.9866054,21.1207941 13.854173,21.5712059 L13.7868216,21.8105588 L13.7868216,21.6163235 C13.7686595,21.1116176 13.6823892,20.7078529 13.2956865,20.3125 C13.0974162,20.1373824 12.9740649,19.8620882 12.8893081,19.7420294 C12.7372,19.5217941 12.6418486,19.3925588 12.3777405,19.3558529 C12.1787135,19.3742059 12.1983892,19.3841471 12.0652,19.5393824 C11.866173,19.6877353 11.6868216,19.7603824 11.4408757,19.8062647 C11.3652,19.8162059 11.3553622,19.8620882 11.3652,19.9171471 C11.3939568,20.2757941 11.3470378,20.9105 11.3939568,21.0749118 C11.4128757,21.1674412 11.7337405,21.4717941 11.9229297,21.6086765 L12.0364432,21.7547353 L12.0364432,21.7555 L12.0273622,21.7455588 L11.9713622,21.7455588 C11.7254162,21.5719706 11.4219568,21.4435 11.1563351,21.2859706 L11.1563351,21.1567353 L11.2040108,20.9647941 L11.2418486,20.7353824 L11.222173,20.5801471 L11.2524432,20.4402059 L11.2418486,20.2933824 L11.2418486,20.1197941 L11.2418486,19.9171471 L11.222173,19.7236765 L11.2040108,19.5952059 L11.1858486,19.4285 L11.1283351,19.4285 L11.1200108,19.3375 L11.0435784,19.1440294 L10.9580649,19.0163235 L10.892227,18.9696765 L10.8157946,18.7762059 L10.6742811,18.7494412 L10.5706054,18.5559706 L10.5130919,18.4642059 L10.3715784,18.3724412 L10.3428216,18.2432059 L10.1634703,18.1047941 L10.0597946,17.8845588 L9.91752432,17.6819118 L9.74725405,17.4525 L9.79417297,17.7568529 L9.78509189,18.0046176 L9.75784865,18.2256176 L9.73741622,18.3640294 C9.74725405,18.3724412 9.75784865,18.3808529 9.75784865,18.3808529 L9.75784865,18.4825588 L9.75784865,18.8045 L9.7359027,18.8037353 L9.7359027,18.7027941 L9.7359027,18.4825588 L9.7359027,18.3816176 L9.7359027,18.3640294 L9.7359027,18.3357353 L9.72757838,18.3273235 L9.6904973,18.2799118 L9.63374054,18.1422647 L9.58606486,18.0405588 L9.52022703,17.9587353 L9.41655135,17.8386765 L9.41579459,17.8478529 L9.37795676,17.8027353 L9.29395676,17.7017941 L9.25460541,17.5817353 L9.11384865,17.5450294 L9.00941622,17.3882647 L8.93752432,17.3615 L8.90347027,17.5725588 L8.90347027,17.7660294 L8.89060541,17.9587353 L8.90271351,18.1047941 L8.94206486,18.2707353 L8.82855135,18.2906176 L8.85730811,18.4275 L8.85730811,18.6660882 L8.85806486,18.8228529 L8.96098378,19.0622059 L9.00487568,19.2640882 L9.02455135,19.3925588 L9.14033514,19.5860294 L9.18801081,19.6877353 L9.3492,20.1106176 L9.3492,20.1197941 L9.22660541,20.0639706 L9.07525405,19.9546176 L8.88606486,19.8437353 L8.77255135,19.8062647 L8.66584865,19.7764412 L8.61287568,19.7236765 L8.46984865,19.5026765 L8.38509189,19.4208529 L8.29201081,19.3757353 L8.3184973,19.2197353 L8.43125405,19.0392647 L8.57730811,18.7708529 L8.62574054,18.5659118 L8.62574054,18.5559706 L8.6719027,18.5368529 L8.6719027,18.4091471 L8.6719027,18.1613824 L8.6719027,17.8845588 L8.73168649,17.6658529 L8.76271351,17.5373824 L8.75363243,17.5373824 L8.71806486,17.4624412 L8.71806486,17.2972647 L8.64692973,17.1129706 L8.62952432,16.9562059 L8.55914595,16.7635 L8.52357838,16.5157353 L8.44033514,16.5883824 L8.41309189,16.7176176 L8.34574054,16.8177941 L8.24963243,16.8743824 L8.20952432,16.9653824 L8.20952432,17.1313235 L8.18379459,17.2131471 L8.13763243,17.2865588 L8.10509189,17.3798529 L8.04076757,17.5175 L8.00217297,17.6184412 L7.88638919,17.7660294 L7.88638919,17.8654412 C7.85006486,17.7407941 7.74260541,17.6452059 7.6184973,17.6452059 C7.45730811,17.6452059 7.33471351,17.7843824 7.33471351,17.9495588 C7.33471351,18.0321471 7.37255135,18.1124412 7.42779459,18.1675 L7.39071351,18.2799118 L7.37255135,18.4091471 L7.37255135,18.5223235 L7.32487568,18.5299706 L7.32411892,18.5200294 L7.32487568,18.5200294 L7.28703784,18.4458529 L7.21136216,18.0229706 L7.23103784,17.8478529 L7.29763243,17.8027353 L7.34455135,17.7186176 L7.43838919,17.6000882 L7.57157838,17.5542059 L7.57157838,17.4265 L7.6464973,17.2697353 L7.71309189,17.2139118 L7.76984865,17.0762647 L7.82736216,16.9837353 L7.80768649,16.9019118 L7.87428108,16.8644412 L7.94011892,16.6809118 L8.00595676,16.5157353 L7.97795676,16.4132647 L7.94995676,16.2947353 L7.94011892,16.2396765 L7.96811892,16.0829118 L7.96811892,15.8443235 L7.96811892,15.6516176 L7.97795676,15.4030882 L7.95903784,15.2845588 L7.93028108,15.1461471 L7.85460541,15.0077353 L7.80768649,14.8693235 L7.80768649,14.7676176 L7.73125405,14.6773824 L7.69417297,14.4196765 L7.57157838,14.6131471 L7.48606486,14.7592059 L7.29763243,14.8785 L7.21136216,14.9710294 L7.20152432,14.9855588 L7.18336216,14.8884412 L7.14476757,14.7584412 L7.03201081,14.3730294 L6.98509189,14.0052059 L6.98509189,13.6748529 L6.76638919,13.9600882 L6.6052,14.1986765 L6.4652,14.3837353 L6.37968649,14.6299706 L6.27374054,14.8693235 L6.28357838,14.8884412 L6.34109189,15.0627941 L6.34109189,15.3021471 L6.34109189,15.6149118 L6.28357838,15.9269118 L6.25633514,16.2022059 L6.27071351,15.9269118 L6.31384865,15.6149118 L6.31384865,15.3013824 L6.31384865,15.0627941 L6.27071351,14.8892059 L6.19276757,14.7140882 L6.18595676,14.6857941 C6.18595676,14.6773824 6.19730811,14.5947941 6.19730811,14.5947941 L6.1519027,14.4196765 L6.11255135,14.2912059 L6.03838919,14.1252647 L5.98087568,14.0159118 L5.85828108,13.7757941 L5.77276757,13.6373824 L5.63201081,13.4454412 L5.65017297,13.4637941 L5.46098378,13.0592647 L5.3732,13.3162059 L5.24909189,13.5012647 L5.24909189,13.6656765 L5.20292973,13.8499706 L5.20292973,14.0327353 L5.1719027,14.2361471 L5.20292973,14.4196765 L5.22336216,14.7232647 L5.21957838,14.9618529 L5.23168649,15.2478529 L5.24228108,15.4030882 L5.26347027,15.5361471 C5.23774054,15.4726765 5.21201081,15.4130294 5.18703784,15.3472647 L4.87525405,14.4655588 L4.94033514,14.1436176 L4.78065946,13.9409706 L4.74206486,13.8033235 L4.74055135,13.8010294 L4.75114595,13.7574412 L4.78065946,13.5823235 L4.83665946,13.3705 L4.86692973,13.2458529 L4.90401081,13.2611471 C4.93276757,13.2703235 4.96001081,13.2703235 4.98952432,13.2703235 C5.17795676,13.2703235 5.33914595,13.1334412 5.33914595,12.9583235 C5.33914595,12.7916176 5.17795676,12.6447941 4.98952432,12.6447941 C4.79957838,12.6447941 4.6399027,12.7916176 4.6399027,12.9583235 C4.6399027,13.0623235 4.71103784,13.1533235 4.80336216,13.2068529 L4.7904973,13.2703235 L4.73298378,13.4270882 L4.69514595,13.5731471 L4.68530811,13.6840294 L4.68303784,13.7008529 L4.64141622,13.6289706 L4.59752432,13.4003235 L4.53244324,13.1235 L4.50974054,12.8382647 L4.50898378,12.8359706 L4.57557838,12.7457353 L4.7012,12.6363824 L4.9864973,12.5889706 L5.21428108,12.4887941 L5.56541622,12.2960882 L5.85071351,12.0835 L5.85071351,12.0773824 L6.00130811,11.9925 L6.2132,11.7806765 L6.34411892,11.5696176 L6.51741622,11.2484412 L6.61428108,11.0006765 L6.63395676,10.6779706 C6.64984865,10.5365 6.68163243,10.3805 6.70811892,10.2298529 C6.70584865,10.2336765 6.70357838,10.2382647 6.70055135,10.2420882 L6.70055135,10.2367353 C6.70282162,10.2329118 6.70660541,10.2290882 6.70887568,10.2245 C6.71341622,10.2015588 6.71644324,10.1778529 6.72022703,10.1549118 C6.71644324,10.1625588 6.68238919,10.1709706 6.68238919,10.1786176 L6.68238919,10.1549118 L6.62638919,10.2260294 L6.46974054,10.2841471 L6.31536216,10.3927353 L6.12011892,10.4936765 L5.98087568,10.5938529 L6.09514595,10.4294412 L6.33276757,10.0073235 L6.45460541,9.55691176 L6.5492,9.20667647 L6.67784865,8.87555882 L6.68163243,8.8725 L6.72022703,8.79679412 L6.71265946,8.79679412 L6.72022703,8.77767647 L6.71038919,8.79679412 L6.70736216,8.79755882 L6.71038919,8.78608824 L6.68163243,8.7945 L6.39784865,8.93214706 L6.11406486,9.09426471 L6.00963243,9.2625 L5.85828108,9.2625 L5.73568649,9.36038235 L5.64033514,9.35732353 L5.51774054,9.45061765 L5.46174054,9.54467647 L5.37622703,9.54467647 L5.15828108,9.64714706 L5.05460541,9.70220588 L5.04552432,9.78097059 L4.92898378,9.80620588 L4.83363243,9.87808824 L4.83363243,9.90179412 L4.82530811,9.59361765 L4.73147027,9.27091176 L4.71330811,9.03155882 L4.65579459,8.81667647 L4.69514595,8.77461765 L4.76098378,8.70961765 L4.89038919,8.70961765 C4.94109189,8.83273529 5.0599027,8.92220588 5.19687568,8.92220588 C5.37622703,8.92220588 5.52757838,8.76620588 5.52757838,8.58191176 C5.52757838,8.38920588 5.37622703,8.24161765 5.19687568,8.24161765 C5.01601081,8.24161765 4.86465946,8.38920588 4.86465946,8.58191176 C4.86465946,8.58191176 4.86465946,8.58191176 4.86465946,8.58191176 L4.86465946,8.56355882 L4.80865946,8.58191176 L4.71482162,8.65455882 L4.63309189,8.73408824 L4.50898378,8.29744118 L4.50898378,8.37008824 L4.49838919,8.33414706 L4.36444324,8.61938235 L4.27892973,8.70961765 L4.21157838,8.94055882 C4.13665946,8.95967647 4.1079027,9.15238235 4.1079027,9.15238235 L4.01406486,9.16920588 L3.99438919,9.37261765 L3.92930811,9.38179412 L3.81503784,9.72285294 L3.7492,9.96908824 L3.77795676,10.0425 L3.70303784,10.1908529 L3.67655135,10.4210294 L3.61298378,10.2573824 L3.63795676,10.3193235 L3.67655135,10.4026765 L3.67655135,10.3659706 L3.6424973,10.3009706 L3.60314595,10.2405588 L3.57514595,10.1824412 L3.39730811,9.90561765 L3.27547027,9.66626471 L3.03936216,9.45520588 L2.84941622,9.27091176 L2.67914595,9.09732353 L2.53611892,8.97114706 L2.45438919,8.83273529 L2.45363243,8.83044118 L2.47179459,8.84802941 L2.46195676,8.83044118 L2.30984865,8.74708824 L2.23492973,8.67291176 L2.10174054,8.64614706 L1.80887568,8.39914706 L1.7892,8.54367647 L1.81871351,8.78379412 L1.86638919,9.11414706 L1.99882162,9.30761765 L1.98898378,9.38179412 L2.0359027,9.48273529 L2.02606486,9.66626471 L2.06465946,9.80391176 L2.0744973,9.87808824 L2.18801081,9.99738235 L2.23492973,10.1075 L2.20617297,10.2260294 L2.29168649,10.3476176 L2.34768649,10.4936765 L2.37795676,10.5265588 L2.08433514,10.4118529 L1.92314595,10.3659706 L1.72487568,10.2910294 L1.46001081,10.2550882 L1.34725405,10.2459118 L1.18606486,10.2459118 L1.04379459,10.2459118 L0.910605405,10.2191471 L0.75092973,10.1625588 L0.614713514,10.1434412 L0.608659459,10.1380882 L0.399794595,10.0906765 L0.428551351,10.1824412 L0.554172973,10.3743824 L0.669956757,10.5762647 L0.669956757,10.6320882 L0.847037838,10.8347353 L1.06347027,11.0266765 L1.27687568,11.2193824 L1.47665946,11.3769118 L1.59168649,11.5329118 L1.68628108,11.5604412 L1.77179459,11.6606176 L1.88530811,11.7248529 L1.9799027,11.7531471 L2.08433514,11.8082059 L2.21676757,11.8999706 L2.33028108,11.9741471 L2.46271351,12.0475588 L2.67082162,12.0942059 L2.75633514,12.1584412 L2.79417297,12.1943824 L2.90768649,12.2410294 L2.99244324,12.3045 L3.14379459,12.3962647 L3.25806486,12.3962647 L3.46617297,12.4605 L3.6652,12.4895588 L3.86347027,12.6493824 L4.05265946,12.7946765 L4.37579459,13.1449118 L4.38336216,13.3070294 L4.46811892,13.6748529 L4.46811892,13.6832647 L4.40228108,13.6289706 L4.31601081,13.5280294 L4.30465946,13.5188529 L4.31752432,13.5012647 C4.35536216,13.4546176 4.37428108,13.3995588 4.37428108,13.3345588 C4.37428108,13.1701471 4.22292973,13.0317353 4.03298378,13.0317353 C3.84455135,13.0317353 3.68336216,13.1701471 3.68336216,13.3345588 C3.68336216,13.5089118 3.84455135,13.6473235 4.03298378,13.6473235 C4.12076757,13.6473235 4.19644324,13.6213235 4.2532,13.5754412 L4.32660541,13.6381471 L4.42044324,13.7299118 L4.4772,13.8071471 L4.47795676,13.8132647 L4.48628108,14.0617941 L4.60055135,14.2820294 L4.63309189,14.4602059 L4.58087568,14.4196765 L4.45903784,14.2820294 L4.33568649,14.1711471 L4.15557838,14.0327353 L4.02011892,13.9899118 L4.02465946,13.9776765 C4.02465946,13.9608529 4.03298378,13.9317941 4.03298378,13.9134412 C4.03298378,13.7390882 3.87330811,13.6006765 3.68336216,13.6006765 C3.50325405,13.6006765 3.34357838,13.7390882 3.34357838,13.9134412 C3.34357838,14.0885588 3.50325405,14.2262059 3.68336216,14.2262059 C3.81957838,14.2262059 3.92552432,14.1573824 3.98530811,14.0625588 L4.03222703,14.0793824 L4.19341622,14.1895 L4.39168649,14.3279118 L4.57179459,14.4930882 L4.66638919,14.6032059 L4.67395676,14.6108529 L4.68228108,14.6406765 L4.88357838,15.2738529 L5.26271351,16.0561471 L5.00768649,15.7808529 L4.8464973,15.6149118 L4.74206486,15.4673235 L4.62855135,15.4130294 L4.45903784,15.1912647 L4.31676757,15.0444412 L4.18357838,15.0169118 L4.03222703,14.8976176 L3.88087568,14.8693235 L3.75828108,14.7507941 L3.63492973,14.7416176 L3.35114595,14.5573235 L3.22779459,14.5573235 L3.00152432,14.5573235 L2.75482162,14.4831471 L2.48087568,14.3554412 L2.17741622,14.3279118 L1.97914595,14.2912059 L1.66736216,14.2713235 L1.78087568,14.3745588 L1.90347027,14.5389706 L1.99882162,14.7041471 L2.11157838,14.8142647 L2.20617297,14.8976176 L2.32876757,15.0444412 L2.42336216,15.2279706 L2.48087568,15.3296765 L2.57547027,15.4030882 L2.6519027,15.5132059 L2.76465946,15.6149118 L2.86001081,15.7808529 L2.98184865,15.8076176 L3.13395676,15.9460294 L3.20963243,16.0469706 L3.37157838,16.1112059 L3.53125405,16.2396765 L3.71968649,16.2947353 L3.82563243,16.2947353 L3.97698378,16.4423235 L4.25092973,16.4515 L4.51503784,16.4515 L4.67622703,16.5065588 L4.89341622,16.5065588 L5.14011892,16.4790294 L5.37622703,16.5432647 L5.49806486,16.5860882 L5.49882162,16.5883824 L5.58433514,16.6893235 L5.81136216,16.9562059 L6.03838919,17.1955588 L6.16098378,17.4257353 L6.31233514,17.5175 L6.45460541,17.7385 L6.57795676,17.9212647 L6.68163243,18.0229706 L6.8519027,18.1980882 L6.87611892,18.2317353 L6.86098378,18.2531471 L6.71114595,18.1797353 L6.58628108,18.1047941 L6.47352432,17.9686765 L6.33201081,17.8386765 L6.27374054,17.7660294 L6.16098378,17.6452059 L6.09514595,17.5725588 L5.99147027,17.4723824 L5.8772,17.4265 L5.76368649,17.3232647 L5.67968649,17.3156176 L5.5464973,17.2513824 L5.38606486,17.1045588 L5.22411892,17.1045588 L5.13028108,17.0204412 L4.98725405,17.0112647 L4.86465946,16.9653824 L4.68455135,16.9095588 L4.48628108,16.8927353 L4.4212,16.9470294 L4.24033514,16.9386176 L4.0239027,16.8827941 L3.79611892,16.8453235 L3.66444324,16.8545 L3.39882162,16.8927353 L3.15287568,16.8927353 L2.96292973,16.8285 L2.79341622,16.8644412 L2.59438919,16.8453235 L2.70865946,16.9569706 L2.74574054,17.0204412 L2.86833514,17.0846765 L2.95384865,17.2773824 L3.04844324,17.3798529 L3.11503784,17.4349118 L3.12487568,17.4983824 L3.25655135,17.5542059 L3.28530811,17.6367941 L3.39882162,17.7469118 L3.51233514,17.7744412 L3.62509189,17.9495588 L3.76811892,17.9954412 L3.90963243,18.1147353 L4.15557838,18.1889118 L4.23201081,18.2347941 L4.4492,18.2997941 L4.62930811,18.3816176 L4.85557838,18.4091471 L5.01601081,18.4458529 L5.1492,18.4458529 L5.24303784,18.4275 L5.4519027,18.4275 L5.53665946,18.3999706 L5.76368649,18.4275 L5.84011892,18.3816176 L5.98087568,18.3640294 L6.17157838,18.2997941 L6.48336216,18.2997941 L6.74747027,18.3349706 L6.98509189,18.4458529 L7.10692973,18.5299706 L7.22044324,18.5750882 L7.2439027,18.5628529 L7.22044324,18.5750882 L7.10692973,18.5299706 L7.02217297,18.6110294 L7.06909189,18.6660882 L7.16444324,18.7762059 L7.29763243,18.8687353 L7.51482162,19.0056176 L7.60411892,19.1035 L7.58974054,19.0981471 L7.42930811,19.0339118 L7.23028108,18.9704412 L7.06984865,18.9329706 C7.06984865,18.9237941 7.07892973,18.9146176 7.07892973,18.8962647 C7.07892973,18.7226765 6.93741622,18.5842647 6.76638919,18.5842647 C6.59687568,18.5842647 6.45460541,18.7226765 6.45460541,18.8962647 C6.45460541,19.0706176 6.59687568,19.2182059 6.76638919,19.2182059 C6.89882162,19.2182059 7.01233514,19.1272059 7.0584973,19.0079118 L7.27795676,19.0706176 L7.58065946,19.1822647 L7.70703784,19.2036765 L7.94011892,19.4208529 L8.07330811,19.5760882 L8.10055135,19.5860294 L8.24206486,19.6311471 L8.09071351,19.6173824 L7.98703784,19.5936765 L7.80692973,19.5936765 L7.72292973,19.5279118 L7.56174054,19.4537353 L7.4959027,19.4537353 L7.36347027,19.4537353 L7.23028108,19.4537353 L7.16444324,19.3948529 L6.99341622,19.4208529 L6.84206486,19.4537353 L6.64379459,19.4537353 L6.52044324,19.4078529 L6.36984865,19.4078529 L6.25633514,19.4040294 L6.1239027,19.3810882 L6.35092973,19.6066765 L6.44476757,19.6793235 L6.50228108,19.7802647 L6.71038919,19.8987941 L6.8519027,19.9997353 L6.8904973,20.0639706 L6.95633514,20.1465588 L7.13568649,20.1939706 L7.29763243,20.4356176 L7.42930811,20.4356176 L7.48530811,20.5518529 L7.6464973,20.6849118 L7.82736216,20.7384412 L7.92271351,20.8179706 L7.60941622,20.8737941 L7.4959027,20.9005588 L7.29763243,20.9747353 L7.18336216,20.9831471 L7.03201081,21.0473824 L6.89882162,21.1024412 L6.71038919,21.1766176 L6.46444324,21.2859706 L6.1799027,21.3869118 L6.03838919,21.4442647 L5.86811892,21.4610882 L6.10498378,21.5520882 L6.28433514,21.6446176 L6.48411892,21.6545588 L6.73914595,21.7371471 L6.86098378,21.7555 L7.01309189,21.8388529 L7.26887568,21.9206765 L7.37330811,21.9206765 L7.58065946,21.9856765 L7.73125405,21.9948529 L7.94995676,21.9948529 L8.08238919,22.0132059 L8.30941622,22.0132059 L8.44109189,21.9115 L8.71655135,21.8839706 L8.83838919,21.8472647 L8.96174054,21.7746176 L9.10401081,21.7272059 L9.20768649,21.7103824 L9.30152432,21.6629706 L9.41655135,21.5153824 L9.53082162,21.4610882 L9.63374054,21.4152059 L9.76617297,21.3792647 L9.83201081,21.2966765 L10.0877946,21.1850294 L10.1634703,21.1674412 L10.4184973,21.2951471 L10.6167676,21.3968529 L10.6644432,21.4243824 L10.6553622,21.4335588 L10.5327676,21.4794412 L10.3526595,21.5260882 L10.1256324,21.5345 L10.1157946,21.5903235 L9.97428108,21.6446176 L9.70033514,21.7746176 L9.56714595,21.8289118 L9.36887568,21.9390294 L9.20768649,22.0407353 L9.11309189,22.0965588 L9.03817297,22.2609706 L8.84822703,22.3259706 L8.76347027,22.4636176 L8.61211892,22.5913235 L8.55536216,22.6838529 L8.43201081,22.8130882 L8.34725405,22.9040882 L8.28974054,23.0340882 L8.18606486,23.1526176 L8.09147027,23.2352059 L8.05287568,23.3552647 L7.97795676,23.5112647 L8.17698378,23.4845 L8.34725405,23.4370882 L8.5652,23.3919706 L8.64995676,23.3460882 L8.75363243,23.3369118 L8.83838919,23.3185588 L8.98974054,23.2910294 L9.07525405,23.2352059 L9.27503784,23.2076765 L9.36887568,23.1801471 L9.47255135,23.0975588 L9.60498378,23.1059706 L9.70033514,23.0417353 L9.84260541,22.9782647 L9.92736216,22.9323824 L10.0219568,22.9140294 L10.1445514,22.7756176 L10.2399027,22.6838529 L10.3239027,22.6463824 L10.494173,22.5278529 L10.5327676,22.3993824 L10.5698486,22.2326765 C10.7416324,22.0040294 10.7597946,21.8388529 10.7499568,21.5260882 L10.7968757,21.4610882 L10.7787135,21.4886176 L10.8157946,21.5085 L10.948227,21.6086765 L11.480227,21.8166765 L11.4696324,21.8289118 L11.4219568,21.9115 L11.4219568,21.9673235 C11.2327676,21.9673235 11.0814162,22.1225588 11.0814162,22.3160294 C11.0814162,22.5087353 11.2327676,22.6655 11.4317946,22.6655 C11.6194703,22.6655 11.7814162,22.5087353 11.7814162,22.3160294 C11.7814162,22.1516176 11.6694162,22.0063235 11.5097405,21.9765 L11.5067135,21.9390294 L11.5437946,21.8755588 L11.7814162,22.0223824 L12.1022811,22.1325 L12.2543892,22.2609706 C12.5949297,22.3343824 12.9067135,22.4452647 13.2200108,22.5913235 L13.4084432,22.6020294 L13.4084432,22.5913235 L13.4084432,22.5913235 L13.4674703,22.8276176 L13.4273622,22.6746765 L13.3229297,22.6838529 L13.0588216,22.7572647 L12.7092,22.8390882 L12.3777405,22.8956765 L11.9524432,22.9407941 L11.9327676,22.9407941 L11.9524432,22.9599118 L12.0652,23.2803235 L12.1688757,23.2535588 L12.3588216,23.2344412 L12.6047676,23.2168529 L12.7750378,23.2084412 L12.8499568,23.1067353 L12.9914703,23.1067353 L13.1715784,23.0233824 L13.4727676,22.8696765 L13.4372,23.0142059 L13.3615243,23.2443824 L13.1723351,23.5663235 L12.9543892,23.9440882 L12.6804432,24.3195588 L12.5003351,24.5581471 L12.4904973,24.5680882 L12.4155784,24.5046176 L12.3391459,24.2927941 L12.2263892,23.9616765 L12.1507135,23.6955588 L12.1030378,23.5112647 L12.0652,23.3002059 L11.9418486,22.9683235 C11.8949297,22.8306765 11.8192541,22.7939706 11.7254162,22.8222647 C11.4779568,22.9040882 11.2327676,22.9323824 10.9103892,22.9323824 C10.8263892,22.9323824 10.808227,23.0929706 10.7976324,23.1411471 C10.7635784,23.1426765 10.7302811,23.1465 10.6932,23.1434412 C10.3814162,23.1067353 10.3526595,23.1258529 10.136227,23.3369118 C9.97428108,23.4936765 9.88876757,23.6305588 9.75784865,23.7965 L9.57698378,24.0266765 L9.39687568,24.2568529 L9.6064973,24.1000882 C9.82368649,23.9517353 10.0302811,23.8148529 10.3057405,23.7781471 C10.3428216,23.7781471 10.5615243,23.6764412 10.5615243,23.6764412 L10.6742811,23.6030294 L10.7317946,23.5663235 L10.7408757,23.5663235 L10.7499568,23.7322647 L10.7310378,24.0075588 C10.7212,24.2102059 10.6273622,24.4396176 10.5327676,24.5872059 C10.4290919,24.7898529 10.2671459,24.8257941 10.2103892,25.0919118 C10.6167676,24.9542647 10.8725514,24.8900294 10.9860649,24.6965588 L10.9860649,24.8166176 C10.9959027,24.9909706 11.2138486,25.1745 11.222173,25.4421471 C11.3182811,25.2387353 11.2986054,24.9275 11.4492,24.6690294 L11.5067135,24.5680882 L11.6293081,24.6965588 L11.7435784,24.8074412 L11.838173,24.8441471 L11.9418486,24.8441471 L11.8699568,24.8265588 L11.9895243,24.8540882 L12.2165514,24.8625 L12.3966595,24.8716765 L12.6706054,24.8992059 L12.8885514,24.8992059 L13.0489838,24.8900294 L13.1526595,24.8074412 L13.3426054,24.6239118 L13.5597946,24.3570294 L13.7217405,24.1459706 L13.7966595,24.0274412 L13.8435784,23.8523235 L13.8534162,23.7139118 L13.8624973,23.5571471 L13.8624973,23.4195 L13.8624973,23.2076765 L13.8624973,23.0830294 L13.9010919,23.0792059 L13.9374162,23.0891471 C13.9578486,23.4370882 14.0138486,23.7781471 14.0426054,24.1268529 C14.0426054,24.2193824 14.3453081,24.6055588 14.4777405,24.7982647 C14.610173,25.0368529 14.8084432,24.8716765 15.0543892,24.9091471 C15.2723351,24.9450882 15.3578486,24.9993824 15.5659568,24.8992059 L15.6234703,24.8617353 L15.6121189,24.8602059 L15.6227135,24.8540882 L15.8028216,24.5497353 L15.954173,24.0817353 L16.0200108,23.8974412 C16.1524432,24.0916765 16.1524432,24.4212647 16.2099568,24.6598529 C16.2568757,24.8441471 16.5595784,24.9902059 16.626173,25.4237941 C16.6730919,25.2769706 16.9667135,25.0643824 16.9848757,24.9175588 C17.2504973,24.9458529 17.5426054,24.9083824 17.7885514,25.0009118 C17.6674703,24.7332647 17.4389297,24.6407353 17.2217405,24.4855 C17.1649838,24.4487941 17.136227,24.0113824 17.0620649,23.7712647 L17.2686595,23.8431471 L17.3920108,23.8783235 L17.3920108,23.8783235 L17.5062811,23.8966765 L17.752227,23.9333824 L17.9504973,24.0167353 L18.2622811,24.1184412 L18.1010919,23.9708529 L17.9588216,23.8783235 L17.7983892,23.7506176 L17.7045514,23.6580882 L17.6084432,23.5013235 L17.5146054,23.4095588 L17.3632541,23.2910294 L17.2875784,23.2726765 L17.1468216,23.2642647 L16.9636865,23.2183824 L16.9644432,23.2183824 L16.9576324,23.2168529 L16.9576324,23.2168529 L16.9568757,23.2168529 L16.9576324,23.2191471 L16.8524432,23.2275588 L16.8047676,23.2275588 L16.7669297,23.0891471 C16.738173,22.9683235 16.464227,22.9323824 16.3325514,22.9323824 C16.0964432,22.9323824 15.9443351,22.8956765 15.7173081,22.8390882 C15.5856324,22.8130882 15.5372,22.7679706 15.4796865,22.8956765 L15.4532,22.9599118 L15.4524432,22.9599118 L15.3858486,22.9224412 C15.1777405,22.8681471 14.9696324,22.8130882 14.7706054,22.7679706 L14.6480108,22.6930294 L14.4966595,22.6295588 L14.4777405,22.6196176 L14.610173,22.5729706 L14.8947135,22.5003235 L15.1308216,22.4269118 L15.2814162,22.3527353 L15.5001189,22.3259706 L15.6128757,22.2426176 L15.8126595,22.1409118 L15.764227,22.1325 L15.764227,22.1325 L15.8497405,22.1409118 L15.9254162,22.1607941 L16.0010919,22.1875588 C15.9443351,22.3343824 16.0010919,22.5278529 16.1622811,22.6655 C16.3507135,22.8306765 16.6163351,22.8490294 16.7389297,22.7113824 C16.8622811,22.5645588 16.8047676,22.3259706 16.6163351,22.1607941 C16.4271459,22.0040294 16.1713622,21.9856765 16.0480108,22.1240882 L16.0669297,22.1409118 L15.9723351,22.0957941 L15.8868216,22.0590882 L15.7997946,22.0499118 L15.8868216,22.0590882 L15.9064973,22.0315588 L16.0200108,21.9856765 L16.1993622,21.9390294 L16.3136324,21.9107353 L16.4937405,21.8388529 L16.5005514,21.8304412 L16.5308216,21.8388529 L16.7207676,21.9115 C16.9848757,22.0132059 17.6273622,22.4269118 18.5271459,22.5370294 C19.0485514,22.6020294 19.5775243,22.6096765 20.0792541,22.7297353 C19.6630378,22.4544412 19.0568757,22.1699706 18.5657405,22.0223824 C18.4643351,21.9925588 18.3674703,21.9688529 18.2728757,21.9474412 C18.3008757,21.8640882 18.3023892,21.7723235 18.2592541,21.6775 C18.4915784,21.8579706 18.7344973,22.0239118 19.0099568,22.1325 C19.5964432,22.3726176 20.1829297,22.5553824 20.8163351,22.5821471 C20.2767676,22.2885 19.8234703,21.8472647 19.2839027,21.5520882 C18.8026054,21.2775588 18.4514703,21.2966765 17.9028216,21.2133235 L17.7734162,21.1269118 L17.8074703,21.1475588 L17.9217405,21.0840882 L18.0897405,21.0305588 L18.2055243,21.0565588 L18.2812,21.0382059 L18.3939568,20.9831471 L18.5271459,20.8539118 L18.6504973,20.7896765 L18.816227,20.7193235 L18.7829297,20.7353824 L18.8109297,20.7713235 L19.0379568,20.9365 C19.4360108,21.1674412 19.8045514,21.4152059 20.2404432,21.5719706 C20.6846595,21.7379118 21.1288757,21.7646765 21.5836865,21.8839706 C21.2045514,21.5895588 20.7784973,21.3234412 20.3532,21.0848529 C20.0875784,20.9365 19.8514703,20.8462647 19.5578486,20.7529706 L19.2937405,20.6612059 L18.9910378,20.6153235 L18.9713622,20.6245 L18.928227,20.6512647 L18.9713622,20.6245 L19.1317946,20.5013824 L19.0099568,20.5969706 L19.2089838,20.6336765 L19.4632541,20.6612059 L19.7477946,20.6711471 C20.3062811,20.6979118 20.8640108,20.6512647 21.4323351,20.5793824 C21.8107135,20.5227941 22.1890919,20.4585588 22.5576324,20.3576176 C22.1035784,20.2842059 21.6389297,20.2215 21.1856324,20.1832647 C20.6468216,20.1465588 20.1163351,20.1557353 19.5866054,20.1649118 L19.4163351,20.3125 L19.3641189,20.3461471 L19.4163351,20.3125 L19.5964432,20.1557353 C19.7757946,19.9714412 19.936227,19.8337941 20.0792541,19.6135588 L20.1064973,19.5722647 L20.0875784,19.6036176 L20.1163351,19.6036176 L20.2018486,19.6143235 L20.2116865,19.6143235 C20.2018486,19.7978529 20.3728757,19.9729706 20.608227,20.0096765 C20.854173,20.0555588 21.0812,19.9255588 21.1197946,19.7328529 C21.1477946,19.5393824 20.9684432,19.3466765 20.7224973,19.3099706 C20.5045514,19.2732647 20.3062811,19.3558529 20.2396865,19.5026765 L20.2306054,19.5026765 L20.1594703,19.4935 L20.1829297,19.4575588 L20.3062811,19.1822647 L20.4099568,18.9421471 L20.4424973,18.8687353 L20.4387135,18.8779118 L20.5893081,18.9788529 L20.8254162,19.1822647 C21.3180649,19.4208529 21.7637946,19.6127941 22.2920108,19.7603824 C22.6416324,19.8521471 22.9927676,19.9622647 23.3423892,20.0356765 C23.0684432,19.7970882 22.7846595,19.5393824 22.4713622,19.3558529 L22.0097405,19.0981471 L21.8303892,18.9712059 L22.3026054,18.9880294 C22.9556865,18.9054412 23.6549297,18.8045 24.2504973,18.5292059 C23.5512541,18.4275 23.0026054,18.2630882 22.1974162,18.2630882 C21.6207676,18.2997941 21.0819568,18.4550294 20.5423892,18.6485 L20.5295243,18.6485 L20.5507135,18.5315 L20.7883351,18.3540882 L20.9495243,18.1613824 L21.0539568,18.0046176 L21.1667135,17.8111471 L21.3271459,17.7201471 C21.7252,17.6092647 22.1323351,17.5542059 22.5205514,17.3982059 L23.1070378,17.1680294 C23.8168757,16.8743824 24.4222811,16.3681471 24.9134162,15.8535 C24.1664973,16.0179118 23.5414162,16.1196176 22.9458486,16.4423235 C22.5205514,16.6717353 22.1224973,16.9103235 21.7827135,17.2414412 L21.6306054,17.3423824 L21.5352541,17.3982059 L21.5935243,17.2506176 L21.6207676,17.1412647 L21.7910378,16.9837353 L21.9613081,16.8460882 C22.1784973,16.6992647 22.3586054,16.5432647 22.5576324,16.3872647 C22.9640108,16.0821471 23.2485514,15.7808529 23.5414162,15.3656176 C23.9667135,14.7683824 24.1566595,14.2262059 24.3738486,13.5280294 C24.2527676,13.6511471 24.136227,13.7765588 24.0166595,13.9004412 C24.0537405,13.8079118 24.0605514,13.7123235 24.0287676,13.6305 L23.9818486,13.5670294 C23.8592541,13.4286176 23.6034703,13.4469706 23.4135243,13.6037353 C23.2879027,13.7146176 23.2266054,13.8568529 23.2334162,13.9837941 L23.2296324,13.9868529 L23.1622811,14.0793824 L23.0972,14.1252647 L23.1161189,14.0526176 L23.1622811,13.9516765 L23.2099568,13.8675588 L23.2576324,13.8033235 L23.2954703,13.7383235 L23.3060649,13.6473235 L23.3809838,13.5731471 L23.4657405,13.4722059 L23.5610919,13.4270882 L23.6927676,13.3345588 L23.7972,13.2886765 C24.2414162,13.0867941 24.6205514,12.9025 25.0178486,12.6180294 C25.5097405,12.2769706 25.8404432,11.7898529 26.2097405,11.3210882 L26.124227,11.3585588 C25.2728757,11.7523824 24.2709297,12.2310882 23.7593622,12.9116765 L23.5800108,13.1502647 L23.4279027,13.3705 L23.3060649,13.5196176 L23.2205514,13.6098529 L23.2387135,13.4913235 L23.2674703,13.3345588 L23.3060649,13.2427941 L23.3613081,13.1502647 L23.3900649,13.0684412 L23.3999027,12.8933235 L23.3999027,12.6906765 L23.4846595,12.5897353 L23.570173,12.4612647 L23.6738486,12.3511471 C23.6738486,12.3511471 23.7184973,12.3060294 23.7495243,12.2731471 L23.7495243,12.2769706 C23.8728757,12.4062059 24.1279027,12.3878529 24.3178486,12.2226765 C24.5062811,12.0575 24.5637946,11.8173824 24.4404432,11.6889118 C24.3178486,11.5512647 24.0620649,11.5787941 23.8728757,11.7447353 C23.7207676,11.8739706 23.6549297,12.0659118 23.7124432,12.2043235 L23.7487676,12.1775588 L23.6738486,12.2410294 L23.5898486,12.3327941 L23.4846595,12.4520882 L23.3999027,12.5897353 L23.3719027,12.5996765 L23.3719027,12.6539706 L23.3711459,12.6539706 L23.3711459,12.4887941 L23.4188216,12.3136765 L23.5035784,12.0835 L23.6072541,11.8999706 L23.7790378,11.6606176 L23.8070378,11.5420882 L23.8168757,11.4312059 C24.0726595,11.2193824 24.2989297,11.1008529 24.6394703,11.0366176 C24.8188216,11.0083235 26.0954703,11.1107941 27.4311459,9.62114706 C26.2664973,9.85973529 24.9134162,10.1717353 24.1566595,10.9899706 L23.7744973,11.3837941 L23.8350378,11.3210882 L23.8721189,11.2109706 L23.9773081,11.0358529 L24.1377405,10.8714412 L24.3367676,10.6596176 C24.5448757,10.3835588 24.7991459,10.0983235 24.9890919,9.80467647 C25.3674703,9.1065 25.4053081,8.66526471 25.5672541,7.91967647 C25.0927676,8.42514706 24.6674703,9.1065 24.3458486,9.7305 L24.1854162,10.0165 C24.1279027,10.1717353 24.0809838,10.3101471 24.0340649,10.4653824 L23.9296324,10.6871471 L23.8539568,10.8607353 L23.8259568,10.9532647 L23.7684432,11.1008529 L23.7404432,11.2392647 L23.7124432,11.3585588 Z M21.498173,18.9497941 L21.8008757,18.9696765 L21.8076865,18.9704412 L21.8001189,18.9704412 L21.498173,18.9497941 Z M14.4050919,22.9392647 L14.4406595,22.9507353 L15.064227,23.1617941 L15.3192541,23.2344412 L15.3003351,23.2803235 C15.2246595,23.4845 15.0460649,23.8049118 15.0354703,23.8324412 C15.0271459,23.8966765 15.0354703,23.9616765 14.9885514,23.9983824 L14.9446595,24.0251471 L14.9219568,23.9800294 C14.7812,23.6787353 14.5662811,23.3223824 14.4050919,22.9392647 L14.4050919,22.9392647 Z M12.4186054,24.6422647 L12.3119027,24.7523824 L12.152227,24.7898529 L12.3119027,24.7516176 L12.4186054,24.6422647 Z M4.02011892,11.6262059 L3.94822703,11.8892647 L3.93687568,11.8449118 L3.90736216,11.6805 L3.90736216,11.3700294 L4.01028108,11.5787941 L4.02011892,11.6262059 Z M4.18433514,12.7006176 L4.21006486,12.7870294 L4.04357838,12.5996765 L3.92022703,12.4245588 L3.84455135,12.2226765 L3.73179459,12.0108529 L3.58952432,11.7898529 L3.47374054,11.6330882 L3.64476757,11.7248529 L3.65384865,11.7355588 L3.85060541,11.9833235 L4.02465946,12.2494412 L4.07914595,12.3511471 L4.10865946,12.4704412 L4.1464973,12.5996765 L4.18433514,12.7006176 Z M4.36368649,11.5696176 L4.37276757,11.7248529 L4.36368649,11.8915588 L4.27892973,12.1676176 L4.27514595,12.1829118 L4.19644324,12.0055 L4.26530811,11.7806765 L4.3704973,11.5520294 L4.36368649,11.5696176 Z M4.5052,12.4796176 L4.44238919,12.6432647 L4.41968649,12.5782647 L4.41968649,12.5790294 L4.41060541,12.5438529 L4.35157838,12.3710294 L4.36141622,12.3412059 L4.42952432,12.1400882 L4.57179459,11.8816176 L4.67471351,11.7248529 L4.89417297,11.5130294 L4.77082162,11.6338529 L4.73298378,11.7623235 L4.68455135,11.8173824 L4.66638919,11.9557941 L4.58087568,12.0575 L4.57179459,12.3144412 L4.5052,12.4796176 Z M6.63698378,17.4792647 L6.63244324,17.4723824 L6.43417297,17.2322647 L6.1799027,16.8545 L6.05806486,16.6816765 L6.07622703,16.5990882 L6.1519027,16.4132647 L6.2464973,16.2220882 L6.25633514,16.2771471 L6.30401081,16.4331471 L6.36001081,16.5340882 L6.36001081,16.6258529 L6.42660541,16.7176176 L6.53936216,16.9577353 L6.62563243,17.1955588 L6.63471351,17.4249706 L6.63698378,17.4792647 Z M6.83222703,16.8453235 L6.74747027,16.7642647 L6.74747027,16.7635 L6.83222703,16.8453235 Z M7.07892973,17.9396176 L7.04184865,17.9931471 L6.95633514,17.8677353 L6.78606486,17.6727353 L6.71947027,17.6085 L6.71114595,17.5955 L6.71114595,17.5725588 L6.76638919,17.4157941 L6.82314595,17.2139118 L6.87082162,17.1313235 L6.82314595,17.0854412 L6.82314595,17.0846765 L6.93741622,17.1955588 L6.9464973,17.4265 L7.03201081,17.6092647 L7.06909189,17.7744412 L7.07892973,17.9396176 Z M8.1452,19.2610294 L8.05438919,19.1746176 L7.88336216,19.0362059 L7.76984865,18.8962647 L7.56174054,18.6760294 L7.45276757,18.5162059 L7.44898378,18.4091471 L7.47622703,18.1980882 L7.47622703,18.1980882 L7.47622703,18.2065 C7.51482162,18.2347941 7.56174054,18.2432059 7.6184973,18.2432059 C7.70779459,18.2432059 7.78725405,18.1950294 7.84022703,18.1246765 L7.84022703,18.1980882 L7.88033514,18.4458529 L7.96282162,18.7310882 L7.96055135,18.7869118 L8.01201081,18.9696765 L8.12779459,19.1440294 L8.1452,19.2610294 Z M8.48347027,19.7405 L8.37525405,19.6785588 L8.24660541,19.6326765 L8.37525405,19.6777941 L8.48347027,19.7405 Z M13.1594703,21.8388529 L13.0974162,21.7914412 C12.6796865,21.4243824 12.4344973,21.2148529 12.3588216,20.6512647 C12.6895243,20.9556176 12.8597946,21.3058529 13.0966595,21.6729118 L13.1594703,21.8388529 Z M15.5266054,20.4868529 L15.764227,20.3675588 L15.954173,20.3492059 L16.0676865,20.3859118 L16.1426054,20.4960294 L16.1993622,20.6512647 L16.2288757,20.8630882 L16.1902811,21.0665 L16.1426054,21.2309118 L15.9624973,21.4243824 L15.8308216,21.5520882 L15.7173081,21.6362059 L15.5561189,21.7646765 L15.5296324,21.7822647 L15.5561189,21.7646765 L15.7173081,21.6362059 L15.8308216,21.5520882 L15.9624973,21.4243824 L16.1426054,21.2309118 L16.1902811,21.0665 L16.2281189,20.8630882 L16.1993622,20.6512647 L16.1426054,20.4960294 L16.0676865,20.3859118 L15.954173,20.3492059 L15.764227,20.3683235 L15.5266054,20.4868529 Z M15.3858486,21.0848529 C15.1399027,21.3058529 14.9037946,21.5444412 14.6290919,21.7272059 L14.5254162,21.8021471 L14.4399027,21.8472647 L14.4005514,21.9160882 L14.5254162,21.6629706 L14.7433622,21.2683824 L14.9136324,20.9472059 L15.0740649,20.7262059 L15.2912541,20.5969706 L15.5069297,20.4967941 L15.3003351,20.5969706 L15.3109297,20.5969706 C15.4713622,20.6895 15.5092,20.9647941 15.3858486,21.0848529 L15.3858486,21.0848529 Z M17.5471459,21.4511471 L17.5342811,21.4519118 L17.2784973,21.4152059 L17.4018486,21.3333824 L17.5244432,21.2691471 L17.6757946,21.2133235 L17.6447676,21.1750882 L17.6757946,21.2133235 L17.7885514,21.2966765 C17.8188216,21.3211471 17.8490919,21.3463824 17.8786054,21.3716176 C17.7499568,21.3433235 17.6250919,21.3624412 17.550173,21.4473235 L17.5471459,21.4511471 Z M16.6920108,21.7371471 L16.7048757,21.6996765 L16.8622811,21.6813235 L16.9281189,21.6813235 L17.0794703,21.5995 L17.136227,21.5345 L17.2966595,21.5260882 L17.500227,21.5260882 C17.4692,21.6186176 17.4858486,21.7264412 17.5388216,21.8281471 C17.1786054,21.7914412 16.9099568,21.7914412 16.7676865,21.7555 L16.6920108,21.7371471 Z M16.8335243,21.1131471 L16.8236865,21.3226765 L16.7934162,21.4350882 L16.8236865,21.3226765 L16.8236865,21.3058529 L16.7964432,21.3142647 L16.6163351,21.3968529 L16.6072541,21.4335588 L16.5989297,21.4496176 L16.6064973,21.4335588 L16.6352541,21.2783235 L16.7026054,21.1399118 L16.7866054,20.9923235 L16.8335243,20.9112647 L16.8335243,21.1131471 Z M18.3197946,19.5760882 L18.3197946,19.7145 L18.3001189,20.0089118 L18.3001189,20.2016176 L18.2441189,20.4593235 L18.1533081,20.6543235 L18.1200108,20.6711471 L17.8180649,20.8539118 L17.410173,21.0840882 L17.4018486,21.0940294 L17.382173,21.1131471 L16.8902811,21.4335588 L16.8902811,21.4335588 L16.8993622,21.4243824 L16.7767676,21.4977941 L16.7767676,21.4977941 L16.9568757,21.3876765 L16.9576324,21.3869118 L16.8993622,21.4243824 L16.8902811,21.4335588 L17.3829297,21.1123824 L17.4760108,20.9923235 L17.5342811,20.9005588 L17.7037946,20.6619706 L17.9414162,20.2757941 L18.1389297,19.9897941 L18.2622811,19.7145 L18.3197946,19.5760882 Z M18.7829297,19.9255588 L18.698173,20.1557353 L18.5657405,20.3767353 L18.4037946,20.5327353 L18.3099568,20.5793824 L18.2622811,20.6665588 L18.3099568,20.5793824 L18.4136324,20.3943235 L18.508227,20.2390882 L18.6406595,20.0555588 L18.7829297,19.9255588 Z M21.3649838,16.9386176 L21.2991459,17.2422059 L21.2325514,17.3523235 L21.2514703,17.0020882 L21.224227,16.6992647 L21.2045514,16.4056176 L21.1856324,16.2305 L21.0630378,15.9544412 L21.0630378,15.9536765 L21.224227,16.3039118 L21.2991459,16.5241471 L21.3369838,16.6992647 L21.3649838,16.9386176 Z M21.5640108,16.8277353 L21.4224973,17.2322647 L21.4224973,17.2139118 L21.4406595,17.0036176 L21.5080108,16.7810882 L21.5640108,16.6832059 L21.5640108,16.8277353 Z M23.1342811,14.2078529 L23.2205514,14.1527941 L23.2697405,14.1092059 C23.2780649,14.1237353 23.2803351,14.1413235 23.2916865,14.1543235 C23.3877946,14.2636765 23.5732,14.2713235 23.7396865,14.1895 C23.4316865,14.5160294 23.1289838,14.8463824 22.8414162,15.1905 C22.5576324,15.5506765 22.2170919,16.0829118 22.2170919,16.0829118 L22.4350378,15.6692059 L22.4819568,15.5950294 L22.5773081,15.4214412 L22.6423892,15.2646765 L22.7188216,15.1362059 L22.7846595,14.9817353 L22.8504973,14.8700882 L22.9072541,14.7683824 L22.9556865,14.6865588 L22.9746054,14.6032059 L22.9927676,14.5114412 L23.0215243,14.3929118 L23.0215243,14.3462647 L23.0586054,14.2912059 L23.1342811,14.2078529 Z M21.5186054,3.23279412 L21.4504973,3.71838235 L21.4489838,3.74132353 C21.4300649,3.61744118 21.4262811,3.4905 21.4679027,3.35132353 C21.4860649,3.31232353 21.5019568,3.27255882 21.5186054,3.23279412 L21.5186054,3.23279412 Z M23.0820649,7.0005 L23.0124432,7.13814706 L23.0124432,6.86285294 C23.0147135,6.84908824 23.0177405,6.83532353 23.0200108,6.82079412 C23.0222811,6.88579412 23.0359027,6.9485 23.0782811,6.99820588 C23.0790378,6.99973529 23.0813081,6.99973529 23.0820649,7.0005 L23.0820649,7.0005 Z M23.2674703,7.98391176 L23.2674703,8.01144118 L23.2674703,8.01144118 L23.2387135,8.15902941 L23.2387135,8.15902941 L23.2387135,8.15902941 L23.2674703,8.01144118 L23.2576324,7.86538235 L23.2001189,7.69026471 L23.1259568,7.51514706 L23.1070378,7.38744118 L23.1153622,7.1565 L23.1539568,7.04408824 C23.2160108,7.07620588 23.2879027,7.09302941 23.3688757,7.08232353 C23.3317946,7.33161765 23.3499568,7.58167647 23.2954703,7.83785294 L23.2674703,7.98391176 Z M8.77936216,4.26438235 L8.86487568,4.23685294 L8.71352432,4.15502941 L8.62801081,4.09002941 L8.60001081,4.03420588 L8.54401081,4.00667647 L8.55233514,4.02579412 L8.50541622,3.96155882 L8.45774054,3.89808824 L8.3639027,3.85067647 L8.24055135,3.81397059 L8.19363243,3.78644118 L8.07028108,3.7765 L7.98552432,3.76808824 L7.94768649,3.69544118 L7.86217297,3.64802941 L7.74941622,3.62126471 L7.60714595,3.59373529 L7.38011892,3.57538235 L7.17125405,3.58455882 L6.88822703,3.60214706 L6.76411892,3.63885294 L6.54768649,3.70461765 L6.40465946,3.7765 L6.2919027,3.87820588 L6.24574054,3.91414706 L6.15871351,4.02579412 L5.91352432,4.23685294 L5.78487568,4.39055882 L5.83103784,4.23226471 L5.99147027,4.04032353 L6.06714595,3.97532353 L6.3532,3.65873529 L6.56811892,3.43391176 L6.89882162,3.28708824 L6.98433514,3.23202941 L7.16444324,3.14867647 L7.24011892,3.04697059 L7.35287568,3.03855882 L7.72292973,2.64244118 L7.98779459,2.28379412 L8.27157838,1.80661765 L8.45092973,1.42961765 L8.65979459,1.20938235 L8.46001081,1.25526471 L8.23374054,1.30114706 L8.16714595,1.34702941 L8.07330811,1.43955882 L7.97795676,1.45714706 L7.78876757,1.56726471 L7.58065946,1.60473529 L7.5519027,1.66897059 L7.44898378,1.67814706 L7.32411892,1.7875 L7.20228108,1.83491176 L7.12660541,1.85173529 L7.12660541,1.89914706 L7.00325405,1.93508824 L6.97525405,2.03679412 L6.80498378,2.12855882 L6.80498378,2.26697059 L6.75806486,2.34038235 L6.65363243,2.43214706 L6.56811892,2.56979412 L6.53103784,2.63402941 L6.53936216,2.75332353 L6.45536216,2.83744118 L6.41676757,2.9185 L6.39784865,2.97355882 L6.33201081,3.06685294 L6.33201081,3.23202941 L6.25633514,3.51573529 L6.1239027,3.76502941 L5.97255135,3.75585294 L5.91579459,3.80173529 L5.88552432,3.85067647 L5.90671351,3.77038235 L5.95363243,3.68855882 L6.02022703,3.55091176 L6.04898378,3.42167647 L6.07622703,3.35744118 L6.10498378,3.20144118 L6.10498378,3.02632353 L6.10498378,2.83285294 L6.16174054,2.64855882 L6.18065946,2.38244118 L6.14357838,2.29144118 L6.14357838,2.1905 L6.08606486,2.1255 L6.0399027,1.95955882 L6.02022703,1.88614706 L5.87871351,1.79514706 L5.76444324,1.69344118 L5.72660541,1.59173529 L5.67968649,1.7485 L5.55633514,1.84102941 L5.52833514,1.89608824 L5.4624973,1.98708824 L5.4239027,2.09797059 L5.44282162,2.25473529 L5.38606486,2.40232353 L5.37698378,2.59426471 L5.40498378,2.66844118 L5.38606486,2.87032353 L5.41406486,3.12802941 L5.48974054,3.25726471 L5.48974054,3.42167647 L5.62292973,3.60520588 L5.74552432,4.07244118 L5.69860541,4.14126471 L5.62141622,4.28885294 L5.52757838,4.39897059 L5.4799027,4.4915 L5.42238919,4.70179412 L5.38606486,4.75761765 L5.38606486,4.80273529 L5.43298378,4.91438235 L5.53665946,4.79355882 L5.66001081,4.62073529 L5.68952432,4.56644118 L5.79925405,4.5305 L5.92336216,4.51214706 L6.10271351,4.5305 L6.27298378,4.47620588 L6.40465946,4.52897059 L6.56584865,4.59014706 L6.75579459,4.59014706 L6.84055135,4.62838235 L6.97374054,4.60697059 L7.15309189,4.59702941 L7.28552432,4.63297059 L7.43687568,4.63908824 L7.57838919,4.63602941 L7.76833514,4.63602941 L7.82433514,4.54273529 L7.92801081,4.54273529 L8.08995676,4.54197059 L8.21255135,4.46320588 L8.37374054,4.43185294 L8.49633514,4.33091176 L8.63784865,4.29344118 L8.77936216,4.26438235 Z M5.38606486,4.80273529 L5.30811892,4.59167647 L5.20292973,4.51826471 L5.20292973,4.37144118 L5.20292973,4.18791176 L5.20292973,3.9845 L5.18022703,3.84761765 L5.14087568,3.65414706 L5.0319027,3.91261765 L4.99482162,4.07702941 L4.9024973,4.30720588 L4.86465946,4.39820588 L4.78898378,4.48155882 L4.74206486,4.62914706 L4.69514595,4.70102941 L4.66638919,4.81191176 L4.60055135,4.88685294 L4.57179459,5.06120588 L4.51503784,5.1805 L4.49611892,5.28220588 L4.42952432,5.43820588 L4.41136216,5.58502941 L4.38336216,5.81444118 L4.43936216,5.95285294 L4.40228108,6.04461765 L4.35763243,6.21055882 L4.41665946,6.40326471 L4.41665946,6.56920588 L4.47947027,6.79861765 L4.5332,6.88808824 L4.4772,6.97297059 L4.38336216,7.18479412 L4.36368649,7.39661765 L4.35309189,7.49220588 L4.33492973,7.65355882 L4.26379459,7.74761765 L4.2304973,7.79197059 L4.21687568,7.84932353 L4.2024973,7.9105 L4.2304973,8.01144118 L4.2584973,8.08944118 L4.26001081,8.09326471 L4.25925405,8.09479412 L4.17525405,7.88373529 L4.23201081,7.65355882 L4.23201081,7.47844118 L4.26909189,7.28573529 L4.30617297,7.13814706 L4.32811892,7.16644118 L4.3704973,6.96455882 L4.3704973,6.75197059 L4.33871351,6.48508824 L4.27968649,6.28320588 L4.18509189,5.98038235 L4.09957838,5.80526471 L4.01330811,5.68673529 L3.95655135,5.50244118 L3.82487568,5.22561765 L3.70530811,5.02526471 L3.53806486,4.75761765 L3.53806486,4.74844118 L3.46238919,4.57255882 L3.44801081,4.51826471 L3.45784865,4.52438235 L3.4412,4.4915 L3.43363243,4.70102941 L3.40714595,4.97785294 L3.35114595,5.09638235 L3.32465946,5.18967647 L3.25957838,5.27302941 L3.25957838,5.36402941 L3.30574054,5.45655882 L3.29514595,5.52997059 L3.28757838,5.63014706 L3.25957838,5.69514706 L3.25957838,5.78691176 L3.25957838,5.88785294 L3.25957838,6.01708824 L3.28833514,6.08973529 L3.25957838,6.15473529 L3.25957838,6.20061765 L3.28606486,6.28320588 L3.30498378,6.32985294 L3.2732,6.56920588 L3.30574054,6.6235 L3.30574054,6.67014706 L3.37082162,6.77108824 L3.37082162,6.94620588 L3.3852,7.04638235 L3.51082162,7.18479412 L3.54033514,7.29491176 L3.63417297,7.50673529 L3.75828108,7.64438235 L3.89071351,7.78202941 L4.05114595,7.86538235 L4.11774054,8.02979412 L4.18584865,8.18655882 L4.18584865,8.40679412 L4.18584865,8.54367647 L4.22292973,8.67367647 L4.26455135,8.72032353 L4.2759027,8.71038235 L4.36141622,8.61861765 L4.3704973,8.59108824 L4.3704973,8.48020588 L4.36217297,8.27832353 L4.40152432,8.1055 L4.55287568,7.90208824 L4.65730811,7.81797059 L5.00768649,7.79197059 L5.26271351,7.69026471 L5.46174054,7.61685294 L5.65017297,7.53502941 L5.8772,7.46085294 L6.03838919,7.39661765 L6.31233514,7.20314706 L6.66347027,7.00126471 L6.92757838,6.72520588 L7.06909189,6.48508824 L7.21211892,6.29314706 L7.45730811,5.99873529 L7.56174054,5.84273529 L7.73201081,5.6485 L7.48606486,5.75785294 L7.37255135,5.75785294 L7.16444324,5.78691176 L6.97525405,5.79608824 L6.8519027,5.81061765 L6.64379459,5.90008824 L6.48336216,5.90773529 L6.25633514,5.97120588 L6.00130811,6.03544118 L5.88703784,6.13714706 L5.81136216,6.15473529 L5.66984865,6.32985294 L5.5464973,6.35738235 C5.5464973,6.35738235 5.44282162,6.46826471 5.40422703,6.48508824 C5.35655135,6.50497059 5.31871351,6.55008824 5.31871351,6.55008824 L5.23395676,6.65102941 L5.1772,6.71526471 L5.16811892,6.77108824 L5.1212,6.82614706 L5.05460541,6.8445 L4.97892973,6.99132353 L4.91233514,7.03797059 L4.86465946,7.09226471 L4.75114595,7.26738235 L4.71482162,7.43332353 L4.64747027,7.58855882 L4.63763243,7.67191176 L4.46811892,7.86538235 L4.52487568,7.60844118 L4.57179459,7.47002941 L4.66638919,7.30408824 L4.72314595,7.09226471 L4.88433514,6.88044118 L5.02660541,6.73361765 L5.19687568,6.48508824 L5.27255135,6.30155882 L5.39438919,6.15473529 L5.41406486,5.91614706 L5.4519027,5.58502941 L5.41482162,5.40226471 L5.43298378,5.48408824 L5.49882162,5.42826471 L5.65017297,5.32732353 L5.66984865,5.31585294 L5.66984865,5.31891176 C5.71676757,5.45579412 5.84011892,5.54832353 5.99147027,5.54832353 C6.1799027,5.54832353 6.33201081,5.4015 6.33201081,5.20802941 C6.33201081,5.02526471 6.1799027,4.86773529 5.99147027,4.86773529 C5.80152432,4.86773529 5.65017297,5.02526471 5.65017297,5.20802941 C5.65017297,5.22561765 5.65017297,5.24320588 5.65925405,5.26155882 L5.50865946,5.36402941 L5.41406486,5.40073529 L5.47006486,5.01455882 L5.38606486,4.80273529 Z M3.79536216,8.68361765 L3.78703784,8.67291176 L3.78703784,8.67291176 L3.89071351,8.7295 L4.00347027,8.79373529 L4.05114595,8.87632353 L4.08898378,8.95967647 L4.08898378,9.05144118 L4.10865946,9.14320588 C4.11774054,9.1065 4.12757838,9.02314706 4.16465946,8.97726471 L4.12757838,8.84802941 L4.06098378,8.74708824 L3.93838919,8.65608824 L3.8332,8.60026471 L3.82411892,8.59261765 L3.82487568,8.59108824 L3.82487568,8.53526471 C3.82487568,8.34255882 3.68260541,8.17661765 3.5024973,8.17661765 C3.33298378,8.17661765 3.18087568,8.34255882 3.18087568,8.53526471 C3.18087568,8.7295 3.33298378,8.89544118 3.5024973,8.89544118 C3.63492973,8.89544118 3.7492,8.80214706 3.79536216,8.68361765 L3.79536216,8.68361765 Z"/>
    </g>
    <polygon fill="#00A3DA" points="35.035 28 35.965 28 35.965 7 35.035 7"/>
    <path fill="#00A3DA" d="M13.4996216,26 C11.7583678,26 10.1215437,25.0594146 8.89411491,23.3508353 C7.67349671,21.6528074 7,19.3978143 7,16.9988695 C7,14.6006783 7.67349671,12.3441779 8.89411491,10.6469037 C10.1215437,8.93983168 11.7583678,8 13.4996216,8 C15.2416322,8 16.8769428,8.93983168 18.1058851,10.6469037 C19.3265033,12.3441779 20,14.6006783 20,16.9988695 C20,19.3978143 19.3265033,21.6528074 18.1058851,23.3508353 C16.8769428,25.0594146 15.2416322,26 13.4996216,26 M13.4996216,8.1838965 C10.0186274,8.1838965 7.18464404,12.1384248 7.18464404,16.9988695 C7.18464404,21.8608215 10.0186274,25.8145962 13.4996216,25.8145962 C16.9828861,25.8145962 19.8138425,21.8608215 19.8138425,16.9988695 C19.8138425,12.1384248 16.9828861,8.1838965 13.4996216,8.1838965"/>
  </g>
</svg>
