<?xml version="1.0" encoding="UTF-8"?>
<svg width="91px" height="32px" viewBox="0 0 91 32" version="1.1" xmlns="http://www.w3.org/2000/svg" xmlns:xlink="http://www.w3.org/1999/xlink">
    <!-- Generator: Sketch 52.2 (67145) - http://www.bohemiancoding.com/sketch -->
    <title>Fill 641</title>
    <desc>Created with Sketch.</desc>
    <g id="todas-las-pantallas" stroke="none" stroke-width="1" fill="none" fill-rule="evenodd">
        <g id="Desktop---Home_" transform="translate(-655.000000, -2325.000000)" fill="#63605E">
            <g id="Fill-641" transform="translate(655.000000, 2325.000000)">
                <path d="M90.8727,15.6435466 C90.8727,11.3859086 87.7164,9.25602931 81.4045,9.25602931 C80.9404,9.25602931 79.5852,9.30621897 77.3389,9.40518448 L77.3389,31.3225121 L80.3055,31.3225121 L80.3055,22.8842879 C81.4346,22.9846672 82.1661,23.03415 82.5035,23.03415 C88.0825,23.03415 90.8727,20.5713224 90.8727,15.6435466 Z M87.8158,15.9581155 C87.8158,18.8804259 85.9755,20.341581 82.2949,20.341581 C82.2256,20.341581 81.5627,20.2913914 80.3055,20.191719 L80.3055,12.0984603 C80.9887,11.9994948 81.5284,11.9493052 81.9246,11.9493052 C85.8516,11.9493052 87.8158,13.2860466 87.8158,15.9581155 Z M64.0263,12.0984603 L74.0447,12.0984603 L74.0447,9.40518448 L61.0583,9.40518448 L61.0583,31.3225121 L73.8809,31.3225121 L73.8809,28.63065 L64.0263,28.63065 L64.0263,20.7296672 L71.209,20.7296672 L71.209,18.1876672 L64.0263,18.1876672 L64.0263,12.0984603 Z M55.7166,31.6215293 L56.607,31.6215293 L56.607,9.40589138 L53.7874,9.40589138 L53.7874,24.5610466 L42.8499,9.40589138 L41.6634,9.40589138 L41.6634,31.3225121 L44.483,31.3225121 L44.483,15.5990121 L55.7166,31.6215293 Z M36.0837,31.3225121 L39.3786,31.3225121 L31.1858,9.10616724 L30.3997,9.10616724 L21.5706,31.3225121 L24.8942,31.3225121 L26.4972,26.6994086 L34.5843,26.6994086 L36.0837,31.3225121 Z M33.738,24.5002534 L27.284,24.5002534 L30.6524,14.8511155 L33.738,24.5002534 Z M18.9988,23.9799776 C21.6322,20.3394603 20.8419,17.0262362 19.3621,14.6913569 C15.8089,9.06658103 9.3612,3.01342586 13.1657,0.719546552 L9.1645,0.662287931 C2.8736,4.11830517 20.4646,14.0459603 16.8995,21.8981672 C16.4669,22.719581 15.8551,23.2235983 15.4036,23.6802534 C15.7725,23.9792707 17.0101,25.4687017 17.4322,26.143081 C18.051,25.3365121 18.5557,24.5652879 18.9988,23.9799776 Z M11.2946,11.9012362 L7.1296,11.9090121 C12.1031,14.8850466 12.2578,19.0741155 11.4458,20.7501672 C10.9684,21.7992017 8.1334,21.7956672 8.1334,21.7956672 C3.7283,22.1081155 7.719,29.7708741 10.1431,31.3055466 L12.5959,31.3055466 C12.5959,31.3055466 13.123,30.6226845 13.4422,30.0345466 C11.2855,27.7915638 9.9366,24.6147707 10.2873,23.1663397 C10.7808,21.1241155 13.1167,21.8882707 14.8723,20.7119948 C15.8887,19.9527879 15.7956,17.8787534 14.8891,15.9333741 C14.0736,14.1838052 12.5602,12.5494603 11.2946,11.9012362 Z M7.0127,6.87308103 L2.9037,6.89146034 C-5.1337,10.0180638 6.1608,19.4819948 6.1608,19.4819948 C6.7019,19.9450121 7.215,20.3875293 7.698,20.8116672 C7.9297,21.0152534 8.1047,21.120581 8.3231,21.3170983 C9.0329,21.23015 11.0293,21.1728914 11.1539,20.1789948 C10.9012,19.9549086 10.603,19.7343569 10.3664,19.5166328 C-1.2844,9.12030517 7.0127,6.87308103 7.0127,6.87308103 Z M13.5584,27.9329431 C13.354,27.3787362 13.0838,26.8973397 12.8087,26.5177362 C12.5833,28.2559948 12.871,28.6292362 13.648,29.7136155 C13.7677,29.088719 13.8888,28.8335293 13.5584,27.9329431 Z M13.7495,30.3540638 L13.0747,31.3055466 L17.0948,31.3055466 C19.7219,28.36415 16.3311,24.9470121 13.0187,21.9667362 C12.8318,21.7504259 11.9722,21.8147534 11.3436,22.2509086 C10.9348,22.5343741 10.6702,23.0200121 10.5946,23.5325121 C13.8188,26.6584086 14.7484,28.5642017 13.7495,30.3540638 Z M18.3933,29.7143224 C18.2414,30.4608052 18.2344,30.564719 17.6338,31.3055466 L19.5686,31.3055466 C18.9379,30.509581 18.8938,30.3575983 18.3933,29.7143224 Z" id="Fill-5"></path>
            </g>
        </g>
    </g>
</svg>