<svg xmlns="http://www.w3.org/2000/svg" width="42" height="43" viewBox="0 0 42 43">
    <g fill="none" fill-rule="evenodd">
        <path fill="#FFB81C" stroke="#383A48" stroke-width="2" d="M25.835 1.464C15.807-.853 5.88 5.726 3.67 16.154a20.065 20.065 0 0 0 1.095 11.895L2 41l10.823-3.745a18.19 18.19 0 0 0 4.974 1.945c10.027 2.317 19.955-4.262 22.163-14.689 2.209-10.406-4.118-20.73-14.125-23.047"/>
        <path fill="#383A48" d="M21.283 27.4a.85.85 0 0 1-.727-.397l-5.53-7.552c-.344-.463-.287-1.17.115-1.545.402-.397 1.014-.331 1.34.132l4.764 6.492 6.238-9.494c.325-.486.919-.574 1.34-.221.42.375.497 1.06.19 1.545L22.05 26.958a.961.961 0 0 1-.766.442"/>
    </g>
</svg>
