<?xml version="1.0" encoding="UTF-8"?>
<svg width="83px" height="23px" viewBox="0 0 83 23" version="1.1" xmlns="http://www.w3.org/2000/svg" xmlns:xlink="http://www.w3.org/1999/xlink">
    <!-- Generator: Sketch 52.2 (67145) - http://www.bohemiancoding.com/sketch -->
    <title>Group 20</title>
    <desc>Created with Sketch.</desc>
    <g id="todas-las-pantallas" stroke="none" stroke-width="1" fill="none" fill-rule="evenodd">
        <g id="Desktop---Home_" transform="translate(-814.000000, -2334.000000)" fill="#63605E">
            <g id="Group-20" transform="translate(814.000000, 2334.000000)">
                <path d="M26.9565,16.7133586 C25.6972,16.7133586 24.9153,17.3792552 24.9153,18.3858759 C24.9153,19.2921172 25.6377,19.6696 26.3258,19.8576345 L27.1791,20.0902034 C27.6362,20.2146172 27.8385,20.3673069 27.8385,20.7122724 C27.8385,21.1576172 27.3856,21.357669 26.8172,21.357669 C26.1466,21.357669 25.2688,21.1208586 25.0021,20.9526172 L24.9153,21.9196517 C25.2884,22.1281862 26.1508,22.3204621 26.9131,22.3204621 C28.1437,22.3204621 28.9585,21.6262897 28.9585,20.6599621 C28.9585,19.8258241 28.4496,19.4405655 27.5599,19.1761862 L26.7815,18.9436172 C26.4133,18.8312207 26.0311,18.7506345 26.0311,18.2975138 C26.0311,17.8486345 26.4483,17.667669 27.0321,17.667669 C27.6124,17.667669 28.3117,17.8486345 28.5931,18.0168759 L28.6841,17.0540828 C28.255,16.8618069 27.7111,16.7133586 26.9565,16.7133586 Z M33.659,21.3053586 L30.6763,21.3053586 L30.6763,19.9262034 L33.2334,19.9262034 L33.2334,18.9874448 L30.6763,18.9874448 L30.6763,17.7319966 L33.5988,17.7319966 L33.5988,16.7932379 L29.6039,16.7932379 L29.6039,22.2398759 L33.659,22.2398759 L33.659,21.3053586 Z M38.7053,20.9526172 C38.3168,21.1894276 37.7638,21.3421172 37.1562,21.3421172 C35.9536,21.3421172 35.0947,20.6161345 35.0947,19.5091345 C35.0947,18.3420483 36.0243,17.7157379 37.1765,17.7157379 C37.7918,17.7157379 38.3441,17.872669 38.6899,18.0409103 L38.7725,17.0703414 C38.3518,16.8738241 37.733,16.7133586 37.0806,16.7133586 C35.3607,16.7133586 33.9789,17.756031 33.9789,19.5169103 C33.9789,21.2056862 35.2823,22.3204621 37.0092,22.3204621 C37.8352,22.3204621 38.4001,22.1317207 38.8558,21.911169 L38.7053,20.9526172 Z M39.364,20.3072207 C39.364,21.6786 40.3804,22.3204621 41.7146,22.3204621 C42.9508,22.3204621 44.0736,21.726669 44.0736,20.3072207 L44.0736,16.7932379 L43.0054,16.7932379 L43.0054,20.2351172 C43.0054,20.9808931 42.4895,21.3498931 41.7146,21.3498931 C40.988,21.3498931 40.4322,21.0127034 40.4322,20.2351172 L40.4322,16.7932379 L39.364,16.7932379 L39.364,20.3072207 Z M46.077,18.5421 L49.164,22.2398759 L50.1524,22.2398759 L50.1524,16.7932379 L49.0793,16.7932379 L49.0793,20.5313069 L45.9776,16.7932379 L45.0046,16.7932379 L45.0046,22.2398759 L46.077,22.2398759 L46.077,18.5421 Z M51.1191,16.7932379 L51.1191,22.2398759 L53.4417,22.2398759 C55.1616,22.2398759 56.1668,21.2014448 56.1668,19.512669 C56.1668,17.8366172 55.1812,16.7932379 53.4417,16.7932379 L51.1191,16.7932379 Z M53.3262,21.3053586 L52.1908,21.3053586 L52.1908,17.7277552 L53.3262,17.7277552 C54.5337,17.7277552 55.0664,18.3738586 55.0664,19.512669 C55.0664,20.6437034 54.5456,21.3053586 53.3262,21.3053586 Z M60.4942,22.2398759 L61.638,22.2398759 L59.4582,16.7932379 L58.2269,16.7932379 L56.0506,22.2398759 L57.1937,22.2398759 L57.5955,21.173169 L60.0973,21.173169 L60.4942,22.2398759 Z M58.8471,17.9242724 L59.7872,20.3107552 L57.8972,20.3107552 L58.8471,17.9242724 Z M65.5762,22.2363414 L66.8712,22.2363414 L65.4418,20.4316345 C66.0571,20.1304966 66.4939,19.5091345 66.4939,18.7188241 C66.4939,17.4916517 65.6126,16.7932379 64.5241,16.7932379 L62.0216,16.7932379 L62.0216,22.2398759 L63.094,22.2398759 L63.094,20.6359276 L64.3414,20.6359276 L65.5762,22.2363414 Z M64.4009,17.7319966 C64.9651,17.7319966 65.39,18.0889793 65.39,18.7230655 C65.39,19.3041345 64.9735,19.7014103 64.4009,19.7014103 L63.094,19.7014103 L63.094,17.7319966 L64.4009,17.7319966 Z M67.3276,22.2398759 L68.4,22.2398759 L68.4,16.7932379 L67.3276,16.7932379 L67.3276,22.2398759 Z M73.2279,22.2398759 L74.371,22.2398759 L72.1905,16.7932379 L70.9592,16.7932379 L68.7829,22.2398759 L69.9274,22.2398759 L70.3278,21.173169 L72.8296,21.173169 L73.2279,22.2398759 Z M71.5787,17.9242724 L72.5202,20.3107552 L70.6302,20.3107552 L71.5787,17.9242724 Z" id="Fill-24"></path>
                <path d="M25.1736,8.57952414 L25.1736,14.0261621 L27.4962,14.0261621 C29.2161,14.0261621 30.2213,12.9870241 30.2213,11.2989552 C30.2213,9.62219655 29.2364,8.57952414 27.4962,8.57952414 L25.1736,8.57952414 Z M27.3814,13.0916448 L26.2453,13.0916448 L26.2453,9.51404138 L27.3814,9.51404138 C28.5889,9.51404138 29.1216,10.1594379 29.1216,11.2989552 C29.1216,12.4299897 28.6008,13.0916448 27.3814,13.0916448 Z M34.9652,13.0916448 L31.9832,13.0916448 L31.9832,11.7117828 L34.541,11.7117828 L34.541,10.773731 L31.9832,10.773731 L31.9832,9.51828276 L34.9057,9.51828276 L34.9057,8.57952414 L30.9101,8.57952414 L30.9101,14.0261621 L34.9652,14.0261621 L34.9652,13.0916448 Z M41.3506,13.0916448 L38.3686,13.0916448 L38.3686,11.7117828 L40.9264,11.7117828 L40.9264,10.773731 L38.3686,10.773731 L38.3686,9.51828276 L41.2911,9.51828276 L41.2911,8.57952414 L37.2955,8.57952414 L37.2955,14.0261621 L41.3506,14.0261621 L41.3506,13.0916448 Z M42.0744,8.57952414 L42.0744,14.0261621 L44.3977,14.0261621 C46.1176,14.0261621 47.1214,12.9870241 47.1214,11.2989552 C47.1214,9.62219655 46.1365,8.57952414 44.3977,8.57952414 L42.0744,8.57952414 Z M44.2829,13.0916448 L43.1468,13.0916448 L43.1468,9.51404138 L44.2829,9.51404138 C45.489,9.51404138 46.0217,10.1594379 46.0217,11.2989552 C46.0217,12.4299897 45.5016,13.0916448 44.2829,13.0916448 Z M47.7563,12.0928 C47.7563,13.4648862 48.7727,14.1060414 50.1069,14.1060414 C51.3424,14.1060414 52.4659,13.5129552 52.4659,12.0928 L52.4659,8.57952414 L51.3984,8.57952414 L51.3984,12.0206966 C51.3984,12.7664724 50.8818,13.1354724 50.1069,13.1354724 C49.3796,13.1354724 48.8238,12.7989897 48.8238,12.0206966 L48.8238,8.57952414 L47.7563,8.57952414 L47.7563,12.0928 Z M57.7999,12.7389034 C57.4114,12.9750069 56.8591,13.1276966 56.2508,13.1276966 C55.0482,13.1276966 54.19,12.4017138 54.19,11.2947138 C54.19,10.1276276 55.1189,9.50202414 56.2718,9.50202414 C56.8871,9.50202414 57.4394,9.65824828 57.7845,9.82719655 L57.8678,8.85592069 C57.4464,8.65940345 56.8276,8.49964483 56.1759,8.49964483 C54.456,8.49964483 53.0735,9.54231724 53.0735,11.3024897 C53.0735,12.9912655 54.3769,14.1060414 56.1045,14.1060414 C56.9305,14.1060414 57.4947,13.9180069 57.9511,13.6974552 L57.7999,12.7389034 Z M62.5662,14.0261621 L63.7107,14.0261621 L61.5302,8.57952414 L60.2989,8.57952414 L58.1219,14.0261621 L59.2657,14.0261621 L59.6668,12.9594552 L62.17,12.9594552 L62.5662,14.0261621 Z M60.9177,9.71055862 L61.8592,12.0970414 L59.9685,12.0970414 L60.9177,9.71055862 Z M68.2775,12.7389034 C67.8883,12.9750069 67.336,13.1276966 66.7284,13.1276966 C65.5258,13.1276966 64.6683,12.4017138 64.6683,11.2947138 C64.6683,10.1276276 65.5965,9.50202414 66.7494,9.50202414 C67.364,9.50202414 67.917,9.65824828 68.2621,9.82719655 L68.3454,8.85592069 C67.924,8.65940345 67.3052,8.49964483 66.6542,8.49964483 C64.9343,8.49964483 63.5511,9.54231724 63.5511,11.3024897 C63.5511,12.9912655 64.8545,14.1060414 66.5814,14.1060414 C67.4088,14.1060414 67.9723,13.9180069 68.4287,13.6974552 L68.2775,12.7389034 Z M69.0307,14.0261621 L70.1031,14.0261621 L70.1031,8.57952414 L69.0307,8.57952414 L69.0307,14.0261621 Z M70.7786,11.3152138 C70.7786,12.9594552 71.9707,14.1060414 73.6311,14.1060414 C75.2985,14.1060414 76.4864,12.9594552 76.4864,11.3152138 C76.4864,9.67026552 75.2985,8.49964483 73.6311,8.49964483 C71.9707,8.49964483 70.7786,9.66673103 70.7786,11.3152138 Z M71.8832,11.3109724 C71.8832,10.2520414 72.5937,9.5098 73.6346,9.5098 C74.6832,9.5098 75.386,10.2520414 75.386,11.3109724 C75.386,12.3776793 74.6832,13.0994207 73.6346,13.0994207 C72.5937,13.0994207 71.8832,12.3776793 71.8832,11.3109724 Z M75.1123,6.77835172 L73.9524,6.77835172 L73.3287,8.11862759 L74.1869,8.11862759 L75.1123,6.77835172 Z M78.2238,10.3283862 L81.3094,14.0261621 L82.2985,14.0261621 L82.2985,8.57952414 L81.2261,8.57952414 L81.2261,12.3175931 L78.1251,8.57952414 L77.1521,8.57952414 L77.1521,14.0261621 L78.2238,14.0261621 L78.2238,10.3283862 Z" id="Fill-25"></path>
                <path d="M29.6214,4.5249069 C29.2315,4.76171724 28.6792,4.9137 28.0716,4.9137 C26.8683,4.9137 26.0115,4.18771724 26.0115,3.08071724 C26.0115,1.91363103 26.9404,1.28802759 28.0919,1.28802759 C28.7072,1.28802759 29.2595,1.44495862 29.6053,1.6132 L29.6886,0.642631034 C29.2679,0.446113793 28.6477,0.285648276 27.9967,0.285648276 C26.2775,0.285648276 24.895,1.32832069 24.895,3.0892 C24.895,4.77726897 26.197,5.89275172 27.9246,5.89275172 C28.7513,5.89275172 29.3155,5.70401034 29.7726,5.48345862 L29.6214,4.5249069 Z M29.9735,3.10121724 C29.9735,4.74545862 31.1642,5.89275172 32.8239,5.89275172 C34.4927,5.89275172 35.6799,4.74545862 35.6799,3.10121724 C35.6799,1.45697586 34.4927,0.285648276 32.8239,0.285648276 C31.1642,0.285648276 29.9735,1.45273448 29.9735,3.10121724 Z M31.0767,3.09697586 C31.0767,2.03804483 31.7886,1.29651034 32.8288,1.29651034 C33.8767,1.29651034 34.5802,2.03804483 34.5802,3.09697586 C34.5802,4.16368276 33.8767,4.88613103 32.8288,4.88613103 C31.7886,4.88613103 31.0767,4.16368276 31.0767,3.09697586 Z M37.4187,2.11438966 L40.5043,5.81216552 L41.4934,5.81216552 L41.4934,0.365527586 L40.421,0.365527586 L40.421,4.10359655 L37.3193,0.365527586 L36.3456,0.365527586 L36.3456,5.81216552 L37.4187,5.81216552 L37.4187,2.11438966 Z M44.278,0.285648276 C43.0194,0.285648276 42.2368,0.951544828 42.2368,1.95816552 C42.2368,2.8644069 42.9599,3.24118276 43.6466,3.42992414 L44.5013,3.6624931 C44.957,3.7869069 45.1593,3.93959655 45.1593,4.28456207 C45.1593,4.7292 44.7078,4.92995862 44.1387,4.92995862 C43.4674,4.92995862 42.5903,4.69314828 42.3236,4.5249069 L42.2368,5.49123448 C42.6106,5.69976897 43.4716,5.89275172 44.2353,5.89275172 C45.4659,5.89275172 46.2807,5.19857931 46.2807,4.23225172 C46.2807,3.39811379 45.7711,3.01285517 44.8821,2.74847586 L44.103,2.5152 C43.7341,2.40351034 43.3526,2.32292414 43.3526,1.86980345 C43.3526,1.42021724 43.7705,1.23995862 44.3543,1.23995862 C44.9339,1.23995862 45.6332,1.42021724 45.9146,1.58916552 L46.0056,0.626372414 C45.5772,0.434096552 45.0333,0.285648276 44.278,0.285648276 Z M50.9805,4.87764828 L47.9985,4.87764828 L47.9985,3.4984931 L50.5549,3.4984931 L50.5549,2.55973448 L47.9985,2.55973448 L47.9985,1.30428621 L50.921,1.30428621 L50.921,0.365527586 L46.9261,0.365527586 L46.9261,5.81216552 L50.9805,5.81216552 L50.9805,4.87764828 Z M51.2605,5.56757931 C51.8247,5.82418276 52.3133,5.89275172 52.8369,5.89275172 C53.8582,5.89275172 54.8382,5.37954483 54.8382,4.12409655 L54.8382,0.365527586 L51.8674,0.365527586 L51.8674,1.31206207 L53.7658,1.31206207 L53.7658,4.06401034 C53.7658,4.77726897 53.2184,4.92995862 52.622,4.92995862 C52.1782,4.92995862 51.7015,4.75747586 51.3837,4.62952759 L51.2605,5.56757931 Z M55.4689,3.10121724 C55.4689,4.74545862 56.6603,5.89275172 58.3207,5.89275172 C59.9888,5.89275172 61.1753,4.74545862 61.1753,3.10121724 C61.1753,1.45697586 59.9888,0.285648276 58.3207,0.285648276 C56.6603,0.285648276 55.4689,1.45273448 55.4689,3.10121724 Z M56.5728,3.09697586 C56.5728,2.03804483 57.284,1.29651034 58.3242,1.29651034 C59.3728,1.29651034 60.0756,2.03804483 60.0756,3.09697586 C60.0756,4.16368276 59.3728,4.88613103 58.3242,4.88613103 C57.284,4.88613103 56.5728,4.16368276 56.5728,3.09697586 Z" id="Fill-26"></path>
                <path d="M9.5244,1.55028621 C9.5244,2.25011379 10.0858,2.81704483 10.7781,2.81704483 C11.4711,2.81704483 12.0332,2.25011379 12.0332,1.55028621 C12.0332,0.850458621 11.4711,0.283527586 10.7781,0.283527586 C10.0858,0.283527586 9.5244,0.850458621 9.5244,1.55028621" id="Fill-27"></path>
                <path d="M15.3008,1.42396379 C13.5151,1.93222241 11.8001,3.72279138 10.7781,4.97470517 C9.7568,3.72279138 8.0425,1.93222241 6.2561,1.42396379 L10.7753,10.3308603 L10.7774,10.3386362 C10.7774,10.3379293 10.7781,10.3365155 10.7781,10.3358086 L10.7795,10.3386362 L15.3008,1.42396379 Z" id="Fill-28"></path>
                <path d="M9.9752,10.8196793 L9.9689,10.8140241 L4.5915,2.40831724 C4.1337,4.22433448 4.812,6.6193 5.3755,8.13842069 C3.79,8.40633448 1.3967,9.01073103 0.0688,10.3184897 L9.9738,10.8218 L9.9724,10.8189724 C9.9731,10.8189724 9.9745,10.8189724 9.9752,10.8196793" id="Fill-29"></path>
                <path d="M11.6013,10.8089345 L21.4965,10.3091586 C20.1672,9.0014 17.7739,8.39700345 16.1898,8.12908966 C16.7519,6.60996897 17.4302,4.21500345 16.9738,2.39898621 L11.5978,10.8011586 L11.5887,10.8103483 C11.5901,10.8096414 11.5915,10.8096414 11.5929,10.8089345 L11.5894,10.812469 L11.6013,10.8089345 Z" id="Fill-31"></path>
                <path d="M19.7535,7.51472586 C20.3534,7.16481207 20.5592,6.39005345 20.2127,5.7842431 C19.8662,5.17772586 19.099,4.97060517 18.4991,5.32051897 C17.8992,5.67043276 17.6934,6.44519138 18.0399,7.05100172 C18.3864,7.65681207 19.1543,7.86463966 19.7535,7.51472586" id="Fill-32"></path>
                <path d="M10.7788,19.7400776 C10.0858,19.7400776 9.5244,20.3070086 9.5244,21.0075431 C9.5244,21.7066638 10.0858,22.2743017 10.7788,22.2743017 C11.4711,22.2743017 12.0332,21.7066638 12.0332,21.0075431 C12.0332,20.3070086 11.4711,19.7400776 10.7788,19.7400776" id="Fill-33"></path>
                <path d="M15.3078,21.138319 L10.7844,12.2229397 L10.7816,12.2278879 L10.7795,12.2186983 C10.7795,12.2201121 10.7788,12.2215259 10.7788,12.2229397 C10.7781,12.2215259 10.7781,12.2201121 10.7774,12.2186983 L10.7697,12.2519224 L6.2813,21.1015603 C6.2659,21.1206466 6.2561,21.1340776 6.2561,21.1340776 C6.2596,21.1319569 6.2631,21.13125 6.2673,21.1298362 L6.2631,21.138319 L6.2778,21.1263017 C8.0432,20.6138017 9.7351,18.8564569 10.755,17.6116121 L10.7837,17.5889914 C11.8057,18.8401983 13.5179,20.625819 15.3008,21.1340776 L15.3001,21.1319569 L15.3078,21.138319 Z" id="Fill-34"></path>
                <path d="M16.1933,14.4456345 L16.1891,14.4230138 L16.2136,14.4138241 C17.7921,14.1444966 20.1518,13.5429276 21.4755,12.2521345 L21.4958,12.2436517 L21.4853,12.2429448 C21.4867,12.241531 21.4881,12.2401172 21.4888,12.2394103 C21.4888,12.2394103 21.4825,12.2401172 21.4692,12.2422379 L11.5999,11.7410483 L11.5838,11.7361 C11.5852,11.7368069 11.5859,11.7382207 11.5873,11.7389276 C11.5859,11.7389276 11.5838,11.7382207 11.5824,11.7382207 L11.5992,11.7530655 L16.9619,20.1347379 C16.9654,20.1446345 16.9668,20.1495828 16.9668,20.1495828 C16.9668,20.148169 16.9675,20.1467552 16.9675,20.1453414 L16.9731,20.1538241 L16.9703,20.1319103 C17.4162,18.3286172 16.7519,15.9619276 16.1933,14.4456345" id="Fill-35"></path>
                <path d="M19.7472,15.0337724 C19.1473,14.6838586 18.3801,14.8916862 18.0336,15.4974966 C17.6871,16.1033069 17.8929,16.8780655 18.4921,17.2279793 C19.092,17.5778931 19.8592,17.3707724 20.2057,16.7649621 C20.5522,16.1584448 20.3464,15.3836862 19.7472,15.0337724" id="Fill-36"></path>
                <path d="M9.971,11.7526414 L9.9626,11.7533483 L9.9689,11.7469862 C9.9675,11.7469862 9.9661,11.7476931 9.964,11.7476931 C9.9654,11.7469862 9.9668,11.7455724 9.9675,11.7448655 L9.936,11.7547621 L0.0842,12.2517103 C0.0709,12.2495897 0.0618,12.2481759 0.0618,12.2481759 C1.3883,13.5545207 3.7753,14.1582103 5.3601,14.4261241 L5.3678,14.4296586 C4.805,15.9494862 4.1274,18.3430379 4.5845,20.1583483 C4.5845,20.1583483 4.5887,20.1470379 4.595,20.1300724 L4.5901,20.1632966 L9.971,11.7526414 Z" id="Fill-38"></path>
            </g>
        </g>
    </g>
</svg>