<svg xmlns="http://www.w3.org/2000/svg" width="81" height="33" viewBox="0 0 81 33">
  <defs>
    <filter id="ces-a">
      <feColorMatrix in="SourceGraphic" values="0 0 0 0 0.388235 0 0 0 0 0.376471 0 0 0 0 0.368627 0 0 0 1.000000 0"/>
    </filter>
  </defs>
  <g fill="none" fill-rule="evenodd" filter="url(#ces-a)">
    <g transform="translate(0 6)">
      <polygon fill="#00A3DA" points=".033 23 .968 23 .968 1 .033 1"/>
      <path fill="#1A1919" d="M81,6.01763814 L81,5.24231776 L78.5518804,5.24231776 L78.5518804,1.49531487 L77.6479359,1.49531487 L77.6479359,6.01763814 L81,6.01763814 Z M76.0168724,6.01763814 L76.9817912,6.01763814 L75.1426528,1.49531487 L74.1045647,1.49531487 L72.2692372,6.01763814 L73.2341561,6.01763814 L73.5725636,5.13166598 L75.6822757,5.13166598 L76.0168724,6.01763814 Z M75.4208482,4.41621882 L73.8271315,4.41621882 L74.6274197,2.43433926 L75.4208482,4.41621882 Z M71.7883021,6.01763814 L70.5832968,4.51550227 C71.1023408,4.26615681 71.4704734,3.75003445 71.4704734,3.09370263 C71.4704734,2.07434201 70.7273487,1.49531487 69.8096849,1.49531487 L67.6992107,1.49531487 L67.6992107,6.01763814 L68.6031552,6.01763814 L68.6031552,4.6852694 L69.6549625,4.6852694 L70.6968615,6.01763814 L71.7883021,6.01763814 Z M70.5398526,3.09673419 C70.5398526,3.58026733 70.1877258,3.90994901 69.7052663,3.90994901 L68.6031552,3.90994901 L68.6031552,2.27442469 L69.7052663,2.27442469 C70.1816283,2.27442469 70.5398526,2.57075927 70.5398526,3.09673419 L70.5398526,3.09673419 Z M63.3334482,6.01763814 L66.7525841,6.01763814 L66.7525841,5.24231776 L64.2366305,5.24231776 L64.2366305,4.0956318 L66.3935977,4.0956318 L66.3935977,3.31727987 L64.2366305,3.31727987 L64.2366305,2.27442469 L66.7022803,2.27442469 L66.7022803,1.49531487 L63.3334482,1.49531487 L63.3334482,6.01763814 Z M61.3456848,6.01763814 L62.1787467,6.01763814 L62.1787467,1.49531487 L61.2748021,1.49531487 L61.2748021,4.59887006 L58.6590031,1.49531487 L57.8388983,1.49531487 L57.8388983,6.01763814 L58.7428428,6.01763814 L58.7428428,2.94743007 L61.3456848,6.01763814 Z M53.4723736,6.01763814 L56.8915095,6.01763814 L56.8915095,5.24231776 L54.3763182,5.24231776 L54.3763182,4.0956318 L56.5332853,4.0956318 L56.5332853,3.31727987 L54.3763182,3.31727987 L54.3763182,2.27442469 L56.8412057,2.27442469 L56.8412057,1.49531487 L53.4723736,1.49531487 L53.4723736,6.01763814 Z M52.6088246,9.06965688 L53.3892961,7.95783382 L52.4114202,7.95783382 L51.8855165,9.06965688 L52.6088246,9.06965688 Z M50.7247176,6.08433237 C51.2978763,6.08433237 51.9670697,5.9312388 52.4297125,5.6781039 L52.4297125,3.47037343 L50.3093299,3.47037343 L50.3093299,4.22902026 L51.5318654,4.22902026 L51.5318654,5.13242387 C51.3276013,5.22564421 50.9625175,5.26505443 50.688133,5.26505443 C49.6698616,5.26505443 48.9861868,4.67238528 48.9861868,3.75685545 C48.9861868,2.7738735 49.7605609,2.25093014 50.8154169,2.25093014 C51.4381173,2.25093014 51.964021,2.45101282 52.1652363,2.54044371 L52.2353568,1.73859722 C51.7902441,1.53548298 51.2811084,1.43241009 50.7651131,1.43241009 C49.2308463,1.43241009 48.0487064,2.28427725 48.0487064,3.75685545 C48.0487064,5.11575031 49.0768861,6.08433237 50.7247176,6.08433237 L50.7247176,6.08433237 Z M47.9214225,13.975472 L48.825367,13.975472 L48.825367,9.45314868 L47.9214225,9.45314868 L47.9214225,13.975472 Z M46.50758,21.9333058 L47.4115246,21.9333058 L47.4115246,17.4109825 L46.50758,17.4109825 L46.50758,21.9333058 Z M43.9032137,11.7078683 C43.9032137,10.7385283 44.6867339,10.2186165 45.6577502,10.2186165 C46.1767943,10.2186165 46.6424857,10.3489734 46.9344004,10.488425 L47.0045209,9.68278903 C46.6493454,9.51984291 46.1272526,9.38645446 45.5777214,9.38645446 C44.1272944,9.38645446 42.9619224,10.2519636 42.9619224,11.7146893 C42.9619224,13.1167838 44.0602226,14.0421662 45.5175092,14.0421662 C46.214141,14.0421662 46.6897409,13.8860411 47.0746414,13.7026319 L46.9473574,12.9068486 C46.6188582,13.1031418 46.1539289,13.2297092 45.6409823,13.2297092 C44.6265217,13.2297092 43.9032137,12.6271875 43.9032137,11.7078683 L43.9032137,11.7078683 Z M44.6966422,6.01763814 L45.5297041,6.01763814 L45.5297041,1.49531487 L44.6265217,1.49531487 L44.6265217,4.59887006 L42.0099605,1.49531487 L41.1898557,1.49531487 L41.1898557,6.01763814 L42.0938002,6.01763814 L42.0938002,2.94743007 L44.6966422,6.01763814 Z M42.739366,13.975472 L40.9002276,9.45314868 L39.8621395,9.45314868 L38.026812,13.975472 L38.9917309,13.975472 L39.3301384,13.0894998 L41.4398505,13.0894998 L41.7744472,13.975472 L42.739366,13.975472 Z M41.178423,12.3740526 L39.5839441,12.3740526 L40.3849945,10.3921731 L41.178423,12.3740526 Z M40.2881977,3.76670801 C40.2881977,2.40099215 39.2866942,1.42862064 37.8797114,1.42862064 C36.4795882,1.42862064 35.4757982,2.3972027 35.4757982,3.76670801 C35.4757982,5.13242387 36.4795882,6.08433237 37.8797114,6.08433237 C39.2866942,6.08433237 40.2881977,5.13242387 40.2881977,3.76670801 L40.2881977,3.76670801 Z M39.3606256,3.76291856 C39.3606256,4.64889073 38.7676502,5.24838087 37.8835223,5.24838087 C37.0054919,5.24838087 36.406419,4.64889073 36.406419,3.76291856 C36.406419,2.8837674 37.0054919,2.26760369 37.8835223,2.26760369 C38.7676502,2.26760369 39.3606256,2.8837674 39.3606256,3.76291856 L39.3606256,3.76291856 Z M38.3492138,1.11182307 L39.1296853,0 L38.1510472,0 L37.6251436,1.11182307 L38.3492138,1.11182307 Z M33.6618117,6.01763814 L34.5657562,6.01763814 L34.5657562,1.49531487 L33.6618117,1.49531487 L33.6618117,6.01763814 Z M33.4354445,11.7146893 C33.4354445,13.1167838 34.5337447,14.0421662 35.9910313,14.0421662 C36.6876631,14.0421662 37.163263,13.8860411 37.5481635,13.7026319 L37.4208795,12.9068486 C37.0931425,13.1031418 36.627451,13.2297092 36.1145044,13.2297092 C35.1000439,13.2297092 34.3767358,12.6271875 34.3767358,11.7078683 C34.3767358,10.7385283 35.160256,10.2186165 36.1312723,10.2186165 C36.6510785,10.2186165 37.1160079,10.3489734 37.4079225,10.488425 L37.478043,9.68278903 C37.1228675,9.51984291 36.6007747,9.38645446 36.0512435,9.38645446 C34.6008165,9.38645446 33.4354445,10.2519636 33.4354445,11.7146893 L33.4354445,11.7146893 Z M29.6428407,3.75003445 C29.6428407,2.7806945 30.426361,2.26078269 31.3981394,2.26078269 C31.9171835,2.26078269 32.382875,2.39113959 32.6740274,2.53059115 L32.7441479,1.72495522 C32.3897346,1.56200909 31.8668797,1.42862064 31.3173485,1.42862064 C29.8676836,1.42862064 28.7023116,2.29412981 28.7023116,3.75685545 C28.7023116,5.15894998 29.8006118,6.08433237 31.2571363,6.08433237 C31.9537681,6.08433237 32.4293679,5.92820725 32.8150306,5.74479813 L32.6877467,4.94901474 C32.3592474,5.14530798 31.8935559,5.27187543 31.3813715,5.27187543 C30.3661488,5.27187543 29.6428407,4.66935373 29.6428407,3.75003445 L29.6428407,3.75003445 Z M29.5109837,9.45314868 L28.6108501,9.45314868 L28.6108501,12.3702632 C28.6108501,13.5093703 29.4675395,14.0421662 30.5932782,14.0421662 C31.6351772,14.0421662 32.5825659,13.5495384 32.5825659,12.3702632 L32.5825659,9.45314868 L31.6816701,9.45314868 L31.6816701,12.31039 C31.6816701,12.9303431 31.2464658,13.2365302 30.5932782,13.2365302 C29.9804861,13.2365302 29.5109837,12.9568692 29.5109837,12.31039 L29.5109837,9.45314868 Z M25.0369918,3.75003445 C25.0369918,2.7806945 25.820512,2.26078269 26.7915283,2.26078269 C27.3113345,2.26078269 27.7762639,2.39113959 28.0681785,2.53059115 L28.138299,1.72495522 C27.7831235,1.56200909 27.2610307,1.42862064 26.7114995,1.42862064 C25.2610725,1.42862064 24.0964627,2.29412981 24.0964627,3.75685545 C24.0964627,5.15894998 25.1940007,6.08433237 26.6512874,6.08433237 C27.3479191,6.08433237 27.823519,5.92820725 28.2084195,5.74479813 L28.0811355,4.94901474 C27.7533985,5.14530798 27.287707,5.27187543 26.7747604,5.27187543 C25.7602999,5.27187543 25.0369918,4.66935373 25.0369918,3.75003445 L25.0369918,3.75003445 Z M20.0637725,6.01763814 L23.4829084,6.01763814 L23.4829084,5.24231776 L20.967717,5.24231776 L20.967717,4.0956318 L23.1246842,4.0956318 L23.1246842,3.31727987 L20.967717,3.31727987 L20.967717,2.27442469 L23.4326046,2.27442469 L23.4326046,1.49531487 L20.0637725,1.49531487 L20.0637725,6.01763814 Z M19.3313183,6.01763814 L18.1255508,4.51550227 C18.6445948,4.26615681 19.0127273,3.75003445 19.0127273,3.09370263 C19.0127273,2.07434201 18.2696026,1.49531487 17.3519389,1.49531487 L15.2422268,1.49531487 L15.2422268,6.01763814 L16.1461714,6.01763814 L16.1461714,4.6852694 L17.1979787,4.6852694 L18.2398776,6.01763814 L19.3313183,6.01763814 Z M18.0821065,3.09673419 C18.0821065,3.58026733 17.7307419,3.90994901 17.2482825,3.90994901 L16.1461714,3.90994901 L16.1461714,2.27442469 L17.2482825,2.27442469 C17.7238823,2.27442469 18.0821065,2.57075927 18.0821065,3.09673419 L18.0821065,3.09673419 Z M13.1858673,6.01763814 L14.0898119,6.01763814 L14.0898119,1.49531487 L13.1858673,1.49531487 L13.1858673,6.01763814 Z M16.5470776,9.45314868 L13.1782455,9.45314868 L13.1782455,13.975472 L16.5973814,13.975472 L16.5973814,13.2001516 L14.0814279,13.2001516 L14.0814279,12.0534656 L16.238395,12.0534656 L16.238395,11.2751137 L14.0814279,11.2751137 L14.0814279,10.2322585 L16.5470776,10.2322585 L16.5470776,9.45314868 Z M15.6606632,17.4109825 L12.2918311,17.4109825 L12.2918311,21.9333058 L15.710967,21.9333058 L15.710967,21.1579854 L13.1957756,21.1579854 L13.1957756,20.0112994 L15.3527428,20.0112994 L15.3527428,19.2329475 L13.1957756,19.2329475 L13.1957756,18.1900923 L15.6606632,18.1900923 L15.6606632,17.4109825 Z M12.2567709,11.7108998 C12.2567709,10.3186578 11.4259955,9.45314868 9.95880056,9.45314868 L8,9.45314868 L8,13.975472 L9.95880056,13.975472 C11.4092276,13.975472 12.2567709,13.1129944 12.2567709,11.7108998 L12.2567709,11.7108998 Z M11.3291988,11.7108998 C11.3291988,12.6499242 10.8901835,13.2001516 9.8620038,13.2001516 L8.90394454,13.2001516 L8.90394454,10.2284691 L9.8620038,10.2284691 C10.8802752,10.2284691 11.3291988,10.7650544 11.3291988,11.7108998 L11.3291988,11.7108998 Z M12.2567709,3.75306601 C12.2567709,2.36082403 11.4259955,1.49531487 9.95880056,1.49531487 L8,1.49531487 L8,6.01763814 L9.95880056,6.01763814 C11.4092276,6.01763814 12.2567709,5.15516053 12.2567709,3.75306601 L12.2567709,3.75306601 Z M11.3291988,3.75306601 C11.3291988,4.6920904 10.8901835,5.24231776 9.8620038,5.24231776 L8.90394454,5.24231776 L8.90394454,2.27063525 L9.8620038,2.27063525 C10.8802752,2.27063525 11.3291988,2.80722061 11.3291988,3.75306601 L11.3291988,3.75306601 Z M10.4648876,20.6645997 C10.4648876,21.0344495 10.0830358,21.2011851 9.60438723,21.2011851 C9.03808808,21.2011851 8.29801207,21.0041339 8.07393138,20.8646824 L8,21.6672868 C8.31478001,21.8400854 9.0411368,22 9.68441605,22 C10.7225041,22 11.4092276,21.4240044 11.4092276,20.6214 C11.4092276,19.9286895 10.9808829,19.6088604 10.2301364,19.3890726 L9.57390006,19.1958109 C9.26216877,19.1025906 8.94052914,19.0358964 8.94052914,18.6592256 C8.94052914,18.2863442 9.29265593,18.1362822 9.7850237,18.1362822 C10.2743428,18.1362822 10.8635073,18.2863442 11.1013072,18.4265537 L11.1782873,17.6269808 C10.8162522,17.4678242 10.3574203,17.3442883 9.72100065,17.3442883 C8.65928501,17.3442883 8,17.8967893 8,18.7327408 C8,19.4853245 8.60898119,19.7990905 9.18823738,19.9552157 L9.90925891,20.1484773 C10.2941594,20.2515502 10.4648876,20.3781177 10.4648876,20.6645997 L10.4648876,20.6645997 Z M16.3245213,19.6725231 C16.3245213,21.0746176 17.4228215,22 18.879346,22 C19.5759778,22 20.0515776,21.8438749 20.4372403,21.6604658 L20.3099564,20.8646824 C19.9814571,21.0609756 19.5157656,21.1875431 19.0035812,21.1875431 C17.9883585,21.1875431 17.2650504,20.5850214 17.2650504,19.6657021 C17.2650504,18.6963621 18.0485707,18.1764503 19.0203491,18.1764503 C19.5393932,18.1764503 20.0050847,18.3068072 20.2962371,18.4462588 L20.3663576,17.6406228 C20.0119443,17.4776767 19.4890894,17.3442883 18.9395581,17.3442883 C17.4898933,17.3442883 16.3245213,18.2097974 16.3245213,19.6725231 L16.3245213,19.6725231 Z M20.0165174,13.2001516 L20.0165174,12.0534656 L22.1734845,12.0534656 L22.1734845,11.2751137 L20.0165174,11.2751137 L20.0165174,10.2322585 L22.4814049,10.2322585 L22.4814049,9.45314868 L19.1125728,9.45314868 L19.1125728,13.975472 L22.5317087,13.975472 L22.5317087,13.2001516 L20.0165174,13.2001516 Z M22.1079371,17.4109825 L21.2070413,17.4109825 L21.2070413,20.328097 C21.2070413,21.4672041 22.0637307,22 23.1894694,22 C24.2313684,22 25.1787571,21.5073722 25.1787571,20.328097 L25.1787571,17.4109825 L24.2786235,17.4109825 L24.2786235,20.2682238 C24.2786235,20.8881769 23.842657,21.1943641 23.1894694,21.1943641 C22.5766773,21.1943641 22.1079371,20.914703 22.1079371,20.2682238 L22.1079371,17.4109825 Z M23.4790975,13.975472 L25.4378981,13.975472 C26.8883251,13.975472 27.7358684,13.1129944 27.7358684,11.7108998 C27.7358684,10.3186578 26.905093,9.45314868 25.4378981,9.45314868 L23.4790975,9.45314868 L23.4790975,13.975472 Z M24.383042,10.2284691 L25.3411013,10.2284691 C26.3593727,10.2284691 26.8082963,10.7650544 26.8082963,11.7108998 C26.8082963,12.6499242 26.369281,13.2001516 25.3411013,13.2001516 L24.383042,13.2001516 L24.383042,10.2284691 Z M27.1223141,17.4109825 L26.3022093,17.4109825 L26.3022093,21.9333058 L27.2061538,21.9333058 L27.2061538,18.8630977 L29.8089958,21.9333058 L30.6428199,21.9333058 L30.6428199,17.4109825 L29.7388753,17.4109825 L29.7388753,20.5145377 L27.1223141,17.4109825 Z M33.7555597,17.4109825 L31.7967592,17.4109825 L31.7967592,21.9333058 L33.7555597,21.9333058 C35.2059868,21.9333058 36.05353,21.0708282 36.05353,19.6687336 C36.05353,18.2764917 35.2227547,17.4109825 33.7555597,17.4109825 L33.7555597,17.4109825 Z M33.658763,18.1863029 C34.6770344,18.1863029 35.1259579,18.7228882 35.1259579,19.6687336 C35.1259579,20.607758 34.6869427,21.1579854 33.658763,21.1579854 L32.7007037,21.1579854 L32.7007037,18.1863029 L33.658763,18.1863029 Z M38.145712,17.4109825 L36.3103844,21.9333058 L37.2745411,21.9333058 L37.6129487,21.0473336 L39.7226607,21.0473336 L40.0580196,21.9333058 L41.0221763,21.9333058 L39.1838,17.4109825 L38.145712,17.4109825 Z M37.8675165,20.3318865 L38.6678047,18.3500069 L39.4619954,20.3318865 L37.8675165,20.3318865 Z M43.7987951,17.4109825 L41.6883209,17.4109825 L41.6883209,21.9333058 L42.5922654,21.9333058 L42.5922654,20.600937 L43.6440728,20.600937 L44.6859717,21.9333058 L45.7774123,21.9333058 L44.572407,20.4311699 C45.0914511,20.1818244 45.4595836,19.6657021 45.4595836,19.0093703 C45.4595836,17.9900096 44.7164589,17.4109825 43.7987951,17.4109825 L43.7987951,17.4109825 Z M43.6943766,18.1900923 C44.1699764,18.1900923 44.5289628,18.4864269 44.5289628,19.0124018 C44.5289628,19.495935 44.176836,19.8256166 43.6943766,19.8256166 L42.5922654,19.8256166 L42.5922654,18.1900923 L43.6943766,18.1900923 Z M49.9122345,17.4109825 L48.076907,21.9333058 L49.0410637,21.9333058 L49.3794713,21.0473336 L51.4891833,21.0473336 L51.82378,21.9333058 L52.7886989,21.9333058 L50.9503226,17.4109825 L49.9122345,17.4109825 Z M49.6340391,20.3318865 L50.4343273,18.3500069 L51.2277559,20.3318865 L49.6340391,20.3318865 Z M52.1400844,14.0421662 C53.5470672,14.0421662 54.5478085,13.0902577 54.5478085,11.7245418 C54.5478085,10.358826 53.5470672,9.38645446 52.1400844,9.38645446 C50.7399612,9.38645446 49.735409,10.3550365 49.735409,11.7245418 C49.735409,13.0902577 50.7399612,14.0421662 52.1400844,14.0421662 L52.1400844,14.0421662 Z M52.1431331,13.2062147 C51.2658648,13.2062147 50.6660298,12.6067245 50.6660298,11.7207524 C50.6660298,10.8416012 51.2658648,10.2254375 52.1431331,10.2254375 C53.0280231,10.2254375 53.6202364,10.8416012 53.6202364,11.7207524 C53.6202364,12.6067245 53.0280231,13.2062147 52.1431331,13.2062147 L52.1431331,13.2062147 Z M56.2703335,9.45314868 L55.4494665,9.45314868 L55.4494665,13.975472 L56.353411,13.975472 L56.353411,10.9052639 L58.956253,13.975472 L59.7900771,13.975472 L59.7900771,9.45314868 L58.8861325,9.45314868 L58.8861325,12.5567039 L56.2703335,9.45314868 Z"/>
    </g>
  </g>
</svg>
