<svg xmlns="http://www.w3.org/2000/svg" width="77" height="34" viewBox="0 0 77 34">
    <g fill="#63605E" fill-rule="evenodd">
        <path d="M3.595 29.072c.525 0 .629.435.687.84l.002.026.687-.084.029-.007-.004-.025c-.05-.33-.205-1.322-1.413-1.322C2.208 28.5 2 29.763 2 30.514c0 .742.205 1.986 1.569 1.986 1.208 0 1.37-.97 1.421-1.29l.006-.025-.71-.088-.004.025c-.108.589-.295.806-.687.806-.523 0-.788-.47-.788-1.396 0-.981.257-1.46.788-1.46M6 29.991c.284 0 .41.31.41 1.007 0 .698-.126 1.011-.41 1.011s-.41-.31-.41-1.006c0-.7.126-1.012.41-1.012m.006-.491C5.347 29.5 5 30.017 5 30.998c0 .685.173 1.502.994 1.502.669 0 1.006-.515 1.006-1.532 0-.547-.13-1.468-.994-1.468M8.253 29.5c-.402 0-.576.237-.668.42v-.35H7v2.93h.631v-1.638c0-.29 0-.83.43-.83.295 0 .309.212.309.62V32.5H9v-1.882c0-.301-.007-.564-.099-.747-.12-.243-.344-.371-.648-.371M12.19 30.717c-.368-.126-.52-.178-.52-.414 0-.162.1-.323.323-.323.305 0 .39.284.427.404l.007.024.481-.14-.006-.024c-.047-.183-.193-.744-.892-.744a.885.885 0 0 0-.915.893c0 .588.47.748.858.88.224.073.456.148.456.403 0 .036-.012.344-.394.344-.415 0-.472-.348-.49-.463l-.004-.026-.497.101-.024.014.006.026c.037.204.152.828.987.828.693 0 1.007-.475 1.007-.915 0-.595-.506-.767-.81-.868M14.382 30.304c.04.149.045.264.045.365h-.837c.036-.457.177-.69.425-.69.046 0 .278.018.367.325zm.603 1.26l-.518-.083-.005.025c-.04.199-.102.503-.422.503-.45 0-.462-.567-.462-.895H15v-.025c-.004-.342-.01-.696-.187-1.083a.855.855 0 0 0-.783-.506c-.646 0-1.03.577-1.03 1.543 0 .438.099 1.457 1.026 1.457.754 0 .902-.681.953-.909l.006-.028zM15.239 29.266h.522v-.532h-.522zM15.445 32.313c0 .513-.007.621-.212.621a.398.398 0 0 1-.158-.028l-.025-.01v.56l.054.013c.072.014.148.031.248.031.598 0 .598-.598.598-1.174V29.5h-.505v2.813zM18 29.991c.284 0 .41.31.41 1.007 0 .698-.126 1.011-.41 1.011s-.41-.31-.41-1.006c0-.7.126-1.012.41-1.012m.005-.491c-.659 0-1.005.517-1.005 1.498 0 .685.172 1.502.994 1.502.668 0 1.006-.515 1.006-1.532 0-.547-.128-1.468-.995-1.468M21.013 31.997c-.368 0-.415-.561-.415-1.052 0-.424.041-.99.409-.99.158 0 .265.123.328.227.104.18.104.358.104.546v.496c0 .313-.04.445-.104.557-.08.14-.194.216-.322.216zm.426-2.219a.587.587 0 0 0-.553-.314c-.547 0-.886.587-.886 1.532 0 .353.062 1.504.864 1.504.371 0 .53-.228.61-.401v.348H22V28.5h-.56v1.278zM25.38 30.304c.041.149.045.264.046.365h-.836c.035-.457.177-.69.425-.69.046 0 .278.018.366.325zm.62.785c-.006-.342-.011-.696-.187-1.083a.857.857 0 0 0-.783-.506c-.646 0-1.03.577-1.03 1.543 0 .438.099 1.457 1.025 1.457.755 0 .903-.681.953-.909l.006-.028-.517-.082-.005.025c-.04.199-.104.503-.422.503-.45 0-.462-.567-.462-.895H26v-.025zM29.604 30.73h1.078v-.572h-1.078v-1.082h1.37V28.5H29v4h2v-.586h-1.396z"/>
        <path d="M31.013 31.997c-.369 0-.416-.561-.416-1.052 0-.424.043-.99.41-.99.158 0 .266.123.329.227.103.18.103.358.103.546v.496c0 .313-.04.445-.103.557-.08.14-.194.216-.323.216zm.426-2.219a.586.586 0 0 0-.554-.314c-.546 0-.885.587-.885 1.532 0 .353.063 1.504.865 1.504.37 0 .529-.228.61-.401v.348H32V28.5h-.561v1.278zM34.37 30.909c0 .52 0 1.06-.442 1.06-.285 0-.298-.188-.298-.615V29.5H33v1.864c0 .48 0 1.136.73 1.136.41 0 .581-.226.684-.42v.35H35V29.5h-.63v1.409zM37.057 30.013c.28 0 .332.255.37.589l.001.025.572-.064-.004-.025c-.036-.285-.128-1.038-.945-1.038-.869 0-1.051.82-1.051 1.509 0 .679.175 1.491 1.015 1.491.85 0 .94-.717.981-1.06l.004-.026-.572-.058-.002.026c-.026.298-.076.588-.37.588-.439 0-.439-.662-.439-.91 0-.753.123-1.047.44-1.047M39.906 32.02c-.21 0-.315-.13-.315-.396 0-.246.068-.572.66-.572l.132.002v.12c0 .582-.248.846-.477.846m1.047-.396v-.953c0-.308 0-.66-.166-.862-.108-.14-.32-.309-.716-.309-.254 0-.859.08-.98.814l-.004.025.55.083.005-.025c.02-.114.072-.417.387-.417.354 0 .354.376.354.577v.088l-.087-.001c-.293 0-.547.04-.756.117-.333.127-.54.473-.54.904 0 .507.287.835.733.835.405 0 .584-.26.69-.462.004.186.015.257.036.373l.004.02H41l-.007-.031c-.04-.192-.04-.543-.04-.776M42.057 30.013c.28 0 .33.255.37.589l.001.025.572-.064-.004-.025c-.036-.285-.128-1.038-.945-1.038-.869 0-1.051.82-1.051 1.509 0 .679.175 1.491 1.015 1.491.85 0 .94-.717.981-1.06l.004-.026-.573-.058v.026c-.027.298-.077.588-.37.588-.439 0-.439-.662-.439-.91 0-.753.122-1.047.439-1.047M44.236 29.266h.528v-.532h-.528zM44.247 32.5h.506v-3h-.506zM47 29.991c.284 0 .41.31.41 1.007 0 .698-.126 1.011-.41 1.011s-.41-.31-.41-1.006c0-.7.126-1.012.41-1.012m.006-.491c-.66 0-1.006.517-1.006 1.498 0 .685.173 1.502.995 1.502.667 0 1.005-.515 1.005-1.532 0-.547-.128-1.468-.994-1.468M47 27.913l-.266-.339-.734.651.194.201zM49.253 29.5c-.402 0-.576.237-.667.42v-.35H48v2.93h.631v-1.638c0-.29 0-.83.43-.83.294 0 .308.212.308.62V32.5H50v-1.882c0-.301-.006-.564-.099-.747-.12-.243-.345-.371-.648-.371M53.774 30.136l-.029-.01c-.489-.17-.812-.281-.812-.6 0-.155.118-.454.56-.454.428 0 .6.218.733.571l.01.025.66-.206-.008-.023c-.086-.258-.322-.939-1.357-.939-.928 0-1.352.57-1.352 1.1 0 .443.278.706.395.797.241.183.455.254.922.41.391.128.717.26.717.599 0 .086-.034.523-.669.523-.67 0-.8-.492-.85-.682l-.006-.028-.662.168L52 31.4l.007.023c.074.266.296 1.077 1.517 1.077 1.014 0 1.476-.612 1.476-1.18 0-.775-.737-1.022-1.226-1.184M56.38 30.304c.041.149.045.264.046.365h-.836c.035-.457.179-.69.425-.69.045 0 .277.018.366.325zm.62.785c-.007-.342-.011-.696-.188-1.083a.854.854 0 0 0-.782-.506c-.647 0-1.03.577-1.03 1.543 0 .438.099 1.457 1.025 1.457.755 0 .903-.681.953-.909l.006-.028-.518-.082-.004.025c-.04.199-.104.503-.423.503-.45 0-.461-.567-.461-.895H57v-.025zM59.057 30.013c.28 0 .33.255.37.589l.001.025.572-.064-.004-.025c-.036-.285-.128-1.038-.945-1.038-.869 0-1.051.82-1.051 1.509 0 .679.177 1.491 1.015 1.491.85 0 .94-.717.981-1.06l.004-.026-.572-.058-.002.026c-.026.298-.076.588-.37.588-.439 0-.439-.662-.439-.91 0-.753.124-1.047.44-1.047M61.368 30.909c0 .52 0 1.06-.44 1.06-.285 0-.298-.188-.298-.615V29.5H60v1.864c0 .48 0 1.136.73 1.136.41 0 .58-.226.684-.42v.35H62V29.5h-.632v1.409zM64.253 29.5c-.402 0-.577.237-.667.42v-.35H63v2.93h.63v-1.638c0-.29 0-.83.43-.83.295 0 .31.212.31.62V32.5H65v-1.882c0-.301-.007-.564-.099-.747-.12-.243-.345-.371-.648-.371M67.013 31.997c-.369 0-.415-.561-.415-1.052 0-.424.042-.99.41-.99.157 0 .265.123.328.227.103.18.103.358.103.546v.496c0 .313-.04.445-.103.557-.08.14-.194.216-.323.216zm.426-2.219a.586.586 0 0 0-.554-.314c-.547 0-.885.587-.885 1.532 0 .353.063 1.504.865 1.504.37 0 .529-.228.61-.401v.348H68V28.5h-.561v1.278zM68.906 32.02c-.21 0-.315-.13-.315-.396 0-.246.068-.572.66-.572l.13.002v.12c0 .582-.246.846-.475.846m1.047-.396v-.953c0-.308 0-.66-.165-.862-.109-.14-.322-.309-.717-.309-.254 0-.859.08-.98.814l-.004.025.552.083.003-.025c.02-.114.072-.417.387-.417.352 0 .352.376.352.577v.088l-.085-.001c-.291 0-.547.04-.756.117-.333.127-.54.473-.54.904 0 .507.287.835.733.835.405 0 .584-.26.69-.462.003.186.015.257.036.373l.004.02H70l-.007-.031c-.04-.192-.04-.543-.04-.776M72.812 29.5c-.427 0-.758.196-.987.586v-.52H71V32.5h.926v-1.494c0-.241.057-.431.174-.57.144-.17.382-.257.704-.257.048 0 .1.002.152.006l.044.002v-.669l-.031-.005c-.044-.005-.097-.013-.157-.013M73.236 29.266h.528v-.532h-.528zM73.248 32.5h.504v-3h-.504zM74.907 32.02c-.211 0-.315-.13-.315-.396 0-.246.067-.572.659-.572l.13.002v.12c0 .582-.245.846-.474.846zm1.086.38c-.04-.192-.04-.543-.04-.776v-.953c0-.308 0-.66-.165-.862-.108-.14-.322-.309-.716-.309-.254 0-.859.08-.978.814l-.006.025.55.083.005-.025c.02-.114.071-.417.387-.417.352 0 .352.376.352.577v.088l-.086-.001c-.292 0-.546.04-.756.117-.332.127-.54.473-.54.904 0 .507.288.835.733.835.404 0 .585-.26.69-.462.003.186.015.257.037.373l.003.02H76l-.007-.031zM37.983 12.5c-.287-2.469-.696-4.553-3.032-4.553-2.87 0-3.567 2.937-3.567 8 0 1.873 0 6.979 3.567 6.979 2.582 0 2.87-2.766 3.032-4.554l4.017.385c-.327 2.595-1.025 7.743-7.378 7.743C28.066 26.5 27 19.988 27 15.565 27 10.671 28.312 4.5 34.91 4.5c6.025 0 6.804 5.319 7.09 7.574l-4.017.426zM55.686 13.223c0-.808 0-1.745-.378-2.978-.668-2.128-2.346-2.555-3.182-2.555-2.598 0-3.477 2.683-3.687 5.533h7.247zm-7.332 2.937c0 2.34 0 7.065 3.981 7.065 2.764 0 3.308-2.427 3.644-3.916l3.853.554c-.377 1.574-1.55 6.637-7.624 6.637C46.094 26.5 44 21.308 44 15.818 44 8.074 47.643 4.5 52.25 4.5c3.352 0 5.404 2 6.241 3.66 1.426 2.85 1.467 5.447 1.509 8H48.354zM72.906 10.84c-.293-.936-1.004-3.15-3.469-3.15-1.754 0-2.674 1.236-2.674 2.597 0 1.917 1.295 2.341 4.138 3.277 2.464.809 6.099 2.042 6.099 6.299 0 3.233-2.38 6.637-7.563 6.637-6.352 0-7.145-4.554-7.437-6.084l3.635-.725c.167.98.669 3.619 3.97 3.619 2.799 0 3.217-2.002 3.217-2.767 0-2.042-1.88-2.639-3.634-3.192-2.843-.936-6.478-2.085-6.478-6.383 0-3.32 2.507-6.468 6.853-6.468 5.18 0 6.31 3.999 6.685 5.404l-3.342.936zM11 2a1.5 1.5 0 1 0 3 0 1.5 1.5 0 0 0-3 0"/>
        <path d="M17 2.5c-2.173.626-4.257 2.838-5.5 4.38C10.258 5.339 8.173 3.127 6 2.5l5.496 10.993.003.007.001-.001.001.001L17 2.5zM11 13.497l-.008-.006L5.022 3.5c-.508 2.158.245 5.005.87 6.81-1.76.32-4.417 1.037-5.892 2.592l10.997.598v-.003H11"/>
        <path d="M1.75 9.298A1.498 1.498 0 1 0 3.249 6.7a1.499 1.499 0 1 0-1.497 2.597M13.014 13.496L24 12.902c-1.476-1.555-4.134-2.273-5.892-2.592.626-1.806 1.377-4.65.87-6.81l-5.968 9.986-.01.011.003-.001L13 13.5l.013-.004z"/>
        <path d="M22.25 9.298a1.5 1.5 0 1 0-1.5-2.597 1.5 1.5 0 0 0 1.5 2.597M12.5 23.5a1.5 1.5 0 1 0 0 2.999 1.5 1.5 0 0 0 0-2.999"/>
        <path d="M17 25.5l-5.497-10.994-.003.004-.003-.01-.001.006-.001-.006-.01.04-5.452 10.915-.033.04.014-.005-.006.01.02-.015c2.143-.632 4.2-2.799 5.44-4.335l.035-.027c1.24 1.544 3.321 3.745 5.489 4.371l-.002-.001.01.007zM18.115 17.718l-.004-.027.028-.01c1.752-.32 4.37-1.036 5.837-2.567l.024-.012h-.011l.001-.004-.019.002-10.952-.595L13 14.5s.004.001.004.004L13 14.503l.018.017 5.95 9.956a.402.402 0 0 0 .007.019v-.007l.006.012-.003-.027c.495-2.142-.242-4.954-.863-6.755"/>
        <path d="M22.25 18.701a1.5 1.5 0 1 0-1.5 2.6 1.5 1.5 0 0 0 1.5-2.6M1.75 18.701a1.502 1.502 0 0 0-.55 2.05 1.5 1.5 0 1 0 .55-2.05"/>
        <path d="M11 14.51h-.01l.007-.007h-.005c.002 0 .003-.002.004-.003l-.035.01-10.937.592L0 15.099c1.472 1.55 4.122 2.268 5.881 2.587l.009.004c-.624 1.806-1.378 4.647-.87 6.803l.011-.032-.004.039L11 14.51z"/>
    </g>
</svg>
