<?xml version="1.0" encoding="UTF-8"?>
<svg width="117px" height="23px" viewBox="0 0 117 23" version="1.1" xmlns="http://www.w3.org/2000/svg" xmlns:xlink="http://www.w3.org/1999/xlink">
    <!-- Generator: Sketch 52.2 (67145) - http://www.bohemiancoding.com/sketch -->
    <title>Group 21</title>
    <desc>Created with Sketch.</desc>
    <g id="todas-las-pantallas" stroke="none" stroke-width="1" fill="none" fill-rule="evenodd">
        <g id="Desktop---Home_" transform="translate(-906.000000, -2334.000000)" fill="#63605E">
            <g id="Group-21" transform="translate(906.000000, 2334.000000)">
                <g id="Group-12">
                    <path d="M28.543,22.2404414 L29.6112,22.2404414 L29.6112,17.7565966 L31.2961,17.7565966 L31.2961,16.7938034 L26.856,16.7938034 L26.856,17.7565966 L28.543,17.7565966 L28.543,22.2404414 Z M35.7614,21.3059241 L32.7787,21.3059241 L32.7787,19.9260621 L35.3351,19.9260621 L35.3351,18.9880103 L32.7787,18.9880103 L32.7787,17.7325621 L35.7012,17.7325621 L35.7012,16.7938034 L31.7063,16.7938034 L31.7063,22.2404414 L35.7614,22.2404414 L35.7614,21.3059241 Z M35.2084,14.992631 L34.0485,14.992631 L33.4255,16.3329069 L34.283,16.3329069 L35.2084,14.992631 Z M40.8077,20.9531828 C40.4185,21.1892862 39.8662,21.3419759 39.2586,21.3419759 C38.0546,21.3419759 37.1964,20.6159931 37.1964,19.5089931 C37.1964,18.3419069 38.126,17.7163034 39.2775,17.7163034 C39.8942,17.7163034 40.4458,17.8725276 40.7909,18.0414759 L40.8742,17.0709069 C40.4542,16.8736828 39.8347,16.7139241 39.1823,16.7139241 C37.4624,16.7139241 36.0813,17.7565966 36.0813,19.5174759 C36.0813,21.2055448 37.3833,22.3203207 39.1116,22.3203207 C39.9369,22.3203207 40.5011,22.1322862 40.9575,21.9117345 L40.8077,20.9531828 Z M42.6368,18.5426655 L45.7217,22.2404414 L46.7108,22.2404414 L46.7108,16.7938034 L45.6391,16.7938034 L45.6391,20.5318724 L42.5367,16.7938034 L41.5644,16.7938034 L41.5644,22.2404414 L42.6368,22.2404414 L42.6368,18.5426655 Z M47.6747,22.2404414 L48.7471,22.2404414 L48.7471,16.7938034 L47.6747,16.7938034 L47.6747,22.2404414 Z M54.1336,20.9531828 C53.7437,21.1892862 53.1921,21.3419759 52.5845,21.3419759 C51.3805,21.3419759 50.523,20.6159931 50.523,19.5089931 C50.523,18.3419069 51.4526,17.7163034 52.6041,17.7163034 C53.2194,17.7163034 53.7717,17.8725276 54.1175,18.0414759 L54.2008,17.0709069 C53.7801,16.8736828 53.1599,16.7139241 52.5089,16.7139241 C50.789,16.7139241 49.4072,17.7565966 49.4072,19.5174759 C49.4072,21.2055448 50.7092,22.3203207 52.4382,22.3203207 C53.2635,22.3203207 53.827,22.1322862 54.2841,21.9117345 L54.1336,20.9531828 Z M54.4857,19.5294931 C54.4857,21.1737345 55.6771,22.3203207 57.3375,22.3203207 C59.0056,22.3203207 60.1921,21.1737345 60.1921,19.5294931 C60.1921,17.8845448 59.0056,16.7139241 57.3375,16.7139241 C55.6771,16.7139241 54.4857,17.8810103 54.4857,19.5294931 Z M55.5896,19.5252517 C55.5896,18.4663207 56.3001,17.7240793 57.341,17.7240793 C58.3896,17.7240793 59.0924,18.4663207 59.0924,19.5252517 C59.0924,20.5919586 58.3896,21.3137 57.341,21.3137 C56.3001,21.3137 55.5896,20.5919586 55.5896,19.5252517 Z M65.1075,20.6357862 C66.1953,20.6357862 67.0731,19.8900103 67.0731,18.7229241 C67.0731,17.4879759 66.1953,16.7938034 65.1075,16.7938034 L62.6092,16.7938034 L62.6092,22.2404414 L63.6816,22.2404414 L63.6816,20.6357862 L65.1075,20.6357862 Z M64.985,17.7325621 C65.5443,17.7325621 65.9699,18.0895448 65.9699,18.7229241 C65.9699,19.3047 65.552,19.7019759 64.985,19.7019759 L63.6816,19.7019759 L63.6816,17.7325621 L64.985,17.7325621 Z M71.1548,22.2362 L72.4505,22.2362 L71.0204,20.4314931 C71.6364,20.1310621 72.0732,19.5089931 72.0732,18.7186828 C72.0732,17.4915103 71.1912,16.7938034 70.1027,16.7938034 L67.6009,16.7938034 L67.6009,22.2404414 L68.6726,22.2404414 L68.6726,20.6357862 L69.92,20.6357862 L71.1548,22.2362 Z M69.9795,17.7325621 C70.5437,17.7325621 70.9686,18.0895448 70.9686,18.7229241 C70.9686,19.3047 70.5521,19.7019759 69.9795,19.7019759 L68.6726,19.7019759 L68.6726,17.7325621 L69.9795,17.7325621 Z M72.5401,19.5294931 C72.5401,21.1737345 73.7315,22.3203207 75.3919,22.3203207 C77.06,22.3203207 78.2472,21.1737345 78.2472,19.5294931 C78.2472,17.8845448 77.06,16.7139241 75.3919,16.7139241 C73.7315,16.7139241 72.5401,17.8810103 72.5401,19.5294931 Z M73.6447,19.5252517 C73.6447,18.4663207 74.3545,17.7240793 75.3961,17.7240793 C76.4447,17.7240793 77.1475,18.4663207 77.1475,19.5252517 C77.1475,20.5919586 76.4447,21.3137 75.3961,21.3137 C74.3545,21.3137 73.6447,20.5919586 73.6447,19.5252517 Z M79.9846,19.9500966 L82.1581,19.9500966 L82.1581,19.0120448 L79.9846,19.0120448 L79.9846,17.7325621 L82.7531,17.7325621 L82.7531,16.7938034 L78.9122,16.7938034 L78.9122,22.2404414 L79.9846,22.2404414 L79.9846,19.9500966 Z M87.2506,21.3059241 L84.2679,21.3059241 L84.2679,19.9260621 L86.8264,19.9260621 L86.8264,18.9880103 L84.2679,18.9880103 L84.2679,17.7325621 L87.1911,17.7325621 L87.1911,16.7938034 L83.1955,16.7938034 L83.1955,22.2404414 L87.2506,22.2404414 L87.2506,21.3059241 Z M89.7531,16.7139241 C88.4945,16.7139241 87.7119,17.3791138 87.7119,18.3864414 C87.7119,19.2926828 88.435,19.6694586 89.1217,19.8582 L89.9764,20.090769 C90.4321,20.2151828 90.6344,20.3671655 90.6344,20.712131 C90.6344,21.1574759 90.1829,21.3582345 89.6138,21.3582345 C88.9425,21.3582345 88.0654,21.1214241 87.7987,20.9531828 L87.7119,21.9195103 C88.0857,22.1280448 88.9467,22.3203207 89.7097,22.3203207 C90.941,22.3203207 91.7551,21.6268552 91.7551,20.6605276 C91.7551,19.8256828 91.2462,19.441131 90.3572,19.1760448 L89.5781,18.9434759 C89.2092,18.8310793 88.8277,18.7512 88.8277,18.2980793 C88.8277,17.8484931 89.2456,17.6682345 89.8294,17.6682345 C90.4083,17.6682345 91.1083,17.8484931 91.3897,18.0174414 L91.4807,17.0546483 C91.0523,16.8616655 90.5077,16.7139241 89.7531,16.7139241 Z M92.4124,22.2404414 L93.4848,22.2404414 L93.4848,16.7938034 L92.4124,16.7938034 L92.4124,22.2404414 Z M94.161,19.5294931 C94.161,21.1737345 95.3524,22.3203207 97.0121,22.3203207 C98.6802,22.3203207 99.8688,21.1737345 99.8688,19.5294931 C99.8688,17.8845448 98.6802,16.7139241 97.0121,16.7139241 C95.3524,16.7139241 94.161,17.8810103 94.161,19.5294931 Z M95.2649,19.5252517 C95.2649,18.4663207 95.9761,17.7240793 97.0163,17.7240793 C98.0649,17.7240793 98.7677,18.4663207 98.7677,19.5252517 C98.7677,20.5919586 98.0649,21.3137 97.0163,21.3137 C95.9761,21.3137 95.2649,20.5919586 95.2649,19.5252517 Z M101.6062,18.5426655 L104.6918,22.2404414 L105.6809,22.2404414 L105.6809,16.7938034 L104.6085,16.7938034 L104.6085,20.5318724 L101.5068,16.7938034 L100.5345,16.7938034 L100.5345,22.2404414 L101.6062,22.2404414 L101.6062,18.5426655 Z M110.5088,22.2404414 L111.6526,22.2404414 L109.4714,16.7938034 L108.2408,16.7938034 L106.0638,22.2404414 L107.2083,22.2404414 L107.6087,21.1737345 L110.1105,21.1737345 L110.5088,22.2404414 Z M108.8596,17.9248379 L109.8011,20.3113207 L107.9111,20.3113207 L108.8596,17.9248379 Z M116.0108,21.3059241 L113.1086,21.3059241 L113.1086,16.7938034 L112.0355,16.7938034 L112.0355,22.2404414 L116.0108,22.2404414 L116.0108,21.3059241 Z" id="Fill-21"></path>
                    <path d="M27.3313,8.57952414 L27.3313,14.0261621 L29.6546,14.0261621 C31.3745,14.0261621 32.379,12.9870241 32.379,11.2989552 C32.379,9.62219655 31.3948,8.57952414 29.6546,8.57952414 L27.3313,8.57952414 Z M29.5398,13.0916448 L28.4037,13.0916448 L28.4037,9.51404138 L29.5398,9.51404138 C30.7466,9.51404138 31.28,10.1594379 31.28,11.2989552 C31.28,12.4299897 30.7585,13.0916448 29.5398,13.0916448 Z M37.1236,13.0916448 L34.1416,13.0916448 L34.1416,11.7117828 L36.6994,11.7117828 L36.6994,10.773731 L34.1416,10.773731 L34.1416,9.51828276 L37.0641,9.51828276 L37.0641,8.57952414 L33.0685,8.57952414 L33.0685,14.0261621 L37.1236,14.0261621 L37.1236,13.0916448 Z M43.5923,13.0916448 L40.6103,13.0916448 L40.6103,11.7117828 L43.1674,11.7117828 L43.1674,10.773731 L40.6103,10.773731 L40.6103,9.51828276 L43.5335,9.51828276 L43.5335,8.57952414 L39.5372,8.57952414 L39.5372,14.0261621 L43.5923,14.0261621 L43.5923,13.0916448 Z M44.3161,8.57952414 L44.3161,14.0261621 L46.6387,14.0261621 C48.3586,14.0261621 49.3638,12.9870241 49.3638,11.2989552 C49.3638,9.62219655 48.3782,8.57952414 46.6387,8.57952414 L44.3161,8.57952414 Z M46.5239,13.0916448 L45.3878,13.0916448 L45.3878,9.51404138 L46.5239,9.51404138 C47.7321,9.51404138 48.2634,10.1594379 48.2634,11.2989552 C48.2634,12.4299897 47.7433,13.0916448 46.5239,13.0916448 Z M49.998,12.0928 C49.998,13.4648862 51.0137,14.1060414 52.3486,14.1060414 C53.5841,14.1060414 54.7076,13.5129552 54.7076,12.0928 L54.7076,8.57952414 L53.6394,8.57952414 L53.6394,12.0206966 C53.6394,12.7664724 53.1235,13.1354724 52.3486,13.1354724 C51.6213,13.1354724 51.0655,12.7989897 51.0655,12.0206966 L51.0655,8.57952414 L49.998,8.57952414 L49.998,12.0928 Z M60.0416,12.7389034 C59.6531,12.9750069 59.1008,13.1276966 58.4932,13.1276966 C57.2899,13.1276966 56.4317,12.4017138 56.4317,11.2947138 C56.4317,10.1276276 57.3606,9.50202414 58.5128,9.50202414 C59.1288,9.50202414 59.6804,9.65824828 60.0255,9.82719655 L60.1095,8.85592069 C59.6888,8.65940345 59.0693,8.49964483 58.4176,8.49964483 C56.6977,8.49964483 55.3159,9.54231724 55.3159,11.3024897 C55.3159,12.9912655 56.6179,14.1060414 58.3462,14.1060414 C59.1722,14.1060414 59.7357,13.9180069 60.1928,13.6974552 L60.0416,12.7389034 Z M64.8079,14.0261621 L65.9524,14.0261621 L63.7719,8.57952414 L62.5406,8.57952414 L60.3636,14.0261621 L61.5074,14.0261621 L61.9085,12.9594552 L64.4117,12.9594552 L64.8079,14.0261621 Z M63.1601,9.71055862 L64.1009,12.0970414 L62.2102,12.0970414 L63.1601,9.71055862 Z M70.5192,12.7389034 C70.1307,12.9750069 69.5784,13.1276966 68.9701,13.1276966 C67.7675,13.1276966 66.9093,12.4017138 66.9093,11.2947138 C66.9093,10.1276276 67.8382,9.50202414 68.9911,9.50202414 C69.6064,9.50202414 70.1587,9.65824828 70.5038,9.82719655 L70.5871,8.85592069 C70.1657,8.65940345 69.5469,8.49964483 68.8952,8.49964483 C67.1753,8.49964483 65.7928,9.54231724 65.7928,11.3024897 C65.7928,12.9912655 67.0962,14.1060414 68.8231,14.1060414 C69.6498,14.1060414 70.214,13.9180069 70.6704,13.6974552 L70.5192,12.7389034 Z M71.2724,14.0261621 L72.3448,14.0261621 L72.3448,8.57952414 L71.2724,8.57952414 L71.2724,14.0261621 Z M73.021,11.3152138 C73.021,12.9594552 74.2124,14.1060414 75.8728,14.1060414 C77.5409,14.1060414 78.7281,12.9594552 78.7281,11.3152138 C78.7281,9.67026552 77.5409,8.49964483 75.8728,8.49964483 C74.2124,8.49964483 73.021,9.66673103 73.021,11.3152138 Z M74.1249,11.3109724 C74.1249,10.2520414 74.8354,9.5098 75.877,9.5098 C76.9249,9.5098 77.6284,10.2520414 77.6284,11.3109724 C77.6284,12.3776793 76.9249,13.0994207 75.877,13.0994207 C74.8354,13.0994207 74.1249,12.3776793 74.1249,11.3109724 Z M77.3533,6.77835172 L76.1941,6.77835172 L75.5704,8.11862759 L76.4286,8.11862759 L77.3533,6.77835172 Z M80.4655,10.3283862 L83.5518,14.0261621 L84.5409,14.0261621 L84.5409,8.57952414 L83.4678,8.57952414 L83.4678,12.3175931 L80.3668,8.57952414 L79.3931,8.57952414 L79.3931,14.0261621 L80.4655,14.0261621 L80.4655,10.3283862 Z" id="Fill-22"></path>
                    <path d="M31.7805,4.5249069 C31.3906,4.76171724 30.8383,4.9137 30.2307,4.9137 C29.0274,4.9137 28.1706,4.18771724 28.1706,3.08071724 C28.1706,1.91363103 29.0995,1.28802759 30.251,1.28802759 C30.8663,1.28802759 31.4186,1.44495862 31.7644,1.6132 L31.8477,0.642631034 C31.4263,0.446113793 30.8068,0.285648276 30.1558,0.285648276 C28.4366,0.285648276 27.0541,1.32832069 27.0541,3.0892 C27.0541,4.77726897 28.3561,5.89275172 30.0837,5.89275172 C30.9104,5.89275172 31.4746,5.70401034 31.9317,5.48345862 L31.7805,4.5249069 Z M32.1326,3.10121724 C32.1326,4.74545862 33.3233,5.89275172 34.983,5.89275172 C36.6518,5.89275172 37.839,4.74545862 37.839,3.10121724 C37.839,1.45697586 36.6518,0.285648276 34.983,0.285648276 C33.3233,0.285648276 32.1326,1.45273448 32.1326,3.10121724 Z M33.2358,3.09697586 C33.2358,2.03804483 33.9477,1.29651034 34.9879,1.29651034 C36.0358,1.29651034 36.7393,2.03804483 36.7393,3.09697586 C36.7393,4.16368276 36.0358,4.88613103 34.9879,4.88613103 C33.9477,4.88613103 33.2358,4.16368276 33.2358,3.09697586 Z M39.5778,2.11438966 L42.6634,5.81216552 L43.6525,5.81216552 L43.6525,0.365527586 L42.5801,0.365527586 L42.5801,4.10359655 L39.4777,0.365527586 L38.5047,0.365527586 L38.5047,5.81216552 L39.5778,5.81216552 L39.5778,2.11438966 Z M46.4371,0.285648276 C45.1785,0.285648276 44.3959,0.951544828 44.3959,1.95816552 C44.3959,2.8644069 45.119,3.24118276 45.8057,3.42992414 L46.6604,3.6624931 C47.1161,3.7869069 47.3184,3.93959655 47.3184,4.28456207 C47.3184,4.7292 46.8669,4.92995862 46.2978,4.92995862 C45.6265,4.92995862 44.7494,4.69314828 44.4827,4.5249069 L44.3959,5.49123448 C44.7697,5.69976897 45.6307,5.89275172 46.3944,5.89275172 C47.625,5.89275172 48.4398,5.19857931 48.4398,4.23225172 C48.4398,3.39811379 47.9302,3.01285517 47.0412,2.74847586 L46.2621,2.5152 C45.8932,2.40351034 45.5117,2.32292414 45.5117,1.86980345 C45.5117,1.42021724 45.9296,1.23995862 46.5134,1.23995862 C47.093,1.23995862 47.7916,1.42021724 48.0737,1.58916552 L48.1647,0.626372414 C47.7363,0.434096552 47.1924,0.285648276 46.4371,0.285648276 Z M53.1396,4.87764828 L50.1576,4.87764828 L50.1576,3.4984931 L52.714,3.4984931 L52.714,2.55973448 L50.1576,2.55973448 L50.1576,1.30428621 L53.0801,1.30428621 L53.0801,0.365527586 L49.0852,0.365527586 L49.0852,5.81216552 L53.1396,5.81216552 L53.1396,4.87764828 Z M53.4189,5.56757931 C53.9838,5.82418276 54.4724,5.89275172 54.9953,5.89275172 C56.0166,5.89275172 56.9973,5.37954483 56.9973,4.12409655 L56.9973,0.365527586 L54.0265,0.365527586 L54.0265,1.31206207 L55.9249,1.31206207 L55.9249,4.06401034 C55.9249,4.77726897 55.3775,4.92995862 54.7811,4.92995862 C54.3373,4.92995862 53.8606,4.75747586 53.5428,4.62952759 L53.4189,5.56757931 Z M57.628,3.10121724 C57.628,4.74545862 58.8194,5.89275172 60.4791,5.89275172 C62.1479,5.89275172 63.3344,4.74545862 63.3344,3.10121724 C63.3344,1.45697586 62.1479,0.285648276 60.4791,0.285648276 C58.8194,0.285648276 57.628,1.45273448 57.628,3.10121724 Z M58.7319,3.09697586 C58.7319,2.03804483 59.4431,1.29651034 60.4833,1.29651034 C61.5319,1.29651034 62.2347,2.03804483 62.2347,3.09697586 C62.2347,4.16368276 61.5319,4.88613103 60.4833,4.88613103 C59.4431,4.88613103 58.7319,4.16368276 58.7319,3.09697586 Z" id="Fill-23"></path>
                    <path d="M19.6803,5.39198621 L20.171,5.22586552 C20.171,5.22586552 20.5903,5.1064 20.8143,4.9834 C20.9613,4.90281379 21.2847,4.69922759 21.4198,4.54088276 C21.5283,4.41293448 21.7327,4.15774483 21.8482,3.88700345 C21.9637,3.61696897 22.0246,3.5081069 22.0883,3.3016931 C22.1534,3.09457241 21.8363,3.14476207 21.7334,3.15748621 C21.6312,3.17021034 21.4086,3.24726207 21.3729,3.3631931 C21.2987,3.60565862 20.9886,4.44050345 20.5007,4.7161931 C19.9659,5.01803793 19.7055,4.89857241 19.4962,4.95724483 C19.485,4.96077931 19.6803,5.39198621 19.6803,5.39198621" id="Fill-39"></path>
                    <path d="M19.7398,5.51102759 C19.7398,5.51102759 20.8633,5.66654483 21.3568,5.62342414 C21.8496,5.58030345 22.4432,5.60363103 23.2496,5.03952759 C24.0567,4.47471724 24.4004,3.64411379 24.4004,3.64411379 C24.4004,3.64411379 24.5831,3.33166552 24.2289,3.40588966 C23.8754,3.4794069 23.8096,3.78407931 23.8096,3.78407931 C23.8096,3.78407931 23.3805,4.64225172 22.6007,5.00630345 C21.7453,5.4057 21.3736,5.33571724 20.6722,5.27351034 C20.2935,5.23957931 20.1703,5.22544138 20.1703,5.22544138 L19.5501,5.10880345 L19.6621,5.35621724 L19.7398,5.51102759 Z" id="Fill-40"></path>
                    <path d="M19.4381,4.80448448 C19.4381,4.80448448 19.702,4.75641552 20.0604,4.25805345 C20.2704,3.96469138 20.3446,3.26910517 20.3642,3.1602431 C20.3747,3.10298448 20.3978,2.4031569 20.3978,2.4031569 C20.3978,2.4031569 20.4594,2.1762431 20.752,2.20310517 C20.8598,2.21300172 20.8542,2.21936379 20.9242,2.28086379 C21.0411,2.38195 20.8157,3.61336379 20.8157,3.61336379 C20.8157,3.61336379 20.7114,4.12162241 20.3964,4.57120862 C20.0555,5.05684655 19.5494,5.10845 19.5494,5.10845 L19.4381,4.80448448 Z" id="Fill-41"></path>
                    <path d="M7.2938,0.283881034 L7.7383,0.283881034 C8.9787,0.338312069 9.9244,0.651467241 10.7126,1.15407069 C11.428,1.61001897 12.0048,2.27308793 12.3856,3.09591552 C12.429,3.18922586 12.4675,3.26557069 12.4227,3.35746724 C12.373,3.45996724 12.2659,3.53489828 12.1581,3.59145 C12.0517,3.64800172 11.9257,3.69889828 11.806,3.73212241 C11.5575,3.80139828 11.1522,3.83745 11.0143,3.64800172 C10.9828,3.60346724 10.9688,3.54550172 10.9443,3.49319138 C10.5943,2.74388103 10.0805,2.17058793 9.4022,1.73443276 C8.8842,1.40148448 8.2374,1.12650172 7.4562,1.04167414 C7.1951,1.01339828 6.9074,1.0077431 6.6176,1.03248448 C5.5214,1.12438103 4.7682,1.50822586 4.1158,2.04758793 C3.7959,2.31196724 3.5306,2.63219138 3.2954,2.98776034 C3.0602,3.3447431 2.8586,3.72293276 2.6934,4.14848448 C2.4477,4.7797431 2.2678,5.51703621 2.3091,6.39853621 C2.321,6.66503621 2.3574,6.93507069 2.4071,7.18460517 C2.5989,8.16507069 3.0056,8.93700172 3.5418,9.57532931 C3.8085,9.89413966 4.1235,10.1761914 4.463,10.4172431 C4.8081,10.6625362 5.184,10.8675362 5.6075,11.0301224 C6.0275,11.1920017 6.4979,11.3079328 7.0481,11.3439845 C7.4303,11.3687259 7.921,11.3588293 8.3221,11.3390362 C8.4607,11.3326741 8.5895,11.347519 8.6882,11.3998293 C8.7309,11.42245 8.8135,11.48395 8.8086,11.5546397 C8.8051,11.6055362 8.7834,11.6536052 8.7575,11.6903638 C8.6378,11.8571914 8.4439,11.9568638 8.2248,12.0176569 C8.0008,12.0798638 7.7397,12.0833983 7.452,12.0968293 C6.8976,12.1236914 6.311,12.1152086 5.8252,12.0459328 C5.079,11.9391914 4.442,11.722881 3.8701,11.4330534 C2.9335,10.9573121 2.1775,10.2433466 1.6469,9.36962241 C1.2059,8.64434655 0.9126,7.82434655 0.8594,6.72158793 L0.8594,6.30946724 C0.8727,6.06134655 0.8937,5.81393276 0.928,5.58489828 C0.9623,5.36222586 1.012,5.15086379 1.0673,4.9437431 C1.2822,4.13363966 1.6448,3.42532931 2.0823,2.84284655 C2.7522,1.9521569 3.6335,1.28838103 4.7374,0.831018966 C5.4766,0.524225862 6.3264,0.326294828 7.2938,0.283881034" id="Fill-42"></path>
                    <path d="M13.6183,8.98577759 C13.493,8.37219138 13.038,8.03641552 12.5438,7.82081207 C11.946,7.56067414 11.1844,7.44191552 10.371,7.44191552 C9.5387,7.44191552 8.7792,7.56703621 7.9847,7.60591552 C7.5626,7.62641552 7.1447,7.62853621 6.794,7.54936379 C6.4727,7.47726034 6.2039,7.33234655 6.0205,7.12876034 C6.0128,7.12027759 5.9848,7.10472586 5.9974,7.08634655 C6.1612,7.00293276 6.3124,6.90396724 6.4566,6.79651897 C7.0236,6.37026034 7.4639,5.7842431 7.6242,4.95293276 C7.6641,4.73945 7.69,4.4941569 7.6557,4.25593276 C7.6242,4.03113966 7.5269,3.8982431 7.3638,3.7971569 C7.2063,3.70031207 7.0089,3.64305345 6.7527,3.65719138 C6.3495,3.67839828 5.989,3.83532931 5.7006,4.01700172 C5.4157,4.19726034 5.1798,4.43619138 5.0013,4.71895 C4.8284,4.99322586 4.6835,5.33748448 4.6212,5.73900172 C4.5547,6.17232931 4.6072,6.63605345 4.7374,6.95557069 C4.3503,7.02413966 3.8589,7.01353621 3.4305,6.97889828 C3.3248,6.97041552 3.2128,6.95486379 3.1064,6.95557069 C2.8922,6.95627759 2.72,7.03050172 2.5919,7.13795 C2.5317,7.18813966 2.4575,7.26801897 2.4624,7.35779483 C2.4722,7.54936379 2.8208,7.55431207 3.0091,7.56845 C3.3479,7.59319138 3.7175,7.60450172 4.0563,7.58258793 C4.407,7.55855345 4.7262,7.51401897 5.0195,7.44686379 C5.0853,7.50977759 5.1392,7.58188103 5.205,7.64338103 C5.408,7.83070862 5.6516,7.96643276 5.9463,8.05479483 C6.4307,8.20041552 7.0712,8.22020862 7.6928,8.19051897 C8.5468,8.14951897 9.328,8.02510517 10.2135,8.0406569 C9.9748,13.4554845 9.9552,16.5516914 9.9678,22.2040362 C10.0497,22.3192603 10.3787,22.2648293 10.5047,22.2323121 C10.6748,22.1877776 10.8344,22.1199155 10.9037,22.007519 C10.9135,21.9912603 10.9226,21.9735879 10.9268,21.9559155 C10.9415,21.8880534 10.931,21.7933293 10.931,21.7035534 C10.931,19.7122259 10.945,20.2770362 10.945,18.3055017 C10.945,17.61345 10.9639,16.9263466 10.9639,16.247019 C10.9639,15.9055879 10.9786,15.5641569 10.9786,15.222019 C10.9786,14.8805879 10.9821,14.5370362 10.9912,14.1977259 C10.9961,14.0280707 10.9961,13.8570017 11.001,13.6873466 C11.0052,13.5162776 11.0024,13.3466224 11.0101,13.1776741 C11.0262,12.83695 11.0185,12.4990534 11.0332,12.1625707 C11.0479,11.825381 11.0528,11.4881914 11.0612,11.1517086 C11.085,10.1408466 11.127,9.13210517 11.1725,8.14386379 C11.5827,8.23646724 11.9229,8.37148448 12.1819,8.58779483 C12.4136,8.78148448 12.5879,9.04869138 12.6271,9.42122586 C12.6327,9.47353621 12.6257,9.53786379 12.6453,9.58946724 C12.7125,9.76053621 13.0576,9.70822586 13.2291,9.65450172 C13.402,9.60077759 13.5616,9.51100172 13.6232,9.36962241 C13.6673,9.26782931 13.6428,9.10453621 13.6183,8.98577759 M5.7104,6.57667414 C5.5648,6.14263966 5.6075,5.5997431 5.7237,5.19610517 C5.786,4.98332931 5.8602,4.82003621 5.9785,4.66310517 C6.0338,4.58958793 6.0975,4.52384655 6.1689,4.46163966 C6.2396,4.40013966 6.3138,4.33298448 6.3908,4.29339828 C6.4195,4.27855345 6.4496,4.27501897 6.4741,4.26017414 C6.5791,4.29481207 6.6365,4.39589828 6.6456,4.52243276 C6.6554,4.64401897 6.6407,4.77055345 6.6274,4.88295 C6.5371,5.62660517 6.178,6.24867414 5.7104,6.57667414" id="Fill-43"></path>
                    <path d="M15.0638,3.82076724 C14.9091,3.82783621 14.8181,3.98335345 14.8881,4.13392241 C14.949,4.26823276 15.1905,4.28802586 15.2577,4.12968103 C15.2822,4.0745431 15.2927,3.98264655 15.2444,3.90488793 C15.215,3.85752586 15.1576,3.81652586 15.0638,3.82076724" id="Fill-44"></path>
                    <path d="M18.4595,5.98669828 C18.4329,5.71383621 18.33,5.51802586 18.1998,5.33140517 C18.0752,5.15256034 17.9226,5.00552586 17.742,4.88252586 C17.5754,4.76942241 17.3374,4.64147414 17.0511,4.66268103 C16.8229,4.67964655 16.6619,4.81183621 16.5597,4.96664655 C16.5233,5.02319828 16.4575,5.13206034 16.4491,5.20062931 C16.4421,5.25859483 16.4561,5.32716379 16.4589,5.39219828 C16.4778,5.83966379 16.5044,6.31611207 16.4624,6.75368103 C16.4127,7.27678448 16.2699,7.63306034 16.0599,7.96600862 C16.3147,8.06356034 16.601,8.06285345 16.839,7.99852586 C17.0742,7.93419828 17.273,7.8069569 17.4312,7.68042241 C17.7637,7.41462931 18.0444,7.05269828 18.2558,6.68369828 C18.3706,6.48223276 18.4868,6.27157759 18.4595,5.98669828" id="Fill-45"></path>
                    <path d="M19.7615,5.54693793 C19.786,5.69538621 19.8112,5.84171379 19.8119,5.98662759 C19.8133,6.45247241 19.6243,6.82288621 19.4269,7.09574828 C19.1504,7.4810069 18.7731,7.78355862 18.4182,8.07338621 C18.0472,8.37593793 17.6783,8.66505862 17.343,8.98528276 C17.2597,9.06586897 17.1827,9.15635172 17.1022,9.2425931 C16.8635,9.49778276 16.6465,9.7763 16.4351,10.0661276 C15.8744,10.8345241 15.397,11.6792655 15.0687,12.6816448 C14.823,13.4274207 14.6508,14.2601448 14.6508,15.2596966 C14.6508,15.4979207 14.6648,15.7446276 14.6837,15.9750759 C14.69,16.0500069 14.711,16.1313 14.6977,16.199869 C14.6823,16.2797483 14.5668,16.3447828 14.4849,16.3822483 C14.3967,16.4225414 14.2973,16.4557655 14.2063,16.4805069 C14.1181,16.5045414 14.0145,16.5285759 13.8864,16.5413 C13.7856,16.5519034 13.6022,16.5596793 13.5581,16.5038345 C13.5357,16.4769724 13.5357,16.3737655 13.5301,16.3073172 C13.486,15.8485414 13.479,15.283731 13.521,14.8242483 C13.6442,13.4634724 14.0264,12.3995931 14.5584,11.4466966 C14.634,11.3123862 14.7194,11.1681793 14.8041,11.0303345 C14.8328,10.9836793 14.8797,10.9285414 14.8881,10.8854207 C14.9364,10.5786276 14.9511,10.2492138 14.9658,9.91697241 C15.0134,8.88843793 14.9357,7.85778276 14.837,6.93174828 C14.7677,6.29836897 14.6774,5.6960931 14.522,5.15390345 C14.3785,4.65766207 14.1734,4.19747241 13.8913,3.82493793 C13.8724,3.80019655 13.8528,3.7698 13.836,3.75495517 C13.8157,3.73728276 13.78,3.73586897 13.7618,3.71748966 C13.7415,3.69769655 13.7513,3.68143793 13.7387,3.65669655 C13.3873,3.59166207 13.0702,3.48138621 12.751,3.36192069 C12.7076,3.34566207 12.6397,3.32374828 12.6355,3.29688621 C12.6278,3.24457586 12.7132,3.20216207 12.7615,3.17954138 C12.8392,3.14278276 12.9057,3.11592069 12.9932,3.12369655 C13.0282,3.12652414 13.0709,3.14561034 13.1136,3.16116207 C13.3628,3.25376552 13.6638,3.36192069 13.9466,3.42271379 C13.9732,3.42836897 14.0145,3.41423103 14.0586,3.40857586 C14.0936,3.40433448 14.1328,3.40574828 14.165,3.39938621 C14.2273,3.38807586 14.2903,3.36474828 14.3505,3.35273103 C14.7397,3.27426552 15.152,3.23255862 15.5874,3.21205862 C16.1796,3.18448966 16.7522,3.22761034 17.2681,3.34778276 C18.2614,3.57964483 18.9922,4.08083448 19.4598,4.84074828 C19.6831,5.35961034 19.6502,5.19136897 19.7615,5.54693793 M15.6889,9.79043793 C15.8772,9.56352414 16.0683,9.3465069 16.2727,9.1400931 C16.5415,8.86793793 16.8481,8.62688621 17.1526,8.37735172 C17.3003,8.25647241 17.4494,8.13135172 17.5971,8.00340345 C17.7434,7.87616207 17.8974,7.75174828 18.0283,7.61036897 C18.2915,7.32761034 18.5596,7.02293793 18.6443,6.58112759 C18.6933,6.33017931 18.6541,6.07074828 18.5988,5.85090345 C18.4336,5.19631724 18.0605,4.71421379 17.6027,4.37702414 C17.2863,4.14516207 16.923,3.96631724 16.5002,3.83907586 C16.2923,3.77686897 16.0718,3.72738621 15.8233,3.69416207 C15.5965,3.66447241 15.2843,3.64043793 15.0358,3.65245517 C14.8328,3.66164483 14.6599,3.66093793 14.4702,3.68992069 C14.9714,4.40812759 15.2178,5.40131724 15.3501,6.4970069 C15.4845,7.59269655 15.565,8.79866207 15.5083,10.0102828 C15.5769,9.94383448 15.6294,9.86254138 15.6889,9.79043793" id="Fill-46"></path>
                </g>
            </g>
        </g>
    </g>
</svg>