<svg xmlns="http://www.w3.org/2000/svg" width="90" height="33" viewBox="0 0 90 33">
  <defs>
    <filter id="cetp-a">
      <feColorMatrix in="SourceGraphic" values="0 0 0 0 0.388235 0 0 0 0 0.376471 0 0 0 0 0.368627 0 0 0 1.000000 0"/>
    </filter>
  </defs>
  <g fill="none" fill-rule="evenodd" filter="url(#cetp-a)">
    <g transform="translate(0 6)">
      <polygon fill="#00A3DA" points=".033 23 .968 23 .968 1 .033 1"/>
      <path fill="#1A1919" d="M90,21.9333058 L90,21.1579854 L87.5256794,21.1579854 L87.5256794,17.4109825 L86.6120605,17.4109825 L86.6120605,21.9333058 L90,21.9333058 Z M84.9635405,21.9333058 L85.9387864,21.9333058 L84.0799647,17.4109825 L83.0307665,17.4109825 L81.1757964,21.9333058 L82.1510423,21.9333058 L82.4930717,21.0473336 L84.6253629,21.0473336 L84.9635405,21.9333058 Z M84.3611375,20.3318865 L82.750364,20.3318865 L83.5592173,18.3500069 L84.3611375,20.3318865 Z M78.3933413,6.01763814 L81.7812808,6.01763814 L81.7812808,5.24231776 L79.3069603,5.24231776 L79.3069603,1.49531487 L78.3933413,1.49531487 L78.3933413,6.01763814 Z M76.7455917,6.01763814 L77.7200673,6.01763814 L75.8620158,1.49531487 L74.8128176,1.49531487 L72.9578476,6.01763814 L73.9323231,6.01763814 L74.2743525,5.13166598 L76.4066437,5.13166598 L76.7455917,6.01763814 Z M76.1431886,4.41621882 L74.5316449,4.41621882 L75.3404981,2.43433926 L76.1431886,4.41621882 Z M72.7714262,17.3442883 C71.3563182,17.3442883 70.3410148,18.3128703 70.3410148,19.6823756 C70.3410148,21.0480915 71.3563182,22 72.7714262,22 C74.1934672,22 75.2056892,21.0480915 75.2056892,19.6823756 C75.2056892,18.3166598 74.1934672,17.3442883 72.7714262,17.3442883 L72.7714262,17.3442883 Z M74.2681898,19.6785862 C74.2681898,20.5645584 73.6688681,21.1640485 72.7752778,21.1640485 C71.8878503,21.1640485 71.2823659,20.5645584 71.2823659,19.6785862 C71.2823659,18.799435 71.8878503,18.1832713 72.7752778,18.1832713 C73.6688681,18.1832713 74.2681898,18.799435 74.2681898,19.6785862 L74.2681898,19.6785862 Z M72.4717653,6.01763814 L71.2530931,4.51550227 C71.7776922,4.26615681 72.1497647,3.75003445 72.1497647,3.09370263 C72.1497647,2.07434201 71.3986867,1.49531487 70.4712016,1.49531487 L68.3389104,1.49531487 L68.3389104,6.01763814 L69.2525294,6.01763814 L69.2525294,4.6852694 L70.3155937,4.6852694 L71.3686436,6.01763814 L72.4717653,6.01763814 Z M71.2091839,3.09673419 C71.2091839,3.58026733 70.8540588,3.90994901 70.3664359,3.90994901 L69.2525294,3.90994901 L69.2525294,2.27442469 L70.3664359,2.27442469 C70.8471258,2.27442469 71.2091839,2.57075927 71.2091839,3.09673419 L71.2091839,3.09673419 Z M67.6055502,20.6214 C67.6055502,19.9286895 67.1718508,19.6088604 66.4138398,19.3890726 L65.7505801,19.1958109 C65.4355125,19.1025906 65.1104305,19.0358964 65.1104305,18.6592256 C65.1104305,18.2863442 65.4655556,18.1362822 65.9639633,18.1362822 C66.4577489,18.1362822 67.0539893,18.2863442 67.2935639,18.4265537 L67.3713679,17.6269808 C67.0062285,17.4678242 66.5424859,17.3442883 65.899255,17.3442883 C64.8261764,17.3442883 64.1598354,17.8967893 64.1598354,18.7327408 C64.1598354,19.4853245 64.7753342,19.7990905 65.3607899,19.9552157 L66.0887578,20.1484773 C66.478548,20.2515502 66.6511034,20.3781177 66.6511034,20.6645997 C66.6511034,21.0344495 66.2651648,21.2011851 65.7806232,21.2011851 C65.2082633,21.2011851 64.4610369,21.0041339 64.2337877,20.8646824 L64.1598354,21.6672868 C64.4779843,21.8400854 65.2121149,22 65.8622789,22 C66.9114771,22 67.6055502,21.4240044 67.6055502,20.6214 L67.6055502,20.6214 Z M63.9256531,6.01763814 L67.3813823,6.01763814 L67.3813823,5.24231776 L64.8392721,5.24231776 L64.8392721,4.0956318 L67.0193242,4.0956318 L67.0193242,3.31727987 L64.8392721,3.31727987 L64.8392721,2.27442469 L67.3305401,2.27442469 L67.3305401,1.49531487 L63.9256531,1.49531487 L63.9256531,6.01763814 Z M59.9699757,21.9333058 L63.4257048,21.9333058 L63.4257048,21.1579854 L60.8835947,21.1579854 L60.8835947,20.0112994 L63.0636467,20.0112994 L63.0636467,19.2329475 L60.8835947,19.2329475 L60.8835947,18.1900923 L63.3748626,18.1900923 L63.3748626,17.4109825 L59.9699757,17.4109825 L59.9699757,21.9333058 Z M61.9166158,6.01763814 L62.7593638,6.01763814 L62.7593638,1.49531487 L61.8457448,1.49531487 L61.8457448,4.59887006 L59.2011799,1.49531487 L58.372298,1.49531487 L58.372298,6.01763814 L59.2859169,6.01763814 L59.2859169,2.94743007 L61.9166158,6.01763814 Z M53.9590406,6.01763814 L57.4147698,6.01763814 L57.4147698,5.24231776 L54.8726596,5.24231776 L54.8726596,4.0956318 L57.0527117,4.0956318 L57.0527117,3.31727987 L54.8726596,3.31727987 L54.8726596,2.27442469 L57.3639276,2.27442469 L57.3639276,1.49531487 L53.9590406,1.49531487 L53.9590406,6.01763814 Z M53.0870198,9.06965688 L53.8758443,7.95783382 L52.8867324,7.95783382 L52.3552002,9.06965688 L53.0870198,9.06965688 Z M51.1827482,6.08433237 C51.7612709,6.08433237 52.4383966,5.9312388 52.9052204,5.6781039 L52.9052204,3.47037343 L50.7629149,3.47037343 L50.7629149,4.22902026 L51.9985345,4.22902026 L51.9985345,5.13242387 C51.7920843,5.22564421 51.4230932,5.26505443 51.1450017,5.26505443 C50.1158323,5.26505443 49.4256109,4.67238528 49.4256109,3.75685545 C49.4256109,2.7738735 50.2075023,2.25093014 51.2736479,2.25093014 C51.9037831,2.25093014 52.4345449,2.45101282 52.6379137,2.54044371 L52.7087847,1.73859722 C52.2589082,1.53548298 51.7443235,1.43241009 51.2228057,1.43241009 C49.6721185,1.43241009 48.4780971,2.28427725 48.4780971,3.75685545 C48.4780971,5.11575031 49.5165106,6.08433237 51.1827482,6.08433237 L51.1827482,6.08433237 Z M48.3486806,13.975472 L49.2622995,13.975472 L49.2622995,9.45314868 L48.3486806,9.45314868 L48.3486806,13.975472 Z M47.7647656,17.4109825 L45.6324744,17.4109825 L45.6324744,21.9333058 L46.5460934,21.9333058 L46.5460934,20.600937 L47.6091576,20.600937 L48.6622075,21.9333058 L49.7653292,21.9333058 L48.5474274,20.4311699 C49.0712561,20.1818244 49.4440989,19.6657021 49.4440989,19.0093703 C49.4440989,17.9900096 48.6930209,17.4109825 47.7647656,17.4109825 L47.7647656,17.4109825 Z M48.5027478,19.0124018 C48.5027478,19.495935 48.1476228,19.8256166 47.6599998,19.8256166 L46.5460934,19.8256166 L46.5460934,18.1900923 L47.6599998,18.1900923 C48.1406897,18.1900923 48.5027478,18.4864269 48.5027478,19.0124018 L48.5027478,19.0124018 Z M44.287467,11.7078683 C44.287467,10.7385283 45.0793728,10.2186165 46.0615518,10.2186165 C46.5861509,10.2186165 47.0568264,10.3489734 47.3510949,10.488425 L47.4219659,9.68278903 C47.0629891,9.51984291 46.5353087,9.38645446 45.9798961,9.38645446 C44.5139459,9.38645446 43.3368719,10.2519636 43.3368719,11.7146893 C43.3368719,13.1167838 44.4469266,14.0421662 45.9190395,14.0421662 C46.623127,14.0421662 47.1038169,13.8860411 47.4928368,13.7026319 L47.364961,12.9068486 C47.032946,13.1031418 46.5622704,13.2297092 46.0446044,13.2297092 C45.0185163,13.2297092 44.287467,12.6271875 44.287467,11.7078683 L44.287467,11.7078683 Z M45.0893872,6.01763814 L45.9321352,6.01763814 L45.9321352,1.49531487 L45.0185163,1.49531487 L45.0185163,4.59887006 L42.3739514,1.49531487 L41.5450694,1.49531487 L41.5450694,6.01763814 L42.4586884,6.01763814 L42.4586884,2.94743007 L45.0893872,6.01763814 Z M43.1111633,13.975472 L41.2531119,9.45314868 L40.2031433,9.45314868 L38.3489436,13.975472 L39.3234192,13.975472 L39.6654485,13.0894998 L41.7977397,13.0894998 L42.1359174,13.975472 L43.1111633,13.975472 Z M41.5335143,12.3740526 L39.9227409,12.3740526 L40.7315941,10.3921731 L41.5335143,12.3740526 Z M40.6337614,3.76670801 C40.6337614,2.40099215 39.6223097,1.42862064 38.2002687,1.42862064 C36.7851607,1.42862064 35.7698573,2.3972027 35.7698573,3.76670801 C35.7698573,5.13242387 36.7851607,6.08433237 38.2002687,6.08433237 C39.6223097,6.08433237 40.6337614,5.13242387 40.6337614,3.76670801 L40.6337614,3.76670801 Z M39.696262,3.76291856 C39.696262,4.64889073 39.0969403,5.24838087 38.20335,5.24838087 C37.3166928,5.24838087 36.7104381,4.64889073 36.7104381,3.76291856 C36.7104381,2.8837674 37.3166928,2.26760369 38.20335,2.26760369 C39.0969403,2.26760369 39.696262,2.8837674 39.696262,3.76291856 L39.696262,3.76291856 Z M38.6740256,1.11182307 L39.4628501,0 L38.4745084,0 L37.9429763,1.11182307 L38.6740256,1.11182307 Z M33.9364566,6.01763814 L34.8500756,6.01763814 L34.8500756,1.49531487 L33.9364566,1.49531487 L33.9364566,6.01763814 Z M33.7084371,11.7146893 C33.7084371,13.1167838 34.8184918,14.0421662 36.2906047,14.0421662 C36.9946922,14.0421662 37.4753821,13.8860411 37.8651723,13.7026319 L37.7365262,12.9068486 C37.4045112,13.1031418 36.9338356,13.2297092 36.4161695,13.2297092 C35.3900814,13.2297092 34.6590322,12.6271875 34.6590322,11.7078683 C34.6590322,10.7385283 35.450938,10.2186165 36.433117,10.2186165 C36.957716,10.2186165 37.4283916,10.3489734 37.7226601,10.488425 L37.7935311,9.68278903 C37.4345543,9.51984291 36.9068738,9.38645446 36.3514613,9.38645446 C34.8862814,9.38645446 33.7084371,10.2519636 33.7084371,11.7146893 L33.7084371,11.7146893 Z M33.6221594,19.6823756 C33.6221594,21.0480915 34.6366924,22 36.0525708,22 C37.4738414,22 38.4860635,21.0480915 38.4860635,19.6823756 C38.4860635,18.3166598 37.4738414,17.3442883 36.0525708,17.3442883 C34.6366924,17.3442883 33.6221594,18.3128703 33.6221594,19.6823756 L33.6221594,19.6823756 Z M34.5627401,19.6785862 C34.5627401,18.799435 35.1682246,18.1832713 36.0556521,18.1832713 C36.9492423,18.1832713 37.5485641,18.799435 37.5485641,19.6785862 C37.5485641,20.5645584 36.9492423,21.1640485 36.0556521,21.1640485 C35.1682246,21.1640485 34.5627401,20.5645584 34.5627401,19.6785862 L34.5627401,19.6785862 Z M31.5268443,22 C32.2309318,22 32.7116217,21.8438749 33.1006416,21.6604658 L32.9719955,20.8646824 C32.6407508,21.0609756 32.1700752,21.1875431 31.6524092,21.1875431 C30.6263211,21.1875431 29.8952718,20.5850214 29.8952718,19.6657021 C29.8952718,18.6963621 30.6871777,18.1764503 31.6693566,18.1764503 C32.1939557,18.1764503 32.6638609,18.3068072 32.9588997,18.4462588 L33.0297707,17.6406228 C32.6707939,17.4776767 32.1431135,17.3442883 31.5877009,17.3442883 C30.1217507,17.3442883 28.9446767,18.2097974 28.9446767,19.6725231 C28.9446767,21.0746176 30.0539611,22 31.5268443,22 L31.5268443,22 Z M29.8744727,3.75003445 C29.8744727,2.7806945 30.6671489,2.26078269 31.6485575,2.26078269 C32.1731566,2.26078269 32.6438321,2.39113959 32.9381007,2.53059115 L33.0097419,1.72495522 C32.6507652,1.56200909 32.1223144,1.42862064 31.5676722,1.42862064 C30.101722,1.42862064 28.9238776,2.29412981 28.9238776,3.75685545 C28.9238776,5.15894998 30.0339324,6.08433237 31.5068156,6.08433237 C32.2109031,6.08433237 32.691593,5.92820725 33.0806129,5.74479813 L32.9519667,4.94901474 C32.6199517,5.14530798 32.1492762,5.27187543 31.6316101,5.27187543 C30.6062923,5.27187543 29.8744727,4.66935373 29.8744727,3.75003445 L29.8744727,3.75003445 Z M29.7419749,9.45314868 L28.8314372,9.45314868 L28.8314372,12.3702632 C28.8314372,13.5093703 29.6972954,14.0421662 30.8350822,14.0421662 C31.8881321,14.0421662 32.8456603,13.5495384 32.8456603,12.3702632 L32.8456603,9.45314868 L31.935893,9.45314868 L31.935893,12.31039 C31.935893,12.9303431 31.4952606,13.2365302 30.8350822,13.2365302 C30.2157318,13.2365302 29.7419749,12.9568692 29.7419749,12.31039 L29.7419749,9.45314868 Z M25.2193298,3.75003445 C25.2193298,2.7806945 26.0112356,2.26078269 26.9934146,2.26078269 C27.5180137,2.26078269 27.9886892,2.39113959 28.2829577,2.53059115 L28.3538287,1.72495522 C27.9956222,1.56200909 27.4671715,1.42862064 26.9117589,1.42862064 C25.446579,1.42862064 24.2687347,2.29412981 24.2687347,3.75685545 C24.2687347,5.15894998 25.3787894,6.08433237 26.8509023,6.08433237 C27.5549898,6.08433237 28.0356797,5.92820725 28.42547,5.74479813 L28.2968238,4.94901474 C27.9648088,5.14530798 27.4941332,5.27187543 26.9764672,5.27187543 C25.9503791,5.27187543 25.2193298,4.66935373 25.2193298,3.75003445 L25.2193298,3.75003445 Z M20.1928847,6.01763814 L23.6486139,6.01763814 L23.6486139,5.24231776 L21.1065037,5.24231776 L21.1065037,4.0956318 L23.2865558,4.0956318 L23.2865558,3.31727987 L21.1065037,3.31727987 L21.1065037,2.27442469 L23.5977717,2.27442469 L23.5977717,1.49531487 L20.1928847,1.49531487 L20.1928847,6.01763814 Z M19.4525914,6.01763814 L18.2346896,4.51550227 C18.7592887,4.26615681 19.1313611,3.75003445 19.1313611,3.09370263 C19.1313611,2.07434201 18.3802831,1.49531487 17.4520278,1.49531487 L15.3197366,1.49531487 L15.3197366,6.01763814 L16.2333556,6.01763814 L16.2333556,4.6852694 L17.2964198,4.6852694 L18.3494697,6.01763814 L19.4525914,6.01763814 Z M18.1907804,3.09673419 C18.1907804,3.58026733 17.834885,3.90994901 17.347262,3.90994901 L16.2333556,3.90994901 L16.2333556,2.27442469 L17.347262,2.27442469 C17.8279519,2.27442469 18.1907804,2.57075927 18.1907804,3.09673419 L18.1907804,3.09673419 Z M13.2421393,6.01763814 L14.1557583,6.01763814 L14.1557583,1.49531487 L13.2421393,1.49531487 L13.2421393,6.01763814 Z M16.6385525,9.45314868 L13.2336656,9.45314868 L13.2336656,13.975472 L16.6893947,13.975472 L16.6893947,13.2001516 L14.1472846,13.2001516 L14.1472846,12.0534656 L16.3273366,12.0534656 L16.3273366,11.2751137 L14.1472846,11.2751137 L14.1472846,10.2322585 L16.6385525,10.2322585 L16.6385525,9.45314868 Z M13.9469971,17.0274907 L14.6780464,17.0274907 L15.4668708,15.9156676 L14.4785292,15.9156676 L13.9469971,17.0274907 Z M15.8867042,17.4109825 L12.4818172,17.4109825 L12.4818172,21.9333058 L15.9375464,21.9333058 L15.9375464,21.1579854 L13.3954362,21.1579854 L13.3954362,20.0112994 L15.5754883,20.0112994 L15.5754883,19.2329475 L13.3954362,19.2329475 L13.3954362,18.1900923 L15.8867042,18.1900923 L15.8867042,17.4109825 Z M12.3023289,11.7108998 C12.3023289,10.3186578 11.4634325,9.45314868 9.98053491,9.45314868 L8,9.45314868 L8,13.975472 L9.98053491,13.975472 C11.4464851,13.975472 12.3023289,13.1129944 12.3023289,11.7108998 L12.3023289,11.7108998 Z M11.3648294,11.7108998 C11.3648294,12.6499242 10.9211157,13.2001516 9.88193185,13.2001516 L8.91361898,13.2001516 L8.91361898,10.2284691 L9.88193185,10.2284691 C10.9111013,10.2284691 11.3648294,10.7650544 11.3648294,11.7108998 L11.3648294,11.7108998 Z M12.3023289,3.75306601 C12.3023289,2.36082403 11.4634325,1.49531487 9.98053491,1.49531487 L8,1.49531487 L8,6.01763814 L9.98053491,6.01763814 C11.4464851,6.01763814 12.3023289,5.15516053 12.3023289,3.75306601 L12.3023289,3.75306601 Z M11.3648294,3.75306601 C11.3648294,4.6920904 10.9211157,5.24231776 9.88193185,5.24231776 L8.91361898,5.24231776 L8.91361898,2.27063525 L9.88193185,2.27063525 C10.9111013,2.27063525 11.3648294,2.80722061 11.3648294,3.75306601 L11.3648294,3.75306601 Z M11.7846628,17.4109825 L8,17.4109825 L8,18.2097974 L9.43898842,18.2097974 L9.43898842,21.9333058 L10.3487557,21.9333058 L10.3487557,18.2097974 L11.7846628,18.2097974 L11.7846628,17.4109825 Z M16.5568969,19.6725231 C16.5568969,21.0746176 17.6669516,22 19.1398348,22 C19.8439223,22 20.3246122,21.8438749 20.7136321,21.6604658 L20.584986,20.8646824 C20.2537413,21.0609756 19.7830658,21.1875431 19.2646293,21.1875431 C18.2393116,21.1875431 17.5082623,20.5850214 17.5082623,19.6657021 C17.5082623,18.6963621 18.3001682,18.1764503 19.2815767,18.1764503 C19.8061758,18.1764503 20.2768514,18.3068072 20.5718902,18.4462588 L20.6427612,17.6406228 C20.2837844,17.4776767 19.756104,17.3442883 19.2006914,17.3442883 C17.7347412,17.3442883 16.5568969,18.2097974 16.5568969,19.6725231 L16.5568969,19.6725231 Z M20.1451239,13.2001516 L20.1451239,12.0534656 L22.3251759,12.0534656 L22.3251759,11.2751137 L20.1451239,11.2751137 L20.1451239,10.2322585 L22.6371622,10.2322585 L22.6371622,9.45314868 L19.2315049,9.45314868 L19.2315049,13.975472 L22.6880044,13.975472 L22.6880044,13.2001516 L20.1451239,13.2001516 Z M22.4022096,17.4109825 L21.5733276,17.4109825 L21.5733276,21.9333058 L22.4861762,21.9333058 L22.4861762,18.8630977 L25.1168751,21.9333058 L25.9596231,21.9333058 L25.9596231,17.4109825 L25.0460041,17.4109825 L25.0460041,20.5145377 L22.4022096,17.4109825 Z M25.6252971,13.975472 C27.0912473,13.975472 27.947091,13.1129944 27.947091,11.7108998 C27.947091,10.3186578 27.1081947,9.45314868 25.6252971,9.45314868 L23.6447622,9.45314868 L23.6447622,13.975472 L25.6252971,13.975472 Z M25.526694,13.2001516 L24.5583812,13.2001516 L24.5583812,10.2284691 L25.526694,10.2284691 C26.5558635,10.2284691 27.0095916,10.7650544 27.0095916,11.7108998 C27.0095916,12.6499242 26.5666482,13.2001516 25.526694,13.2001516 L25.526694,13.2001516 Z M27.1243718,21.9333058 L28.0379907,21.9333058 L28.0379907,17.4109825 L27.1243718,17.4109825 L27.1243718,21.9333058 Z M43.1612352,17.4109825 L41.0320253,17.4109825 L41.0320253,21.9333058 L41.9456443,21.9333058 L41.9456443,20.600937 L43.1612352,20.600937 C44.0887202,20.600937 44.8359465,19.9817418 44.8359465,19.0124018 C44.8359465,17.9869781 44.0887202,17.4109825 43.1612352,17.4109825 L43.1612352,17.4109825 Z M43.0556991,18.1900923 C43.5333077,18.1900923 43.8953658,18.4864269 43.8953658,19.0124018 C43.8953658,19.495935 43.5402407,19.8256166 43.0556991,19.8256166 L41.9456443,19.8256166 L41.9456443,18.1900923 L43.0556991,18.1900923 Z M50.1820812,11.7245418 C50.1820812,13.0902577 51.1973846,14.0421662 52.6124926,14.0421662 C54.0345336,14.0421662 55.0467557,13.0902577 55.0467557,11.7245418 C55.0467557,10.358826 54.0345336,9.38645446 52.6124926,9.38645446 C51.1973846,9.38645446 50.1820812,10.3550365 50.1820812,11.7245418 L50.1820812,11.7245418 Z M51.122662,11.7207524 C51.122662,10.8416012 51.7289167,10.2254375 52.6163443,10.2254375 C53.5099345,10.2254375 54.1092562,10.8416012 54.1092562,11.7207524 C54.1092562,12.6067245 53.5099345,13.2062147 52.6163443,13.2062147 C51.7289167,13.2062147 51.122662,12.6067245 51.122662,11.7207524 L51.122662,11.7207524 Z M50.1951769,19.6823756 C50.1951769,21.0480915 51.2104803,22 52.6255883,22 C54.0476293,22 55.059081,21.0480915 55.059081,19.6823756 C55.059081,18.3166598 54.0476293,17.3442883 52.6255883,17.3442883 C51.2104803,17.3442883 50.1951769,18.3128703 50.1951769,19.6823756 L50.1951769,19.6823756 Z M51.1357577,19.6785862 C51.1357577,18.799435 51.7420125,18.1832713 52.6286697,18.1832713 C53.5222599,18.1832713 54.1215816,18.799435 54.1215816,19.6785862 C54.1215816,20.5645584 53.5222599,21.1640485 52.6286697,21.1640485 C51.7420125,21.1640485 51.1357577,20.5645584 51.1357577,19.6785862 L51.1357577,19.6785862 Z M56.7869456,9.45314868 L55.9580636,9.45314868 L55.9580636,13.975472 L56.8716826,13.975472 L56.8716826,10.9052639 L59.5023815,13.975472 L60.3443592,13.975472 L60.3443592,9.45314868 L59.4307402,9.45314868 L59.4307402,12.5567039 L56.7869456,9.45314868 Z M59.2435484,17.4109825 L55.970389,17.4109825 L55.970389,21.9333058 L56.884008,21.9333058 L56.884008,20.0317624 L58.7358967,20.0317624 L58.7358967,19.2526526 L56.884008,19.2526526 L56.884008,18.1900923 L59.2435484,18.1900923 L59.2435484,17.4109825 Z M68.5076141,21.9333058 L69.4212331,21.9333058 L69.4212331,17.4109825 L68.5076141,17.4109825 L68.5076141,21.9333058 Z M76.9458792,17.4109825 L76.1169972,17.4109825 L76.1169972,21.9333058 L77.0306162,21.9333058 L77.0306162,18.8630977 L79.661315,21.9333058 L80.5032927,21.9333058 L80.5032927,17.4109825 L79.5896737,17.4109825 L79.5896737,20.5145377 L76.9458792,17.4109825 Z"/>
    </g>
  </g>
</svg>
