<svg xmlns="http://www.w3.org/2000/svg" width="50" height="33" viewBox="0 0 50 33">
  <defs>
    <filter id="codicen-a">
      <feColorMatrix in="SourceGraphic" values="0 0 0 0 0.388235 0 0 0 0 0.376471 0 0 0 0 0.368627 0 0 0 1.000000 0"/>
    </filter>
  </defs>
  <g fill="none" fill-rule="evenodd" filter="url(#codicen-a)">
    <g transform="translate(0 7)">
      <polygon fill="#00A3DA" points=".032 22 .968 22 .968 0 .032 0"/>
      <path fill="#1A1919" d="M50,10.5807347 C50,9.10807347 48.8884059,8.05926954 47.3273782,8.05926954 C45.7748596,8.05926954 44.6593977,9.10433575 44.6593977,10.5807347 C44.6593977,12.053396 45.7748596,13.0812687 47.3273782,13.0812687 C48.8884059,13.0812687 50,12.053396 50,10.5807347 L50,10.5807347 Z M48.971176,10.576997 C48.971176,11.5331055 48.3128833,12.1797309 47.3320195,12.1797309 C46.3573441,12.1797309 45.691316,11.5331055 45.691316,10.576997 C45.691316,9.62911149 46.3573441,8.96454507 47.3320195,8.96454507 C48.3128833,8.96454507 48.971176,9.62911149 48.971176,10.576997 L48.971176,10.576997 Z M42.1654664,13.0087569 L44.0575744,8.13103375 L42.9838843,8.13103375 L41.5342481,12.0145237 L40.0768763,8.13103375 L39.0031863,8.13103375 L40.9022562,13.0087569 L42.1654664,13.0087569 Z M42.6551248,2.5252029 C42.6551248,1.05029902 41.5419836,0 39.9786352,0 C38.4230224,0 37.3060134,1.0465613 37.3060134,2.5252029 C37.3060134,4.00010679 38.4230224,5.02872704 39.9786352,5.02872704 C41.5419836,5.02872704 42.6551248,4.00010679 42.6551248,2.5252029 L42.6551248,2.5252029 Z M41.6239801,2.52146519 C41.6239801,3.47832123 40.9649139,4.12569415 39.982503,4.12569415 C39.0070541,4.12569415 38.3410259,3.47832123 38.3410259,2.52146519 C38.3410259,1.57208458 39.0070541,0.906770611 39.982503,0.906770611 C40.9649139,0.906770611 41.6239801,1.57208458 41.6239801,2.52146519 L41.6239801,2.52146519 Z M37.0151579,13.0087569 L38.0184547,13.0087569 L38.0184547,8.13103375 L37.0151579,8.13103375 L37.0151579,13.0087569 Z M36.6074961,3.44243913 L36.6074961,0.0717642033 L33.8234828,0.0717642033 L33.8234828,0.920973943 L35.6026522,0.920973943 L35.6026522,3.38861598 C35.6026522,4.02851346 35.0890137,4.16531397 34.5305093,4.16531397 C34.1135648,4.16531397 33.6672253,4.0105724 33.3694079,3.89545066 L33.2541486,4.73718496 C33.7824846,4.96742845 34.2404273,5.02872704 34.7316327,5.02872704 C35.6885164,5.02872704 36.6074961,4.56824007 36.6074961,3.44243913 L36.6074961,3.44243913 Z M29.0816097,4.95696284 L32.8828437,4.95696284 L32.8828437,4.11896625 L30.0872272,4.11896625 L30.0872272,2.88103375 L32.4844645,2.88103375 L32.4844645,2.03929944 L30.0872272,2.03929944 L30.0872272,0.913498505 L32.8263744,0.913498505 L32.8263744,0.0717642033 L29.0816097,0.0717642033 L29.0816097,4.95696284 Z M25.6246063,1.42108073 C25.6246063,1.01815463 26.01525,0.855937633 26.5629248,0.855937633 C27.1059582,0.855937633 27.7611566,1.01815463 28.0257114,1.16915848 L28.1115757,0.305745408 C27.7093287,0.133062794 27.199558,0 26.491758,0 C25.3120914,0 24.5787642,0.597287484 24.5787642,1.50032038 C24.5787642,2.31290047 25.2563956,2.65079026 25.8999908,2.81973516 L26.700617,3.02904742 C27.1283912,3.14043144 27.318685,3.27723195 27.318685,3.58671508 C27.318685,3.98590346 26.894005,4.16531397 26.3618013,4.16531397 C25.7329036,4.16531397 24.9098444,3.95301153 24.6607607,3.80200769 L24.5787642,4.66915848 C24.9284096,4.85604443 25.7359978,5.02872704 26.4507597,5.02872704 C27.6048992,5.02872704 28.3683949,4.40677061 28.3683949,3.53961982 C28.3683949,2.79132849 27.8918869,2.44596326 27.057998,2.20824434 L26.3285385,1.99967962 C25.9819873,1.89950876 25.6246063,1.82699701 25.6246063,1.42108073 L25.6246063,1.42108073 Z M22.8460079,4.95696284 L23.7734966,4.95696284 L23.7734966,0.0717642033 L22.7678792,0.0717642033 L22.7678792,3.42449808 L19.8608712,0.0717642033 L18.9488535,0.0717642033 L18.9488535,4.95696284 L19.9536974,4.95696284 L19.9536974,1.64011106 L22.8460079,4.95696284 Z M18.7446358,8.13103375 L16.4038678,8.13103375 L16.4038678,13.0095045 L17.406391,13.0095045 L17.406391,11.5719778 L18.5744544,11.5719778 L19.7301409,13.0057668 L20.9422967,13.0057668 L19.6040519,11.3888296 C20.1803481,11.1197138 20.5887835,10.5627937 20.5887835,9.85561726 C20.5887835,8.75598035 19.7641772,8.13103375 18.7446358,8.13103375 L18.7446358,8.13103375 Z M19.5560917,9.85860743 C19.5560917,10.3796455 19.1646745,10.7354763 18.6301501,10.7354763 L17.406391,10.7354763 L17.406391,8.97127296 L18.6301501,8.97127296 C19.1577125,8.97127296 19.5560917,9.2912217 19.5560917,9.85860743 L19.5560917,9.85860743 Z M18.2162998,2.5252029 C18.2162998,1.05029902 17.1031587,0 15.5398103,0 C13.9834239,0 12.8671885,1.0465613 12.8671885,2.5252029 C12.8671885,4.00010679 13.9834239,5.02872704 15.5398103,5.02872704 C17.1031587,5.02872704 18.2162998,4.00010679 18.2162998,2.5252029 L18.2162998,2.5252029 Z M17.1851552,2.52146519 C17.1851552,3.47832123 16.526089,4.12569415 15.5436781,4.12569415 C14.5682291,4.12569415 13.9022009,3.47832123 13.9022009,2.52146519 C13.9022009,1.57208458 14.5682291,0.906770611 15.5436781,0.906770611 C16.526089,0.906770611 17.1851552,1.57208458 17.1851552,2.52146519 L17.1851552,2.52146519 Z M12.724855,10.5665314 C12.724855,9.06546348 11.8027811,8.13103375 10.1752279,8.13103375 L8,8.13103375 L8,13.0087569 L10.1752279,13.0087569 C11.7849894,13.0087569 12.724855,12.0788125 12.724855,10.5665314 L12.724855,10.5665314 Z M11.6960309,10.5665314 C11.6960309,11.5794532 11.2086932,12.1722554 10.0669307,12.1722554 L9.00484391,12.1722554 L9.00484391,8.96753524 L10.0669307,8.96753524 C11.19709,8.96753524 11.6960309,9.54613413 11.6960309,10.5665314 L11.6960309,10.5665314 Z M9.04584216,2.50726185 C9.04584216,1.45995301 9.91686159,0.899295173 10.99674,0.899295173 C11.5738097,0.899295173 12.091316,1.0398334 12.4146607,1.19083725 L12.4927894,0.31994874 C12.0982779,0.143528407 11.518114,0 10.907008,0 C9.29569942,0 8,0.935177275 8,2.51473729 C8,4.02851346 9.22066489,5.02872704 10.8404825,5.02872704 C11.614808,5.02872704 12.1431439,4.85978214 12.5709181,4.66168304 L12.4301317,3.80200769 C12.0650152,4.01431012 11.547509,4.15111064 10.9781748,4.15111064 C9.85033613,4.15111064 9.04584216,3.5 9.04584216,2.50726185 L9.04584216,2.50726185 Z M8,18.5577745 C8,20.0289406 9.18585505,21 10.758486,21 C11.5103785,21 12.0232434,20.8355404 12.4401879,20.6441692 L12.3017221,19.8091628 C11.9482089,20.0147373 11.4454001,20.1478001 10.8923105,20.1478001 C9.79618749,20.1478001 9.01490008,19.515378 9.01490008,18.5510466 C9.01490008,17.534387 9.86193941,16.9894276 10.9101022,16.9894276 C11.4709273,16.9894276 11.9729625,17.1254806 12.2877981,17.2719991 L12.3636062,16.4265271 C11.980698,16.2545921 11.4167787,16.1155489 10.8234644,16.1155489 C9.25779538,16.1155489 8,17.0238146 8,18.5577745 L8,18.5577745 Z M13.9408785,13.0087569 L14.9434018,13.0087569 L14.9434018,8.13103375 L13.9408785,8.13103375 L13.9408785,13.0087569 Z M17.1650428,16.1850705 L13.5285754,16.1850705 L13.5285754,20.9304784 L17.2191915,20.9304784 L17.2191915,20.1164032 L14.5032508,20.1164032 L14.5032508,18.9143528 L16.8324155,18.9143528 L16.8324155,18.0965399 L14.5032508,18.0965399 L14.5032508,17.0028834 L17.1650428,17.0028834 L17.1650428,16.1850705 Z M19.269104,16.1850705 L18.3826135,16.1850705 L18.3826135,20.9304784 L19.3596095,20.9304784 L19.3596095,17.7085647 L22.1683765,20.9304784 L23.0687909,20.9304784 L23.0687909,16.1850705 L22.0933419,16.1850705 L22.0933419,19.4421188 L19.269104,16.1850705 Z M23.01851,12.1722554 L23.01851,10.935818 L25.4126531,10.935818 L25.4126531,10.0955788 L23.01851,10.0955788 L23.01851,8.97127296 L25.754563,8.97127296 L25.754563,8.13103375 L22.0159867,8.13103375 L22.0159867,13.0087569 L25.8102588,13.0087569 L25.8102588,12.1722554 L23.01851,12.1722554 Z M28.0984253,16.1850705 L24.0558431,16.1850705 L24.0558431,17.0238146 L25.5921171,17.0238146 L25.5921171,20.9304784 L26.5652454,20.9304784 L26.5652454,17.0238146 L28.0984253,17.0238146 L28.0984253,16.1850705 Z M27.6528594,10.5627937 C27.6528594,9.51772747 28.5231053,8.95706963 29.600663,8.95706963 C30.1761857,8.95706963 30.6936919,9.09760786 31.0178101,9.24786416 L31.0951653,8.37921828 C30.7006538,8.20354549 30.1212635,8.05926954 29.5117046,8.05926954 C27.9011695,8.05926954 26.6085643,8.99295173 26.6085643,10.5702691 C26.6085643,12.0818026 27.8276821,13.0812687 29.4444056,13.0812687 C30.2179575,13.0812687 30.7455198,12.9115762 31.1725205,12.7142247 L31.0325076,11.8560444 C30.6673911,12.0675993 30.151432,12.2043998 29.5813242,12.2043998 C28.4565798,12.2043998 27.6528594,11.5540367 27.6528594,10.5627937 L27.6528594,10.5627937 Z M31.3620407,16.1850705 L29.0847039,16.1850705 L29.0847039,20.9304784 L30.0609264,20.9304784 L30.0609264,19.5325716 L31.1965006,19.5325716 L32.3212451,20.9267407 L33.4993646,20.9267407 L32.1982503,19.3539086 C32.7590754,19.0922683 33.1559075,18.5510466 33.1559075,17.8625587 C33.1559075,16.7928236 32.3537342,16.1850705 31.3620407,16.1850705 L31.3620407,16.1850705 Z M31.2506492,17.0028834 C31.7635141,17.0028834 32.1518372,17.3131141 32.1518372,17.8662965 C32.1518372,18.3723836 31.7712497,18.7184964 31.2506492,18.7184964 L30.0609264,18.7184964 L30.0609264,17.0028834 L31.2506492,17.0028834 Z M34.4253062,13.0087569 L34.4253062,8.99295173 L36.0010314,8.99295173 L36.0010314,8.13103375 L31.8447371,8.13103375 L31.8447371,8.99295173 L33.4251036,8.99295173 L33.4251036,13.0087569 L34.4253062,13.0087569 Z M36.0482181,16.1850705 L34.0671517,20.9304784 L35.1083525,20.9304784 L35.4726955,20.000534 L37.7508058,20.000534 L38.1120545,20.9304784 L39.1532554,20.9304784 L37.1683212,16.1850705 L36.0482181,16.1850705 Z M35.7480799,19.25 L36.6121374,17.1703332 L37.4692329,19.25 L35.7480799,19.25 Z M41.070117,16.1850705 L40.094668,16.1850705 L40.094668,20.9304784 L43.7133438,20.9304784 L43.7133438,20.1164032 L41.070117,20.1164032 L41.070117,16.1850705 Z"/>
    </g>
  </g>
</svg>
