<?xml version="1.0" encoding="UTF-8"?>
<svg width="41px" height="23px" viewBox="0 0 41 23" version="1.1" xmlns="http://www.w3.org/2000/svg" xmlns:xlink="http://www.w3.org/1999/xlink">
    <!-- Generator: Sketch 52.2 (67145) - http://www.bohemiancoding.com/sketch -->
    <title>Group 19</title>
    <desc>Created with Sketch.</desc>
    <g id="todas-las-pantallas" stroke="none" stroke-width="1" fill="none" fill-rule="evenodd">
        <g id="Desktop---Home_" transform="translate(-759.000000, -2334.000000)" fill="#63605E">
            <g id="Group-19" transform="translate(759.000000, 2334.000000)">
                <path d="M4.8508,21.0541276 C4.4567,21.2944724 3.8967,21.4485759 3.2793,21.4485759 C2.0592,21.4485759 1.1891,20.7126966 1.1891,19.5894379 C1.1891,18.4053862 2.1313,17.7705931 3.2996,17.7705931 C3.924,17.7705931 4.4847,17.9289379 4.8354,18.1000069 L4.9201,17.1153 C4.4924,16.9159552 3.8638,16.753369 3.203,16.753369 C1.4586,16.753369 0.0565,17.8115931 0.0565,19.5972138 C0.0565,21.310731 1.3774,22.4417655 3.1302,22.4417655 C3.9681,22.4417655 4.5414,22.2501966 5.0041,22.0268172 L4.8508,21.0541276 Z M9.7326,21.4125241 L6.7065,21.4125241 L6.7065,20.0121621 L9.3014,20.0121621 L9.3014,19.0606793 L6.7065,19.0606793 L6.7065,17.7868517 L9.6717,17.7868517 L9.6717,16.8346621 L5.6194,16.8346621 L5.6194,22.3604724 L9.7326,22.3604724 L9.7326,21.4125241 Z M11.554,18.6089724 L14.6844,22.3604724 L15.6875,22.3604724 L15.6875,16.8346621 L14.5997,16.8346621 L14.5997,20.6271621 L11.4539,16.8346621 L10.4662,16.8346621 L10.4662,22.3604724 L11.554,22.3604724 L11.554,18.6089724 Z M17.8127,22.3604724 L18.8956,22.3604724 L18.8956,17.8115931 L20.6043,17.8115931 L20.6043,16.8346621 L16.0998,16.8346621 L16.0998,17.8115931 L17.8127,17.8115931 L17.8127,22.3604724 Z M24.6258,22.356231 L25.9397,22.356231 L24.49,20.525369 C25.1137,20.2199897 25.5568,19.5894379 25.5568,18.7878172 C25.5568,17.5429724 24.6622,16.8346621 23.559,16.8346621 L21.0208,16.8346621 L21.0208,22.3604724 L22.1079,22.3604724 L22.1079,20.7324897 L23.3728,20.7324897 L24.6258,22.356231 Z M23.4337,17.7868517 C24.0056,17.7868517 24.4368,18.1487828 24.4368,18.7920586 C24.4368,19.3816103 24.0133,19.7845414 23.4337,19.7845414 L22.1079,19.7845414 L22.1079,17.7868517 L23.4337,17.7868517 Z M30.6283,22.3604724 L31.7889,22.3604724 L29.5769,16.8346621 L28.3281,16.8346621 L26.1203,22.3604724 L27.2802,22.3604724 L27.6876,21.2782138 L30.2258,21.2782138 L30.6283,22.3604724 Z M28.9574,17.9819552 L29.9115,20.4030759 L27.9942,20.4030759 L28.9574,17.9819552 Z M36.2115,21.4125241 L33.2659,21.4125241 L33.2659,16.8346621 L32.1781,16.8346621 L32.1781,22.3604724 L36.2115,22.3604724 L36.2115,21.4125241 Z" id="Fill-2"></path>
                <path d="M0.3386,8.5019069 L0.3386,14.0270103 L2.6955,14.0270103 C4.4392,14.0270103 5.4591,12.9737345 5.4591,11.2602172 C5.4591,9.56013103 4.4602,8.5019069 2.6955,8.5019069 L0.3386,8.5019069 Z M2.5786,13.0790621 L1.4264,13.0790621 L1.4264,9.44985517 L2.5786,9.44985517 C3.8036,9.44985517 4.3433,10.1051483 4.3433,11.2602172 C4.3433,12.4082172 3.8155,13.0790621 2.5786,13.0790621 Z M6.171,14.0270103 L7.2588,14.0270103 L7.2588,8.5019069 L6.171,8.5019069 L6.171,14.0270103 Z M11.8424,14.0234759 L13.1556,14.0234759 L11.7052,12.1926138 C12.3296,11.8872345 12.7734,11.2566828 12.7734,10.4550621 C12.7734,9.21021724 11.8788,8.5019069 10.7749,8.5019069 L8.2367,8.5019069 L8.2367,14.0270103 L9.3245,14.0270103 L9.3245,12.3997345 L10.5894,12.3997345 L11.8424,14.0234759 Z M10.6489,9.45409655 C11.2222,9.45409655 11.6534,9.81602759 11.6534,10.4593034 C11.6534,11.0488552 11.2299,11.4517862 10.6489,11.4517862 L9.3245,11.4517862 L9.3245,9.45409655 L10.6489,9.45409655 Z M17.7364,13.0790621 L14.711,13.0790621 L14.711,11.6794069 L17.3059,11.6794069 L17.3059,10.7272172 L14.711,10.7272172 L14.711,9.45409655 L17.6762,9.45409655 L17.6762,8.5019069 L13.6232,8.5019069 L13.6232,14.0270103 L17.7364,14.0270103 L17.7364,13.0790621 Z M22.8562,12.7213724 C22.4614,12.9610103 21.9014,13.1158207 21.2847,13.1158207 C20.0639,13.1158207 19.1938,12.3792345 19.1938,11.2566828 C19.1938,10.072631 20.1367,9.43783793 21.305,9.43783793 C21.9294,9.43783793 22.4894,9.59618276 22.8401,9.76725172 L22.9248,8.78254483 C22.4978,8.5832 21.8692,8.42061379 21.2077,8.42061379 C19.464,8.42061379 18.0612,9.47813103 18.0612,11.2644586 C18.0612,12.977269 19.3828,14.1090103 21.1356,14.1090103 C21.9735,14.1090103 22.5461,13.9174414 23.0095,13.6933552 L22.8562,12.7213724 Z M24.9065,14.0270103 L25.9901,14.0270103 L25.9901,9.47813103 L27.6988,9.47813103 L27.6988,8.5019069 L23.1943,8.5019069 L23.1943,9.47813103 L24.9065,9.47813103 L24.9065,14.0270103 Z M28.1139,14.0270103 L29.2017,14.0270103 L29.2017,8.5019069 L28.1139,8.5019069 L28.1139,14.0270103 Z M32.3419,12.9002172 L30.7627,8.5019069 L29.5986,8.5019069 L31.6573,14.0270103 L33.0272,14.0270103 L35.0782,8.5019069 L33.9134,8.5019069 L32.3419,12.9002172 Z M34.962,11.2764759 C34.962,12.9447517 36.1702,14.1090103 37.8544,14.1090103 C39.547,14.1090103 40.7517,12.9447517 40.7517,11.2764759 C40.7517,9.6089069 39.547,8.42061379 37.8544,8.42061379 C36.1702,8.42061379 34.962,9.60466552 34.962,11.2764759 Z M36.082,11.2729414 C36.082,10.1984586 36.803,9.44561379 37.8586,9.44561379 C38.9226,9.44561379 39.6352,10.1984586 39.6352,11.2729414 C39.6352,12.3552 38.9226,13.0875448 37.8586,13.0875448 C36.803,13.0875448 36.082,12.3552 36.082,11.2729414 Z" id="Fill-3"></path>
                <path d="M4.8508,4.40169483 C4.4567,4.64203966 3.8967,4.7961431 3.2793,4.7961431 C2.0592,4.7961431 1.1891,4.06026379 1.1891,2.93700517 C1.1891,1.75295345 2.1313,1.11816034 3.2996,1.11816034 C3.924,1.11816034 4.4847,1.27721207 4.8354,1.44757414 L4.9201,0.462867241 C4.4924,0.263522414 3.8638,0.100936207 3.203,0.100936207 C1.4586,0.100936207 0.0565,1.15916034 0.0565,2.94478103 C0.0565,4.65829828 1.3774,5.78933276 3.1302,5.78933276 C3.9681,5.78933276 4.5414,5.59776379 5.0041,5.37438448 L4.8508,4.40169483 Z M5.2078,2.95750517 C5.2078,4.62578103 6.4167,5.78933276 8.1016,5.78933276 C9.7935,5.78933276 10.9975,4.62578103 10.9975,2.95750517 C10.9975,1.28922931 9.7935,0.100936207 8.1016,0.100936207 C6.4167,0.100936207 5.2078,1.28498793 5.2078,2.95750517 Z M6.3278,2.95326379 C6.3278,1.87878103 7.0495,1.1266431 8.1044,1.1266431 C9.1684,1.1266431 9.8817,1.87878103 9.8817,2.95326379 C9.8817,4.03552241 9.1684,4.76786724 8.1044,4.76786724 C7.0495,4.76786724 6.3278,4.03552241 6.3278,2.95326379 Z M12.7608,1.95653966 L15.8912,5.70803966 L16.8943,5.70803966 L16.8943,0.18222931 L15.8065,0.18222931 L15.8065,3.97472931 L12.66,0.18222931 L11.673,0.18222931 L11.673,5.70803966 L12.7608,5.70803966 L12.7608,1.95653966 Z M19.7202,0.100936207 C18.4427,0.100936207 17.6489,0.77672931 17.6489,1.79748793 C17.6489,2.71716034 18.3825,3.09959138 19.0797,3.29116034 L19.9456,3.52726379 C20.4097,3.65309138 20.6155,3.80790172 20.6155,4.15781552 C20.6155,4.60952241 20.1549,4.81240172 19.5788,4.81240172 C18.8984,4.81240172 18.008,4.57276379 17.7378,4.40169483 L17.6489,5.38216034 C18.0276,5.59352241 18.9019,5.78933276 19.6754,5.78933276 C20.9249,5.78933276 21.7516,5.08526379 21.7516,4.10479828 C21.7516,3.2586431 21.235,2.86772931 20.3327,2.59910862 L19.5431,2.36300517 C19.1679,2.24919483 18.7815,2.16790172 18.7815,1.70841897 C18.7815,1.25247069 19.2043,1.06938448 19.7972,1.06938448 C20.3852,1.06938448 21.0943,1.25247069 21.3799,1.42353966 L21.473,0.446608621 C21.0376,0.251505172 20.4853,0.100936207 19.7202,0.100936207 Z M26.5193,4.76009138 L23.4932,4.76009138 L23.4932,3.36043621 L26.0881,3.36043621 L26.0881,2.40824655 L23.4932,2.40824655 L23.4932,1.13441897 L26.4591,1.13441897 L26.4591,0.18222931 L22.4054,0.18222931 L22.4054,5.70803966 L26.5193,5.70803966 L26.5193,4.76009138 Z M26.8028,5.45991897 C27.3747,5.7200569 27.8703,5.78933276 28.403,5.78933276 C29.4383,5.78933276 30.433,5.26835 30.433,3.99452241 L30.433,0.18222931 L27.4195,0.18222931 L27.4195,1.14290172 L29.3452,1.14290172 L29.3452,3.93372931 C29.3452,4.65829828 28.7894,4.81240172 28.1846,4.81240172 C27.7338,4.81240172 27.2501,4.63779828 26.9281,4.50772931 L26.8028,5.45991897 Z M31.0721,2.95750517 C31.0721,4.62578103 32.2817,5.78933276 33.9652,5.78933276 C35.6571,5.78933276 36.8618,4.62578103 36.8618,2.95750517 C36.8618,1.28922931 35.6571,0.100936207 33.9652,0.100936207 C32.2817,0.100936207 31.0721,1.28498793 31.0721,2.95750517 Z M32.1928,2.95326379 C32.1928,1.87878103 32.9131,1.1266431 33.9694,1.1266431 C35.0327,1.1266431 35.7467,1.87878103 35.7467,2.95326379 C35.7467,4.03552241 35.0327,4.76786724 33.9694,4.76786724 C32.9131,4.76786724 32.1928,4.03552241 32.1928,2.95326379 Z" id="Fill-4"></path>
            </g>
        </g>
    </g>
</svg>