<?xml version="1.0" encoding="UTF-8"?>
<svg width="219px" height="82px" viewBox="0 0 219 82" version="1.1" xmlns="http://www.w3.org/2000/svg" xmlns:xlink="http://www.w3.org/1999/xlink">
    <title>Group 29</title>
    <g id="todas-las-pantallas" stroke="none" stroke-width="1" fill="none" fill-rule="evenodd">
        <g id="Group-29">
            <path d="M104.847168,25.8635883 L104.485491,30.7375222 L90.5666015,30.7375222 L90.5666015,30.1283516 C92.2838578,30.1283516 92.6905314,28.9549445 92.6905314,27.5335463 L92.6905314,18.1690407 C92.6905314,16.7473581 92.2838578,15.573951 90.5666015,15.573951 L90.5666015,14.9420288 L98.6331495,14.9420288 L98.6331495,15.573951 C96.9158932,15.573951 96.5092196,16.7473581 96.5092196,18.1690407 L96.5092196,29.8576091 L100.373473,29.8576091 C102.31628,29.8576091 103.423526,28.1427169 104.124098,25.8635883 L104.847168,25.8635883 Z" id="Fill-1" fill="#556CD7"></path>
            <path d="M112.462046,27.2400523 C112.394267,26.4278248 112.30399,25.5928458 112.213713,25.0288937 C112.03259,25.3897889 111.784257,25.5026931 110.63173,25.8183697 C109.660327,26.1118637 108.982253,26.9468427 109.140309,28.0974984 C109.29865,29.1355343 110.315334,29.7674564 111.151464,29.541648 C112.236212,29.2933726 112.529825,28.3233067 112.462046,27.2400523 M118.088553,30.060666 C117.681879,30.5344654 116.981307,30.9408635 115.716005,30.9408635 C114.495984,30.9408635 113.072057,30.5344654 112.733162,29.4514953 C111.942598,30.6698366 110.677011,30.9408635 109.547267,30.9408635 C107.67167,30.9408635 105.909133,30.3314085 105.592736,28.6842019 C105.276625,27.0369954 106.112755,25.5026931 108.778916,24.9609237 C110.902846,24.5323428 112.213713,24.9836751 111.965096,23.4266213 C111.761474,22.2759656 111.354801,21.079807 110.225057,21.079807 C108.801414,20.9671872 108.146123,22.3661183 109.027534,23.0881932 C108.485018,24.0585434 107.558895,24.126229 106.926102,23.8327351 C106.33859,23.5395255 106.089972,22.9076034 106.406368,22.1178429 C106.9486,20.6512262 108.914474,20.2900466 110.202274,20.2900466 C113.817625,20.2900466 115.309047,21.4859208 115.716005,24.3292859 C116.032117,26.6084146 116.145177,27.5107948 116.145177,27.5107948 C116.281019,28.3005553 116.416292,29.2032199 116.642412,29.4967139 C116.89103,29.7899235 117.388265,29.8123905 117.907714,29.5643995 C117.998276,29.8123905 118.020774,29.835142 118.088553,30.060666" id="Fill-2" fill="#556CD7"></path>
            <path d="M101.209034,46.7693466 C100.463466,48.4614872 98.8364863,50.1991309 96.0572651,50.1991309 C92.6677486,50.1991309 90.385478,48.100592 90.1596431,45.3928825 C89.8435313,41.7600413 92.5774716,39.5485983 95.9669881,39.5485983 C99.2887256,39.5485983 100.395687,40.9023109 100.576525,42.1886222 C100.712083,43.0685353 100.41847,44.0164185 99.6048375,44.4000652 C98.7687074,44.806179 97.5936826,44.5354365 96.7578373,43.3847808 C97.9550754,42.4144305 97.5261885,40.2029875 95.5828125,40.3608259 C94.4077877,40.47373 93.5716576,41.7825084 93.6619346,43.8358287 C93.7977773,46.4081669 95.1080752,47.6043256 97.11923,47.8073824 C98.6331495,47.9652208 99.9212341,47.4462028 100.847356,46.4533855 L101.209034,46.7693466 Z" id="Fill-3" fill="#556CD7"></path>
            <path d="M109.908375,44.4902179 C109.433638,41.7825084 108.349175,40.180236 106.970813,40.4285115 C105.592452,40.6767869 105.140497,42.5498018 105.615235,45.2575113 C106.089402,47.9427537 107.17415,49.5447417 108.530014,49.3192177 C109.908375,49.0709423 110.383113,47.1982118 109.908375,44.4902179 M113.614288,44.8738646 C113.614288,48.0556579 111.150894,50.1991309 107.761662,50.1991309 C104.349648,50.1991309 101.886823,48.0556579 101.886823,44.8738646 C101.886823,41.6923557 104.349648,39.5485983 107.761662,39.5485983 C111.150894,39.5485983 113.614288,41.6923557 113.614288,44.8738646" id="Fill-4" fill="#556CD7"></path>
            <path d="M129.837661,49.3866189 L129.837661,49.9957896 L122.584461,49.9957896 L122.584461,49.3866189 C124.301432,49.3866189 124.324215,48.1682777 124.165874,46.7918136 C124.165874,46.7918136 123.849478,44.7382089 123.714204,43.9035143 C123.510583,42.5719845 123.352527,41.3536432 121.793327,41.3536432 C120.437748,41.3536432 119.872733,42.5495174 119.872733,44.0613527 L119.872733,46.7918136 C119.872733,48.2132118 120.008291,49.3866189 121.725548,49.3866189 L121.725548,49.9957896 L114.291508,49.9957896 L114.291508,49.3866189 C116.008764,49.3866189 116.234599,48.2132118 116.234599,46.7918136 L116.234599,44.512685 C116.234599,43.0910024 116.008764,41.9178797 114.291508,41.9178797 L114.291508,41.3084246 C115.602091,41.3084246 117.906859,40.7441881 119.262723,39.5483139 L119.872733,39.5483139 L119.872733,41.3084246 C120.550523,40.3605415 121.634986,39.5483139 123.465302,39.5483139 C125.747573,39.5483139 126.967878,40.7669396 127.374837,43.6100204 C127.690949,45.8666819 127.803724,46.7918136 127.803724,46.7918136 C127.984847,48.1230591 128.12012,49.3866189 129.837661,49.3866189" id="Fill-5" fill="#556CD7"></path>
            <path d="M140.570655,39.7741223 L140.570655,40.3832929 C139.440912,40.3832929 138.966174,40.9475294 138.604782,41.8499097 L135.328325,49.996074 L133.814121,49.996074 L130.13099,41.8499097 C129.679321,40.9247779 129.385422,40.3832929 128.255963,40.3832929 L128.255963,39.7741223 L134.87637,39.7741223 L134.87637,40.3832929 C133.859401,40.3832929 133.565788,40.7441881 133.972461,41.8499097 L135.938335,46.4533855 L137.791149,41.8499097 C138.288385,40.6091013 137.791149,40.3832929 136.593627,40.3832929 L136.593627,39.7741223 L140.570655,39.7741223 Z" id="Fill-6" fill="#556CD7"></path>
            <path d="M142.152069,36.344338 C142.152069,35.1709308 143.168753,34.2005806 144.411557,34.2005806 C145.654361,34.2005806 146.671045,35.1709308 146.671045,36.344338 C146.671045,37.5177451 145.654361,38.4880954 144.411557,38.4880954 C143.168753,38.4880954 142.152069,37.5177451 142.152069,36.344338 M148.478863,49.3866189 L148.478863,49.996074 L141.022325,49.996074 L141.022325,49.3866189 C142.739582,49.3866189 142.965416,48.2134962 142.965416,46.7918136 L142.965416,44.512685 C142.965416,43.0910024 142.739582,41.9178797 141.022325,41.9178797 L141.022325,41.3084246 C142.332623,41.3084246 144.637677,40.7669396 145.993255,39.5485983 L146.603266,39.5485983 L146.603266,46.7918136 C146.603266,48.2134962 146.738824,49.3866189 148.478863,49.3866189" id="Fill-7" fill="#556CD7"></path>
            <path d="M160.341601,39.7741223 L160.341601,40.3832929 C159.211857,40.3832929 158.73712,40.9475294 158.375727,41.8499097 L155.09927,49.996074 L153.585066,49.996074 L149.901936,41.8499097 C149.450266,40.9247779 149.156652,40.3832929 148.026908,40.3832929 L148.026908,39.7741223 L154.647316,39.7741223 L154.647316,40.3832929 C153.630347,40.3832929 153.336733,40.7441881 153.743407,41.8499097 L155.709281,46.4533855 L157.562095,41.8499097 C158.05933,40.6091013 157.562095,40.3832929 156.364572,40.3832929 L156.364572,39.7741223 L160.341601,39.7741223 Z" id="Fill-8" fill="#556CD7"></path>
            <path d="M163.573061,44.4449994 L167.278975,43.8130772 C167.39175,41.6468528 166.894799,40.2254546 165.335599,40.3605415 C163.911956,40.4961971 163.301946,42.301242 163.573061,44.4449994 L163.573061,44.4449994 Z M170.984318,46.7690622 C170.23875,48.4614872 168.612055,50.1991309 165.832834,50.1991309 C162.420535,50.1991309 160.161047,48.0101549 159.935212,45.3024454 C159.618815,41.6696042 162.352756,39.5483139 165.742272,39.5483139 C168.769826,39.5483139 170.803764,41.1730534 170.690704,44.1515054 L163.708335,45.3249125 C164.250851,48.2359633 168.612055,48.5968585 170.600142,46.4533855 L170.984318,46.7690622 Z" id="Fill-9" fill="#556CD7"></path>
            <path d="M187.208261,49.3866189 L187.208261,49.9957896 L179.95506,49.9957896 L179.95506,49.3866189 C181.672031,49.3866189 181.694814,48.1682777 181.536474,46.7918136 C181.536474,46.7918136 181.220077,44.7382089 181.084804,43.9035143 C180.881182,42.5719845 180.723126,41.3536432 179.163926,41.3536432 C177.808347,41.3536432 177.243333,42.5495174 177.243333,44.0613527 L177.243333,46.7918136 C177.243333,48.2132118 177.378891,49.3866189 179.096147,49.3866189 L179.096147,49.9957896 L171.662107,49.9957896 L171.662107,49.3866189 C173.379364,49.3866189 173.605199,48.2132118 173.605199,46.7918136 L173.605199,44.512685 C173.605199,43.0910024 173.379364,41.9178797 171.662107,41.9178797 L171.662107,41.3084246 C172.97269,41.3084246 175.277459,40.7441881 176.633322,39.5483139 L177.243333,39.5483139 L177.243333,41.3084246 C177.921122,40.3605415 179.005585,39.5483139 180.835901,39.5483139 C183.118172,39.5483139 184.338478,40.7669396 184.745436,43.6100204 C185.061548,45.8666819 185.174323,46.7918136 185.174323,46.7918136 C185.355446,48.1230591 185.49072,49.3866189 187.208261,49.3866189" id="Fill-10" fill="#556CD7"></path>
            <path d="M198.076528,46.7693466 C197.33096,48.4614872 195.70398,50.1991309 192.924759,50.1991309 C189.535243,50.1991309 187.252972,48.100592 187.027137,45.3928825 C186.711025,41.7600413 189.444966,39.5485983 192.834482,39.5485983 C196.15622,39.5485983 197.263181,40.9023109 197.444019,42.1886222 C197.579577,43.0685353 197.285963,44.0164185 196.472331,44.4000652 C195.636201,44.806179 194.461177,44.5354365 193.625331,43.3847808 C194.822854,42.4144305 194.393682,40.2029875 192.450306,40.3608259 C191.275282,40.47373 190.439152,41.7825084 190.529429,43.8358287 C190.665271,46.4081669 191.975569,47.6043256 193.987009,47.8073824 C195.500643,47.9652208 196.788728,47.4462028 197.715135,46.4533855 L198.076528,46.7693466 Z" id="Fill-11" fill="#556CD7"></path>
            <path d="M199.884061,36.344338 C199.884061,35.1709308 200.900745,34.2005806 202.143549,34.2005806 C203.386353,34.2005806 204.403037,35.1709308 204.403037,36.344338 C204.403037,37.5177451 203.386353,38.4880954 202.143549,38.4880954 C200.900745,38.4880954 199.884061,37.5177451 199.884061,36.344338 M206.210855,49.3866189 L206.210855,49.996074 L198.754317,49.996074 L198.754317,49.3866189 C200.471574,49.3866189 200.697408,48.2134962 200.697408,46.7918136 L200.697408,44.512685 C200.697408,43.0910024 200.471574,41.9178797 198.754317,41.9178797 L198.754317,41.3084246 C200.064615,41.3084246 202.369669,40.7669396 203.725247,39.5485983 L204.335258,39.5485983 L204.335258,46.7918136 C204.335258,48.2134962 204.470816,49.3866189 206.210855,49.3866189" id="Fill-12" fill="#556CD7"></path>
            <path d="M213.373494,46.4983197 C213.305715,45.6860921 213.215438,44.8511131 213.125161,44.287161 C212.944037,44.6480562 212.695704,44.7609604 211.543178,45.0766371 C210.571774,45.3701311 209.8937,46.2051101 210.051756,47.3557657 C210.210097,48.3938016 211.226781,49.0257237 212.062911,48.7999154 C213.147659,48.5516399 213.441273,47.5815741 213.373494,46.4983197 M219,49.3189333 C218.593326,49.7927327 217.892754,50.1991309 216.627452,50.1991309 C215.407431,50.1991309 213.983504,49.7927327 213.64461,48.7097627 C212.854045,49.928104 211.588459,50.1991309 210.458715,50.1991309 C208.583118,50.1991309 206.82058,49.5896758 206.504184,47.9424693 C206.188072,46.2952628 207.024202,44.7609604 209.690364,44.219191 C211.814293,43.7906102 213.125161,44.2419425 212.876543,42.6848887 C212.672922,41.534233 212.266248,40.3383588 211.136504,40.3383588 C209.712862,40.2254546 209.05757,41.6243857 209.938981,42.3464605 C209.396465,43.3168108 208.470343,43.3844964 207.837834,43.0910024 C207.250037,42.7977928 207.001419,42.1658707 207.317816,41.3761103 C207.860047,39.9094935 209.825921,39.5483139 211.113721,39.5483139 C214.729073,39.5483139 216.220494,40.7441881 216.627452,43.5875533 C216.943564,45.8666819 217.056624,46.7690622 217.056624,46.7690622 C217.192467,47.559107 217.32774,48.4614872 217.553859,48.7549812 C217.802477,49.0481908 218.299713,49.0706579 218.819161,48.8223825 C218.909723,49.0706579 218.932221,49.0934094 219,49.3189333" id="Fill-13" fill="#556CD7"></path>
            <path d="M97.2775708,65.7568998 C97.2097918,64.9446723 97.1195148,64.1096933 97.0292378,63.5457412 C96.8481143,63.9066364 96.5997814,64.0195406 95.4472546,64.3352173 C94.4758515,64.6287112 93.7977773,65.4636902 93.9558332,66.6143459 C94.1141739,67.6523818 95.130858,68.2843039 95.9669881,68.0584956 C97.0517359,67.8102201 97.3453497,66.8401543 97.2775708,65.7568998 M102.904077,68.5775135 C102.497403,69.0513129 101.796831,69.457711 100.531529,69.457711 C99.3115085,69.457711 97.8875812,69.0513129 97.5486865,67.9683429 C96.7581221,69.1866841 95.4925355,69.457711 94.3627916,69.457711 C92.4871946,69.457711 90.7246575,68.848256 90.4082608,67.2010495 C90.092149,65.553843 90.9282791,64.0195406 93.5944405,63.4777712 C95.7183704,63.0491903 97.0292378,63.5005227 96.7806201,61.9434688 C96.5769985,60.7928132 96.1703249,59.596939 95.040581,59.596939 C93.6169385,59.4840348 92.9616472,60.8829659 93.8430582,61.6050407 C93.3005419,62.575391 92.3744196,62.6430766 91.7416263,62.3495826 C91.1541139,62.056373 90.9054962,61.4244509 91.2218929,60.6346904 C91.7641244,59.1680737 93.7299984,58.8068941 95.0177982,58.8068941 C98.6331495,58.8068941 100.124571,60.0027683 100.531529,62.8461335 C100.847641,65.1252621 100.960701,66.0276423 100.960701,66.0276423 C101.096544,66.8176872 101.231817,67.7200674 101.457936,68.0135614 C101.706554,68.306771 102.20379,68.3292381 102.723238,68.0809626 C102.8138,68.3292381 102.836298,68.3519895 102.904077,68.5775135" id="Fill-14" fill="#556CD7"></path>
            <path d="M111.128681,68.6451991 L111.128681,69.2543698 L103.581582,69.2543698 L103.581582,68.6451991 C105.298838,68.6451991 105.524673,67.471792 105.524673,66.0503938 L105.524673,58.4459989 C105.524673,57.0243163 105.298838,55.8509092 103.581582,55.8509092 L103.581582,55.2192715 C104.892164,55.2192715 107.196933,54.6777864 108.575295,53.4591323 L109.185305,53.4591323 L109.185305,66.0503938 C109.185305,67.471792 109.388927,68.6451991 111.128681,68.6451991" id="Fill-15" fill="#556CD7"></path>
            <path d="M130.448241,64.2902547 L130.086564,69.4576826 L129.612111,69.4576826 C129.273217,68.1486198 127.171785,69.4576826 124.5959,69.4576826 C119.398566,69.4576826 115.828495,65.9823954 115.828495,61.3567368 C115.828495,56.7535454 119.082454,53.2560754 124.414777,53.2560754 C126.990946,53.2560754 129.092378,54.5645694 129.431272,53.2560754 L129.905725,53.2560754 L130.267403,58.3330663 L129.634609,58.3330663 C129.047097,55.5801382 127.55596,53.9104646 124.414777,54.1135215 C121.726117,54.2713599 119.96358,56.7083268 119.96358,61.3567368 C119.96358,66.0051468 121.906671,68.5097994 124.5959,68.6227036 C127.736514,68.7580749 129.227936,67.0656498 129.815448,64.2902547 L130.448241,64.2902547 Z" id="Fill-16" fill="#556CD7"></path>
            <path d="M135.034426,63.7035511 L138.740339,63.071629 C138.853114,60.9054045 138.356164,59.4840063 136.796963,59.6190932 C135.373321,59.7547488 134.763311,61.5597937 135.034426,63.7035511 L135.034426,63.7035511 Z M142.445683,66.0276139 C141.700115,67.720039 140.07342,69.4576826 137.294199,69.4576826 C133.8819,69.4576826 131.622412,67.2687067 131.396577,64.5609972 C131.08018,60.928156 133.814121,58.8068657 137.203637,58.8068657 C140.231191,58.8068657 142.265129,60.4316051 142.152069,63.4100571 L135.169699,64.5834643 C135.712216,67.494515 140.07342,67.8554102 142.061507,65.7119372 L142.445683,66.0276139 Z" id="Fill-17" fill="#556CD7"></path>
            <path d="M158.669625,68.6451991 L158.669625,69.2543698 L151.416425,69.2543698 L151.416425,68.6451991 C153.133396,68.6451991 153.156179,67.4268578 152.997838,66.0503938 C152.997838,66.0503938 152.681442,63.9967891 152.546169,63.1620945 C152.342547,61.8305647 152.184491,60.6122234 150.625291,60.6122234 C149.269712,60.6122234 148.704698,61.8080976 148.704698,63.3199329 L148.704698,66.0503938 C148.704698,67.471792 148.840256,68.6451991 150.557512,68.6451991 L150.557512,69.2543698 L143.123472,69.2543698 L143.123472,68.6451991 C144.840729,68.6451991 145.066563,67.471792 145.066563,66.0503938 L145.066563,63.7712652 C145.066563,62.3495826 144.840729,61.1764599 143.123472,61.1764599 L143.123472,60.5670048 C144.434055,60.5670048 146.739108,60.0027683 148.094687,58.8068941 L148.704698,58.8068941 L148.704698,60.5670048 C149.382487,59.6191216 150.467235,58.8068941 152.297266,58.8068941 C154.579537,58.8068941 155.799842,60.0255198 156.206801,62.8686005 C156.522913,65.1252621 156.635688,66.0503938 156.635688,66.0503938 C156.816811,67.3816393 156.952369,68.6451991 158.669625,68.6451991" id="Fill-18" fill="#556CD7"></path>
            <path d="M166.171159,66.9754971 C165.583647,68.3744282 164.702521,69.4576826 163.030545,69.4576826 C161.222727,69.4576826 159.754088,68.2618084 159.754088,65.8473085 L159.754088,59.9125872 L157.991551,59.9125872 L157.991551,59.032674 C160.228541,58.9197698 162.239411,57.65621 162.714148,55.219243 L163.414436,55.219243 L163.414436,59.032674 L165.809766,59.032674 L165.809766,59.9125872 L163.414436,59.9125872 L163.414436,66.0276139 C163.414436,67.0884013 163.798611,67.3816108 164.340843,67.494515 C164.92864,67.5846677 165.403093,67.3139252 165.741987,66.7496887 L166.171159,66.9754971 Z" id="Fill-19" fill="#556CD7"></path>
            <path d="M177.469452,61.8532877 C176.926936,63.1620661 175.548575,63.365123 174.803006,63.0943805 C175.029126,62.30462 175.029126,61.3342698 174.147715,61.0410602 C173.131031,60.7250991 172.317399,61.2890512 172.227122,62.30462 L172.227122,66.0503654 C172.227122,67.4720479 172.36268,68.6451707 174.079936,68.6451707 L174.079936,69.2546257 L166.623398,69.2546257 L166.623398,68.6451707 C168.363153,68.6451707 168.56649,67.4720479 168.56649,66.0503654 L168.56649,63.7712367 C168.56649,62.3495542 168.363153,61.1764314 166.623398,61.1764314 L166.623398,60.5669764 C167.956479,60.5669764 170.23875,60.0030243 171.617111,58.8071501 L172.227122,58.8071501 L172.227122,60.8380033 C172.950192,59.4612549 174.034655,58.5361232 175.706915,58.8071501 C177.333895,59.0778926 177.966403,60.5669764 177.469452,61.8532877" id="Fill-20" fill="#556CD7"></path>
            <path d="M185.897963,63.7485137 C185.423225,61.0408042 184.338762,59.4385318 182.960401,59.6868073 C181.582039,59.9350827 181.130085,61.8080976 181.604822,64.5158071 C182.07899,67.2010495 183.163738,68.8030375 184.519601,68.5775135 C185.897963,68.3292381 186.372415,66.4565076 185.897963,63.7485137 M189.603876,64.1321604 C189.603876,67.3139537 187.140482,69.4574267 183.75125,69.4574267 C180.339235,69.4574267 177.876411,67.3139537 177.876411,64.1321604 C177.876411,60.9506515 180.339235,58.8068941 183.75125,58.8068941 C187.140482,58.8068941 189.603876,60.9506515 189.603876,64.1321604" id="Fill-21" fill="#556CD7"></path>
            <path d="M10.7988508,54.3563935 C11.5150862,61.1465701 14.4791333,67.7456344 19.6904223,72.9497491 C25.7321457,78.9831549 33.6508046,82 41.5695489,82 C49.4882933,82 57.4070376,78.9831549 63.448761,72.9497491 C67.1643568,69.2392685 69.7376782,64.8197952 71.1681555,60.1273042 C65.3767585,65.1226741 58.1708322,67.6210701 50.9654754,67.6210701 C44.5837182,67.6210701 38.2025305,65.661884 32.8032831,61.7432274 C32.1835899,61.7801986 31.5624729,61.7989686 30.9419254,61.7989686 C23.7608608,61.7989686 16.5802803,59.318205 10.7988508,54.3563935" id="Fill-22" fill="#F8A264"></path>
            <path d="M50.9654754,5.82210153 C50.3449279,5.82210153 49.7238108,5.84087149 49.1044025,5.87784263 C50.4047329,6.82145991 51.6483909,7.87940333 52.8211374,9.05025093 C58.0324265,14.25465 60.9964735,20.8534299 61.7127089,27.6438909 C62.3064866,28.1535239 62.886025,28.6896054 63.448761,29.2515668 C71.8168968,37.6078978 74.3899334,49.5595301 71.1681555,60.1273042 C71.7414287,59.6327441 72.3004625,59.1140105 72.8446875,58.5705348 C84.9284191,46.5034387 84.9284191,26.9394485 72.8446875,14.8723525 C66.8029641,8.83894663 58.8842198,5.82210153 50.9654754,5.82210153" id="Fill-23" fill="#F38B91"></path>
            <path d="M61.7127089,27.6438909 C62.6573422,36.5983013 59.6932952,45.8857363 52.8211374,52.7487176 C47.2527275,58.3094901 40.0906581,61.3075652 32.8032831,61.7432559 C38.2025305,65.6619124 44.5837182,67.6210985 50.9654754,67.6210985 C58.1708322,67.6210985 65.3767585,65.122987 71.1681555,60.1273326 C74.3899334,49.5598145 71.8168968,37.6078978 63.448761,29.2515668 C62.886025,28.6896054 62.3064866,28.1535239 61.7127089,27.6438909" id="Fill-24" fill="#FCC898"></path>
            <path d="M30.9419254,0 C23.0232665,0 15.1044936,3.01684511 9.0627987,9.05025093 C-3.0209329,21.117347 -3.0209329,40.6813372 9.0627987,52.7484332 C9.62553476,53.3103946 10.2050447,53.846789 10.7988224,54.3564219 C9.854189,45.4016987 12.8179797,36.1142637 19.6903938,29.2515668 C20.2346188,28.708091 20.7936527,28.1896418 21.3669258,27.6950817 C22.7974031,23.0025908 25.3707245,18.5831174 29.0862633,14.8723525 C34.6546733,9.31160845 41.8167427,6.31353331 49.1041177,5.87784263 C43.7048703,1.95918608 37.3236826,0 30.9419254,0" id="Fill-25" fill="#BCC3E2"></path>
            <path d="M21.3669827,27.6950817 C20.7937096,28.1896418 20.2346758,28.708091 19.6904508,29.2515668 C12.8180082,36.1142637 9.85424596,45.4019831 10.7988793,54.3563935 C16.5803088,59.3184894 23.7608893,61.7989686 30.9419254,61.7989686 C31.5624729,61.7989686 32.1835899,61.7801986 32.8032831,61.7432274 C31.5026679,60.7996102 30.2590098,59.7416668 29.0862633,58.5708192 C20.7182415,50.2142037 18.1452049,38.2625714 21.3669827,27.6950817" id="Fill-26" fill="#F48D7E"></path>
            <path d="M49.1044025,5.87784263 C41.8170275,6.31353331 34.6546733,9.31189285 29.0862633,14.8723525 C25.3706106,18.5831174 22.797574,23.0025908 21.3670966,27.6950817 C27.1582089,22.6994274 34.3644769,20.2013158 41.5695489,20.2013158 C48.7509837,20.2013158 55.9315642,22.681795 61.7127089,27.6438909 C60.9964735,20.8534299 58.0327113,14.25465 52.8214222,9.05025093 C51.6486757,7.87940333 50.4047329,6.82145991 49.1044025,5.87784263" id="Fill-27" fill="#716CB1"></path>
            <path d="M41.5695489,20.2013158 C34.3641922,20.2013158 27.1583228,22.6994274 21.3669258,27.6950817 C18.1451479,38.2625714 20.7181845,50.2142037 29.0862633,58.5705348 C30.2590098,59.7416668 31.5026679,60.7996102 32.8032831,61.7432274 C40.0906581,61.3075368 47.2527275,58.3091772 52.8211374,52.7487176 C59.6932952,45.8857363 62.6573422,36.5983013 61.7127089,27.6438909 C55.9312794,22.681795 48.7506989,20.2013158 41.5695489,20.2013158" id="Fill-28" fill="#FBD5C9"></path>
        </g>
    </g>
</svg>