<?xml version="1.0" encoding="UTF-8"?>
<svg width="94px" height="38px" viewBox="0 0 94 38" version="1.1" xmlns="http://www.w3.org/2000/svg" xmlns:xlink="http://www.w3.org/1999/xlink">
    <!-- Generator: Sketch 52.2 (67145) - http://www.bohemiancoding.com/sketch -->
    <title>Group 16</title>
    <desc>Created with Sketch.</desc>
    <g id="todas-las-pantallas" stroke="none" stroke-width="1" fill="none" fill-rule="evenodd">
        <g id="Desktop---Home_" transform="translate(-536.000000, -2319.000000)">
            <g id="Group-16" transform="translate(536.000000, 2319.000000)">
                <path d="M14.3599,37.3205328 L14.3599,15.4654121 M36.8019,37.3205328 L36.8019,15.4654121 M56.712,37.3205328 L56.712,15.4654121" id="Stroke-6" stroke="#1D1D1B" stroke-width="0.5"></path>
                <path d="M0.2416,22.2886603 L1.8117,22.2886603 C3.0619,22.2886603 4.079,22.4604362 5.0639,23.3285052 C6.0152,24.1746603 6.4464,25.3297293 6.4464,26.6113328 C6.4464,27.8681948 6.004,28.9773155 5.0856,29.8234707 C4.0909,30.7381948 3.0948,30.9099707 1.79,30.9099707 L0.2416,30.9099707 L0.2416,22.2886603 Z M1.8446,30.0178672 C2.8631,30.0178672 3.715,29.869419 4.478,29.1257638 C5.1633,28.4626948 5.5182,27.559281 5.5182,26.5986086 C5.5182,25.6160224 5.1528,24.6673672 4.4332,24.0149017 C3.6702,23.3179017 2.8295,23.1800569 1.8446,23.1800569 L1.1705,23.1800569 L1.1705,30.0178672 L1.8446,30.0178672 Z" id="Fill-7" fill="#63605E"></path>
                <path d="M23.7014,28.4629069 L22.6948,30.9094759 L21.677,30.9094759 L25.527,21.8760448 L29.2762,30.9094759 L28.2472,30.9094759 L27.2637,28.4629069 L23.7014,28.4629069 Z M25.5039,24.1176138 L24.078,27.5708034 L26.8983,27.5708034 L25.5039,24.1176138 Z" id="Fill-8" fill="#63605E"></path>
                <polygon id="Fill-9" fill="#63605E" points="47.1066 30.9098293 46.177 30.9098293 46.177 23.1806224 44.1645 23.1806224 44.1645 22.288519 49.1422 22.288519 49.1422 23.1806224 47.1066 23.1806224"></polygon>
                <path d="M66.0535,28.4629069 L65.0469,30.9094759 L64.0291,30.9094759 L67.8791,21.8760448 L71.6283,30.9094759 L70.6,30.9094759 L69.6151,28.4629069 L66.0535,28.4629069 Z M67.8574,24.1176138 L66.4294,27.5708034 L69.2504,27.5708034 L67.8574,24.1176138 Z" id="Fill-10" fill="#63605E"></path>
                <path d="M83.1475,15.365669 C80.6639,13.5298586 78.111,11.901169 75.5119,10.4852552 C79.3122,16.9272034 82.1374,24.5277552 83.487,32.9560828 C84.0708,27.0725828 83.9532,21.1586862 83.1475,15.365669" id="Fill-11" fill="#63605E"></path>
                <path d="M79.9947,2.73558953e-13 C85.3035,5.41977586 89.9935,12.1119655 93.6132,19.9026724 C90.9168,25.9021034 87.5869,31.3042069 83.8062,36.0227414 C85.5541,23.5325862 84.1184,11.1421034 79.9947,2.73558953e-13" id="Fill-12" fill="#63605E"></path>
            </g>
        </g>
    </g>
</svg>