<svg xmlns="http://www.w3.org/2000/svg" width="110" height="43" viewBox="0 0 110 43">
    <g fill="#63605E" fill-rule="evenodd">
        <path d="M16.5 43.5v-26M42.5 43.5v-26M66.5 43.5v-26M1.808 35.362c1.149 0 2.11-.19 2.972-1.14.773-.844 1.172-1.996 1.172-3.223 0-1.255-.411-2.464-1.222-3.296-.863-.89-1.81-1.065-2.922-1.065h-.76v8.724h.76zM0 25.5h1.772c1.41 0 2.558.218 3.669 1.326C6.515 27.906 7 29.38 7 31.015c0 1.603-.499 3.02-1.534 4.099-1.124 1.168-2.248 1.386-3.72 1.386H0v-11zM29.533 28.23l-1.69 4.204h3.34l-1.65-4.205zm-2.137 5.291L26.205 36.5H25l4.56-11 4.44 11h-1.218l-1.165-2.979h-4.22zM55.547 36.5h-1.12v-9.862H52V25.5h6v1.138h-2.453zM79.533 28.23l-1.69 4.204h3.341l-1.65-4.205zm-2.136 5.291L76.206 36.5H75l4.56-11 4.44 11h-1.218l-1.166-2.979h-4.219zM97.155 19.146A79.119 79.119 0 0 0 88 13.5c4.556 7.453 7.944 16.246 9.562 26 .7-6.807.559-13.65-.407-20.354"/>
        <path d="M94 .5c6.238 6.32 11.747 14.122 16 23.205C106.832 30.7 102.921 37 98.478 42.5c2.054-14.563.367-29.01-4.478-42"/>
    </g>
</svg>
