<svg xmlns="http://www.w3.org/2000/svg" xmlns:xlink="http://www.w3.org/1999/xlink" width="36" height="35" viewBox="0 0 36 35">
    <defs>
        <path id="a" d="M0 0h36v35H0z"/>
    </defs>
    <g fill="none" fill-rule="evenodd">
        <mask id="b" fill="#fff">
            <use xlink:href="#a"/>
        </mask>
        <path fill="#383A48" d="M21.989 12.811a.296.296 0 0 1-.301.293h-1.29c-.888 0-1.05.337-1.05 1.001v1.38h2.251c.08 0 .156.03.212.087a.284.284 0 0 1 .088.205v2.359a.297.297 0 0 1-.301.293h-2.25v5.953c0 .16-.134.293-.302.293h-2.51a.297.297 0 0 1-.3-.293V18.43H14.31c-.165 0-.3-.13-.3-.293v-2.359c0-.161.134-.293.3-.293h1.926v-1.628c0-2.144 1.389-3.53 3.538-3.53l1.915.003c.166 0 .3.131.3.292v2.19zM17.999 0C8.059 0 0 7.835 0 17.5S8.059 35 17.999 35C27.94 35 36 27.165 36 17.5S27.94 0 17.999 0z" mask="url(#b)"/>
    </g>
</svg>
