<svg xmlns="http://www.w3.org/2000/svg" width="261" height="134" viewBox="0 0 261 134">
    <g fill="none" fill-rule="evenodd">
        <g fill="#383A48" fill-rule="nonzero" transform="translate(44.301 76.033)">
            <ellipse cx="51.788" cy="47.706" rx="1" ry="1"/>
            <ellipse cx="51.788" cy="51.964" rx="1" ry="1"/>
            <ellipse cx="51.788" cy="56.223" rx="1" ry="1"/>
            <ellipse cx="47.547" cy="39.206" rx="1" ry="1"/>
            <ellipse cx="47.547" cy="43.464" rx="1" ry="1"/>
            <ellipse cx="47.547" cy="47.706" rx="1" ry="1"/>
            <ellipse cx="47.547" cy="51.964" rx="1" ry="1"/>
            <ellipse cx="47.547" cy="56.223" rx="1" ry="1"/>
            <ellipse cx="43.305" cy="34.947" rx="1" ry="1"/>
            <ellipse cx="43.305" cy="39.206" rx="1" ry="1"/>
            <ellipse cx="43.305" cy="43.464" rx="1" ry="1"/>
            <ellipse cx="43.305" cy="47.706" rx="1" ry="1"/>
            <ellipse cx="43.305" cy="51.964" rx="1" ry="1"/>
            <ellipse cx="43.305" cy="56.223" rx="1" ry="1"/>
            <ellipse cx="39.081" cy="9.431" rx="1" ry="1"/>
            <ellipse cx="39.081" cy="13.689" rx="1" ry="1"/>
            <ellipse cx="39.081" cy="17.948" rx="1" ry="1"/>
            <ellipse cx="39.081" cy="22.189" rx="1" ry="1"/>
            <ellipse cx="39.081" cy="26.448" rx="1" ry="1"/>
            <ellipse cx="39.081" cy="34.947" rx="1" ry="1"/>
            <ellipse cx="39.081" cy="39.206" rx="1" ry="1"/>
            <ellipse cx="39.081" cy="43.464" rx="1" ry="1"/>
            <ellipse cx="39.081" cy="47.706" rx="1" ry="1"/>
            <ellipse cx="39.081" cy="51.964" rx="1" ry="1"/>
            <ellipse cx="39.081" cy="56.223" rx="1" ry="1"/>
            <ellipse cx="34.84" cy="5.19" rx="1" ry="1"/>
            <ellipse cx="34.84" cy="9.431" rx="1" ry="1"/>
            <ellipse cx="34.84" cy="13.689" rx="1" ry="1"/>
            <ellipse cx="34.84" cy="17.948" rx="1" ry="1"/>
            <ellipse cx="34.84" cy="22.189" rx="1" ry="1"/>
            <ellipse cx="34.84" cy="26.448" rx="1" ry="1"/>
            <ellipse cx="34.84" cy="30.706" rx="1" ry="1"/>
            <ellipse cx="34.84" cy="34.947" rx="1" ry="1"/>
            <ellipse cx="34.84" cy="39.206" rx="1" ry="1"/>
            <ellipse cx="34.84" cy="43.464" rx="1" ry="1"/>
            <ellipse cx="34.84" cy="47.706" rx="1" ry="1"/>
            <ellipse cx="34.84" cy="51.964" rx="1" ry="1"/>
            <ellipse cx="34.84" cy="56.223" rx="1" ry="1"/>
            <ellipse cx="30.599" cy=".931" rx="1" ry="1"/>
            <ellipse cx="30.599" cy="5.19" rx="1" ry="1"/>
            <ellipse cx="30.599" cy="9.431" rx="1" ry="1"/>
            <ellipse cx="30.599" cy="13.689" rx="1" ry="1"/>
            <ellipse cx="30.599" cy="17.948" rx="1" ry="1"/>
            <ellipse cx="30.599" cy="22.189" rx="1" ry="1"/>
            <ellipse cx="30.599" cy="26.448" rx="1" ry="1"/>
            <ellipse cx="30.599" cy="30.706" rx="1" ry="1"/>
            <ellipse cx="30.599" cy="34.947" rx="1" ry="1"/>
            <ellipse cx="30.599" cy="39.206" rx="1" ry="1"/>
            <ellipse cx="30.599" cy="43.464" rx="1" ry="1"/>
            <ellipse cx="30.599" cy="47.706" rx="1" ry="1"/>
            <ellipse cx="30.599" cy="51.964" rx="1" ry="1"/>
            <ellipse cx="30.599" cy="56.223" rx="1" ry="1"/>
            <ellipse cx="26.375" cy=".931" rx="1" ry="1"/>
            <ellipse cx="26.375" cy="5.19" rx="1" ry="1"/>
            <ellipse cx="26.375" cy="9.431" rx="1" ry="1"/>
            <ellipse cx="26.375" cy="13.689" rx="1" ry="1"/>
            <ellipse cx="26.375" cy="17.948" rx="1" ry="1"/>
            <ellipse cx="26.375" cy="22.189" rx="1" ry="1"/>
            <ellipse cx="26.375" cy="26.448" rx="1" ry="1"/>
            <ellipse cx="26.375" cy="30.706" rx="1" ry="1"/>
            <ellipse cx="26.375" cy="34.947" rx="1" ry="1"/>
            <ellipse cx="26.375" cy="39.206" rx="1" ry="1"/>
            <ellipse cx="26.375" cy="43.464" rx="1" ry="1"/>
            <ellipse cx="26.375" cy="47.706" rx="1" ry="1"/>
            <ellipse cx="26.375" cy="51.964" rx="1" ry="1"/>
            <ellipse cx="26.375" cy="56.223" rx="1" ry="1"/>
            <ellipse cx="22.133" cy=".931" rx="1" ry="1"/>
            <ellipse cx="22.133" cy="5.19" rx="1" ry="1"/>
            <ellipse cx="22.133" cy="9.431" rx="1" ry="1"/>
            <ellipse cx="22.133" cy="13.689" rx="1" ry="1"/>
            <ellipse cx="22.133" cy="17.948" rx="1" ry="1"/>
            <ellipse cx="22.133" cy="22.189" rx="1" ry="1"/>
            <ellipse cx="22.133" cy="26.448" rx="1" ry="1"/>
            <ellipse cx="22.133" cy="30.706" rx="1" ry="1"/>
            <ellipse cx="22.133" cy="34.947" rx="1" ry="1"/>
            <ellipse cx="22.133" cy="39.206" rx="1" ry="1"/>
            <ellipse cx="22.133" cy="43.464" rx="1" ry="1"/>
            <ellipse cx="22.133" cy="47.706" rx="1" ry="1"/>
            <ellipse cx="22.133" cy="51.964" rx="1" ry="1"/>
            <ellipse cx="22.133" cy="56.223" rx="1" ry="1"/>
            <ellipse cx="17.892" cy="5.19" rx="1" ry="1"/>
            <ellipse cx="17.892" cy="9.431" rx="1" ry="1"/>
            <ellipse cx="17.892" cy="13.689" rx="1" ry="1"/>
            <ellipse cx="17.892" cy="17.948" rx="1" ry="1"/>
            <ellipse cx="17.892" cy="22.189" rx="1" ry="1"/>
            <ellipse cx="17.892" cy="26.448" rx="1" ry="1"/>
            <ellipse cx="17.892" cy="30.706" rx="1" ry="1"/>
            <ellipse cx="17.892" cy="34.947" rx="1" ry="1"/>
            <ellipse cx="17.892" cy="39.206" rx="1" ry="1"/>
            <ellipse cx="17.892" cy="43.464" rx="1" ry="1"/>
            <ellipse cx="17.892" cy="47.706" rx="1" ry="1"/>
            <ellipse cx="17.892" cy="51.964" rx="1" ry="1"/>
            <ellipse cx="17.892" cy="56.223" rx="1" ry="1"/>
            <ellipse cx="13.668" cy="9.431" rx="1" ry="1"/>
            <ellipse cx="13.668" cy="13.689" rx="1" ry="1"/>
            <ellipse cx="13.668" cy="17.948" rx="1" ry="1"/>
            <ellipse cx="13.668" cy="22.189" rx="1" ry="1"/>
            <ellipse cx="13.668" cy="34.947" rx="1" ry="1"/>
            <ellipse cx="13.668" cy="39.206" rx="1" ry="1"/>
            <ellipse cx="13.668" cy="43.464" rx="1" ry="1"/>
            <ellipse cx="13.668" cy="47.706" rx="1" ry="1"/>
            <ellipse cx="13.668" cy="51.964" rx="1" ry="1"/>
            <ellipse cx="13.668" cy="56.223" rx="1" ry="1"/>
            <ellipse cx="9.427" cy="34.947" rx="1" ry="1"/>
            <ellipse cx="9.427" cy="39.206" rx="1" ry="1"/>
            <ellipse cx="9.427" cy="43.464" rx="1" ry="1"/>
            <ellipse cx="9.427" cy="47.706" rx="1" ry="1"/>
            <ellipse cx="9.427" cy="51.964" rx="1" ry="1"/>
            <ellipse cx="9.427" cy="56.223" rx="1" ry="1"/>
            <ellipse cx="5.186" cy="39.206" rx="1" ry="1"/>
            <ellipse cx="5.186" cy="43.464" rx="1" ry="1"/>
            <ellipse cx="5.186" cy="47.706" rx="1" ry="1"/>
            <ellipse cx="5.186" cy="51.964" rx="1" ry="1"/>
            <ellipse cx="5.186" cy="56.223" rx="1" ry="1"/>
            <ellipse cx=".962" cy="47.706" rx="1" ry="1"/>
            <ellipse cx=".962" cy="51.964" rx="1" ry="1"/>
            <ellipse cx=".962" cy="56.223" rx="1" ry="1"/>
        </g>
        <path fill="#383A48" fill-rule="nonzero" d="M149.886 129.531h-43.614a.852.852 0 0 1-.859-.862c0-.483.378-.862.859-.862h43.614c.48 0 .859.38.859.862a.852.852 0 0 1-.859.862z"/>
        <g fill-rule="nonzero" transform="translate(89.29 14.31)">
            <path fill="#FFB81C" d="M76.291 38.775c0 11.706-5.306 22.172-13.617 29.103a30.074 30.074 0 0 0-5.202 5.568c-3.366 4.638-5.375 10.173-5.65 16l-.79 13.069a12.788 12.788 0 0 1-1.133 4.655 12.755 12.755 0 0 1-2.696 3.758 12.3 12.3 0 0 1-8.551 3.431c-4.962 0-9.255-2.93-11.23-7.19a12.37 12.37 0 0 1-1.133-4.654l-.773-12.948a29.914 29.914 0 0 0-5.615-16.12 29.183 29.183 0 0 0-5.082-5.431C6.353 61.033.962 50.43 1.029 38.55 1.15 17.74 18.563.655 39.288 1c20.485.328 37.004 17.12 37.004 37.775z"/>
            <path fill="#383A48" d="M38.67 115.221c-5.135 0-9.84-3.017-12.02-7.69a13.446 13.446 0 0 1-1.22-4.965l-.772-12.948c-.275-5.706-2.164-11.12-5.444-15.672a27.653 27.653 0 0 0-4.945-5.275C5.237 61.24.103 50.257.171 38.55c.07-10.293 4.208-19.982 11.66-27.31A38.697 38.697 0 0 1 24.263 3 37.554 37.554 0 0 1 39.305.138C49.453.31 58.965 4.396 66.09 11.655c7.144 7.276 11.059 16.913 11.059 27.12a38.659 38.659 0 0 1-13.926 29.758 29.515 29.515 0 0 0-5.048 5.413c-3.314 4.587-5.22 9.966-5.495 15.552l-.79 13.086a13.446 13.446 0 0 1-1.22 4.965 13.067 13.067 0 0 1-2.884 4.017 13.167 13.167 0 0 1-9.118 3.655zm0-113.359c-9.582 0-18.666 3.759-25.654 10.62-7.126 7-11.076 16.259-11.145 26.086-.068 11.19 4.843 21.672 13.463 28.775a29.333 29.333 0 0 1 5.237 5.586c3.486 4.828 5.477 10.569 5.77 16.586l.772 12.948c.069 1.517.43 2.983 1.065 4.345 1.889 4.069 5.992 6.69 10.457 6.69 2.97 0 5.804-1.139 7.95-3.19 1.047-1 1.889-2.173 2.507-3.5.635-1.362.979-2.81 1.065-4.328l.79-13.086c.291-5.913 2.3-11.603 5.82-16.465a32.347 32.347 0 0 1 5.34-5.724c8.466-7.051 13.308-17.413 13.308-28.43 0-9.758-3.76-18.965-10.577-25.913S48.938 2.017 39.236 1.845c-.172.017-.36.017-.567.017z"/>
            <ellipse cx="38.686" cy="47.068" fill="#FBEBC7" rx="26.152" ry="26.258"/>
            <path fill="#F3F6E6" d="M38.67 73.43L28.366 41.343h10.32z"/>
            <path fill="#383A48" d="M38.67 74.291a.882.882 0 0 1-.825-.603L27.542 41.602a.892.892 0 0 1 .12-.775.838.838 0 0 1 .687-.362h10.32c.223 0 .447.086.601.258a.88.88 0 0 1 .258.604l-.017 32.085a.84.84 0 0 1-.722.845c-.034.034-.085.034-.12.034zm-9.136-32.085l8.277 25.758.017-25.758h-8.294z"/>
            <g>
                <path fill="#F3F6E6" d="M38.704 73.43l10.302-32.086h-10.32z"/>
                <path fill="#383A48" d="M38.704 74.291c-.052 0-.086 0-.138-.017a.866.866 0 0 1-.721-.845l-.017-32.085a.81.81 0 0 1 .257-.604.873.873 0 0 1 .601-.258h10.32c.275 0 .532.138.687.362a.892.892 0 0 1 .12.776L39.511 73.705c-.103.362-.43.586-.807.586zm.84-32.085l.018 25.758 8.277-25.758h-8.294z"/>
            </g>
            <path fill="#383A48" d="M58.227 73.05a.862.862 0 0 0-.773-.466H19.901a.896.896 0 0 0-.772.466.846.846 0 0 0 .068.896c3.297 4.552 5.169 9.966 5.443 15.672l.773 12.948a13.282 13.282 0 0 0 1.22 4.966c.137.31.446.5.772.5h22.477c.326 0 .635-.19.773-.5a13.446 13.446 0 0 0 1.219-4.966l.79-13.085a28.703 28.703 0 0 1 5.494-15.535.848.848 0 0 0 .069-.896z"/>
        </g>
        <g fill="#383A48" fill-rule="nonzero">
            <path d="M127.959 6.983a.852.852 0 0 1-.859-.862V.862c0-.483.378-.862.859-.862.48 0 .858.38.858.862v5.259a.863.863 0 0 1-.858.862zM144.649 9.896a.869.869 0 0 1-.292-.051c-.446-.156-.67-.656-.515-1.104l1.769-4.948a.86.86 0 0 1 1.098-.517c.447.155.67.655.516 1.103l-1.769 4.948a.83.83 0 0 1-.807.57zM159.382 18.327a.963.963 0 0 1-.55-.19.872.872 0 0 1-.12-1.206l3.331-4.052a.864.864 0 0 1 1.202-.12c.36.31.412.844.12 1.206l-3.33 4.052a.875.875 0 0 1-.653.31zM170.406 31.24a.85.85 0 0 1-.739-.43.877.877 0 0 1 .31-1.19l4.498-2.672c.412-.242.927-.104 1.185.31a.877.877 0 0 1-.31 1.19l-4.498 2.672a.871.871 0 0 1-.446.12zM176.415 47.154a.877.877 0 0 1-.841-.707.887.887 0 0 1 .687-1.017l5.134-.983a.883.883 0 0 1 1.013.69.887.887 0 0 1-.687 1.017l-5.134.983c-.069.017-.12.017-.172.017zM111.251 9.896a.869.869 0 0 1-.807-.569l-1.768-4.948c-.155-.448.068-.948.515-1.103a.86.86 0 0 1 1.099.517l1.768 4.948c.155.448-.068.948-.515 1.104a.869.869 0 0 1-.292.051zM96.518 18.327a.879.879 0 0 1-.67-.31l-3.33-4.052a.84.84 0 0 1 .12-1.207.832.832 0 0 1 1.202.121l3.331 4.052a.84.84 0 0 1-.12 1.206.837.837 0 0 1-.533.19zM85.495 31.24a.773.773 0 0 1-.43-.12l-4.498-2.672a.873.873 0 0 1-.31-1.19.865.865 0 0 1 1.185-.31l4.5 2.672c.411.241.549.776.308 1.19a.86.86 0 0 1-.755.43zM79.485 47.154c-.052 0-.103 0-.155-.017l-5.134-.983a.868.868 0 0 1 .326-1.707l5.135.983a.868.868 0 0 1 .686 1.017.864.864 0 0 1-.858.707z"/>
        </g>
        <g fill="#383A48" fill-rule="nonzero" transform="translate(188.366 65.343)">
            <ellipse cx="34.789" cy="30.723" rx="1" ry="1"/>
            <ellipse cx="34.789" cy="34.982" rx="1" ry="1"/>
            <ellipse cx="34.789" cy="39.24" rx="1" ry="1"/>
            <ellipse cx="30.547" cy="26.482" rx="1" ry="1"/>
            <ellipse cx="30.547" cy="30.723" rx="1" ry="1"/>
            <ellipse cx="30.547" cy="34.982" rx="1" ry="1"/>
            <ellipse cx="30.547" cy="39.24" rx="1" ry="1"/>
            <ellipse cx="26.306" cy="5.207" rx="1" ry="1"/>
            <ellipse cx="26.306" cy="9.465" rx="1" ry="1"/>
            <ellipse cx="26.306" cy="13.724" rx="1" ry="1"/>
            <ellipse cx="26.306" cy="17.965" rx="1" ry="1"/>
            <ellipse cx="26.306" cy="26.482" rx="1" ry="1"/>
            <ellipse cx="26.306" cy="30.723" rx="1" ry="1"/>
            <ellipse cx="26.306" cy="34.982" rx="1" ry="1"/>
            <ellipse cx="26.306" cy="39.24" rx="1" ry="1"/>
            <ellipse cx="22.082" cy=".965" rx="1" ry="1"/>
            <ellipse cx="22.082" cy="5.207" rx="1" ry="1"/>
            <ellipse cx="22.082" cy="9.465" rx="1" ry="1"/>
            <ellipse cx="22.082" cy="13.724" rx="1" ry="1"/>
            <ellipse cx="22.082" cy="17.965" rx="1" ry="1"/>
            <ellipse cx="22.082" cy="22.224" rx="1" ry="1"/>
            <ellipse cx="22.082" cy="26.482" rx="1" ry="1"/>
            <ellipse cx="22.082" cy="30.723" rx="1" ry="1"/>
            <ellipse cx="22.082" cy="34.982" rx="1" ry="1"/>
            <ellipse cx="22.082" cy="39.24" rx="1" ry="1"/>
            <ellipse cx="17.841" cy=".965" rx="1" ry="1"/>
            <ellipse cx="17.841" cy="5.207" rx="1" ry="1"/>
            <ellipse cx="17.841" cy="9.465" rx="1" ry="1"/>
            <ellipse cx="17.841" cy="13.724" rx="1" ry="1"/>
            <ellipse cx="17.841" cy="17.965" rx="1" ry="1"/>
            <ellipse cx="17.841" cy="22.224" rx="1" ry="1"/>
            <ellipse cx="17.841" cy="26.482" rx="1" ry="1"/>
            <ellipse cx="17.841" cy="30.723" rx="1" ry="1"/>
            <ellipse cx="17.841" cy="34.982" rx="1" ry="1"/>
            <ellipse cx="17.841" cy="39.24" rx="1" ry="1"/>
            <ellipse cx="13.599" cy=".965" rx="1" ry="1"/>
            <ellipse cx="13.599" cy="5.207" rx="1" ry="1"/>
            <ellipse cx="13.599" cy="9.465" rx="1" ry="1"/>
            <ellipse cx="13.599" cy="13.724" rx="1" ry="1"/>
            <ellipse cx="13.599" cy="17.965" rx="1" ry="1"/>
            <ellipse cx="13.599" cy="22.224" rx="1" ry="1"/>
            <ellipse cx="13.599" cy="26.482" rx="1" ry="1"/>
            <ellipse cx="13.599" cy="30.723" rx="1" ry="1"/>
            <ellipse cx="13.599" cy="34.982" rx="1" ry="1"/>
            <ellipse cx="13.599" cy="39.24" rx="1" ry="1"/>
            <ellipse cx="9.375" cy="5.207" rx="1" ry="1"/>
            <ellipse cx="9.375" cy="9.465" rx="1" ry="1"/>
            <ellipse cx="9.375" cy="13.724" rx="1" ry="1"/>
            <ellipse cx="9.375" cy="17.965" rx="1" ry="1"/>
            <ellipse cx="9.375" cy="26.482" rx="1" ry="1"/>
            <ellipse cx="9.375" cy="30.723" rx="1" ry="1"/>
            <ellipse cx="9.375" cy="34.982" rx="1" ry="1"/>
            <ellipse cx="9.375" cy="39.24" rx="1" ry="1"/>
            <ellipse cx="5.134" cy="26.482" rx="1" ry="1"/>
            <ellipse cx="5.134" cy="30.723" rx="1" ry="1"/>
            <ellipse cx="5.134" cy="34.982" rx="1" ry="1"/>
            <ellipse cx="5.134" cy="39.24" rx="1" ry="1"/>
            <ellipse cx=".893" cy="30.723" rx="1" ry="1"/>
            <ellipse cx=".893" cy="34.982" rx="1" ry="1"/>
            <ellipse cx=".893" cy="39.24" rx="1" ry="1"/>
        </g>
        <g fill-rule="nonzero">
            <path fill="#00A6D6" d="M177.016 96.963v-2.707c0-7.672 6.2-13.896 13.84-13.896H203.1c7.641 0 13.84 6.224 13.84 13.896v2.707h-39.923z"/>
            <path fill="#383A48" d="M216.922 97.825h-39.906a.852.852 0 0 1-.858-.862v-2.707c0-8.137 6.594-14.758 14.698-14.758H203.1c8.105 0 14.699 6.62 14.699 14.758v2.707a.878.878 0 0 1-.876.862zm-39.047-1.724h38.188v-1.845c0-7.19-5.82-13.034-12.981-13.034h-12.243c-7.16 0-12.981 5.845-12.981 13.034l.017 1.845z"/>
            <g>
                <path fill="#F3F6E6" d="M196.97 80.377c-5.667 0-10.252-4.603-10.252-10.293V63.86c0-5.689 4.585-10.292 10.251-10.292 5.667 0 10.251 4.603 10.251 10.292v6.224c.017 5.69-4.584 10.293-10.25 10.293z"/>
                <path fill="#383A48" d="M196.97 81.24c-6.13 0-11.11-5-11.11-11.156V63.86c0-6.155 4.98-11.154 11.11-11.154 6.13 0 11.109 5 11.109 11.154v6.224c.017 6.155-4.98 11.155-11.11 11.155zm0-26.828c-5.187 0-9.393 4.242-9.393 9.431v6.224c0 5.207 4.224 9.431 9.392 9.431 5.186 0 9.393-4.241 9.393-9.43v-6.225c.017-5.19-4.207-9.43-9.393-9.43z"/>
            </g>
        </g>
        <g fill-rule="nonzero">
            <path fill="#003087" d="M31.114 129.135v-3.586c0-10.155 8.208-18.397 18.321-18.397h16.21c10.114 0 18.321 8.242 18.321 18.397v3.586H31.114z"/>
            <path fill="#383A48" d="M83.966 129.997H31.114a.852.852 0 0 1-.859-.862v-3.586c0-10.62 8.603-19.259 19.18-19.259h16.21c10.577 0 19.18 8.638 19.18 19.259v3.586a.874.874 0 0 1-.859.862zm-51.993-1.724h51.135v-2.724c0-9.673-7.83-17.534-17.463-17.534h-16.21c-9.632 0-17.462 7.861-17.462 17.534v2.724z"/>
            <g>
                <path fill="#F3F6E6" d="M57.54 107.152c-7.504 0-13.582-6.103-13.582-13.637v-8.241c0-7.535 6.078-13.638 13.582-13.638 7.504 0 13.582 6.103 13.582 13.638v8.24c0 7.535-6.078 13.638-13.582 13.638z"/>
                <path fill="#383A48" d="M57.54 108.015c-7.967 0-14.44-6.5-14.44-14.5v-8.241c0-8 6.473-14.5 14.44-14.5 7.968 0 14.441 6.5 14.441 14.5v8.24c0 8-6.473 14.5-14.44 14.5zm0-35.517c-7.023 0-12.724 5.724-12.724 12.776v8.24c0 7.052 5.701 12.776 12.724 12.776 7.023 0 12.724-5.724 12.724-12.775v-8.241c0-7.052-5.718-12.776-12.724-12.776z"/>
            </g>
        </g>
        <g fill-rule="nonzero">
            <path fill="#FFB81C" d="M15.196 41.896l26.53-26.655L29.878 3.328 3.33 29.982a8.443 8.443 0 0 0 0 11.914 8.391 8.391 0 0 0 11.865 0z"/>
            <path fill="#383A48" d="M9.255 45.223a9.164 9.164 0 0 1-6.542-2.724c-3.606-3.62-3.606-9.5 0-13.12L29.259 2.724a.848.848 0 0 1 1.22 0l11.865 11.914a.88.88 0 0 1 .257.603.81.81 0 0 1-.257.603L15.797 42.5a9.164 9.164 0 0 1-6.542 2.724zM29.878 4.552L3.949 30.585c-2.936 2.949-2.936 7.742 0 10.69a7.451 7.451 0 0 0 5.323 2.207 7.523 7.523 0 0 0 5.323-2.207L40.524 15.24 29.878 4.551z"/>
            <g transform="translate(26.443)">
                <ellipse cx="9.358" cy="9.293" fill="#003087" rx="8.379" ry="8.414"/>
                <path fill="#383A48" d="M9.358 18.569c-5.1 0-9.238-4.156-9.238-9.276S4.258.017 9.358.017s9.238 4.155 9.238 9.276c0 5.12-4.138 9.276-9.238 9.276zm0-16.845c-4.155 0-7.52 3.397-7.52 7.552 0 4.155 3.382 7.551 7.52 7.551s7.521-3.396 7.521-7.551-3.365-7.552-7.52-7.552z"/>
            </g>
        </g>
        <path fill="#00A6D6" fill-rule="nonzero" d="M54.243 34.637l-.309-.086a2.617 2.617 0 0 1-1.837-1.845l-.086-.31a1.362 1.362 0 0 0-1.34-1.017c-.635 0-1.167.413-1.339 1.017l-.085.31a2.617 2.617 0 0 1-1.838 1.845l-.309.086a1.366 1.366 0 0 0-1.013 1.345c0 .638.412 1.172 1.013 1.345l.31.086a2.617 2.617 0 0 1 1.837 1.845l.085.31c.172.62.704 1.017 1.34 1.017.635 0 1.167-.414 1.34-1.017l.085-.31a2.617 2.617 0 0 1 1.837-1.845l.31-.086a1.366 1.366 0 0 0 1.012-1.345c0-.638-.394-1.173-1.013-1.345zM172.895 111.049l-.309-.086a2.617 2.617 0 0 1-1.837-1.845l-.086-.31a1.362 1.362 0 0 0-1.34-1.018c-.635 0-1.167.414-1.339 1.018l-.085.31a2.617 2.617 0 0 1-1.838 1.845l-.309.086a1.366 1.366 0 0 0-1.013 1.345c0 .638.412 1.172 1.013 1.345l.31.086a2.617 2.617 0 0 1 1.837 1.845l.085.31c.172.62.704 1.017 1.34 1.017.635 0 1.167-.414 1.34-1.017l.085-.31a2.617 2.617 0 0 1 1.837-1.845l.31-.086a1.366 1.366 0 0 0 1.012-1.345c0-.638-.412-1.173-1.013-1.345z"/>
        <path fill="#383A48" fill-rule="nonzero" d="M33.02 88.601a.775.775 0 0 1-.275-.051c-3.863-1.294-6.954-3.535-9.186-6.655-1.855-2.587-3.074-5.793-3.538-9.242a23.293 23.293 0 0 1-.034-5.982c-.532.034-1.082.017-1.614-.035-2.49-.241-4.705-1.362-6.405-3.258-2.009-2.242-3.28-5.517-3.76-9.724a.853.853 0 0 1 .755-.948.851.851 0 0 1 .945.758c1.081 9.345 5.872 11.19 8.62 11.448a9.706 9.706 0 0 0 1.734 0c.532-2.396 1.477-4.276 2.713-5.103.858-.586 1.837-.62 2.713-.12 1.236.723 1.751 1.844 1.374 3.034-.361 1.137-1.529 2.224-3.194 2.982-.687.31-1.408.552-2.147.707a21.165 21.165 0 0 0-.034 6c.567 4.155 2.816 11.569 11.573 14.5a.879.879 0 0 1 .55 1.086c-.086.38-.43.603-.79.603zm-8.551-27.534a.821.821 0 0 0-.481.173c-.704.483-1.357 1.672-1.803 3.31 1.751-.534 3.04-1.517 3.314-2.345.052-.172.189-.569-.601-1.017a.959.959 0 0 0-.43-.12z"/>
        <path d="M182.992 10.569h5.666"/>
        <path fill="#383A48" fill-rule="nonzero" d="M182.992 9.707h5.666v1.724h-5.666z"/>
        <path d="M185.825 13.413v-5.69"/>
        <path fill="#383A48" fill-rule="nonzero" d="M184.966 7.724h1.717v5.69h-1.717z"/>
        <g>
            <path d="M16.742 105.05h5.65"/>
            <path fill="#383A48" fill-rule="nonzero" d="M16.742 104.187h5.666v1.724h-5.666z"/>
            <g>
                <path d="M19.558 107.894v-5.69"/>
                <path fill="#383A48" fill-rule="nonzero" d="M18.7 102.204h1.717v5.69H18.7z"/>
            </g>
        </g>
        <g fill-rule="nonzero">
            <path fill="#D3EDF5" d="M244.722 4.517H222.76c-8.362 0-15.145 6.81-15.145 15.207v6.74c0 7.345 5.186 13.483 12.089 14.897l-7.298 12.224 17.016-11.914h15.3c8.362 0 15.145-6.81 15.145-15.206v-6.741c0-8.397-6.783-15.207-15.145-15.207z"/>
            <path fill="#383A48" d="M212.406 54.447a.913.913 0 0 1-.584-.224.868.868 0 0 1-.154-1.07l6.696-11.223c-6.8-1.948-11.625-8.258-11.625-15.465v-6.741c0-8.862 7.178-16.069 16.004-16.069h21.962c8.826 0 16.003 7.207 16.003 16.069v6.74c0 8.863-7.177 16.07-16.003 16.07H229.68l-16.793 11.758a.801.801 0 0 1-.481.155zM222.76 5.379c-7.881 0-14.286 6.431-14.286 14.345v6.74c0 6.794 4.79 12.707 11.401 14.052a.865.865 0 0 1 .567 1.293l-5.237 8.776 13.737-9.603a.816.816 0 0 1 .498-.155h15.299c7.882 0 14.286-6.431 14.286-14.345v-6.741c0-7.914-6.404-14.345-14.286-14.345L222.76 5.38z"/>
            <path fill="#383A48" d="M223.43 20.19a3.15 3.15 0 0 0-3.143 3.154 3.15 3.15 0 0 0 3.143 3.155 3.15 3.15 0 0 0 3.142-3.155 3.15 3.15 0 0 0-3.142-3.155zM233.389 20.19a3.15 3.15 0 0 0-3.142 3.154 3.15 3.15 0 0 0 3.142 3.155 3.15 3.15 0 0 0 3.142-3.155 3.15 3.15 0 0 0-3.142-3.155zM243.348 20.19a3.15 3.15 0 0 0-3.142 3.154 3.15 3.15 0 0 0 3.142 3.155 3.15 3.15 0 0 0 3.142-3.155 3.15 3.15 0 0 0-3.142-3.155z"/>
        </g>
    </g>
</svg>
