<svg xmlns="http://www.w3.org/2000/svg" width="218" height="153" viewBox="0 0 218 153">
    <g fill="none" fill-rule="evenodd">
        <path fill="#383A48" d="M205.22 73.002a.995.995 0 0 0-.881-.159c-5.667 1.564-12.435 2.891-20.745 4.099-21.585 3.128-33.678 17.999-46.473 33.74-3.344 4.119-6.808 8.376-10.472 12.474a.997.997 0 0 0-.16 1.07c.16.356.52.574.92.574h77.19a.986.986 0 0 0 1.001-.99V73.794c0-.317-.14-.594-.38-.792"/>
        <path fill="#FFF" d="M40.8 113.6h156.8V.8H40.8z"/>
        <path fill="#383A48" d="M41.214 111.602h155.972V1.998H41.214v109.604zm156.959 1.998H40.207a.993.993 0 0 1-1.007-.999V1c0-.56.443-.999 1.007-.999h157.986a.993.993 0 0 1 1.007.999V112.6c-.02.54-.463.999-1.027.999z"/>
        <path fill="#00A6D6" d="M40.8 27.2h156.8V.8H40.8z"/>
        <path fill="#383A48" d="M41.214 26.016h155.972V1.984H41.214v24.032zM198.173 28H40.207a.99.99 0 0 1-1.007-.992V.992A.99.99 0 0 1 40.207 0h157.986a.99.99 0 0 1 1.007.992v26.016a1.02 1.02 0 0 1-1.027.992z"/>
        <path fill="#D3EDF5" d="M104.8 69.745V96.8l9.758-10.11h52.753c9.221 0 16.689-7.583 16.689-16.945S176.532 52.8 167.311 52.8h-45.823c-9.22 0-16.688 7.583-16.688 16.945"/>
        <path fill="#383A48" d="M168.594 68h-49.188c-.563 0-1.006-.528-1.006-1.2 0-.672.443-1.2 1.006-1.2h49.188c.563 0 1.006.528 1.006 1.2 0 .672-.443 1.2-1.006 1.2M143.789 76.8H118.61c-.566 0-1.011-.528-1.011-1.2 0-.672.445-1.2 1.011-1.2h25.178c.566 0 1.011.528 1.011 1.2 0 .672-.445 1.2-1.011 1.2M70.4 13.116L71.516 12l3.684 3.684-1.116 1.116z"/>
        <path fill="#383A48" d="M70.4 15.684L74.084 12l1.116 1.116-3.684 3.684zM60.428 15.572h3.144v-3.144h-3.144v3.144zM58.4 17.6h7.2v-7.2h-7.2v7.2zM49.6 17.6h4.8v-2.4h-4.8zM100.4 129.6a1.2 1.2 0 1 1 0 2.4 1.2 1.2 0 0 1 0-2.4M100.4 133.6a1.2 1.2 0 1 1 0 2.4 1.2 1.2 0 0 1 0-2.4M100.4 139.2a1.2 1.2 0 1 1 0 2.4 1.2 1.2 0 0 1 0-2.4M100.4 144.8a1.2 1.2 0 1 1 0 2.4 1.2 1.2 0 0 1 0-2.4M100.4 148.8a1.2 1.2 0 1 1 0 2.4 1.2 1.2 0 0 1 0-2.4M96.4 93.6a1.2 1.2 0 1 1 0 2.4 1.2 1.2 0 0 1 0-2.4M96.4 99.2a1.2 1.2 0 1 1 0 2.4 1.2 1.2 0 0 1 0-2.4M96.4 104.8a1.2 1.2 0 1 1 0 2.4 1.2 1.2 0 0 1 0-2.4M96.4 108.8a1.2 1.2 0 1 1 0 2.4 1.2 1.2 0 0 1 0-2.4M96.4 114.4a1.2 1.2 0 1 1 0 2.4 1.2 1.2 0 0 1 0-2.4M96.4 119.2a1.2 1.2 0 1 1 0 2.4 1.2 1.2 0 0 1 0-2.4M96.4 124a1.2 1.2 0 1 1 0 2.4 1.2 1.2 0 0 1 0-2.4M96.4 129.6a1.2 1.2 0 1 1 0 2.4 1.2 1.2 0 0 1 0-2.4M96.4 133.6a1.2 1.2 0 1 1 0 2.4 1.2 1.2 0 0 1 0-2.4M96.4 139.2a1.2 1.2 0 1 1 0 2.4 1.2 1.2 0 0 1 0-2.4M96.4 144.8a1.2 1.2 0 1 1 0 2.4 1.2 1.2 0 0 1 0-2.4M96.4 148.8a1.2 1.2 0 1 1 0 2.4 1.2 1.2 0 0 1 0-2.4M90.8 70.4a1.2 1.2 0 1 1 0 2.4 1.2 1.2 0 0 1 0-2.4M90.8 74.4a1.2 1.2 0 1 1 0 2.4 1.2 1.2 0 0 1 0-2.4M90.8 79.2a1.2 1.2 0 1 1 0 2.4 1.2 1.2 0 0 1 0-2.4M90.8 84.8a1.2 1.2 0 1 1 0 2.4 1.2 1.2 0 0 1 0-2.4M90.8 89.6a1.2 1.2 0 1 1 0 2.4 1.2 1.2 0 0 1 0-2.4M90.8 93.6a1.2 1.2 0 1 1 0 2.4 1.2 1.2 0 0 1 0-2.4M90.8 99.2a1.2 1.2 0 1 1 0 2.4 1.2 1.2 0 0 1 0-2.4M90.8 104.8a1.2 1.2 0 1 1 0 2.4 1.2 1.2 0 0 1 0-2.4M90.8 108.8a1.2 1.2 0 1 1 0 2.4 1.2 1.2 0 0 1 0-2.4M90.8 114.4a1.2 1.2 0 1 1 0 2.4 1.2 1.2 0 0 1 0-2.4M90.8 119.2a1.2 1.2 0 1 1 0 2.4 1.2 1.2 0 0 1 0-2.4M90.8 124a1.2 1.2 0 1 1 0 2.4 1.2 1.2 0 0 1 0-2.4M90.8 129.6a1.2 1.2 0 1 1 0 2.4 1.2 1.2 0 0 1 0-2.4M90.8 133.6a1.2 1.2 0 1 1 0 2.4 1.2 1.2 0 0 1 0-2.4M90.8 139.2a1.2 1.2 0 1 1 0 2.4 1.2 1.2 0 0 1 0-2.4M90.8 144.8a1.2 1.2 0 1 1 0 2.4 1.2 1.2 0 0 1 0-2.4M90.8 148.8a1.2 1.2 0 1 1 0 2.4 1.2 1.2 0 0 1 0-2.4M86 49.6a1.2 1.2 0 1 1 0 2.4 1.2 1.2 0 0 1 0-2.4M86 54.4a1.2 1.2 0 1 1 0 2.4 1.2 1.2 0 0 1 0-2.4M86 59.2a1.2 1.2 0 1 1 0 2.4 1.2 1.2 0 0 1 0-2.4M86 64.8a1.2 1.2 0 1 1 0 2.4 1.2 1.2 0 0 1 0-2.4M86 70.4a1.2 1.2 0 1 1 0 2.4 1.2 1.2 0 0 1 0-2.4M86 74.4a1.2 1.2 0 1 1 0 2.4 1.2 1.2 0 0 1 0-2.4M86 79.2a1.2 1.2 0 1 1 0 2.4 1.2 1.2 0 0 1 0-2.4M86 84.8a1.2 1.2 0 1 1 0 2.4 1.2 1.2 0 0 1 0-2.4M86 89.6a1.2 1.2 0 1 1 0 2.4 1.2 1.2 0 0 1 0-2.4M86 93.6a1.2 1.2 0 1 1 0 2.4 1.2 1.2 0 0 1 0-2.4M86 99.2a1.2 1.2 0 1 1 0 2.4 1.2 1.2 0 0 1 0-2.4M86 104.8a1.2 1.2 0 1 1 0 2.4 1.2 1.2 0 0 1 0-2.4M86 108.8a1.2 1.2 0 1 1 0 2.4 1.2 1.2 0 0 1 0-2.4M86 114.4a1.2 1.2 0 1 1 0 2.4 1.2 1.2 0 0 1 0-2.4M86 119.2a1.2 1.2 0 1 1 0 2.4 1.2 1.2 0 0 1 0-2.4M86 124a1.2 1.2 0 1 1 0 2.4 1.2 1.2 0 0 1 0-2.4M86 129.6a1.2 1.2 0 1 1 0 2.4 1.2 1.2 0 0 1 0-2.4M86 133.6a1.2 1.2 0 1 1 0 2.4 1.2 1.2 0 0 1 0-2.4M86 139.2a1.2 1.2 0 1 1 0 2.4 1.2 1.2 0 0 1 0-2.4M86 144.8a1.2 1.2 0 1 1 0 2.4 1.2 1.2 0 0 1 0-2.4M86 148.8a1.2 1.2 0 1 1 0 2.4 1.2 1.2 0 0 1 0-2.4M81.2 49.6a1.2 1.2 0 1 1 0 2.4 1.2 1.2 0 0 1 0-2.4M81.2 54.4a1.2 1.2 0 1 1 0 2.4 1.2 1.2 0 0 1 0-2.4M81.2 59.2a1.2 1.2 0 1 1 0 2.4 1.2 1.2 0 0 1 0-2.4M81.2 64.8a1.2 1.2 0 1 1 0 2.4 1.2 1.2 0 0 1 0-2.4M81.2 70.4a1.2 1.2 0 1 1 0 2.4 1.2 1.2 0 0 1 0-2.4M81.2 74.4a1.2 1.2 0 1 1 0 2.4 1.2 1.2 0 0 1 0-2.4M81.2 79.2a1.2 1.2 0 1 1 0 2.4 1.2 1.2 0 0 1 0-2.4M81.2 84.8a1.2 1.2 0 1 1 0 2.4 1.2 1.2 0 0 1 0-2.4M81.2 89.6a1.2 1.2 0 1 1 0 2.4 1.2 1.2 0 0 1 0-2.4M81.2 93.6a1.2 1.2 0 1 1 0 2.4 1.2 1.2 0 0 1 0-2.4M81.2 99.2a1.2 1.2 0 1 1 0 2.4 1.2 1.2 0 0 1 0-2.4M81.2 104.8a1.2 1.2 0 1 1 0 2.4 1.2 1.2 0 0 1 0-2.4M81.2 108.8a1.2 1.2 0 1 1 0 2.4 1.2 1.2 0 0 1 0-2.4M81.2 114.4a1.2 1.2 0 1 1 0 2.4 1.2 1.2 0 0 1 0-2.4M81.2 119.2a1.2 1.2 0 1 1 0 2.4 1.2 1.2 0 0 1 0-2.4M81.2 124a1.2 1.2 0 1 1 0 2.4 1.2 1.2 0 0 1 0-2.4M81.2 129.6a1.2 1.2 0 1 1 0 2.4 1.2 1.2 0 0 1 0-2.4M81.2 133.6a1.2 1.2 0 1 1 0 2.4 1.2 1.2 0 0 1 0-2.4M81.2 139.2a1.2 1.2 0 1 1 0 2.4 1.2 1.2 0 0 1 0-2.4M81.2 144.8a1.2 1.2 0 1 1 0 2.4 1.2 1.2 0 0 1 0-2.4M81.2 148.8a1.2 1.2 0 1 1 0 2.4 1.2 1.2 0 0 1 0-2.4M75.6 49.6a1.2 1.2 0 1 1 0 2.4 1.2 1.2 0 0 1 0-2.4M75.6 54.4a1.2 1.2 0 1 1 0 2.4 1.2 1.2 0 0 1 0-2.4M75.6 59.2a1.2 1.2 0 1 1 0 2.4 1.2 1.2 0 0 1 0-2.4M75.6 64.8a1.2 1.2 0 1 1 0 2.4 1.2 1.2 0 0 1 0-2.4M75.6 70.4a1.2 1.2 0 1 1 0 2.4 1.2 1.2 0 0 1 0-2.4M75.6 74.4a1.2 1.2 0 1 1 0 2.4 1.2 1.2 0 0 1 0-2.4M75.6 114.4a1.2 1.2 0 1 1 0 2.4 1.2 1.2 0 0 1 0-2.4M75.6 119.2a1.2 1.2 0 1 1 0 2.4 1.2 1.2 0 0 1 0-2.4M75.6 124a1.2 1.2 0 1 1 0 2.4 1.2 1.2 0 0 1 0-2.4M75.6 129.6a1.2 1.2 0 1 1 0 2.4 1.2 1.2 0 0 1 0-2.4M75.6 133.6a1.2 1.2 0 1 1 0 2.4 1.2 1.2 0 0 1 0-2.4M75.6 139.2a1.2 1.2 0 1 1 0 2.4 1.2 1.2 0 0 1 0-2.4M75.6 144.8a1.2 1.2 0 1 1 0 2.4 1.2 1.2 0 0 1 0-2.4M75.6 148.8a1.2 1.2 0 1 1 0 2.4 1.2 1.2 0 0 1 0-2.4M70 49.6a1.2 1.2 0 1 1 0 2.4 1.2 1.2 0 0 1 0-2.4M70 54.4a1.2 1.2 0 1 1 0 2.4 1.2 1.2 0 0 1 0-2.4M70 59.2a1.2 1.2 0 1 1 0 2.4 1.2 1.2 0 0 1 0-2.4M70 64.8a1.2 1.2 0 1 1 0 2.4 1.2 1.2 0 0 1 0-2.4M70 70.4a1.2 1.2 0 1 1 0 2.4 1.2 1.2 0 0 1 0-2.4M70 74.4a1.2 1.2 0 1 1 0 2.4 1.2 1.2 0 0 1 0-2.4M70 79.2a1.2 1.2 0 1 1 0 2.4 1.2 1.2 0 0 1 0-2.4M70 114.4a1.2 1.2 0 1 1 0 2.4 1.2 1.2 0 0 1 0-2.4M70 119.2a1.2 1.2 0 1 1 0 2.4 1.2 1.2 0 0 1 0-2.4M70 124a1.2 1.2 0 1 1 0 2.4 1.2 1.2 0 0 1 0-2.4M70 129.6a1.2 1.2 0 1 1 0 2.4 1.2 1.2 0 0 1 0-2.4M66 49.6a1.2 1.2 0 1 1 0 2.4 1.2 1.2 0 0 1 0-2.4M66 54.4a1.2 1.2 0 1 1 0 2.4 1.2 1.2 0 0 1 0-2.4M66 59.2a1.2 1.2 0 1 1 0 2.4 1.2 1.2 0 0 1 0-2.4M66 64.8a1.2 1.2 0 1 1 0 2.4 1.2 1.2 0 0 1 0-2.4M66 70.4a1.2 1.2 0 1 1 0 2.4 1.2 1.2 0 0 1 0-2.4M66 74.4a1.2 1.2 0 1 1 0 2.4 1.2 1.2 0 0 1 0-2.4M66 79.2a1.2 1.2 0 1 1 0 2.4 1.2 1.2 0 0 1 0-2.4M66 84.8a1.2 1.2 0 1 1 0 2.4 1.2 1.2 0 0 1 0-2.4M66 89.6a1.2 1.2 0 1 1 0 2.4 1.2 1.2 0 0 1 0-2.4M66 114.4a1.2 1.2 0 1 1 0 2.4 1.2 1.2 0 0 1 0-2.4M66 119.2a1.2 1.2 0 1 1 0 2.4 1.2 1.2 0 0 1 0-2.4M66 124a1.2 1.2 0 1 1 0 2.4 1.2 1.2 0 0 1 0-2.4M66 129.6a1.2 1.2 0 1 1 0 2.4 1.2 1.2 0 0 1 0-2.4M62 54.4a1.2 1.2 0 1 1 0 2.4 1.2 1.2 0 0 1 0-2.4M62 59.2a1.2 1.2 0 1 1 0 2.4 1.2 1.2 0 0 1 0-2.4M62 64.8a1.2 1.2 0 1 1 0 2.4 1.2 1.2 0 0 1 0-2.4M62 70.4a1.2 1.2 0 1 1 0 2.4 1.2 1.2 0 0 1 0-2.4M62 74.4a1.2 1.2 0 1 1 0 2.4 1.2 1.2 0 0 1 0-2.4M62 79.2a1.2 1.2 0 1 1 0 2.4 1.2 1.2 0 0 1 0-2.4M62 84.8a1.2 1.2 0 1 1 0 2.4 1.2 1.2 0 0 1 0-2.4M62 89.6a1.2 1.2 0 1 1 0 2.4 1.2 1.2 0 0 1 0-2.4M62 93.6a1.2 1.2 0 1 1 0 2.4 1.2 1.2 0 0 1 0-2.4M62 99.2a1.2 1.2 0 1 1 0 2.4 1.2 1.2 0 0 1 0-2.4M62 114.4a1.2 1.2 0 1 1 0 2.4 1.2 1.2 0 0 1 0-2.4M62 119.2a1.2 1.2 0 1 1 0 2.4 1.2 1.2 0 0 1 0-2.4M62 124a1.2 1.2 0 1 1 0 2.4 1.2 1.2 0 0 1 0-2.4M62 129.6a1.2 1.2 0 1 1 0 2.4 1.2 1.2 0 0 1 0-2.4M55.6 64.8a1.2 1.2 0 1 1 0 2.4 1.2 1.2 0 0 1 0-2.4M55.6 70.4a1.2 1.2 0 1 1 0 2.4 1.2 1.2 0 0 1 0-2.4M55.6 74.4a1.2 1.2 0 1 1 0 2.4 1.2 1.2 0 0 1 0-2.4M55.6 79.2a1.2 1.2 0 1 1 0 2.4 1.2 1.2 0 0 1 0-2.4M55.6 84.8a1.2 1.2 0 1 1 0 2.4 1.2 1.2 0 0 1 0-2.4M55.6 89.6a1.2 1.2 0 1 1 0 2.4 1.2 1.2 0 0 1 0-2.4M55.6 93.6a1.2 1.2 0 1 1 0 2.4 1.2 1.2 0 0 1 0-2.4M55.6 99.2a1.2 1.2 0 1 1 0 2.4 1.2 1.2 0 0 1 0-2.4M55.6 104.8a1.2 1.2 0 1 1 0 2.4 1.2 1.2 0 0 1 0-2.4M55.6 108.8a1.2 1.2 0 1 1 0 2.4 1.2 1.2 0 0 1 0-2.4M55.6 114.4a1.2 1.2 0 1 1 0 2.4 1.2 1.2 0 0 1 0-2.4M55.6 119.2a1.2 1.2 0 1 1 0 2.4 1.2 1.2 0 0 1 0-2.4M55.6 124a1.2 1.2 0 1 1 0 2.4 1.2 1.2 0 0 1 0-2.4M55.6 129.6a1.2 1.2 0 1 1 0 2.4 1.2 1.2 0 0 1 0-2.4M50.8 79.2a1.2 1.2 0 1 1 0 2.4 1.2 1.2 0 0 1 0-2.4M50.8 84.8a1.2 1.2 0 1 1 0 2.4 1.2 1.2 0 0 1 0-2.4M50.8 89.6a1.2 1.2 0 1 1 0 2.4 1.2 1.2 0 0 1 0-2.4M50.8 93.6a1.2 1.2 0 1 1 0 2.4 1.2 1.2 0 0 1 0-2.4M50.8 99.2a1.2 1.2 0 1 1 0 2.4 1.2 1.2 0 0 1 0-2.4M50.8 104.8a1.2 1.2 0 1 1 0 2.4 1.2 1.2 0 0 1 0-2.4M50.8 108.8a1.2 1.2 0 1 1 0 2.4 1.2 1.2 0 0 1 0-2.4M50.8 114.4a1.2 1.2 0 1 1 0 2.4 1.2 1.2 0 0 1 0-2.4M50.8 119.2a1.2 1.2 0 1 1 0 2.4 1.2 1.2 0 0 1 0-2.4M50.8 124a1.2 1.2 0 1 1 0 2.4 1.2 1.2 0 0 1 0-2.4M50.8 129.6a1.2 1.2 0 1 1 0 2.4 1.2 1.2 0 0 1 0-2.4M46 89.6a1.2 1.2 0 1 1 0 2.4 1.2 1.2 0 0 1 0-2.4M46 93.6a1.2 1.2 0 1 1 0 2.4 1.2 1.2 0 0 1 0-2.4M46 99.2a1.2 1.2 0 1 1 0 2.4 1.2 1.2 0 0 1 0-2.4M46 104.8a1.2 1.2 0 1 1 0 2.4 1.2 1.2 0 0 1 0-2.4M46 108.8a1.2 1.2 0 1 1 0 2.4 1.2 1.2 0 0 1 0-2.4M46 114.4a1.2 1.2 0 1 1 0 2.4 1.2 1.2 0 0 1 0-2.4M46 119.2a1.2 1.2 0 1 1 0 2.4 1.2 1.2 0 0 1 0-2.4M46 124a1.2 1.2 0 1 1 0 2.4 1.2 1.2 0 0 1 0-2.4M46 129.6a1.2 1.2 0 1 1 0 2.4 1.2 1.2 0 0 1 0-2.4M46 133.6a1.2 1.2 0 1 1 0 2.4 1.2 1.2 0 0 1 0-2.4M41.2 99.2a1.2 1.2 0 1 1 0 2.4 1.2 1.2 0 0 1 0-2.4M41.2 104.8a1.2 1.2 0 1 1 0 2.4 1.2 1.2 0 0 1 0-2.4M41.2 108.8a1.2 1.2 0 1 1 0 2.4 1.2 1.2 0 0 1 0-2.4M41.2 114.4a1.2 1.2 0 1 1 0 2.4 1.2 1.2 0 0 1 0-2.4M41.2 119.2a1.2 1.2 0 1 1 0 2.4 1.2 1.2 0 0 1 0-2.4M41.2 124a1.2 1.2 0 1 1 0 2.4 1.2 1.2 0 0 1 0-2.4M41.2 129.6a1.2 1.2 0 1 1 0 2.4 1.2 1.2 0 0 1 0-2.4M41.2 133.6a1.2 1.2 0 1 1 0 2.4 1.2 1.2 0 0 1 0-2.4M41.2 139.2a1.2 1.2 0 1 1 0 2.4 1.2 1.2 0 0 1 0-2.4M41.2 144.8a1.2 1.2 0 1 1 0 2.4 1.2 1.2 0 0 1 0-2.4M36.4 108.8a1.2 1.2 0 1 1 0 2.4 1.2 1.2 0 0 1 0-2.4M36.4 114.4a1.2 1.2 0 1 1 0 2.4 1.2 1.2 0 0 1 0-2.4M36.4 119.2a1.2 1.2 0 1 1 0 2.4 1.2 1.2 0 0 1 0-2.4M36.4 124a1.2 1.2 0 1 1 0 2.4 1.2 1.2 0 0 1 0-2.4M36.4 129.6a1.2 1.2 0 1 1 0 2.4 1.2 1.2 0 0 1 0-2.4M36.4 133.6a1.2 1.2 0 1 1 0 2.4 1.2 1.2 0 0 1 0-2.4M36.4 139.2a1.2 1.2 0 1 1 0 2.4 1.2 1.2 0 0 1 0-2.4M36.4 144.8a1.2 1.2 0 1 1 0 2.4 1.2 1.2 0 0 1 0-2.4M36.4 148.8a1.2 1.2 0 1 1 0 2.4 1.2 1.2 0 0 1 0-2.4M31.6 114.4a1.2 1.2 0 1 1 0 2.4 1.2 1.2 0 0 1 0-2.4M31.6 119.2a1.2 1.2 0 1 1 0 2.4 1.2 1.2 0 0 1 0-2.4M31.6 124a1.2 1.2 0 1 1 0 2.4 1.2 1.2 0 0 1 0-2.4M31.6 129.6a1.2 1.2 0 1 1 0 2.4 1.2 1.2 0 0 1 0-2.4M31.6 133.6a1.2 1.2 0 1 1 0 2.4 1.2 1.2 0 0 1 0-2.4M31.6 139.2a1.2 1.2 0 1 1 0 2.4 1.2 1.2 0 0 1 0-2.4M31.6 144.8a1.2 1.2 0 1 1 0 2.4 1.2 1.2 0 0 1 0-2.4M31.6 148.8a1.2 1.2 0 1 1 0 2.4 1.2 1.2 0 0 1 0-2.4M27.6 124a1.2 1.2 0 1 1 0 2.4 1.2 1.2 0 0 1 0-2.4M27.6 129.6a1.2 1.2 0 1 1 0 2.4 1.2 1.2 0 0 1 0-2.4M27.6 133.6a1.2 1.2 0 1 1 0 2.4 1.2 1.2 0 0 1 0-2.4M27.6 139.2a1.2 1.2 0 1 1 0 2.4 1.2 1.2 0 0 1 0-2.4M27.6 144.8a1.2 1.2 0 1 1 0 2.4 1.2 1.2 0 0 1 0-2.4M27.6 148.8a1.2 1.2 0 1 1 0 2.4 1.2 1.2 0 0 1 0-2.4M20.4 133.6a1.2 1.2 0 1 1 0 2.4 1.2 1.2 0 0 1 0-2.4M20.4 139.2a1.2 1.2 0 1 1 0 2.4 1.2 1.2 0 0 1 0-2.4M20.4 144.8a1.2 1.2 0 1 1 0 2.4 1.2 1.2 0 0 1 0-2.4M20.4 148.8a1.2 1.2 0 1 1 0 2.4 1.2 1.2 0 0 1 0-2.4M16.4 144.8a1.2 1.2 0 1 1 0 2.4 1.2 1.2 0 0 1 0-2.4M16.4 148.8a1.2 1.2 0 1 1 0 2.4 1.2 1.2 0 0 1 0-2.4"/>
        <path fill="#383A48" d="M75.6 74.4a1.2 1.2 0 1 1 0 2.4 1.2 1.2 0 0 1 0-2.4M75.6 114.4a1.2 1.2 0 1 1 0 2.4 1.2 1.2 0 0 1 0-2.4M70 74.4a1.2 1.2 0 1 1 0 2.4 1.2 1.2 0 0 1 0-2.4M70 114.4a1.2 1.2 0 1 1 0 2.4 1.2 1.2 0 0 1 0-2.4M66 74.4a1.2 1.2 0 1 1 0 2.4 1.2 1.2 0 0 1 0-2.4M66 79.2a1.2 1.2 0 1 1 0 2.4 1.2 1.2 0 0 1 0-2.4M66 84.8a1.2 1.2 0 1 1 0 2.4 1.2 1.2 0 0 1 0-2.4M66 89.6a1.2 1.2 0 1 1 0 2.4 1.2 1.2 0 0 1 0-2.4M66 114.4a1.2 1.2 0 1 1 0 2.4 1.2 1.2 0 0 1 0-2.4M62 74.4a1.2 1.2 0 1 1 0 2.4 1.2 1.2 0 0 1 0-2.4M62 79.2a1.2 1.2 0 1 1 0 2.4 1.2 1.2 0 0 1 0-2.4M62 84.8a1.2 1.2 0 1 1 0 2.4 1.2 1.2 0 0 1 0-2.4M62 89.6a1.2 1.2 0 1 1 0 2.4 1.2 1.2 0 0 1 0-2.4M62 93.6a1.2 1.2 0 1 1 0 2.4 1.2 1.2 0 0 1 0-2.4M62 99.2a1.2 1.2 0 1 1 0 2.4 1.2 1.2 0 0 1 0-2.4M62 114.4a1.2 1.2 0 1 1 0 2.4 1.2 1.2 0 0 1 0-2.4M55.6 74.4a1.2 1.2 0 1 1 0 2.4 1.2 1.2 0 0 1 0-2.4M55.6 79.2a1.2 1.2 0 1 1 0 2.4 1.2 1.2 0 0 1 0-2.4M55.6 84.8a1.2 1.2 0 1 1 0 2.4 1.2 1.2 0 0 1 0-2.4M55.6 89.6a1.2 1.2 0 1 1 0 2.4 1.2 1.2 0 0 1 0-2.4M55.6 93.6a1.2 1.2 0 1 1 0 2.4 1.2 1.2 0 0 1 0-2.4M55.6 99.2a1.2 1.2 0 1 1 0 2.4 1.2 1.2 0 0 1 0-2.4M55.6 104.8a1.2 1.2 0 1 1 0 2.4 1.2 1.2 0 0 1 0-2.4M55.6 108.8a1.2 1.2 0 1 1 0 2.4 1.2 1.2 0 0 1 0-2.4M55.6 114.4a1.2 1.2 0 1 1 0 2.4 1.2 1.2 0 0 1 0-2.4"/>
        <path fill="#FFB81C" d="M39.572 113.427h20.603L58.683 74.43H57.54l-17.967 38.997zM61.177 152l-1.288-20.738H32.091L22.034 152H0L50.323 52H77.06L86.4 152H61.177z"/>
        <path fill="#383A48" d="M41.996 112.377h17.53L58.168 76.53l-16.172 35.847zm18.568 2.007H40.439c-.34 0-.659-.18-.839-.462a.974.974 0 0 1-.06-.963L57.09 74.12a.99.99 0 0 1 .918-.582h1.118c.54 0 .979.422.998.964l1.458 38.837c.02.281-.1.542-.28.743-.22.18-.479.3-.738.3zm1.916 36.409H85.1l-8.944-97.586H51.56L3.404 150.793H22.67l9.543-20.071a.998.998 0 0 1 .899-.562h27.152c.52 0 .959.421.998.943l1.218 19.69zM86.18 152.8H61.542c-.52 0-.958-.421-.998-.943l-1.198-19.71H33.75l-9.544 20.07a.999.999 0 0 1-.898.563H1.787a.979.979 0 0 1-.839-.482c-.18-.3-.2-.662-.04-.983l49.154-99.553a.999.999 0 0 1 .899-.562h26.114c.519 0 .938.401.998.903l9.124 99.593a.97.97 0 0 1-.26.763c-.2.22-.479.341-.758.341z"/>
        <path fill="#FFB81C" d="M202.235 1.264c-10.028-2.317-19.955 4.262-22.164 14.69a20.065 20.065 0 0 0 1.095 11.895L178.4 40.8l10.823-3.745A18.19 18.19 0 0 0 194.197 39c10.027 2.317 19.955-4.262 22.163-14.689 2.209-10.406-4.118-20.73-14.125-23.047"/>
        <path fill="#383A48" d="M197.683 27.2a.85.85 0 0 1-.727-.397l-5.53-7.552c-.344-.463-.287-1.17.115-1.545.402-.397 1.014-.331 1.34.132l4.764 6.492 6.238-9.494c.325-.486.919-.574 1.34-.221.42.375.497 1.06.19 1.545l-6.964 10.598a.961.961 0 0 1-.766.442"/>
        <path fill="#383A48" d="M181.568 27.519l-2.392 10.773 9.246-3.07c.262-.08.563-.06.804.08a17.368 17.368 0 0 0 4.744 1.786c9.567 2.127 19.075-3.932 21.205-13.482 1.025-4.634.181-9.369-2.352-13.361-2.532-3.993-6.512-6.761-11.135-7.785a17.738 17.738 0 0 0-13.386 2.348c-4 2.548-6.774 6.5-7.8 11.114a17.536 17.536 0 0 0 1.046 10.914c.06.221.08.462.02.683M177.81 40.8c-.24 0-.482-.08-.683-.26a1.006 1.006 0 0 1-.301-.964l2.713-12.238a19.631 19.631 0 0 1-1.045-11.857c1.146-5.156 4.22-9.55 8.683-12.379C191.638.274 196.924-.669 202.09.474c5.166 1.144 9.568 4.213 12.402 8.667 2.834 4.454 3.779 9.73 2.633 14.887-2.05 9.188-10.251 15.468-19.316 15.468-1.407 0-2.854-.16-4.281-.462a19.776 19.776 0 0 1-4.885-1.785l-10.512 3.49a1 1 0 0 1-.322.061M20.37 49.436l-3.332-2.225 2.007-3.425a.966.966 0 0 0-.08-1.102 1.027 1.027 0 0 0-1.084-.335l-3.854 1.162-1.485-3.681a1.026 1.026 0 0 0-.943-.63c-.421 0-.783.256-.943.63L9.17 43.51l-3.853-1.16a1.027 1.027 0 0 0-1.084.334.966.966 0 0 0-.08 1.102l2.007 3.425-3.332 2.225a.967.967 0 0 0-.401 1.023c.08.394.421.69.823.748l3.973.59-.3 3.938c-.041.413.2.787.561.964a1.02 1.02 0 0 0 1.124-.157l2.95-2.677 2.95 2.677c.18.157.442.256.682.256.14 0 .301-.04.522-.099.361-.177.582-.57.562-.964l-.3-3.937 3.973-.59a1 1 0 0 0 .822-.749c.1-.393-.06-.787-.4-1.023"/>
    </g>
</svg>
