<svg xmlns="http://www.w3.org/2000/svg" width="261" height="131" viewBox="0 0 261 131">
    <g fill="none" fill-rule="evenodd">
        <g fill-rule="nonzero" transform="translate(.136)">
            <path fill="#F3F6E6" d="M153.122 106.97l106.013-20.89V1.044H153.122z"/>
            <path fill="#383A48" d="M153.122 107.918c-.209 0-.436-.076-.606-.209-.227-.17-.341-.455-.341-.74V1.044c0-.532.417-.95.947-.95h106.013c.53 0 .947.418.947.95V86.08a.954.954 0 0 1-.758.93l-106.013 20.889c-.057 0-.132.019-.19.019zm.946-105.926v103.82l104.12-20.51V1.992h-104.12z"/>
            <path fill="#F3F6E6" d="M123.395 120.952h57.75l8.084-2.656 5.302-18.12h50.555l-14.05-35.384c0-9.107-7.365-16.487-16.453-16.487h-91.188v72.647z"/>
            <path fill="#383A48" d="M181.145 121.9h-57.75a.938.938 0 0 1-.947-.948V48.305c0-.531.417-.949.947-.949h91.188c9.523 0 17.287 7.722 17.381 17.247l13.993 35.213a.996.996 0 0 1-.095.892.928.928 0 0 1-.776.418h-49.854l-5.094 17.436a.952.952 0 0 1-.606.626l-8.085 2.656a.94.94 0 0 1-.302.057zm-56.803-1.896h56.651l7.46-2.448 5.17-17.645a.955.955 0 0 1 .908-.683h49.154l-13.538-34.075a1.11 1.11 0 0 1-.076-.342c0-8.556-6.95-15.538-15.507-15.538h-90.222v70.73z"/>
            <path fill="#F3F6E6" d="M198.64 48.305h-89.862c-9.808 0-17.76 7.969-17.76 17.797v63.426h22.607l7.346-8.576h60.174"/>
            <path fill="#383A48" d="M113.625 130.477H91.017a.938.938 0 0 1-.946-.949V66.121c0-10.34 8.387-18.746 18.707-18.746h89.862c.53 0 .947.418.947.949a.938.938 0 0 1-.947.949h-89.862c-9.278 0-16.814 7.55-16.814 16.848v62.477h21.225l7.063-8.253a.919.919 0 0 1 .72-.322h60.173c.53 0 .946.417.946.948a.938.938 0 0 1-.946.949h-59.757l-7.044 8.234a.977.977 0 0 1-.72.323zM198.64 104.673a.938.938 0 0 1-.947-.948V64.527c0-9.468 7.687-17.17 17.136-17.17 9.448 0 17.135 7.702 17.135 17.17v25.177a.938.938 0 0 1-.947.948.938.938 0 0 1-.946-.948V64.527c0-8.424-6.836-15.273-15.242-15.273-8.407 0-15.242 6.849-15.242 15.273v39.198a.938.938 0 0 1-.947.948z"/>
            <path fill="#F3F6E6" d="M259.135 42.632V86.08c0 7.779-6.286 14.078-14.05 14.078-7.762 0-14.049-6.3-14.049-14.078V64.147"/>
            <path fill="#383A48" d="M245.086 101.126c-8.275 0-14.996-6.736-14.996-15.027V64.147c0-.53.416-.948.946-.948s.947.417.947.948V86.08c0 7.248 5.889 13.13 13.103 13.13 7.214 0 13.102-5.901 13.102-13.13V42.632c0-.531.417-.949.947-.949s.947.418.947.95V86.08c0 8.291-6.722 15.046-14.996 15.046z"/>
            <g fill="#383A48">
                <path d="M153.121 1.044h106.013V30.68H153.121z"/>
                <path d="M259.135 31.628H153.122a.938.938 0 0 1-.947-.949V1.044c0-.532.417-.95.947-.95h106.013c.53 0 .947.418.947.95v29.635a.938.938 0 0 1-.947.949zM154.068 29.73h104.12V1.992h-104.12v27.739z"/>
            </g>
            <path fill="#F3F6E6" d="M43.094 104.332c0 13.926-11.265 25.196-25.144 25.196H.985h113.454s10.035-1.423 13.405-8.576c3.37-7.153 19.332-43.144 19.332-43.144H62.843c-10.906 0-19.749 8.86-19.749 19.789v6.735z"/>
            <path fill="#383A48" d="M114.42 130.477H.966a.938.938 0 0 1-.947-.949c0-.531.416-.949.947-.949H17.93c13.348 0 24.198-10.871 24.198-24.247v-6.735c0-11.441 9.278-20.738 20.695-20.738h84.315c.321 0 .624.171.795.437a.97.97 0 0 1 .075.91c-.151.36-15.999 36.087-19.331 43.164-3.56 7.532-13.69 9.05-14.125 9.126-.038-.02-.076-.02-.133-.02zm-86.72-1.898h86.644c.814-.132 9.638-1.707 12.63-8.044 2.953-6.28 15.81-35.214 18.725-41.797H62.843c-10.376 0-18.802 8.461-18.802 18.84v6.735c0 10.985-6.778 20.396-16.34 24.266z"/>
            <g>
                <path fill="#F3F6E6" d="M198.64 71.32v32.082c0 9.695-7.839 17.55-17.514 17.55-9.676 0-17.515-7.855-17.515-17.55V94.22c0-9.069-7.327-16.411-16.378-16.411-9.05 0-16.378 7.342-16.378 16.411v16.469c0 10.397-8.426 18.84-18.802 18.84 0 0 11.607-.474 15.773-8.576h53.3"/>
                <path fill="#383A48" d="M112.053 130.477a.96.96 0 0 1-.947-.93.948.948 0 0 1 .91-.968c.075 0 4.77-.246 9.107-2.485a17.884 17.884 0 0 0 8.785-15.406V94.219c0-9.58 7.782-17.36 17.325-17.36 9.562 0 17.325 7.798 17.325 17.36v9.183c0 9.145 7.422 16.602 16.568 16.602 9.126 0 16.567-7.438 16.567-16.602V71.32c0-.531.417-.949.947-.949s.947.418.947.95v32.082c0 10.189-8.275 18.499-18.461 18.499h-52.732c-1.402 2.447-3.598 4.458-6.476 5.938a19.564 19.564 0 0 1-9.865 2.638zm17.42-10.473h43.51c-6.096-3.017-10.318-9.316-10.318-16.602V94.22c0-8.537-6.93-15.463-15.432-15.463-8.52 0-15.431 6.945-15.431 15.463v16.469c0 3.377-.833 6.546-2.33 9.316z"/>
            </g>
            <ellipse cx="165.278" cy="14.761" fill="#FFF" rx="3.844" ry="3.851"/>
            <ellipse cx="176.752" cy="14.761" fill="#FFF" rx="3.844" ry="3.851"/>
            <ellipse cx="188.245" cy="14.761" fill="#FFF" rx="3.844" ry="3.851"/>
            <g fill="#383A48" transform="translate(129.7 79.496)">
                <ellipse cx="38.437" cy="38.458" rx="1" ry="1"/>
                <ellipse cx="33.76" cy="29.104" rx="1" ry="1"/>
                <ellipse cx="33.76" cy="33.791" rx="1" ry="1"/>
                <ellipse cx="33.76" cy="38.458" rx="1" ry="1"/>
                <ellipse cx="29.083" cy="5.711" rx="1" ry="1"/>
                <ellipse cx="29.083" cy="10.378" rx="1" ry="1"/>
                <ellipse cx="29.083" cy="15.064" rx="1" ry="1"/>
                <ellipse cx="29.083" cy="19.751" rx="1" ry="1"/>
                <ellipse cx="29.083" cy="24.418" rx="1" ry="1"/>
                <ellipse cx="29.083" cy="29.104" rx="1" ry="1"/>
                <ellipse cx="29.083" cy="33.791" rx="1" ry="1"/>
                <ellipse cx="29.083" cy="38.458" rx="1" ry="1"/>
                <ellipse cx="24.425" cy="1.025" rx="1" ry="1"/>
                <ellipse cx="24.425" cy="5.711" rx="1" ry="1"/>
                <ellipse cx="24.425" cy="10.378" rx="1" ry="1"/>
                <ellipse cx="24.425" cy="15.064" rx="1" ry="1"/>
                <ellipse cx="24.425" cy="19.751" rx="1" ry="1"/>
                <ellipse cx="24.425" cy="24.418" rx="1" ry="1"/>
                <ellipse cx="24.425" cy="29.104" rx="1" ry="1"/>
                <ellipse cx="24.425" cy="33.791" rx="1" ry="1"/>
                <ellipse cx="24.425" cy="38.458" rx="1" ry="1"/>
                <ellipse cx="19.748" cy="1.025" rx="1" ry="1"/>
                <ellipse cx="19.748" cy="5.711" rx="1" ry="1"/>
                <ellipse cx="19.748" cy="10.378" rx="1" ry="1"/>
                <ellipse cx="19.748" cy="15.064" rx="1" ry="1"/>
                <ellipse cx="19.748" cy="19.751" rx="1" ry="1"/>
                <ellipse cx="19.748" cy="24.418" rx="1" ry="1"/>
                <ellipse cx="19.748" cy="29.104" rx="1" ry="1"/>
                <ellipse cx="19.748" cy="33.791" rx="1" ry="1"/>
                <ellipse cx="19.748" cy="38.458" rx="1" ry="1"/>
                <ellipse cx="15.072" cy="1.025" rx="1" ry="1"/>
                <ellipse cx="15.072" cy="5.711" rx="1" ry="1"/>
                <ellipse cx="15.072" cy="10.378" rx="1" ry="1"/>
                <ellipse cx="15.072" cy="15.064" rx="1" ry="1"/>
                <ellipse cx="15.072" cy="19.751" rx="1" ry="1"/>
                <ellipse cx="15.072" cy="24.418" rx="1" ry="1"/>
                <ellipse cx="15.072" cy="29.104" rx="1" ry="1"/>
                <ellipse cx="15.072" cy="33.791" rx="1" ry="1"/>
                <ellipse cx="15.072" cy="38.458" rx="1" ry="1"/>
                <ellipse cx="10.414" cy="1.025" rx="1" ry="1"/>
                <ellipse cx="10.414" cy="5.711" rx="1" ry="1"/>
                <ellipse cx="10.414" cy="10.378" rx="1" ry="1"/>
                <ellipse cx="10.414" cy="15.064" rx="1" ry="1"/>
                <ellipse cx="10.414" cy="19.751" rx="1" ry="1"/>
                <ellipse cx="10.414" cy="24.418" rx="1" ry="1"/>
                <ellipse cx="10.414" cy="29.104" rx="1" ry="1"/>
                <ellipse cx="10.414" cy="33.791" rx="1" ry="1"/>
                <ellipse cx="10.414" cy="38.458" rx="1" ry="1"/>
                <ellipse cx="5.737" cy="5.711" rx="1" ry="1"/>
                <ellipse cx="5.737" cy="10.378" rx="1" ry="1"/>
                <ellipse cx="5.737" cy="15.064" rx="1" ry="1"/>
                <ellipse cx="5.737" cy="19.751" rx="1" ry="1"/>
                <ellipse cx="5.737" cy="24.418" rx="1" ry="1"/>
                <ellipse cx="5.737" cy="29.104" rx="1" ry="1"/>
                <ellipse cx="5.737" cy="33.791" rx="1" ry="1"/>
                <ellipse cx="5.737" cy="38.458" rx="1" ry="1"/>
                <ellipse cx="1.06" cy="38.458" rx="1" ry="1"/>
            </g>
            <g fill="#383A48" transform="translate(200.514 49.52)">
                <ellipse cx="33.76" cy="47.812" rx="1" ry="1"/>
                <ellipse cx="29.102" cy="10.378" rx="1" ry="1"/>
                <ellipse cx="29.102" cy="15.064" rx="1" ry="1"/>
                <ellipse cx="29.102" cy="19.732" rx="1" ry="1"/>
                <ellipse cx="29.102" cy="24.418" rx="1" ry="1"/>
                <ellipse cx="29.102" cy="29.104" rx="1" ry="1"/>
                <ellipse cx="29.102" cy="33.772" rx="1" ry="1"/>
                <ellipse cx="29.102" cy="38.458" rx="1" ry="1"/>
                <ellipse cx="29.102" cy="43.144" rx="1" ry="1"/>
                <ellipse cx="29.102" cy="47.812" rx="1" ry="1"/>
                <ellipse cx="24.425" cy="5.692" rx="1" ry="1"/>
                <ellipse cx="24.425" cy="10.378" rx="1" ry="1"/>
                <ellipse cx="24.425" cy="15.064" rx="1" ry="1"/>
                <ellipse cx="24.425" cy="19.732" rx="1" ry="1"/>
                <ellipse cx="24.425" cy="24.418" rx="1" ry="1"/>
                <ellipse cx="24.425" cy="29.104" rx="1" ry="1"/>
                <ellipse cx="24.425" cy="33.772" rx="1" ry="1"/>
                <ellipse cx="24.425" cy="38.458" rx="1" ry="1"/>
                <ellipse cx="24.425" cy="43.144" rx="1" ry="1"/>
                <ellipse cx="24.425" cy="47.812" rx="1" ry="1"/>
                <ellipse cx="19.748" cy="1.025" rx="1" ry="1"/>
                <ellipse cx="19.748" cy="5.692" rx="1" ry="1"/>
                <ellipse cx="19.748" cy="10.378" rx="1" ry="1"/>
                <ellipse cx="19.748" cy="15.064" rx="1" ry="1"/>
                <ellipse cx="19.748" cy="19.732" rx="1" ry="1"/>
                <ellipse cx="19.748" cy="24.418" rx="1" ry="1"/>
                <ellipse cx="19.748" cy="29.104" rx="1" ry="1"/>
                <ellipse cx="19.748" cy="33.772" rx="1" ry="1"/>
                <ellipse cx="19.748" cy="38.458" rx="1" ry="1"/>
                <ellipse cx="19.748" cy="43.144" rx="1" ry="1"/>
                <ellipse cx="19.748" cy="47.812" rx="1" ry="1"/>
                <ellipse cx="15.091" cy="1.025" rx="1" ry="1"/>
                <ellipse cx="15.091" cy="5.692" rx="1" ry="1"/>
                <ellipse cx="15.091" cy="10.378" rx="1" ry="1"/>
                <ellipse cx="15.091" cy="15.064" rx="1" ry="1"/>
                <ellipse cx="15.091" cy="19.732" rx="1" ry="1"/>
                <ellipse cx="15.091" cy="24.418" rx="1" ry="1"/>
                <ellipse cx="15.091" cy="29.104" rx="1" ry="1"/>
                <ellipse cx="15.091" cy="33.772" rx="1" ry="1"/>
                <ellipse cx="15.091" cy="38.458" rx="1" ry="1"/>
                <ellipse cx="15.091" cy="43.144" rx="1" ry="1"/>
                <ellipse cx="15.091" cy="47.812" rx="1" ry="1"/>
                <ellipse cx="10.414" cy="1.025" rx="1" ry="1"/>
                <ellipse cx="10.414" cy="5.692" rx="1" ry="1"/>
                <ellipse cx="10.414" cy="10.378" rx="1" ry="1"/>
                <ellipse cx="10.414" cy="15.064" rx="1" ry="1"/>
                <ellipse cx="10.414" cy="19.732" rx="1" ry="1"/>
                <ellipse cx="10.414" cy="24.418" rx="1" ry="1"/>
                <ellipse cx="10.414" cy="29.104" rx="1" ry="1"/>
                <ellipse cx="10.414" cy="33.772" rx="1" ry="1"/>
                <ellipse cx="10.414" cy="38.458" rx="1" ry="1"/>
                <ellipse cx="10.414" cy="43.144" rx="1" ry="1"/>
                <ellipse cx="10.414" cy="47.812" rx="1" ry="1"/>
                <ellipse cx="5.737" cy="5.692" rx="1" ry="1"/>
                <ellipse cx="5.737" cy="10.378" rx="1" ry="1"/>
                <ellipse cx="5.737" cy="15.064" rx="1" ry="1"/>
                <ellipse cx="5.737" cy="19.732" rx="1" ry="1"/>
                <ellipse cx="5.737" cy="24.418" rx="1" ry="1"/>
                <ellipse cx="5.737" cy="29.104" rx="1" ry="1"/>
                <ellipse cx="5.737" cy="33.772" rx="1" ry="1"/>
                <ellipse cx="5.737" cy="38.458" rx="1" ry="1"/>
                <ellipse cx="5.737" cy="43.144" rx="1" ry="1"/>
                <ellipse cx="5.737" cy="47.812" rx="1" ry="1"/>
                <ellipse cx="1.079" cy="10.378" rx="1" ry="1"/>
                <ellipse cx="1.079" cy="15.064" rx="1" ry="1"/>
                <ellipse cx="1.079" cy="19.732" rx="1" ry="1"/>
                <ellipse cx="1.079" cy="24.418" rx="1" ry="1"/>
                <ellipse cx="1.079" cy="29.104" rx="1" ry="1"/>
                <ellipse cx="1.079" cy="33.772" rx="1" ry="1"/>
                <ellipse cx="1.079" cy="38.458" rx="1" ry="1"/>
                <ellipse cx="1.079" cy="43.144" rx="1" ry="1"/>
                <ellipse cx="1.079" cy="47.812" rx="1" ry="1"/>
            </g>
        </g>
        <path fill="#383A48" fill-rule="nonzero" d="M198.776 104.673a.938.938 0 0 1-.947-.948V64.527c0-4.592 1.78-8.898 5.018-12.143a17.286 17.286 0 0 1 3.654-2.789c.152-.076.303-.133.473-.133.53 0 .947.418.947.949a.99.99 0 0 1-.511.854 14.979 14.979 0 0 0-3.219 2.466 15.186 15.186 0 0 0-4.468 10.796v39.198a.938.938 0 0 1-.947.948z"/>
        <path fill="#D3EDF5" fill-rule="nonzero" d="M217.331 119.548a.887.887 0 0 1-.662-.284L158.01 60.486a.94.94 0 0 1 0-1.347.936.936 0 0 1 1.345 0l58.658 58.778a.94.94 0 0 1 0 1.347c-.208.19-.454.284-.682.284z"/>
        <path d="M240.791 116.38l4.412 4.44"/>
        <path fill="#383A48" fill-rule="nonzero" d="M240.104 117.057l1.339-1.342 4.418 4.427-1.34 1.342z"/>
        <path d="M240.791 120.82l4.412-4.44"/>
        <path fill="#383A48" fill-rule="nonzero" d="M240.15 120.137l4.418-4.428 1.34 1.341-4.42 4.428z"/>
        <path d="M69.795 54.756l4.412 4.44"/>
        <path fill="#383A48" fill-rule="nonzero" d="M69.11 55.433l1.34-1.341 4.417 4.427-1.339 1.342z"/>
        <g>
            <path d="M69.795 59.195l4.412-4.44"/>
            <path fill="#383A48" fill-rule="nonzero" d="M69.118 58.536l4.418-4.428 1.34 1.342-4.419 4.427z"/>
        </g>
        <g>
            <path d="M9.622 22.976l4.412 4.42"/>
            <path fill="#383A48" fill-rule="nonzero" d="M8.939 23.658l1.339-1.342 4.418 4.428-1.339 1.341z"/>
            <g>
                <path d="M9.622 27.397l4.412-4.42"/>
                <path fill="#383A48" fill-rule="nonzero" d="M8.962 26.737l4.419-4.427 1.338 1.341-4.418 4.428z"/>
            </g>
        </g>
        <path fill="#383A48" fill-rule="nonzero" d="M112.757 77.106L92.062 61.833a.924.924 0 0 0-.984-.076.954.954 0 0 0-.512.854v15.216c0 .531.417.948.947.948l20.695.057a.921.921 0 0 0 .89-.645c.114-.417-.019-.835-.34-1.081z"/>
        <g fill-rule="nonzero">
            <path fill="#D3EDF5" d="M47.282 55.42l.682-.664a15.181 15.181 0 0 0-10.811-4.63c-4.11-.057-7.972 1.518-10.907 4.383-6.059 5.939-6.172 15.69-.246 21.762l.947-.93L46.62 56.084l.587-.57.075-.094z"/>
            <path fill="#383A48" d="M47.964 54.756l-.682.664-19.937 19.523-.417.398-.265.266-.682.664a15.326 15.326 0 0 0 10.982 4.63c3.882 0 7.744-1.461 10.736-4.383 6.059-5.939 6.173-15.69.265-21.762z"/>
        </g>
        <g>
            <g fill-rule="nonzero">
                <path fill="#F6E049" d="M106.85 30.68H36.547V1.27h70.303l15.924 11.08c2.518 1.765 2.518 5.502 0 7.248l-15.924 11.08z"/>
                <path fill="#383A48" d="M106.85 31.628H36.547a.938.938 0 0 1-.947-.949V1.271c0-.531.417-.948.947-.948h70.303c.19 0 .379.056.549.17l15.924 11.08a5.394 5.394 0 0 1 2.31 4.402 5.345 5.345 0 0 1-2.31 4.402l-15.924 11.08a.985.985 0 0 1-.55.17zM37.493 29.73h69.054l15.696-10.91c.947-.664 1.496-1.688 1.496-2.846 0-1.157-.549-2.182-1.496-2.846L106.547 2.22H37.493v27.512z"/>
            </g>
            <g fill-rule="nonzero" transform="translate(23.236)">
                <ellipse cx="15.905" cy="15.861" fill="#F6E049" rx="14.788" ry="14.818"/>
                <path fill="#383A48" d="M15.905 31.628C7.233 31.628.17 24.55.17 15.86S7.233.095 15.905.095 31.639 7.172 31.639 15.86c0 8.709-7.062 15.767-15.734 15.767zm0-29.636c-7.63 0-13.841 6.223-13.841 13.87 0 7.645 6.21 13.869 13.84 13.869 7.631 0 13.842-6.224 13.842-13.87 0-7.646-6.21-13.869-13.841-13.869z"/>
            </g>
            <g fill="#383A48" fill-rule="nonzero" transform="translate(30.999 7.779)">
                <ellipse cx="8.142" cy="8.082" rx="7.1" ry="7.115"/>
                <path d="M8.142 16.146c-4.43 0-8.047-3.624-8.047-8.064C.095 3.642 3.71.02 8.142.02c4.43 0 8.047 3.624 8.047 8.063 0 4.46-3.617 8.064-8.047 8.064zm0-14.23c-3.39 0-6.154 2.77-6.154 6.166 0 3.397 2.765 6.167 6.154 6.167s6.153-2.77 6.153-6.167c0-3.396-2.764-6.166-6.153-6.166z"/>
            </g>
            <path fill="#383A48" fill-rule="nonzero" d="M106.49 31.4c-4.525 0-8.198-3.7-8.198-8.234 0-2.296 1.003-4.497 2.802-6.204.454-.418.681-.797.681-1.1 0-.361-.36-.779-.643-1.044-1.837-1.708-2.84-3.928-2.84-6.242 0-4.535 3.673-8.234 8.198-8.234.53 0 .947.417.947.948a.938.938 0 0 1-.947.949c-3.484 0-6.305 2.846-6.305 6.337 0 1.783.795 3.51 2.234 4.838.833.778 1.25 1.594 1.25 2.428 0 .854-.417 1.67-1.288 2.486-1.42 1.347-2.215 3.054-2.215 4.819 0 3.49 2.821 6.337 6.305 6.337.53 0 .947.417.947.949 0 .53-.398.967-.928.967z"/>
            <g fill="#383A48" fill-rule="nonzero">
                <path d="M118.57 9.43v13.11l3.92-2.6c2.897-1.916 2.859-6.185-.076-8.044L118.57 9.43z"/>
                <path d="M118.57 23.488c-.151 0-.303-.038-.454-.113a.966.966 0 0 1-.493-.835V9.43c0-.342.19-.665.493-.835a.93.93 0 0 1 .965.038l3.863 2.466a5.722 5.722 0 0 1 2.65 4.8 5.72 5.72 0 0 1-2.574 4.838l-3.939 2.6c-.151.095-.34.151-.51.151zm.947-12.332v9.62l2.461-1.632a3.8 3.8 0 0 0 1.723-3.245 3.852 3.852 0 0 0-1.78-3.206l-2.404-1.537z"/>
            </g>
            <path fill="#383A48" fill-rule="nonzero" d="M99.238 9.524H52.016a.938.938 0 0 1-.947-.948c0-.531.417-.949.947-.949h47.222c.53 0 .947.418.947.949a.938.938 0 0 1-.947.948z"/>
            <path d="M99.238 23.166H52.016"/>
            <path fill="#383A48" fill-rule="nonzero" d="M99.238 24.115H52.016a.938.938 0 0 1-.947-.95c0-.53.417-.948.947-.948h47.222c.53 0 .947.418.947.949a.938.938 0 0 1-.947.949z"/>
        </g>
    </g>
</svg>
