<svg xmlns="http://www.w3.org/2000/svg" xmlns:xlink="http://www.w3.org/1999/xlink" width="229" height="73" viewBox="0 0 229 73">
    <defs>
        <path id="a" d="M7.63 2.137L4.605.005.364 2.67v3.506l7.265 7.685 7.266-7.685V2.67L10.652.005z"/>
    </defs>
    <g fill="none" fill-rule="evenodd">
        <path fill="#383A48" d="M58.631 40.287c3.462 0 5.044-1.986 5.044-4.787 0-2.802-1.582-4.787-5.044-4.787H57.21v9.574h1.421zM54 28h4.792C63.584 28 67 31.066 67 35.5S63.607 43 58.792 43H54V28zM70 28h9.698v2.713h-6.681v4.764H78.9v2.648h-5.884v2.162H80V43H70zM87.032 36.581c2.498 0 3.594-.794 3.594-2.912s-1.14-2.956-3.594-2.956h-.964v5.868h.964zM94 43h-3.55l-2.454-3.794a5.9 5.9 0 0 1-.877.066h-1.051V43H83V28h4.12c4.163 0 6.66 2.007 6.66 5.67 0 2.337-1.03 3.815-2.87 4.654L94 43zM97 28h9.698v2.713h-6.681v4.764h5.884v2.648h-5.884v2.162H107V43H97zM109 35.489c0-4.326 3.423-7.489 7.729-7.489 2.716 0 4.659.947 6.006 2.992l-2.363 1.635c-.707-1.12-1.921-1.915-3.643-1.915-2.716 0-4.549 2.044-4.549 4.777s1.833 4.82 4.549 4.82c1.943 0 3.025-.903 3.864-2.152L123 39.772c-1.303 1.98-3.379 3.228-6.271 3.228-4.306 0-7.729-3.185-7.729-7.511M125 28h3.187v7.676h6.626V28H138v15h-3.187v-4.566h-6.626V43H125zM153.727 35.5c0-2.73-1.91-4.814-4.727-4.814-2.818 0-4.727 2.085-4.727 4.814s1.909 4.814 4.727 4.814c2.818 0 4.727-2.085 4.727-4.814M141 35.5c0-4.32 3.546-7.5 8-7.5 4.454 0 8 3.18 8 7.5s-3.546 7.5-8 7.5c-4.454 0-8-3.18-8-7.5M157 39.922l2.575-1.42c.678 1.055 1.559 1.83 3.117 1.83 1.31 0 2.145-.625 2.145-1.485 0-1.033-.858-1.4-2.303-2.002l-.79-.323c-2.282-.925-3.795-2.088-3.795-4.54 0-2.26 1.807-3.982 4.63-3.982 2.01 0 3.456.667 4.495 2.41l-2.462 1.507c-.542-.925-1.13-1.291-2.033-1.291-.926 0-1.513.559-1.513 1.29 0 .904.587 1.27 1.942 1.83l.79.323c2.689 1.098 4.202 2.217 4.202 4.734 0 2.712-2.236 4.197-5.24 4.197-2.936 0-4.834-1.334-5.76-3.078M58.631 61.287c3.462 0 5.044-1.986 5.044-4.787s-1.582-4.787-5.044-4.787H57.21v9.574h1.421zM54 49h4.792C63.584 49 67 52.066 67 56.5S63.607 64 58.792 64H54V49zM70 49h9.698v2.713h-6.681v4.765H78.9v2.647h-5.884v2.162H80V64H70zM83 49h3.125v12.287H93V64H83zM101 49h9.698v2.713h-6.68v4.765h5.883v2.647h-5.884v2.162H111V64h-10zM112 61.923l2.575-1.421c.678 1.054 1.558 1.83 3.117 1.83 1.31 0 2.146-.625 2.146-1.486 0-1.033-.859-1.398-2.304-2.001l-.79-.323c-2.282-.926-3.795-2.087-3.795-4.54 0-2.26 1.807-3.982 4.63-3.982 2.01 0 3.456.667 4.495 2.41l-2.462 1.507c-.542-.926-1.13-1.291-2.033-1.291-.926 0-1.513.559-1.513 1.291 0 .904.587 1.27 1.942 1.83l.79.322c2.69 1.097 4.202 2.216 4.202 4.735 0 2.71-2.236 4.196-5.24 4.196-2.936 0-4.834-1.335-5.76-3.077M128.41 51.713H124V49h12v2.713h-4.41V64h-3.18zM138 58.448V49h3.31v9.274c0 2.155 1.016 2.983 3.214 2.983 2.174 0 3.167-.828 3.167-2.983V49H151v9.448c0 3.745-2.813 5.552-6.476 5.552-3.711 0-6.524-1.807-6.524-5.552M157.632 61.287c3.461 0 5.044-1.986 5.044-4.787s-1.583-4.787-5.044-4.787h-1.422v9.574h1.422zM153 49h4.792c4.792 0 8.208 3.066 8.208 7.5s-3.394 7.5-8.208 7.5H153V49zM169 64h3V49h-3zM182.846 59.758l-1.104-2.58c-.45-1.05-.922-2.668-.922-2.668s-.45 1.618-.9 2.668l-1.104 2.58h4.03zM180.73 49h.27l7 15h-3.31l-.72-1.683h-6.212l-.72 1.683H174l6.73-15zM194.698 57.02c-.792-.694-1.884-2.016-1.884-2.016s.232 1.626.232 2.688v6.178H190V49h.326l7.976 6.98c.768.672 1.86 2.016 1.86 2.016s-.209-1.67-.209-2.689V49.13H203V64h-.326l-7.976-6.98zM208.41 51.713H204V49h12v2.713h-4.41V64h-3.18zM219 49h9.698v2.713h-6.681v4.765h5.883v2.647h-5.883v2.162H229V64h-10zM16.123 7.916C17 4.983 19.75 2.836 23 2.836c3.25 0 6 2.147 6.877 5.08 1.09.295 2.132.66 3.123 1.084-.47-5.04-4.774-9-10-9-5.225 0-9.53 3.96-10 9a23.765 23.765 0 0 1 3.123-1.084"/>
        <path fill="#383A48" d="M9.14 39.417v-1.932h26.72v18.262H9.14v-16.33zm28.126-4.741H7.734a1.41 1.41 0 0 0-1.406 1.404v21.072a1.41 1.41 0 0 0 1.406 1.405h29.532a1.41 1.41 0 0 0 1.406-1.405V36.08a1.41 1.41 0 0 0-1.406-1.404zm4.921 25.11a1.41 1.41 0 0 1-1.406 1.404H4.219a1.41 1.41 0 0 1-1.407-1.405v-37.43c0-8.02 8.831-14.545 19.688-14.545 10.856 0 19.687 6.525 19.687 14.546v37.43zM26.374 5.265A28.044 28.044 0 0 0 22.5 5c-1.322 0-2.616.091-3.874.267l-3.073.583C6.533 8.112 0 14.65 0 22.356v37.43A4.22 4.22 0 0 0 4.22 64h36.56A4.22 4.22 0 0 0 45 59.785v-37.43c0-.048 0-.098-.007-.14-.07-7.642-6.588-14.117-15.546-16.365l-3.073-.583z"/>
        <path fill="#FEFEFE" d="M11.728 43.273a.452.452 0 0 0-.456.454h.002c0-.253.201-.452.454-.454"/>
        <path fill="#56DABC" d="M10.937 43.786h.002c.017-.36.353-.65.767-.65.414 0 .75.29.767.65h.002l.03.214H38v-1H9v1h1.907l.03-.214z"/>
        <path fill="#383A48" d="M8 42h30v2H8z"/>
        <path fill="#FEFEFE" d="M11.5 43.304v.392zM11.806 43.343l-.61-.076h-.002l.611.076-.048.39h.002z"/>
        <path fill="#383A48" d="M12.333 47.524a.796.796 0 0 1-.1.361.774.774 0 0 1-.734.531.773.773 0 0 1-.733-.533.815.815 0 0 1-.098-.358L11.232 43h-.676L10 47.47c0 .824.67 1.53 1.5 1.53.829 0 1.5-.706 1.5-1.53L12.445 43h-.678l.566 4.524z"/>
        <path fill="#383A48" d="M11.34 44L11 47.705a.836.836 0 0 0 .059.292.811.811 0 0 1-.03-.195c0-.35.21-.634.47-.634s.47.284.47.634a.81.81 0 0 1-.029.198.837.837 0 0 0 .06-.295L11.66 44h-.32z"/>
        <path fill="#FEFEFE" d="M10.408 48.16c.003.248.077.472.184.68v-.003a1.514 1.514 0 0 1-.184-.678M12.406 48.843a1.535 1.535 0 0 0 .001-.003l-.001.003M12.807 43.463l-.614.075v-.002l.614-.074zM11.5 48.85c-.22 0-.406-.351-.5-.85.07.577.264 1 .5 1s.43-.42.5-.996c-.094.497-.28.847-.5.847"/>
        <path fill="#FEFEFE" d="M11.5 48.932c-.22 0-.407-.357-.5-.864v.002c.094.506.28.864.5.862.22.002.405-.353.5-.855v-.003c-.094.502-.28.858-.5.858"/>
        <path fill="#39AAE1" d="M40.794 19.39a.451.451 0 0 1 0 0M40.572 19.317l-.145.366zM39.771 19.476l-.541-.295-.001-.001.541.296-.189.343.002.001z"/>
        <path fill="#383A48" d="M39.673 23.03a.67.67 0 0 1-.17.249c-.156.204-.413.292-.65.188-.239-.105-.372-.365-.358-.633a.754.754 0 0 1 .032-.307l1.638-3.322-.466-.205-1.618 3.284c-.228.635.04 1.383.61 1.633.571.25 1.229-.09 1.456-.726l.853-3.62-.467-.204-.86 3.663z"/>
        <path fill="#383A48" d="M40.052 18.536l-1.753 3.403a.428.428 0 0 0 .008.28.41.41 0 0 1 .011-.186c.11-.326.561-.563 1.008-.529.446.034.716.326.606.652a.627.627 0 0 1-.113.18.685.685 0 0 0 .195-.266l.589-3.492-.551-.042z"/>
        <path fill="#FEFEFE" d="M37.545 23.15a1.519 1.519 0 0 0-.08.7v-.001a1.542 1.542 0 0 1 .08-.699M38.286 23.785a1.545 1.545 0 0 0 .002-.003l-.002.003z"/>
        <path fill="#39AAE1" d="M40.799 19.579l-.598-.157.001-.001.597.157z"/>
        <path fill="#FEFEFE" d="M38.377 23.925c-.221-.159-.356-.526-.377-.925v.002c.021.398.156.766.377.923.22.157.456.057.622-.204l.001-.002c-.167.262-.403.363-.623.206"/>
        <path stroke="#383A48" stroke-dasharray="2.97,2.97" stroke-linecap="round" stroke-linejoin="round" stroke-width="1.488" d="M4 60.521V23.15C4 15.347 12.523 9 23 9s19 6.347 19 14.149V61"/>
        <path fill="#39AAE1" d="M22.5 29l7.5-7.21V18.5L25.62 16l-3.12 2-3.12-2L15 18.5v3.29z"/>
        <path fill="#FEFEFE" d="M22.5 18l-3.12-2L15 18.5v3.29L22.5 29l7.5-7.21V18.5L25.62 16z"/>
        <g transform="translate(15 15)">
            <mask id="b" fill="#fff">
                <use xlink:href="#a"/>
            </mask>
            <path fill="#383A48" d="M-77.647 198.8H210.33v-304.615H-77.647z" mask="url(#b)"/>
            <path fill="#383A48" d="M-.021 14.368h7.65V-1.84H-.02z" mask="url(#b)"/>
        </g>
        <path fill="#383A48" d="M2 63l7.537 10L10 63.289z"/>
    </g>
</svg>
