<svg xmlns="http://www.w3.org/2000/svg" xmlns:xlink="http://www.w3.org/1999/xlink" width="168" height="53" viewBox="0 0 168 53">
    <defs>
        <path id="a" d="M5.493 1.539L3.317.004.262 1.922v2.525L5.493 9.98l5.231-5.533V1.922L7.67.004z"/>
    </defs>
    <g fill="none" fill-rule="evenodd">
        <path fill="#FFF" d="M42.214 29.006c2.493 0 3.632-1.43 3.632-3.446 0-2.017-1.139-3.446-3.632-3.446h-1.023v6.892h1.023zM38.88 20.16h3.45c3.45 0 5.91 2.207 5.91 5.4 0 3.192-2.443 5.4-5.91 5.4h-3.45v-10.8zM50.4 20.16h6.983v1.954h-4.81v3.43h4.236v1.906h-4.237v1.556H57.6v1.954h-7.2zM62.663 26.338c1.798 0 2.587-.572 2.587-2.096 0-1.525-.82-2.128-2.587-2.128h-.694v4.224h.694zm5.017 4.622h-2.556l-1.767-2.732a4.247 4.247 0 0 1-.631.048h-.757v2.684H59.76v-10.8h2.966c2.998 0 4.796 1.445 4.796 4.082 0 1.683-.741 2.747-2.066 3.351l2.224 3.367zM69.84 20.16h6.983v1.954h-4.81v3.43h4.236v1.906h-4.237v1.556h5.028v1.954h-7.2zM78.48 25.552c0-3.115 2.464-5.392 5.565-5.392 1.955 0 3.354.682 4.324 2.154l-1.701 1.177c-.509-.806-1.383-1.379-2.623-1.379-1.956 0-3.275 1.472-3.275 3.44s1.32 3.471 3.275 3.471c1.399 0 2.178-.651 2.782-1.55l1.733 1.163c-.938 1.425-2.433 2.324-4.515 2.324-3.1 0-5.565-2.293-5.565-5.408M90 20.16h2.295v5.527h4.77V20.16h2.295v10.8h-2.295v-3.288h-4.77v3.288H90zM110.683 25.56c0-1.965-1.374-3.466-3.403-3.466-2.03 0-3.404 1.5-3.404 3.466 0 1.965 1.375 3.466 3.404 3.466s3.403-1.501 3.403-3.466m-9.163 0c0-3.11 2.553-5.4 5.76-5.4s5.76 2.29 5.76 5.4c0 3.11-2.553 5.4-5.76 5.4s-5.76-2.29-5.76-5.4M113.04 28.744l1.854-1.022c.488.759 1.122 1.317 2.244 1.317.943 0 1.545-.45 1.545-1.07 0-.743-.618-1.007-1.659-1.44l-.569-.233c-1.642-.666-2.732-1.503-2.732-3.27 0-1.626 1.301-2.866 3.334-2.866 1.447 0 2.488.48 3.236 1.735l-1.772 1.085c-.39-.666-.814-.93-1.464-.93-.667 0-1.09.403-1.09.93 0 .65.423.914 1.399 1.317l.569.232c1.935.791 3.025 1.597 3.025 3.41 0 1.952-1.61 3.021-3.773 3.021-2.114 0-3.48-.96-4.147-2.216M42.214 44.127c2.493 0 3.632-1.43 3.632-3.447 0-2.017-1.139-3.446-3.632-3.446h-1.023v6.893h1.023zM38.88 35.28h3.45c3.45 0 5.91 2.207 5.91 5.4 0 3.193-2.443 5.4-5.91 5.4h-3.45v-10.8zM50.4 35.28h6.983v1.954h-4.81v3.43h4.236v1.906h-4.237v1.556H57.6v1.954h-7.2zM65.52 35.28h6.983v1.954h-4.81v3.43h4.236v1.906h-4.237v1.556h5.028v1.954h-7.2zM73.44 43.864l1.854-1.023c.488.76 1.122 1.318 2.244 1.318.944 0 1.545-.45 1.545-1.07 0-.743-.618-1.007-1.658-1.44l-.57-.233c-1.642-.667-2.732-1.503-2.732-3.27 0-1.626 1.301-2.866 3.334-2.866 1.447 0 2.488.48 3.237 1.735L78.92 38.1c-.39-.666-.813-.93-1.464-.93-.667 0-1.09.403-1.09.93 0 .65.423.914 1.4 1.317l.568.233c1.936.79 3.025 1.595 3.025 3.409 0 1.952-1.61 3.021-3.773 3.021-2.114 0-3.48-.96-4.147-2.216M159.12 43.864l1.854-1.023c.488.76 1.122 1.318 2.244 1.318.944 0 1.545-.45 1.545-1.07 0-.743-.618-1.007-1.658-1.44l-.57-.233c-1.642-.667-2.732-1.503-2.732-3.27 0-1.626 1.301-2.866 3.334-2.866 1.447 0 2.488.48 3.237 1.735L164.6 38.1c-.39-.666-.813-.93-1.464-.93-.667 0-1.09.403-1.09.93 0 .65.423.914 1.4 1.317l.568.233c1.936.79 3.025 1.595 3.025 3.409 0 1.952-1.61 3.021-3.773 3.021-2.114 0-3.48-.96-4.147-2.216M85.255 37.234H82.08V35.28h8.64v1.954h-3.175v8.846h-2.29zM92.16 42.083V35.28h2.383v6.677c0 1.552.731 2.148 2.314 2.148 1.566 0 2.28-.596 2.28-2.148V35.28h2.383v6.803c0 2.696-2.025 3.997-4.663 3.997-2.672 0-4.697-1.301-4.697-3.997M106.295 44.127c2.492 0 3.632-1.43 3.632-3.447 0-2.017-1.14-3.446-3.632-3.446h-1.024v6.893h1.024zm-3.335-8.847h3.45c3.45 0 5.91 2.207 5.91 5.4 0 3.193-2.443 5.4-5.91 5.4h-3.45v-10.8zM114.48 46.08h2.16v-10.8h-2.16zM124.449 43.026l-.794-1.858c-.324-.755-.665-1.92-.665-1.92s-.324 1.165-.648 1.92l-.794 1.858h2.9zm-1.524-7.746h.195l5.04 10.8h-2.383l-.518-1.212h-4.473l-.518 1.212h-2.188l4.845-10.8zM132.982 41.055c-.57-.5-1.356-1.452-1.356-1.452s.167 1.17.167 1.935v4.448H129.6V35.28h.234l5.743 5.025c.553.484 1.34 1.452 1.34 1.452s-.15-1.202-.15-1.936v-4.447h2.193V46.08h-.235l-5.743-5.025zM142.855 37.234h-3.175V35.28h8.64v1.954h-3.175v8.846h-2.29zM150.48 35.28h6.983v1.954h-4.81v3.43h4.235v1.906h-4.236v1.556h5.028v1.954h-7.2zM11.609 5.7a5.162 5.162 0 0 1 4.95-3.659A5.162 5.162 0 0 1 21.512 5.7c.785.212 1.536.475 2.249.78C23.421 2.851 20.322 0 16.56 0s-6.861 2.851-7.2 6.48a17.111 17.111 0 0 1 2.249-.78"/>
        <path fill="#FFF" d="M6.581 28.38v-1.39H25.82v13.148H6.58V28.38zm20.25-3.414H5.57c-.557 0-1.013.456-1.013 1.012v15.171c0 .557.456 1.012 1.013 1.012H26.83c.557 0 1.013-.455 1.013-1.012V25.978c0-.556-.456-1.012-1.013-1.012zm3.544 18.08c0 .556-.456 1.01-1.013 1.01H3.038a1.015 1.015 0 0 1-1.013-1.01v-26.95c0-5.775 6.358-10.473 14.175-10.473 7.817 0 14.175 4.698 14.175 10.473v26.95zM18.989 3.791A20.192 20.192 0 0 0 16.2 3.6c-.95 0-1.882.066-2.788.192l-2.213.42C4.703 5.84 0 10.549 0 16.096v26.95a3.038 3.038 0 0 0 3.038 3.034h26.324a3.038 3.038 0 0 0 3.038-3.035V16.096c0-.035 0-.07-.005-.101-.05-5.502-4.744-10.165-11.193-11.783l-2.213-.42z"/>
        <path fill="#FEFEFE" d="M8.444 31.157a.326.326 0 0 0-.328.326h.001c0-.182.145-.325.327-.326"/>
        <path fill="#56DABC" d="M7.874 31.526h.002c.013-.26.254-.469.553-.469.298 0 .54.21.551.469h.002l.022.154H27.36v-.72H6.48v.72h1.373l.021-.154z"/>
        <path fill="#FFF" d="M5.76 30.24h21.6v1.44H5.76z"/>
        <path fill="#FEFEFE" d="M8.28 31.179v.282zM8.5 31.207l-.44-.054.44.054-.035.28h.001z"/>
        <path fill="#FFF" d="M8.88 34.217a.573.573 0 0 1-.073.26.557.557 0 0 1-1.056-.002.587.587 0 0 1-.07-.257l.406-3.258H7.6l-.4 3.219c0 .593.483 1.101 1.08 1.101.597 0 1.08-.508 1.08-1.101l-.4-3.219h-.487l.406 3.257z"/>
        <path fill="#FFF" d="M8.164 31.68l-.244 2.668c0 .076.018.146.042.21a.584.584 0 0 1-.021-.14c0-.253.152-.457.339-.457.187 0 .338.204.338.457 0 .05-.01.097-.021.142a.603.603 0 0 0 .043-.212l-.244-2.668h-.232z"/>
        <path fill="#FEFEFE" d="M7.494 34.675c.002.178.055.34.132.49v-.002a1.09 1.09 0 0 1-.132-.488M8.932 35.167a1.105 1.105 0 0 0 .001-.002v.002M9.221 31.293l-.442.054v-.001l.442-.053zM8.28 35.173c-.159 0-.292-.254-.36-.613.05.415.19.72.36.72.17 0 .309-.302.36-.717-.068.358-.201.61-.36.61"/>
        <path fill="#FEFEFE" d="M8.28 35.231c-.159 0-.293-.257-.36-.622v.001c.068.365.202.622.36.621.159.001.292-.254.36-.616v-.002c-.068.362-.201.618-.36.618"/>
        <path fill="#39AAE1" d="M29.372 13.96a.325.325 0 0 1 0 0M29.212 13.909l-.104.262zM28.635 14.023l-.39-.213.39.213-.137.247h.002z"/>
        <path fill="#FFF" d="M28.564 16.581a.482.482 0 0 1-.121.18c-.113.147-.298.21-.47.135-.17-.075-.267-.262-.257-.456a.543.543 0 0 1 .023-.22l1.18-2.393-.336-.147-1.165 2.364c-.164.458.029.996.44 1.177.41.18.884-.066 1.048-.523l.614-2.607-.336-.147-.62 2.637z"/>
        <path fill="#FFF" d="M28.837 13.346l-1.262 2.45a.308.308 0 0 0 .006.201.296.296 0 0 1 .008-.133c.08-.235.404-.405.726-.38.32.024.516.234.436.468a.451.451 0 0 1-.081.13.493.493 0 0 0 .14-.191l.424-2.515-.397-.03z"/>
        <path fill="#FEFEFE" d="M27.032 16.668a1.11 1.11 0 0 1 0 0M27.566 17.125a1.113 1.113 0 0 0 .001-.002l-.001.002z"/>
        <path fill="#39AAE1" d="M29.375 14.097l-.43-.113.43.112z"/>
        <path fill="#FEFEFE" d="M27.631 17.226c-.159-.115-.256-.379-.27-.666l-.001.002c.015.286.112.551.271.664.158.113.329.041.448-.147l.001-.001c-.12.188-.29.26-.449.148"/>
        <path stroke="#FFF" stroke-dasharray="2.138400077819824,2.138400077819824" stroke-linecap="round" stroke-linejoin="round" d="M2.88 43.575V16.667c0-5.617 6.055-10.187 13.5-10.187 7.444 0 13.5 4.57 13.5 10.187V43.92"/>
        <path fill="#39AAE1" d="M16.2 20.88l5.4-5.192V13.32l-3.153-1.8-2.247 1.44-2.247-1.44-3.153 1.8v2.368z"/>
        <path fill="#FEFEFE" d="M16.2 12.96l-2.247-1.44-3.153 1.8v2.368l5.4 5.192 5.4-5.192V13.32l-3.153-1.8z"/>
        <g transform="translate(10.8 10.8)">
            <mask id="b" fill="#fff">
                <use xlink:href="#a"/>
            </mask>
            <path fill="#FFF" d="M-55.906 143.136h207.343V-76.187H-55.906z" mask="url(#b)"/>
            <path fill="#FFF" d="M-.015 10.345h5.508v-11.67H-.015z" mask="url(#b)"/>
        </g>
        <path fill="#FFF" d="M1.44 45.36l5.427 7.2.333-6.992z"/>
    </g>
</svg>
