<svg xmlns="http://www.w3.org/2000/svg" width="144" height="120" viewBox="0 0 144 120">
    <g fill="none" fill-rule="nonzero" transform="matrix(-1 0 0 1 144 0)">
        <circle cx="109" cy="85" r="35" fill="#FBEBC7"/>
        <path fill="#383A48" d="M141.98 118.34c-.26 0-.52-.1-.7-.3l-12.32-12.32a.99.99 0 0 1 0-1.42.99.99 0 0 1 1.42 0l12.32 12.32c.4.4.4 1.02 0 1.42-.2.2-.46.3-.72.3z"/>
        <path fill="#D3EDF5" d="M1.06 26.98h98.7v68.8H1.06z"/>
        <path fill="#383A48" d="M99.76 96.78H1.06c-.56 0-1-.44-1-1v-68.8c0-.56.44-1 1-1h98.7c.56 0 1 .44 1 1v68.8c0 .54-.46 1-1 1zm-97.7-2h96.7v-66.8H2.06v66.8z"/>
        <path fill="#383A48" d="M50.42 62.38c-.2 0-.4-.06-.58-.18L.5 27.8a.997.997 0 0 1-.24-1.4c.32-.46.94-.56 1.4-.24l48.78 34 48.78-34c.46-.32 1.08-.2 1.4.24.32.46.2 1.08-.24 1.4L51.04 62.2c-.22.12-.42.18-.62.18z"/>
        <g transform="translate(39.4 50.36)">
            <circle cx="11.02" cy="11.02" r="10" fill="#7FD6C2"/>
            <path fill="#383A48" d="M11.02 22.02c-6.06 0-11-4.94-11-11s4.94-11 11-11 11 4.94 11 11-4.94 11-11 11zm0-20.02c-4.96 0-9 4.04-9 9s4.04 9 9 9 9-4.04 9-9-4.04-9-9-9z"/>
        </g>
        <path fill="#7FD6C2" d="M46.62 60.44l3.8 4.14 4.12-6"/>
        <path fill="#F3F6E6" d="M50.42 65.58c-.28 0-.54-.12-.74-.32l-3.78-4.14c-.38-.4-.34-1.04.06-1.42.4-.38 1.04-.34 1.42.06l2.94 3.2L53.74 58c.32-.46.94-.58 1.4-.26.46.32.56.94.26 1.4l-4.12 6c-.18.26-.46.4-.76.44h-.1z"/>
        <path fill="#FFF" d="M20.54 12.36h98.7v68.8h-98.7z"/>
        <path fill="#383A48" d="M119.24 82.16h-98.7c-.56 0-1-.44-1-1v-68.8c0-.56.44-1 1-1h98.7c.56 0 1 .44 1 1v68.8c0 .56-.46 1-1 1zm-97.7-2h96.7v-66.8h-96.7v66.8z"/>
        <path fill="#383A48" d="M69.88 47.76c-.2 0-.4-.06-.58-.18l-49.34-34.4a.997.997 0 0 1-.24-1.4c.32-.46.94-.56 1.4-.24l48.78 34 48.78-34c.46-.32 1.08-.2 1.4.24.32.46.2 1.08-.24 1.4L70.5 47.58c-.22.12-.42.18-.62.18z"/>
        <g transform="translate(58.82 35.64)">
            <circle cx="11.06" cy="11.12" r="10" fill="#84A1D5"/>
            <path fill="#383A48" d="M11.06 22.12c-6.06 0-11-4.94-11-11s4.94-11 11-11 11 4.94 11 11c.02 6.08-4.92 11-11 11zm0-20c-4.96 0-9 4.04-9 9s4.04 9 9 9 9-4.04 9-9c.02-4.96-4.02-9-9-9z"/>
        </g>
        <path fill="#F3F6E6" d="M70.247 50.96c.28 0 .54-.12.74-.32l3.78-4.14c.38-.4.34-1.04-.06-1.42-.4-.38-1.04-.34-1.42.06l-2.94 3.2-3.42-4.96a1.02 1.02 0 0 0-1.4-.26c-.46.32-.56.94-.26 1.4l4.12 6c.18.26.46.4.76.44h.1z"/>
        <circle cx="97.62" cy="84.7" r="1" fill="#383A48"/>
        <circle cx="97.62" cy="89.62" r="1" fill="#383A48"/>
        <circle cx="97.62" cy="94.56" r="1" fill="#383A48"/>
        <circle cx="92.7" cy="84.7" r="1" fill="#383A48"/>
        <circle cx="92.7" cy="89.62" r="1" fill="#383A48"/>
        <circle cx="92.7" cy="94.56" r="1" fill="#383A48"/>
        <circle cx="87.76" cy="84.7" r="1" fill="#383A48"/>
        <circle cx="87.76" cy="89.62" r="1" fill="#383A48"/>
        <circle cx="87.76" cy="94.56" r="1" fill="#383A48"/>
        <circle cx="82.82" cy="84.7" r="1" fill="#383A48"/>
        <circle cx="82.82" cy="89.62" r="1" fill="#383A48"/>
        <circle cx="82.82" cy="94.56" r="1" fill="#383A48"/>
        <circle cx="77.9" cy="84.7" r="1" fill="#383A48"/>
        <circle cx="77.9" cy="89.62" r="1" fill="#383A48"/>
        <circle cx="77.9" cy="94.56" r="1" fill="#383A48"/>
        <circle cx="72.96" cy="84.7" r="1" fill="#383A48"/>
        <circle cx="72.96" cy="89.62" r="1" fill="#383A48"/>
        <circle cx="72.96" cy="94.56" r="1" fill="#383A48"/>
        <circle cx="68.02" cy="84.7" r="1" fill="#383A48"/>
        <circle cx="68.02" cy="89.62" r="1" fill="#383A48"/>
        <circle cx="68.02" cy="94.56" r="1" fill="#383A48"/>
        <circle cx="63.1" cy="84.7" r="1" fill="#383A48"/>
        <circle cx="63.1" cy="89.62" r="1" fill="#383A48"/>
        <circle cx="63.1" cy="94.56" r="1" fill="#383A48"/>
        <circle cx="58.16" cy="84.7" r="1" fill="#383A48"/>
        <circle cx="58.16" cy="89.62" r="1" fill="#383A48"/>
        <circle cx="58.16" cy="94.56" r="1" fill="#383A48"/>
        <circle cx="53.22" cy="84.7" r="1" fill="#383A48"/>
        <circle cx="53.22" cy="89.62" r="1" fill="#383A48"/>
        <circle cx="53.22" cy="94.56" r="1" fill="#383A48"/>
        <circle cx="48.3" cy="84.7" r="1" fill="#383A48"/>
        <circle cx="48.3" cy="89.62" r="1" fill="#383A48"/>
        <circle cx="48.3" cy="94.56" r="1" fill="#383A48"/>
        <circle cx="43.36" cy="84.7" r="1" fill="#383A48"/>
        <circle cx="43.36" cy="89.62" r="1" fill="#383A48"/>
        <circle cx="43.36" cy="94.56" r="1" fill="#383A48"/>
        <circle cx="38.42" cy="84.7" r="1" fill="#383A48"/>
        <circle cx="38.42" cy="89.62" r="1" fill="#383A48"/>
        <circle cx="38.42" cy="94.56" r="1" fill="#383A48"/>
        <circle cx="33.5" cy="84.7" r="1" fill="#383A48"/>
        <circle cx="33.5" cy="89.62" r="1" fill="#383A48"/>
        <circle cx="33.5" cy="94.56" r="1" fill="#383A48"/>
        <circle cx="28.56" cy="84.7" r="1" fill="#383A48"/>
        <circle cx="28.56" cy="89.62" r="1" fill="#383A48"/>
        <circle cx="28.56" cy="94.56" r="1" fill="#383A48"/>
        <circle cx="23.62" cy="84.7" r="1" fill="#383A48"/>
        <circle cx="23.62" cy="89.62" r="1" fill="#383A48"/>
        <circle cx="23.62" cy="94.56" r="1" fill="#383A48"/>
        <circle cx="18.7" cy="45.22" r="1" fill="#383A48"/>
        <circle cx="18.7" cy="50.16" r="1" fill="#383A48"/>
        <circle cx="18.7" cy="55.1" r="1" fill="#383A48"/>
        <circle cx="18.7" cy="60.02" r="1" fill="#383A48"/>
        <circle cx="18.7" cy="64.96" r="1" fill="#383A48"/>
        <circle cx="18.7" cy="69.9" r="1" fill="#383A48"/>
        <circle cx="18.7" cy="74.82" r="1" fill="#383A48"/>
        <circle cx="18.7" cy="79.76" r="1" fill="#383A48"/>
        <circle cx="18.7" cy="84.7" r="1" fill="#383A48"/>
        <circle cx="18.7" cy="89.62" r="1" fill="#383A48"/>
        <circle cx="18.7" cy="94.56" r="1" fill="#383A48"/>
        <circle cx="13.76" cy="45.22" r="1" fill="#383A48"/>
        <circle cx="13.76" cy="50.16" r="1" fill="#383A48"/>
        <circle cx="13.76" cy="55.1" r="1" fill="#383A48"/>
        <circle cx="13.76" cy="60.02" r="1" fill="#383A48"/>
        <circle cx="13.76" cy="64.96" r="1" fill="#383A48"/>
        <circle cx="13.76" cy="69.9" r="1" fill="#383A48"/>
        <circle cx="13.76" cy="74.82" r="1" fill="#383A48"/>
        <circle cx="13.76" cy="79.76" r="1" fill="#383A48"/>
        <circle cx="13.76" cy="84.7" r="1" fill="#383A48"/>
        <circle cx="13.76" cy="89.62" r="1" fill="#383A48"/>
        <circle cx="13.76" cy="94.56" r="1" fill="#383A48"/>
        <circle cx="8.82" cy="45.22" r="1" fill="#383A48"/>
        <circle cx="8.82" cy="50.16" r="1" fill="#383A48"/>
        <circle cx="8.82" cy="55.1" r="1" fill="#383A48"/>
        <circle cx="8.82" cy="60.02" r="1" fill="#383A48"/>
        <circle cx="8.82" cy="64.96" r="1" fill="#383A48"/>
        <circle cx="8.82" cy="69.9" r="1" fill="#383A48"/>
        <circle cx="8.82" cy="74.82" r="1" fill="#383A48"/>
        <circle cx="8.82" cy="79.76" r="1" fill="#383A48"/>
        <circle cx="8.82" cy="84.7" r="1" fill="#383A48"/>
        <circle cx="8.82" cy="89.62" r="1" fill="#383A48"/>
        <circle cx="8.82" cy="94.56" r="1" fill="#383A48"/>
        <circle cx="3.9" cy="45.22" r="1" fill="#383A48"/>
        <circle cx="3.9" cy="50.16" r="1" fill="#383A48"/>
        <circle cx="3.9" cy="55.1" r="1" fill="#383A48"/>
        <circle cx="3.9" cy="60.02" r="1" fill="#383A48"/>
        <circle cx="3.9" cy="64.96" r="1" fill="#383A48"/>
        <circle cx="3.9" cy="69.9" r="1" fill="#383A48"/>
        <circle cx="3.9" cy="74.82" r="1" fill="#383A48"/>
        <circle cx="3.9" cy="79.76" r="1" fill="#383A48"/>
        <circle cx="3.9" cy="84.7" r="1" fill="#383A48"/>
        <circle cx="3.9" cy="89.62" r="1" fill="#383A48"/>
        <circle cx="3.9" cy="94.56" r="1" fill="#383A48"/>
        <path fill="#383A48" d="M5.82 0C2.64 0 .06 2.58.06 5.76c0 3.18 2.58 5.76 5.76 5.76 3.18 0 5.76-2.58 5.76-5.76C11.58 2.58 9 0 5.82 0z"/>
    </g>
</svg>
