<?xml version="1.0" encoding="UTF-8"?>
<svg width="218px" height="107px" viewBox="0 0 218 107" version="1.1" xmlns="http://www.w3.org/2000/svg" xmlns:xlink="http://www.w3.org/1999/xlink">
    <!-- Generator: Sketch 52.2 (67145) - http://www.bohemiancoding.com/sketch -->
    <title>Group 19 Copy</title>
    <desc>Created with Sketch.</desc>
    <g id="todas-las-pantallas" stroke="none" stroke-width="1" fill="none" fill-rule="evenodd">
        <g id="consultas_mobile" transform="translate(-69.000000, -263.000000)">
            <g id="Group-19-Copy" transform="translate(69.000000, 263.000000)">
                <g id="Group" transform="translate(111.000000, 55.000000)" fill="#F3F6E6" fill-rule="nonzero">
                    <polygon id="Path" points="49.5378238 51.112628 0.916062176 51.112628 50.242487 1.0116041 66.9430052 12.3699659"></polygon>
                    <path d="M49.5378238,52 L0.916062176,52 C0.56373057,52 0.246632124,51.7870307 0.105699482,51.4498294 C-0.0352331606,51.112628 0.0352331606,50.7399317 0.299481865,50.4914676 L49.6259067,0.390443686 C49.9253886,0.0887372014 50.4010363,0.0354948805 50.7357513,0.283959044 L67.4362694,11.6423208 C67.788601,11.890785 67.9295337,12.3522184 67.7533679,12.7426621 L50.3481865,51.4853242 C50.2072539,51.8047782 49.8901554,52 49.5378238,52 Z M3.03005181,50.225256 L48.9740933,50.225256 L65.8331606,12.6894198 L50.3658031,2.14744027 L3.03005181,50.225256 Z" id="Shape"></path>
                </g>
                <g id="Group" transform="translate(125.000000, 58.000000)">
                    <rect id="Rectangle" fill="#383A48" fill-rule="nonzero" x="2.11764706" y="0.0882352941" width="1.76470588" height="5.82352941"></rect>
                    <g transform="translate(0.000000, 2.117647)">
                        <path d="M0.0882352941,0.882352941 L5.91176471,0.882352941" id="Path"></path>
                        <rect id="Rectangle" fill="#383A48" fill-rule="nonzero" x="0.0882352941" y="0" width="5.82352941" height="1.76470588"></rect>
                    </g>
                </g>
                <g id="Group" transform="translate(67.000000, 24.000000)">
                    <rect id="Rectangle" fill="#383A48" fill-rule="nonzero" x="2.1" y="0.141176471" width="1.76470588" height="5.82352941"></rect>
                    <g transform="translate(0.000000, 2.117647)">
                        <path d="M0.0705882353,0.917647059 L5.89411765,0.917647059" id="Path"></path>
                        <rect id="Rectangle" fill="#383A48" fill-rule="nonzero" x="0.0705882353" y="0.0352941176" width="5.82352941" height="1.76470588"></rect>
                    </g>
                </g>
                <g id="Group" transform="translate(87.000000, 72.000000)" fill-rule="nonzero">
                    <g>
                        <path d="M17,33.1370558 C8.15656566,33.1370558 0.978787879,25.9228426 0.978787879,17.0345178 C0.978787879,8.14619289 8.15656566,0.931979695 17,0.931979695 C25.8434343,0.931979695 33.0212121,8.14619289 33.0212121,17.0345178 C33.0212121,25.9228426 25.8434343,33.1370558 17,33.1370558 Z" id="Path" fill="#F6E049"></path>
                        <path d="M17,34 C7.69292929,34 0.12020202,26.3888325 0.12020202,17.0345178 C0.12020202,7.68020305 7.69292929,0.069035533 17,0.069035533 C26.3070707,0.069035533 33.879798,7.68020305 33.879798,17.0345178 C33.879798,26.3888325 26.3070707,34 17,34 Z M17,1.77766497 C8.63737374,1.77766497 1.83737374,8.61218274 1.83737374,17.0172589 C1.83737374,25.422335 8.63737374,32.2741117 17,32.2741117 C25.3626263,32.2741117 32.1626263,25.4395939 32.1626263,17.0345178 C32.1626263,8.62944162 25.3626263,1.77766497 17,1.77766497 Z" id="Shape" fill="#383A48"></path>
                    </g>
                    <g transform="translate(10.646465, 12.253807)" id="Path">
                        <polyline fill="#F6E049" points="0.892929293 2.43350254 6.13030303 9.75126904 13.2222222 0.949238579"></polyline>
                        <path d="M6.13030303,10.6142132 C5.83838384,10.6142132 5.5979798,10.4761421 5.44343434,10.2517766 L0.188888889,2.93401015 C-0.0858585859,2.55431472 -3.46944695e-18,2.00203046 0.377777778,1.72588832 C0.755555556,1.44974619 1.30505051,1.53604061 1.57979798,1.91573604 L6.14747475,8.31878173 L12.5353535,0.379695431 C12.8272727,0.0172588832 13.3767677,-0.0517766497 13.7373737,0.258883249 C14.0979798,0.552284264 14.1666667,1.10456853 13.8575758,1.46700508 L6.76565657,10.2862944 C6.62828283,10.5106599 6.38787879,10.6142132 6.13030303,10.6142132 Z" fill="#383A48"></path>
                    </g>
                </g>
                <g id="Group" transform="translate(6.000000, 8.000000)" fill-rule="nonzero">
                    <g>
                        <path d="M129.603493,26.6029877 L62.3305304,93.6237258 C59.4838292,96.459754 55.6241915,98.043058 51.6248383,98.043058 C51.1358344,98.043058 50.664295,98.0256591 50.1752911,97.9734622 C45.6694696,97.5384886 41.6002587,95.1374341 39.0853816,91.3966608 L5.90297542,42.3838313 L3.52781371,38.8866432 C-1.15265201,31.9792619 0.681112549,22.6186292 7.614489,17.9557118 C14.3557568,13.4319859 23.4372574,15.0326889 28.2225097,21.4702988 C28.3622251,21.6442882 28.4844761,21.8356766 28.6241915,22.027065 L53.9126779,59.3826011 L108.209573,5.28927944 C114.112549,-0.591564148 123.700517,-0.591564148 129.603493,5.28927944 C135.506468,11.170123 135.506468,20.7047452 129.603493,26.6029877 Z" id="Path" fill="#D4EDF5"></path>
                        <path d="M51.6248383,98.8956063 C51.1009056,98.8956063 50.5944373,98.8782074 50.087969,98.8260105 C45.3201811,98.373638 41.0413972,95.8333919 38.3518758,91.8664323 L5.1694696,42.8536028 L2.79430789,39.3564148 C-2.13065977,32.0662566 -0.192108668,22.1314587 7.12548512,17.2249561 C14.2509702,12.440246 23.8214748,14.0757469 28.9210867,20.9483304 C29.0608021,21.1223199 29.2005175,21.3311072 29.3402329,21.5398946 L54.0349288,58.0080844 L107.580854,4.6629174 C110.602199,1.65289982 114.619017,0 118.897801,0 C123.176585,0 127.193402,1.65289982 130.214748,4.6629174 C133.236093,7.67293497 134.895213,11.6746924 134.895213,15.9374341 C134.895213,20.2001757 133.236093,24.2019332 130.214748,27.2119508 L62.9417853,94.2326889 C59.9728331,97.2079086 55.8337646,98.8956063 51.6248383,98.8956063 Z M16.0847348,16.2158172 C13.3428202,16.2158172 10.5659767,17.0161687 8.10349288,18.6516696 C1.58926261,23.0362039 -0.139715395,31.8748682 4.26131953,38.3646749 L6.63648124,41.8618629 L39.8188875,90.8746924 C42.2115136,94.4066784 46.0187581,96.6685413 50.2800776,97.068717 C50.7341527,97.1209139 51.1882277,97.1383128 51.6423027,97.1383128 C55.3971539,97.1383128 59.0646831,95.6246046 61.7192755,92.9799649 L128.992238,25.9592267 C131.681759,23.2797891 133.166235,19.7130053 133.166235,15.9200351 C133.166235,12.127065 131.681759,8.5602812 128.992238,5.88084359 C126.302717,3.20140598 122.72251,1.72249561 118.915265,1.72249561 C115.108021,1.72249561 111.527814,3.20140598 108.838292,5.88084359 L54.5239327,59.9741652 C54.3318241,60.1655536 54.0873221,60.2525483 53.8253558,60.2177504 C53.5633894,60.2003515 53.3363519,60.0611599 53.1791721,59.8349736 L27.9081501,22.4968366 C27.7858991,22.3054482 27.6636481,22.1488576 27.5413972,21.9748682 C24.7470893,18.216696 20.4508409,16.2158172 16.0847348,16.2158172 Z" id="Shape" fill="#383A48"></path>
                    </g>
                    <g transform="translate(0.000000, 14.441125)" fill="#383A48">
                        <path d="M28.2225097,7.01177504 C25.3059508,17.5033392 16.6785252,25.6460457 5.90297542,27.9253076 L3.52781371,24.4281195 C-1.15265201,17.5207381 0.681112549,8.16010545 7.614489,3.49718805 C14.3557568,-1.02653779 23.4372574,0.574165202 28.2225097,7.01177504 Z" id="Path"></path>
                        <path d="M5.50129366,28.8996485 L2.79430789,24.91529 C-2.13065977,17.6251318 -0.192108668,7.69033392 7.12548512,2.78383128 C14.2509702,-2.00087873 23.8214748,-0.365377856 28.9210867,6.50720562 L29.183053,6.85518453 L29.0608021,7.27275923 C27.576326,12.5794376 24.6597671,17.4163445 20.6080207,21.2093146 C16.5388098,25.0196837 11.5090556,27.6469244 6.07761966,28.7952548 L5.50129366,28.8996485 Z M16.0847348,1.77469244 C13.3428202,1.77469244 10.5659767,2.57504394 8.10349288,4.21054482 C1.58926261,8.59507909 -0.139715395,17.4337434 4.26131953,23.9235501 L6.30465718,26.9335677 C11.2121604,25.7852373 15.7354463,23.3667838 19.4204398,19.9043937 C23.1403622,16.4246046 25.847348,12.0226714 27.2794308,7.1857645 C24.4676585,3.65377856 20.3111255,1.77469244 16.0847348,1.77469244 Z" id="Shape"></path>
                    </g>
                    <g transform="translate(52.917206, 45.411248)" fill="#383A48">
                        <polygon id="Path" points="0.995472186 13.9539543 4.94243208 19.5216169 14.0937904 0.904745167"></polygon>
                        <path d="M4.94243208,20.3915641 C4.66300129,20.3915641 4.40103493,20.2523726 4.22639069,20.0261863 L0.261966365,14.4585237 C0.0174644243,14.1105448 0.052393273,13.6407733 0.349288486,13.3449912 L13.4476067,0.295782074 C13.7445019,5.71764858e-15 14.2335058,-0.0521968366 14.5653299,0.208787346 C14.9146184,0.452372583 15.0368693,0.922144112 14.8447607,1.30492091 L5.69340233,19.9217926 C5.55368693,20.2001757 5.29172057,20.3741652 4.97736093,20.4089631 C4.99482536,20.3915641 4.97736093,20.3915641 4.94243208,20.3915641 Z M2.13065977,14.040949 L4.80271669,17.8165202 L11.0025873,5.20228471 L2.13065977,14.040949 Z" id="Shape"></path>
                    </g>
                </g>
                <path d="M172.634745,11.2490278 L168.960434,8.67185118 L171.171825,4.71901942 C171.341932,4.40557901 171.324921,4.02248519 171.103782,3.74387149 C170.882643,3.4652578 170.525418,3.34336431 170.185204,3.44784445 L165.93253,4.78867284 L164.299503,0.557227385 C164.163417,0.226373625 163.857225,0 163.5,0 C163.142775,0 162.836583,0.226373625 162.700497,0.557227385 L161.06747,4.78867284 L156.814796,3.44784445 C156.474582,3.34336431 156.117357,3.4652578 155.896218,3.74387149 C155.675079,4.02248519 155.658068,4.40557901 155.828175,4.71901942 L158.039566,8.67185118 L154.365255,11.2490278 C154.076074,11.4579881 153.939988,11.8062552 154.025041,12.1545223 C154.110095,12.5027895 154.382266,12.7639898 154.72248,12.8162299 L159.128251,13.5127641 L158.805047,18.05765 C158.788037,18.4059171 158.975154,18.7541842 159.281347,18.9109044 C159.400422,18.9631445 159.519497,18.9979712 159.655582,18.9979712 C159.859711,18.9979712 160.08085,18.9109044 160.233946,18.7715975 L163.5,15.6720202 L166.766054,18.7715975 C167.021214,19.0153845 167.39545,19.0676246 167.718653,18.9109044 C168.024846,18.7541842 168.228974,18.4233304 168.194953,18.05765 L167.871749,13.5127641 L172.27752,12.8162299 C172.617734,12.7639898 172.906916,12.5027895 172.974959,12.1545223 C173.060012,11.8062552 172.923926,11.4405748 172.634745,11.2490278 Z" id="Path" fill="#F6E049" fill-rule="nonzero"></path>
                <path d="M18.6347446,84.2490278 L14.9604339,81.6718512 L17.1718246,77.7190194 C17.3419316,77.405579 17.3249209,77.0224852 17.1037818,76.7438715 C16.8826428,76.4652578 16.5254181,76.3433643 16.1852042,76.4478444 L11.9325298,77.7886728 L10.2995028,73.5572274 C10.1634172,73.2263736 9.85722465,73 9.5,73 C9.14277535,73 8.83658279,73.2263736 8.70049721,73.5572274 L7.06747024,77.7886728 L2.81479583,76.4478444 C2.47458188,76.3433643 2.11735723,76.4652578 1.89621816,76.7438715 C1.67507909,77.0224852 1.65806839,77.405579 1.82817537,77.7190194 L4.03956606,81.6718512 L0.365255372,84.2490278 C0.0760735127,84.4579881 -0.0600120684,84.8062552 0.0250414198,85.1545223 C0.110094908,85.5027895 0.38226607,85.7639898 0.722480023,85.8162299 L5.12825071,86.5127641 L4.80504745,91.05765 C4.78803676,91.4059171 4.97515443,91.7541842 5.28134699,91.9109044 C5.58753954,92.0676246 5.97878559,92.0153845 6.23394605,91.7715975 L9.5,88.6720202 L12.7660539,91.7715975 C12.9191502,91.9283177 13.1402893,91.9979712 13.3444177,91.9979712 C13.4634925,91.9979712 13.5995781,91.9631445 13.718653,91.9109044 C14.0248456,91.7541842 14.2289739,91.4233304 14.1949525,91.05765 L13.8717493,86.5127641 L18.27752,85.8162299 C18.6177339,85.7639898 18.9069158,85.5027895 18.9749586,85.1545223 C19.0600121,84.8236686 18.9239265,84.4579881 18.6347446,84.2490278 Z" id="Path" fill="#F6E049" fill-rule="nonzero"></path>
                <g id="Group" transform="translate(140.000000, 26.000000)">
                    <g transform="translate(0.000000, 15.285970)" fill-rule="nonzero">
                        <polygon id="Path" fill="#F3F6E6" points="76.4360916 63.8145309 13.1731782 63.8145309 0.949735147 51.6208953 13.1731782 0.983924485 76.4360916 0.983924485"></polygon>
                        <path d="M76.4360916,64.6930349 L13.1731782,64.6930349 C12.9445383,64.6930349 12.7158984,64.6051845 12.5576092,64.4294837 L0.351753758,52.2358481 C0.140701503,52.0250072 0.0527630637,51.7087457 0.123113815,51.4100543 L12.3289692,0.790653604 C12.4169077,0.404111842 12.7862491,0.122990561 13.1907659,0.122990561 L76.4536793,0.122990561 C76.9461346,0.122990561 77.3330637,0.509532323 77.3330637,1.00149457 L77.3330637,63.8145309 C77.315476,64.3064931 76.9109592,64.6930349 76.4360916,64.6930349 Z M13.524932,62.9360269 L75.5391195,62.9360269 L75.5391195,1.86242849 L13.8415104,1.86242849 L1.93464567,51.339774 L13.524932,62.9360269 Z" id="Shape" fill="#383A48"></path>
                    </g>
                    <g transform="translate(5.452183, 20.205592)" fill="#383A48" fill-rule="nonzero" id="Oval">
                        <ellipse cx="70.2979885" cy="9.62840389" rx="1" ry="1"></ellipse>
                        <ellipse cx="70.2979885" cy="13.9682137" rx="1" ry="1"></ellipse>
                        <ellipse cx="70.2979885" cy="18.3080235" rx="1" ry="1"></ellipse>
                        <ellipse cx="70.2979885" cy="22.6302632" rx="1" ry="1"></ellipse>
                        <ellipse cx="70.2979885" cy="26.9700729" rx="1" ry="1"></ellipse>
                        <ellipse cx="70.2979885" cy="31.3098827" rx="1" ry="1"></ellipse>
                        <ellipse cx="70.2979885" cy="35.6321224" rx="1" ry="1"></ellipse>
                        <ellipse cx="70.2979885" cy="39.9719322" rx="1" ry="1"></ellipse>
                        <ellipse cx="70.2979885" cy="44.311742" rx="1" ry="1"></ellipse>
                        <ellipse cx="70.2979885" cy="48.6339817" rx="1" ry="1"></ellipse>
                        <ellipse cx="70.2979885" cy="52.9737915" rx="1" ry="1"></ellipse>
                        <ellipse cx="70.2979885" cy="57.3136013" rx="1" ry="1"></ellipse>
                        <ellipse cx="65.9538296" cy="5.30616419" rx="1" ry="1"></ellipse>
                        <ellipse cx="65.9538296" cy="9.62840389" rx="1" ry="1"></ellipse>
                        <ellipse cx="65.9538296" cy="13.9682137" rx="1" ry="1"></ellipse>
                        <ellipse cx="65.9538296" cy="18.3080235" rx="1" ry="1"></ellipse>
                        <ellipse cx="65.9538296" cy="22.6302632" rx="1" ry="1"></ellipse>
                        <ellipse cx="65.9538296" cy="26.9700729" rx="1" ry="1"></ellipse>
                        <ellipse cx="65.9538296" cy="31.3098827" rx="1" ry="1"></ellipse>
                        <ellipse cx="65.9538296" cy="35.6321224" rx="1" ry="1"></ellipse>
                        <ellipse cx="65.9538296" cy="39.9719322" rx="1" ry="1"></ellipse>
                        <ellipse cx="65.9538296" cy="44.311742" rx="1" ry="1"></ellipse>
                        <ellipse cx="65.9538296" cy="48.6339817" rx="1" ry="1"></ellipse>
                        <ellipse cx="65.9538296" cy="52.9737915" rx="1" ry="1"></ellipse>
                        <ellipse cx="65.9538296" cy="57.3136013" rx="1" ry="1"></ellipse>
                        <ellipse cx="61.6096707" cy="0.966354405" rx="1" ry="1"></ellipse>
                        <ellipse cx="61.6096707" cy="5.30616419" rx="1" ry="1"></ellipse>
                        <ellipse cx="61.6096707" cy="9.62840389" rx="1" ry="1"></ellipse>
                        <ellipse cx="61.6096707" cy="13.9682137" rx="1" ry="1"></ellipse>
                        <ellipse cx="61.6096707" cy="18.3080235" rx="1" ry="1"></ellipse>
                        <ellipse cx="61.6096707" cy="22.6302632" rx="1" ry="1"></ellipse>
                        <ellipse cx="61.6096707" cy="26.9700729" rx="1" ry="1"></ellipse>
                        <ellipse cx="61.6096707" cy="31.3098827" rx="1" ry="1"></ellipse>
                        <ellipse cx="61.6096707" cy="35.6321224" rx="1" ry="1"></ellipse>
                        <ellipse cx="61.6096707" cy="39.9719322" rx="1" ry="1"></ellipse>
                        <ellipse cx="61.6096707" cy="44.311742" rx="1" ry="1"></ellipse>
                        <ellipse cx="61.6096707" cy="48.6339817" rx="1" ry="1"></ellipse>
                        <ellipse cx="61.6096707" cy="52.9737915" rx="1" ry="1"></ellipse>
                        <ellipse cx="61.6096707" cy="57.3136013" rx="1" ry="1"></ellipse>
                        <ellipse cx="57.2830995" cy="48.6339817" rx="1" ry="1"></ellipse>
                        <ellipse cx="57.2830995" cy="52.9737915" rx="1" ry="1"></ellipse>
                        <ellipse cx="57.2830995" cy="57.3136013" rx="1" ry="1"></ellipse>
                        <ellipse cx="52.9389406" cy="48.6339817" rx="1" ry="1"></ellipse>
                        <ellipse cx="52.9389406" cy="52.9737915" rx="1" ry="1"></ellipse>
                        <ellipse cx="52.9389406" cy="57.3136013" rx="1" ry="1"></ellipse>
                        <ellipse cx="48.5947817" cy="48.6339817" rx="1" ry="1"></ellipse>
                        <ellipse cx="48.5947817" cy="52.9737915" rx="1" ry="1"></ellipse>
                        <ellipse cx="48.5947817" cy="57.3136013" rx="1" ry="1"></ellipse>
                        <ellipse cx="44.2682105" cy="48.6339817" rx="1" ry="1"></ellipse>
                        <ellipse cx="44.2682105" cy="52.9737915" rx="1" ry="1"></ellipse>
                        <ellipse cx="44.2682105" cy="57.3136013" rx="1" ry="1"></ellipse>
                        <ellipse cx="39.9240515" cy="48.6339817" rx="1" ry="1"></ellipse>
                        <ellipse cx="39.9240515" cy="52.9737915" rx="1" ry="1"></ellipse>
                        <ellipse cx="39.9240515" cy="57.3136013" rx="1" ry="1"></ellipse>
                        <ellipse cx="35.5798926" cy="48.6339817" rx="1" ry="1"></ellipse>
                        <ellipse cx="35.5798926" cy="52.9737915" rx="1" ry="1"></ellipse>
                        <ellipse cx="35.5798926" cy="57.3136013" rx="1" ry="1"></ellipse>
                        <ellipse cx="31.2533214" cy="48.6339817" rx="1" ry="1"></ellipse>
                        <ellipse cx="31.2533214" cy="52.9737915" rx="1" ry="1"></ellipse>
                        <ellipse cx="31.2533214" cy="57.3136013" rx="1" ry="1"></ellipse>
                        <ellipse cx="26.9091625" cy="48.6339817" rx="1" ry="1"></ellipse>
                        <ellipse cx="26.9091625" cy="52.9737915" rx="1" ry="1"></ellipse>
                        <ellipse cx="26.9091625" cy="57.3136013" rx="1" ry="1"></ellipse>
                        <ellipse cx="22.5650036" cy="48.6339817" rx="1" ry="1"></ellipse>
                        <ellipse cx="22.5650036" cy="52.9737915" rx="1" ry="1"></ellipse>
                        <ellipse cx="22.5650036" cy="57.3136013" rx="1" ry="1"></ellipse>
                        <ellipse cx="18.2384324" cy="48.6339817" rx="1" ry="1"></ellipse>
                        <ellipse cx="18.2384324" cy="52.9737915" rx="1" ry="1"></ellipse>
                        <ellipse cx="18.2384324" cy="57.3136013" rx="1" ry="1"></ellipse>
                        <ellipse cx="13.8942734" cy="48.6339817" rx="1" ry="1"></ellipse>
                        <ellipse cx="13.8942734" cy="52.9737915" rx="1" ry="1"></ellipse>
                        <ellipse cx="13.8942734" cy="57.3136013" rx="1" ry="1"></ellipse>
                        <ellipse cx="9.55011453" cy="48.6339817" rx="1" ry="1"></ellipse>
                        <ellipse cx="9.55011453" cy="52.9737915" rx="1" ry="1"></ellipse>
                        <ellipse cx="9.55011453" cy="57.3136013" rx="1" ry="1"></ellipse>
                        <ellipse cx="5.22354331" cy="48.6339817" rx="1" ry="1"></ellipse>
                        <ellipse cx="5.22354331" cy="52.9737915" rx="1" ry="1"></ellipse>
                        <ellipse cx="0.879384395" cy="48.6339817" rx="1" ry="1"></ellipse>
                    </g>
                    <g transform="translate(12.135505, 0.000000)" fill="#383A48" fill-rule="nonzero">
                        <polygon id="Path" points="1.03767359 28.4810998 52.0947316 16.2698942 64.300587 28.4810998 64.300587 13.1072797 52.0947316 0.913644165 1.03767359 13.1072797"></polygon>
                        <path d="M64.300587,29.3596038 C64.071947,29.3596038 63.8433071,29.2717534 63.6850179,29.0960526 L51.8309162,17.2538186 L1.23113815,29.3244637 C0.967322835,29.394744 0.685919828,29.3244637 0.474867573,29.166333 C0.263815319,29.0082022 0.140701503,28.744651 0.140701503,28.4810998 L0.140701503,13.1248498 C0.140701503,12.720738 0.42210451,12.3693364 0.809033644,12.2639159 L51.8660916,0.0702803204 C52.1650823,2.7269853e-14 52.4816607,0.0878504005 52.692713,0.298691362 L64.8985684,12.4923269 C65.0568576,12.6504577 65.1623837,12.8788687 65.1623837,13.1072797 L65.1623837,28.4635297 C65.1623837,28.8149314 64.9513314,29.1311928 64.6171654,29.2717534 C64.5292269,29.3244637 64.4061131,29.3596038 64.300587,29.3596038 Z M1.91705798,13.810083 L1.91705798,27.3566147 L51.8836793,15.4265303 C52.18267,15.35625 52.4992484,15.4441004 52.7103006,15.6549414 L63.4212026,26.3551201 L63.4212026,13.4762514 L51.8133286,1.87999857 L1.91705798,13.810083 Z" id="Shape"></path>
                    </g>
                    <g transform="translate(0.000000, 3.162614)" fill-rule="nonzero">
                        <rect id="Rectangle" fill="#F3F6E6" x="0.949735147" y="0.913644165" width="63.2629134" height="62.8130363"></rect>
                        <path d="M64.2302362,64.6227546 L0.967322835,64.6227546 C0.474867573,64.6227546 0.0879384395,64.2362128 0.0879384395,63.7442506 L0.0879384395,0.913644165 C0.0879384395,0.421681922 0.474867573,0.0351401602 0.967322835,0.0351401602 L64.2302362,0.0351401602 C64.7226915,0.0351401602 65.1096206,0.421681922 65.1096206,0.913644165 L65.1096206,63.7266805 C65.1096206,64.2186427 64.7051038,64.6227546 64.2302362,64.6227546 Z M1.82911954,62.8657466 L63.3332641,62.8657466 L63.3332641,1.79214817 L1.82911954,1.79214817 L1.82911954,62.8657466 Z" id="Shape" fill="#383A48"></path>
                    </g>
                    <g fill="#383A48" fill-rule="nonzero">
                        <rect id="Rectangle" x="0.949735147" y="0.913644165" width="63.2629134" height="15.35625"></rect>
                        <path d="M64.2302362,17.1483982 L0.967322835,17.1483982 C0.474867573,17.1483982 0.0879384395,16.7618564 0.0879384395,16.2698942 L0.0879384395,0.913644165 C0.0879384395,0.421681922 0.474867573,0.0351401602 0.967322835,0.0351401602 L64.2302362,0.0351401602 C64.7226915,0.0351401602 65.1096206,0.421681922 65.1096206,0.913644165 L65.1096206,16.2698942 C65.1096206,16.7618564 64.7051038,17.1483982 64.2302362,17.1483982 Z M1.82911954,15.3913902 L63.3332641,15.3913902 L63.3332641,1.79214817 L1.82911954,1.79214817 L1.82911954,15.3913902 Z" id="Shape"></path>
                    </g>
                    <rect id="Rectangle" fill="#00A6D6" fill-rule="nonzero" x="10.5168539" y="27.2934783" width="43.3712384" height="14.1439145"></rect>
                    <rect id="Rectangle" fill="#00A6D6" fill-rule="nonzero" x="10.9282057" y="47.2654462" width="26.5749964" height="9.62840389"></rect>
                    <g transform="translate(63.315676, 65.887800)" id="Path">
                        <path d="M0.914559771,1.01906465 L13.1204152,13.2127002"></path>
                        <path d="M13.1204152,14.0912042 C12.8917752,14.0912042 12.6631353,14.0033538 12.5048461,13.827653 L0.298990694,1.63401745 C-0.0527630637,1.28261585 -0.0527630637,0.737943364 0.298990694,0.386541762 C0.650744452,0.0351401602 1.19596278,0.0351401602 1.54771654,0.386541762 L13.7535719,12.5801773 C14.1053257,12.9315789 14.1053257,13.4762514 13.7535719,13.827653 C13.5601074,14.0033538 13.3490551,14.0912042 13.1204152,14.0912042 Z" fill="#383A48" fill-rule="nonzero"></path>
                    </g>
                </g>
                <path d="M77.105676,107 L2.87678819,107 C2.3857868,107 2,106.56 2,106 C2,105.44 2.3857868,105 2.87678819,105 L77.1232118,105 C77.6142132,105 78,105.44 78,106 C78,106.56 77.5966774,107 77.105676,107 Z" id="Path" fill="#383A48" fill-rule="nonzero"></path>
            </g>
        </g>
    </g>
</svg>