<svg xmlns="http://www.w3.org/2000/svg" width="216" height="214" viewBox="0 0 216 214">
    <path fill="#FBEBC7" fill-rule="nonzero" d="M115.945 1.896l55.264 20.144a23.2 23.2 0 0 1 12.154 10.21l29.425 51.04a23.2 23.2 0 0 1 2.75 15.61l-10.222 58.053a23.2 23.2 0 0 1-7.923 13.739l-45.066 37.87A23.2 23.2 0 0 1 137.402 214H78.598a23.2 23.2 0 0 1-14.925-5.438l-45.066-37.87a23.2 23.2 0 0 1-7.923-13.739L.462 98.9a23.2 23.2 0 0 1 2.75-15.61l29.425-51.04A23.2 23.2 0 0 1 44.79 22.04l55.264-20.144a23.2 23.2 0 0 1 15.89 0z" opacity=".434"/>
</svg>
