<svg xmlns="http://www.w3.org/2000/svg" xmlns:xlink="http://www.w3.org/1999/xlink" width="217" height="214" viewBox="0 0 217 214">
    <defs>
        <path id="a" d="M0 .114h65.416v66.38H0z"/>
        <path id="c" d="M.07.048h46.217v28.726H.07z"/>
    </defs>
    <g fill="none" fill-rule="evenodd">
        <path fill="#FDF6E6" fill-rule="nonzero" d="M115.945 1.896l55.264 20.144a23.2 23.2 0 0 1 12.154 10.21l29.425 51.04a23.2 23.2 0 0 1 2.75 15.61l-10.222 58.053a23.2 23.2 0 0 1-7.923 13.739l-45.066 37.87A23.2 23.2 0 0 1 137.402 214H78.598a23.2 23.2 0 0 1-14.925-5.438l-45.066-37.87a23.2 23.2 0 0 1-7.923-13.739L.462 98.9a23.2 23.2 0 0 1 2.75-15.61l29.425-51.04A23.2 23.2 0 0 1 44.79 22.04l55.264-20.144a23.2 23.2 0 0 1 15.89 0z"/>
        <path fill="#FFB81C" d="M67.164 46.614c17.654 0 31.965 14.347 31.965 32.045s-14.311 32.046-31.965 32.046-31.965-14.348-31.965-32.046 14.31-32.045 31.965-32.045"/>
        <path fill="#383A48" d="M67.164 47.698c-17.022 0-30.884 13.897-30.884 30.961s13.862 30.961 30.884 30.961c17.021 0 30.883-13.897 30.883-30.96 0-17.065-13.862-30.962-30.883-30.962m0 63.808c-18.075 0-32.764-14.727-32.764-32.847s14.689-32.847 32.764-32.847c18.075 0 32.764 14.727 32.764 32.847s-14.708 32.847-32.764 32.847"/>
        <path fill="#383A48" d="M56.376 70.648a3.6 3.6 0 0 1 3.596 3.605 3.6 3.6 0 0 1-3.596 3.605 3.6 3.6 0 0 1-3.597-3.605 3.6 3.6 0 0 1 3.597-3.605M77.153 70.648a3.6 3.6 0 0 1 3.596 3.605 3.6 3.6 0 0 1-3.596 3.605 3.6 3.6 0 0 1-3.596-3.605 3.6 3.6 0 0 1 3.596-3.605M77.405 86.67H56.922c-.53 0-.946-.352-.946-.8 0-.45.416-.802.946-.802h20.483c.53 0 .947.353.947.801 0 .449-.436.801-.947.801"/>
        <path fill="#FFB81C" d="M67.164 80.261c17.654 0 31.965 14.348 31.965 32.046s-14.311 32.045-31.965 32.045-31.965-14.347-31.965-32.045S49.509 80.26 67.164 80.26"/>
        <path fill="#383A48" d="M67.164 81.346c-17.022 0-30.884 13.896-30.884 30.96 0 17.065 13.862 30.962 30.884 30.962 17.021 0 30.883-13.897 30.883-30.961 0-17.065-13.862-30.961-30.883-30.961m0 63.807c-18.075 0-32.764-14.726-32.764-32.846 0-18.12 14.689-32.847 32.764-32.847 18.075 0 32.764 14.727 32.764 32.847s-14.708 32.846-32.764 32.846"/>
        <path fill="#383A48" d="M56.376 103.494a3.6 3.6 0 0 1 3.596 3.605 3.6 3.6 0 0 1-3.596 3.606 3.6 3.6 0 0 1-3.597-3.606 3.6 3.6 0 0 1 3.597-3.605M77.153 103.494a3.6 3.6 0 0 1 3.596 3.605 3.6 3.6 0 0 1-3.596 3.606 3.6 3.6 0 0 1-3.596-3.606 3.6 3.6 0 0 1 3.596-3.605M77.405 119.517H56.922c-.53 0-.946-.352-.946-.801 0-.449.416-.801.946-.801h20.483c.53 0 .947.352.947.8 0 .45-.436.802-.947.802"/>
        <path fill="#FFB81C" d="M67.164 113.108c17.654 0 31.965 14.347 31.965 32.045 0 17.699-14.311 32.046-31.965 32.046s-31.965-14.347-31.965-32.046c0-17.698 14.31-32.045 31.965-32.045"/>
        <g transform="translate(34.4 111.506)">
            <mask id="b" fill="#fff">
                <use xlink:href="#a"/>
            </mask>
            <path fill="#383A48" d="M32.708 2.02c-16.992 0-30.83 14.042-30.83 31.284 0 17.243 13.838 31.285 30.83 31.285 16.992 0 30.83-14.042 30.83-31.285 0-17.242-13.838-31.284-30.83-31.284m0 64.474C14.664 66.494 0 51.614 0 33.304 0 14.994 14.664.114 32.708.114c18.044 0 32.708 14.88 32.708 33.19 0 18.31-14.683 33.19-32.708 33.19" mask="url(#b)"/>
        </g>
        <path fill="#383A48" d="M56.376 136.34a3.6 3.6 0 0 1 3.596 3.606 3.6 3.6 0 0 1-3.596 3.605 3.6 3.6 0 0 1-3.597-3.605 3.6 3.6 0 0 1 3.597-3.605M77.153 136.34a3.6 3.6 0 0 1 3.596 3.606 3.6 3.6 0 0 1-3.596 3.605 3.6 3.6 0 0 1-3.596-3.605 3.6 3.6 0 0 1 3.596-3.605M186.234 110.705a.8.8 0 1 1-.002 1.6.8.8 0 0 1 .002-1.6M186.234 115.511a.8.8 0 1 1-.002 1.6.8.8 0 0 1 .002-1.6M186.234 119.517a.8.8 0 1 1-.002 1.6.8.8 0 0 1 .002-1.6M186.234 124.324a.8.8 0 1 1-.002 1.6.8.8 0 0 1 .002-1.6M186.234 129.13a.8.8 0 1 1-.002 1.6.8.8 0 0 1 .002-1.6M186.234 133.938a.8.8 0 1 1-.002 1.6.8.8 0 0 1 .002-1.6M186.234 138.744a.8.8 0 1 1-.002 1.6.8.8 0 0 1 .002-1.6M186.234 143.551a.8.8 0 1 1-.002 1.6.8.8 0 0 1 .002-1.6M186.234 147.557a.8.8 0 1 1-.002 1.6.8.8 0 0 1 .002-1.6M182.238 110.705a.8.8 0 1 1-.002 1.6.8.8 0 0 1 .002-1.6M182.238 115.511a.8.8 0 1 1-.002 1.6.8.8 0 0 1 .002-1.6M182.238 119.517a.8.8 0 1 1-.002 1.6.8.8 0 0 1 .002-1.6M182.238 124.324a.8.8 0 1 1-.002 1.6.8.8 0 0 1 .002-1.6M182.238 129.13a.8.8 0 1 1-.002 1.6.8.8 0 0 1 .002-1.6M182.238 133.938a.8.8 0 1 1-.002 1.6.8.8 0 0 1 .002-1.6M182.238 138.744a.8.8 0 1 1-.002 1.6.8.8 0 0 1 .002-1.6M182.238 143.551a.8.8 0 1 1-.002 1.6.8.8 0 0 1 .002-1.6M182.238 147.557a.8.8 0 1 1-.002 1.6.8.8 0 0 1 .002-1.6M182.238 152.364a.8.8 0 1 1-.002 1.6.8.8 0 0 1 .002-1.6M177.443 110.705a.8.8 0 1 1-.002 1.6.8.8 0 0 1 .002-1.6M177.443 115.511a.8.8 0 1 1-.002 1.6.8.8 0 0 1 .002-1.6M177.443 119.517a.8.8 0 1 1-.002 1.6.8.8 0 0 1 .002-1.6M177.443 124.324a.8.8 0 1 1-.002 1.6.8.8 0 0 1 .002-1.6M177.443 129.13a.8.8 0 1 1-.002 1.6.8.8 0 0 1 .002-1.6M177.443 133.938a.8.8 0 1 1-.002 1.6.8.8 0 0 1 .002-1.6M177.443 138.744a.8.8 0 1 1-.002 1.6.8.8 0 0 1 .002-1.6M177.443 143.551a.8.8 0 1 1-.002 1.6.8.8 0 0 1 .002-1.6M177.443 147.557a.8.8 0 1 1-.002 1.6.8.8 0 0 1 .002-1.6M177.443 152.364a.8.8 0 1 1-.002 1.6.8.8 0 0 1 .002-1.6M172.648 110.705a.8.8 0 1 1-.001 1.6.8.8 0 0 1 .001-1.6M172.648 115.511a.8.8 0 1 1-.002 1.6.8.8 0 0 1 .002-1.6M172.648 119.517a.8.8 0 1 1-.002 1.6.8.8 0 0 1 .002-1.6M172.648 124.324a.8.8 0 1 1-.001 1.6.8.8 0 0 1 .001-1.6M172.648 129.13a.8.8 0 1 1-.002 1.6.8.8 0 0 1 .002-1.6M172.648 133.938a.8.8 0 1 1-.002 1.6.8.8 0 0 1 .002-1.6M172.648 138.744a.8.8 0 1 1-.001 1.6.8.8 0 0 1 .001-1.6M172.648 143.551a.8.8 0 1 1-.002 1.6.8.8 0 0 1 .002-1.6M172.648 147.557a.8.8 0 1 1-.002 1.6.8.8 0 0 1 .002-1.6M172.648 152.364a.8.8 0 1 1-.001 1.6.8.8 0 0 1 .001-1.6M167.065 111.377a.8.8 0 1 1 1.577.257.8.8 0 1 1-1.577-.257M167.065 116.184a.8.8 0 1 1 1.577.257.799.799 0 1 1-1.577-.257M167.065 120.19a.8.8 0 1 1 1.577.256.8.8 0 1 1-1.577-.256M167.065 124.997a.8.8 0 1 1 1.577.256.8.8 0 1 1-1.577-.256M167.065 129.803a.799.799 0 1 1 1.577.257.8.8 0 1 1-1.577-.257M167.065 134.61a.8.8 0 1 1 1.577.257.8.8 0 1 1-1.577-.257M167.065 139.417a.8.8 0 1 1 1.577.257.8.8 0 1 1-1.577-.257M167.065 144.224a.799.799 0 1 1 1.577.257.8.8 0 1 1-1.577-.257M167.065 148.23a.8.8 0 1 1 1.577.256.8.8 0 1 1-1.577-.256M167.065 153.036a.8.8 0 1 1 1.577.257.8.8 0 1 1-1.577-.257M163.059 110.705a.8.8 0 1 1-.002 1.6.8.8 0 0 1 .002-1.6M163.059 115.511a.8.8 0 1 1-.002 1.6.8.8 0 0 1 .002-1.6M163.059 119.517a.8.8 0 1 1-.002 1.6.8.8 0 0 1 .002-1.6M163.059 124.324a.8.8 0 1 1-.002 1.6.8.8 0 0 1 .002-1.6M163.059 129.13a.8.8 0 1 1-.002 1.6.8.8 0 0 1 .002-1.6M163.059 133.938a.8.8 0 1 1-.002 1.6.8.8 0 0 1 .002-1.6M163.059 138.744a.8.8 0 1 1-.002 1.6.8.8 0 0 1 .002-1.6M163.059 143.551a.8.8 0 1 1-.002 1.6.8.8 0 0 1 .002-1.6M163.059 147.557a.8.8 0 1 1-.002 1.6.8.8 0 0 1 .002-1.6M163.059 152.364a.8.8 0 1 1-.002 1.6.8.8 0 0 1 .002-1.6M158.264 110.705a.8.8 0 1 1-.002 1.6.8.8 0 0 1 .002-1.6M158.264 115.511a.8.8 0 1 1-.002 1.6.8.8 0 0 1 .002-1.6M158.264 119.517a.8.8 0 1 1-.002 1.6.8.8 0 0 1 .002-1.6M158.264 124.324a.8.8 0 1 1-.002 1.6.8.8 0 0 1 .002-1.6M158.264 129.13a.8.8 0 1 1-.002 1.6.8.8 0 0 1 .002-1.6M158.264 133.938a.8.8 0 1 1-.002 1.6.8.8 0 0 1 .002-1.6M158.264 138.744a.8.8 0 1 1-.002 1.6.8.8 0 0 1 .002-1.6M158.264 143.551a.8.8 0 1 1-.002 1.6.8.8 0 0 1 .002-1.6M158.264 147.557a.8.8 0 1 1-.002 1.6.8.8 0 0 1 .002-1.6M158.264 152.364a.8.8 0 1 1-.002 1.6.8.8 0 0 1 .002-1.6M154.269 110.705a.8.8 0 1 1-.002 1.6.8.8 0 0 1 .002-1.6M154.269 115.511a.8.8 0 1 1-.002 1.6.8.8 0 0 1 .002-1.6M154.269 119.517a.8.8 0 1 1-.002 1.6.8.8 0 0 1 .002-1.6M154.269 124.324a.8.8 0 1 1-.002 1.6.8.8 0 0 1 .002-1.6M154.269 129.13a.8.8 0 1 1-.002 1.6.8.8 0 0 1 .002-1.6M154.269 133.938a.8.8 0 1 1-.002 1.6.8.8 0 0 1 .002-1.6M154.269 138.744a.8.8 0 1 1-.002 1.6.8.8 0 0 1 .002-1.6M154.269 143.551a.8.8 0 1 1-.002 1.6.8.8 0 0 1 .002-1.6M154.269 147.557a.8.8 0 1 1-.002 1.6.8.8 0 0 1 .002-1.6M154.269 152.364a.8.8 0 1 1-.002 1.6.8.8 0 0 1 .002-1.6M149.474 110.705a.8.8 0 1 1-.002 1.6.8.8 0 0 1 .002-1.6M149.474 115.511a.8.8 0 1 1-.002 1.6.8.8 0 0 1 .002-1.6M149.474 119.517a.8.8 0 1 1-.002 1.6.8.8 0 0 1 .002-1.6M149.474 124.324a.8.8 0 1 1-.002 1.6.8.8 0 0 1 .002-1.6M149.474 129.13a.8.8 0 1 1-.002 1.6.8.8 0 0 1 .002-1.6M149.474 133.938a.8.8 0 1 1-.002 1.6.8.8 0 0 1 .002-1.6M149.474 138.744a.8.8 0 1 1-.002 1.6.8.8 0 0 1 .002-1.6M149.474 143.551a.8.8 0 1 1-.002 1.6.8.8 0 0 1 .002-1.6M149.474 147.557a.8.8 0 1 1-.002 1.6.8.8 0 0 1 .002-1.6M149.474 152.364a.8.8 0 1 1-.002 1.6.8.8 0 0 1 .002-1.6M144.679 110.705a.8.8 0 1 1-.002 1.6.8.8 0 0 1 .002-1.6M144.679 115.511a.8.8 0 1 1-.002 1.6.8.8 0 0 1 .002-1.6M144.679 119.517a.8.8 0 1 1-.002 1.6.8.8 0 0 1 .002-1.6M144.679 124.324a.8.8 0 1 1-.002 1.6.8.8 0 0 1 .002-1.6M144.679 129.13a.8.8 0 1 1-.002 1.6.8.8 0 0 1 .002-1.6M144.679 133.938a.8.8 0 1 1-.002 1.6.8.8 0 0 1 .002-1.6M144.679 138.744a.8.8 0 1 1-.002 1.6.8.8 0 0 1 .002-1.6M144.679 143.551a.8.8 0 1 1-.002 1.6.8.8 0 0 1 .002-1.6M144.679 147.557a.8.8 0 1 1-.002 1.6.8.8 0 0 1 .002-1.6M144.679 152.364a.8.8 0 1 1-.002 1.6.8.8 0 0 1 .002-1.6M139.884 110.705a.8.8 0 1 1-.001 1.6.8.8 0 0 1 .001-1.6M139.884 115.511a.8.8 0 1 1-.002 1.6.8.8 0 0 1 .002-1.6M139.884 119.517a.8.8 0 1 1-.002 1.6.8.8 0 0 1 .002-1.6M139.884 124.324a.8.8 0 1 1-.001 1.6.8.8 0 0 1 .001-1.6M139.884 129.13a.8.8 0 1 1-.002 1.6.8.8 0 0 1 .002-1.6M139.884 133.938a.8.8 0 1 1-.002 1.6.8.8 0 0 1 .002-1.6M139.884 138.744a.8.8 0 1 1-.001 1.6.8.8 0 0 1 .001-1.6M139.884 143.551a.8.8 0 1 1-.002 1.6.8.8 0 0 1 .002-1.6M139.884 147.557a.8.8 0 1 1-.002 1.6.8.8 0 0 1 .002-1.6M139.884 152.364a.8.8 0 1 1-.001 1.6.8.8 0 0 1 .001-1.6M135.09 110.705a.8.8 0 1 1-.002 1.6.8.8 0 0 1 .002-1.6M135.09 115.511a.8.8 0 1 1-.002 1.6.8.8 0 0 1 .002-1.6M135.09 119.517a.8.8 0 1 1-.002 1.6.8.8 0 0 1 .002-1.6M135.09 124.324a.8.8 0 1 1-.002 1.6.8.8 0 0 1 .002-1.6M135.09 129.13a.8.8 0 1 1-.002 1.6.8.8 0 0 1 .002-1.6M135.09 133.938a.8.8 0 1 1-.002 1.6.8.8 0 0 1 .002-1.6M135.09 138.744a.8.8 0 1 1-.002 1.6.8.8 0 0 1 .002-1.6M135.09 143.551a.8.8 0 1 1-.002 1.6.8.8 0 0 1 .002-1.6M135.09 147.557a.8.8 0 1 1-.002 1.6.8.8 0 0 1 .002-1.6M135.09 152.364a.8.8 0 1 1-.002 1.6.8.8 0 0 1 .002-1.6M131.094 110.705a.8.8 0 1 1-.002 1.6.8.8 0 0 1 .002-1.6M131.094 115.511a.8.8 0 1 1-.002 1.6.8.8 0 0 1 .002-1.6M131.094 119.517a.8.8 0 1 1-.002 1.6.8.8 0 0 1 .002-1.6M131.094 124.324a.8.8 0 1 1-.002 1.6.8.8 0 0 1 .002-1.6M131.094 129.13a.8.8 0 1 1-.002 1.6.8.8 0 0 1 .002-1.6M131.094 133.938a.8.8 0 1 1-.002 1.6.8.8 0 0 1 .002-1.6M131.094 138.744a.8.8 0 1 1-.002 1.6.8.8 0 0 1 .002-1.6M131.094 143.551a.8.8 0 1 1-.002 1.6.8.8 0 0 1 .002-1.6M131.094 147.557a.8.8 0 1 1-.002 1.6.8.8 0 0 1 .002-1.6M131.094 152.364a.8.8 0 1 1-.002 1.6.8.8 0 0 1 .002-1.6M126.3 115.511a.8.8 0 1 1-.003 1.6.8.8 0 0 1 .002-1.6M126.3 119.517a.8.8 0 1 1-.003 1.6.8.8 0 0 1 .002-1.6M126.3 124.324a.8.8 0 1 1-.003 1.6.8.8 0 0 1 .002-1.6M126.3 129.13a.8.8 0 1 1-.003 1.6.8.8 0 0 1 .002-1.6M126.3 133.938a.8.8 0 1 1-.003 1.6.8.8 0 0 1 .002-1.6M126.3 138.744a.8.8 0 1 1-.003 1.6.8.8 0 0 1 .002-1.6M126.3 143.551a.8.8 0 1 1-.003 1.6.8.8 0 0 1 .002-1.6M126.3 147.557a.8.8 0 1 1-.003 1.6.8.8 0 0 1 .002-1.6M126.3 152.364a.8.8 0 1 1-.003 1.6.8.8 0 0 1 .002-1.6M121.504 138.744a.8.8 0 1 1-.001 1.6.8.8 0 0 1 .001-1.6M121.504 143.551a.8.8 0 1 1-.002 1.6.8.8 0 0 1 .002-1.6M121.504 147.557a.8.8 0 1 1-.002 1.6.8.8 0 0 1 .002-1.6M121.504 152.364a.8.8 0 1 1-.001 1.6.8.8 0 0 1 .001-1.6M116.71 143.551a.8.8 0 1 1-.002 1.6.8.8 0 0 1 .002-1.6M116.71 147.557a.8.8 0 1 1-.002 1.6.8.8 0 0 1 .002-1.6M116.71 152.364a.8.8 0 1 1-.002 1.6.8.8 0 0 1 .002-1.6M111.915 147.557a.8.8 0 1 1-.002 1.6.8.8 0 0 1 .002-1.6M111.915 152.364a.8.8 0 1 1-.002 1.6.8.8 0 0 1 .002-1.6M111.915 157.17a.8.8 0 1 1-.002 1.6.8.8 0 0 1 .002-1.6"/>
        <path fill="#84A1D5" d="M124.67 109.597v16.205l-14.353 22.556 14.353-5.653 52.96.245c6.941.038 12.6-5.578 12.6-12.512v-20.84c0-6.916-5.621-12.513-12.524-12.513h-40.494c-6.922-.019-12.542 5.597-12.542 12.512"/>
        <path fill="#383A48" d="M137.264 98.168c-6.37 0-11.539 5.251-11.539 11.683v16.363c0 .171-.056.362-.15.514l-12.76 20.321 11.613-4.624c.113-.038.226-.057.358-.057l52.768.248c3.1.019 6.014-1.2 8.194-3.406 2.198-2.207 3.401-5.157 3.401-8.296V109.87c0-6.45-5.187-11.683-11.538-11.683h-40.347v-.02zm-26.798 51.792a.93.93 0 0 1-.733-.342.984.984 0 0 1-.075-1.123l14.15-22.547V109.87c0-7.497 6.033-13.586 13.418-13.586h40.385c7.404 0 13.417 6.108 13.417 13.586v21.044c0 3.634-1.409 7.059-3.946 9.628-2.556 2.568-5.939 3.976-9.528 3.957l-52.6-.247-14.131 5.632a.755.755 0 0 1-.357.076zM186.234 81.063a.8.8 0 1 1-.002 1.6.8.8 0 0 1 .002-1.6M186.234 85.87a.8.8 0 1 1-.002 1.6.8.8 0 0 1 .002-1.6M186.234 90.676a.8.8 0 1 1-.002 1.6.8.8 0 0 1 .002-1.6M182.238 81.063a.8.8 0 1 1-.002 1.6.8.8 0 0 1 .002-1.6M182.238 85.87a.8.8 0 1 1-.002 1.6.8.8 0 0 1 .002-1.6M177.443 67.443a.8.8 0 1 1-.002 1.6.8.8 0 0 1 .002-1.6M177.443 72.25a.8.8 0 1 1-.002 1.6.8.8 0 0 1 .002-1.6M177.443 77.057a.8.8 0 1 1-.002 1.6.8.8 0 0 1 .002-1.6M177.443 81.063a.8.8 0 1 1-.002 1.6.8.8 0 0 1 .002-1.6M177.443 85.87a.8.8 0 1 1-.002 1.6.8.8 0 0 1 .002-1.6M172.648 67.443a.8.8 0 1 1-.002 1.6.8.8 0 0 1 .002-1.6M172.648 72.25a.8.8 0 1 1-.001 1.6.8.8 0 0 1 .001-1.6M172.648 77.057a.8.8 0 1 1-.002 1.6.8.8 0 0 1 .002-1.6M172.648 81.063a.8.8 0 1 1-.002 1.6.8.8 0 0 1 .002-1.6M172.648 85.87a.8.8 0 1 1-.001 1.6.8.8 0 0 1 .001-1.6M167.065 68.116a.8.8 0 1 1 1.577.257.8.8 0 1 1-1.577-.257M167.065 72.923a.8.8 0 1 1 1.577.256.8.8 0 1 1-1.577-.256M167.065 77.73a.8.8 0 1 1 1.577.256.8.8 0 1 1-1.577-.256M167.065 81.735a.8.8 0 1 1 1.577.257.8.8 0 1 1-1.577-.257M167.065 86.542a.8.8 0 1 1 1.577.257.799.799 0 1 1-1.577-.257M163.059 67.443a.8.8 0 1 1-.002 1.6.8.8 0 0 1 .002-1.6M163.059 72.25a.8.8 0 1 1-.002 1.6.8.8 0 0 1 .002-1.6M163.059 77.057a.8.8 0 1 1-.002 1.6.8.8 0 0 1 .002-1.6M163.059 81.063a.8.8 0 1 1-.002 1.6.8.8 0 0 1 .002-1.6M163.059 85.87a.8.8 0 1 1-.002 1.6.8.8 0 0 1 .002-1.6M158.264 67.443a.8.8 0 1 1-.002 1.6.8.8 0 0 1 .002-1.6M158.264 72.25a.8.8 0 1 1-.002 1.6.8.8 0 0 1 .002-1.6M158.264 77.057a.8.8 0 1 1-.002 1.6.8.8 0 0 1 .002-1.6M158.264 81.063a.8.8 0 1 1-.002 1.6.8.8 0 0 1 .002-1.6M158.264 85.87a.8.8 0 1 1-.002 1.6.8.8 0 0 1 .002-1.6M154.269 67.443a.8.8 0 1 1-.002 1.6.8.8 0 0 1 .002-1.6M154.269 72.25a.8.8 0 1 1-.002 1.6.8.8 0 0 1 .002-1.6M154.269 77.057a.8.8 0 1 1-.002 1.6.8.8 0 0 1 .002-1.6M154.269 81.063a.8.8 0 1 1-.002 1.6.8.8 0 0 1 .002-1.6M154.269 85.87a.8.8 0 1 1-.002 1.6.8.8 0 0 1 .002-1.6M149.474 67.443a.8.8 0 1 1-.002 1.6.8.8 0 0 1 .002-1.6M149.474 72.25a.8.8 0 1 1-.002 1.6.8.8 0 0 1 .002-1.6M149.474 77.057a.8.8 0 1 1-.002 1.6.8.8 0 0 1 .002-1.6M149.474 81.063a.8.8 0 1 1-.002 1.6.8.8 0 0 1 .002-1.6M149.474 85.87a.8.8 0 1 1-.002 1.6.8.8 0 0 1 .002-1.6M144.679 67.443a.8.8 0 1 1-.002 1.6.8.8 0 0 1 .002-1.6M144.679 72.25a.8.8 0 1 1-.002 1.6.8.8 0 0 1 .002-1.6M144.679 77.057a.8.8 0 1 1-.002 1.6.8.8 0 0 1 .002-1.6M144.679 81.063a.8.8 0 1 1-.002 1.6.8.8 0 0 1 .002-1.6M144.679 85.87a.8.8 0 1 1-.002 1.6.8.8 0 0 1 .002-1.6M139.884 67.443a.8.8 0 1 1-.002 1.6.8.8 0 0 1 .002-1.6M139.884 72.25a.8.8 0 1 1-.001 1.6.8.8 0 0 1 .001-1.6M139.884 77.057a.8.8 0 1 1-.002 1.6.8.8 0 0 1 .002-1.6M139.884 81.063a.8.8 0 1 1-.002 1.6.8.8 0 0 1 .002-1.6M139.884 85.87a.8.8 0 1 1-.001 1.6.8.8 0 0 1 .001-1.6M135.09 67.443a.8.8 0 1 1-.002 1.6.8.8 0 0 1 .002-1.6M135.09 72.25a.8.8 0 1 1-.002 1.6.8.8 0 0 1 .002-1.6M135.09 77.057a.8.8 0 1 1-.002 1.6.8.8 0 0 1 .002-1.6M135.09 81.063a.8.8 0 1 1-.002 1.6.8.8 0 0 1 .002-1.6M135.09 85.87a.8.8 0 1 1-.002 1.6.8.8 0 0 1 .002-1.6M131.094 67.443a.8.8 0 1 1-.002 1.6.8.8 0 0 1 .002-1.6M131.094 72.25a.8.8 0 1 1-.002 1.6.8.8 0 0 1 .002-1.6M131.094 77.057a.8.8 0 1 1-.002 1.6.8.8 0 0 1 .002-1.6M131.094 81.063a.8.8 0 1 1-.002 1.6.8.8 0 0 1 .002-1.6M131.094 85.87a.8.8 0 1 1-.002 1.6.8.8 0 0 1 .002-1.6M126.3 67.443a.8.8 0 1 1-.003 1.6.8.8 0 0 1 .002-1.6M126.3 72.25a.8.8 0 1 1-.003 1.6.8.8 0 0 1 .002-1.6M126.3 77.057a.8.8 0 1 1-.003 1.6.8.8 0 0 1 .002-1.6M126.3 81.063a.8.8 0 1 1-.003 1.6.8.8 0 0 1 .002-1.6M126.3 85.87a.8.8 0 1 1-.003 1.6.8.8 0 0 1 .002-1.6M121.504 67.443a.8.8 0 1 1-.002 1.6.8.8 0 0 1 .002-1.6M121.504 72.25a.8.8 0 1 1-.001 1.6.8.8 0 0 1 .001-1.6M121.504 77.057a.8.8 0 1 1-.002 1.6.8.8 0 0 1 .002-1.6M121.504 81.063a.8.8 0 1 1-.002 1.6.8.8 0 0 1 .002-1.6M121.504 85.87a.8.8 0 1 1-.001 1.6.8.8 0 0 1 .001-1.6M116.71 67.443a.8.8 0 1 1-.002 1.6.8.8 0 0 1 .002-1.6M116.71 72.25a.8.8 0 1 1-.002 1.6.8.8 0 0 1 .002-1.6M116.71 77.057a.8.8 0 1 1-.002 1.6.8.8 0 0 1 .002-1.6M116.71 81.063a.8.8 0 1 1-.002 1.6.8.8 0 0 1 .002-1.6M116.71 85.87a.8.8 0 1 1-.002 1.6.8.8 0 0 1 .002-1.6M111.915 67.443a.8.8 0 1 1-.002 1.6.8.8 0 0 1 .002-1.6M111.915 72.25a.8.8 0 1 1-.002 1.6.8.8 0 0 1 .002-1.6M111.915 77.057a.8.8 0 1 1-.002 1.6.8.8 0 0 1 .002-1.6M111.915 81.063a.8.8 0 1 1-.002 1.6.8.8 0 0 1 .002-1.6"/>
        <path fill="#EEBED3" d="M177.767 62.858v8.613l10.864 11.995-10.864-3.004-59.997.133c-3.666.019-6.654-2.966-6.654-6.65V62.877c0-3.683 2.97-6.649 6.616-6.649h53.4c3.684-.019 6.635 2.966 6.635 6.63"/>
        <path fill="#383A48" d="M178.365 79.423c.075 0 .17.019.246.037l7.777 2.114-8.724-9.483a.953.953 0 0 1-.246-.636v-8.529c0-3.123-2.573-5.648-5.714-5.648h-53.78c-3.16 0-5.715 2.543-5.715 5.648v10.96a5.6 5.6 0 0 0 1.684 4.003 5.65 5.65 0 0 0 4.069 1.646l60.403-.112zm10.937 4.844a1.12 1.12 0 0 1-.246-.037l-10.805-2.937-60.27.131a7.597 7.597 0 0 1-5.413-2.188c-1.438-1.422-2.251-3.31-2.251-5.33V62.944c0-4.152 3.406-7.519 7.607-7.519h53.78c4.2 0 7.607 3.367 7.607 7.519v8.173l10.673 11.597c.283.299.321.766.113 1.122a.957.957 0 0 1-.795.43z"/>
        <g transform="translate(170.251 37)">
            <mask id="d" fill="#fff">
                <use xlink:href="#c"/>
            </mask>
            <path fill="#383A48" d="M45.341.048H1.016c-.53 0-.946.42-.946.955v26.816c0 .535.416.955.946.955h44.325c.53 0 .946-.42.946-.955V1.003a.953.953 0 0 0-.946-.955" mask="url(#d)"/>
        </g>
        <path fill="#FFB81C" d="M184.635 65.04h-26.37l13.185-26.438z"/>
        <path fill="#383A48" d="M159.177 63.925h23.747L171.06 40.124l-11.883 23.8zm25.275 1.916H157.63a.994.994 0 0 1-.821-.46.966.966 0 0 1-.038-.939l13.43-26.905a.956.956 0 0 1 .86-.537c.363 0 .688.21.86.537l13.41 26.905a.966.966 0 0 1-.037.939c-.191.287-.497.46-.84.46z"/>
    </g>
</svg>
