<svg xmlns="http://www.w3.org/2000/svg" width="244" height="214" viewBox="0 0 244 214">
    <g fill="none" fill-rule="evenodd">
        <path fill="#FBEBC7" fill-rule="nonzero" d="M115.945 1.896l55.264 20.144a23.2 23.2 0 0 1 12.154 10.21l29.425 51.04a23.2 23.2 0 0 1 2.75 15.61l-10.222 58.053a23.2 23.2 0 0 1-7.923 13.739l-45.066 37.87A23.2 23.2 0 0 1 137.402 214H78.598a23.2 23.2 0 0 1-14.925-5.438l-45.066-37.87a23.2 23.2 0 0 1-7.923-13.739L.462 98.9a23.2 23.2 0 0 1 2.75-15.61l29.425-51.04A23.2 23.2 0 0 1 44.79 22.04l55.264-20.144a23.2 23.2 0 0 1 15.89 0z" opacity=".434"/>
        <path fill="#383A48" d="M202 84h4.8v-1.6H202zM231.22 125.002a.995.995 0 0 0-.881-.159c-5.667 1.564-12.435 2.891-20.745 4.099-21.585 3.128-33.678 17.999-46.473 33.74-3.344 4.119-6.808 8.376-10.472 12.474a.997.997 0 0 0-.16 1.07c.16.356.52.574.92.574h77.19a.986.986 0 0 0 1.001-.99v-50.016c0-.317-.14-.594-.38-.792"/>
        <path fill="#FFF" d="M66.8 165.6h156.8V52.8H66.8z"/>
        <path fill="#383A48" d="M67.214 163.602h155.972V53.998H67.214v109.604zm156.959 1.998H66.207a.993.993 0 0 1-1.007-.999V53c0-.56.443-.999 1.007-.999h157.986a.993.993 0 0 1 1.007.999V164.6c-.02.54-.463.999-1.027.999z"/>
        <path fill="#00A6D6" d="M66.8 79.2h156.8V52.8H66.8z"/>
        <path fill="#383A48" d="M67.214 78.016h155.972V53.984H67.214v24.032zM224.173 80H66.207a.99.99 0 0 1-1.007-.992V52.992A.99.99 0 0 1 66.207 52h157.986a.99.99 0 0 1 1.007.992v26.016a1.02 1.02 0 0 1-1.027.992z"/>
        <path fill="#D3EDF5" d="M130.8 121.745V148.8l9.758-10.11h52.753c9.221 0 16.689-7.583 16.689-16.945s-7.468-16.945-16.689-16.945h-45.823c-9.22 0-16.688 7.583-16.688 16.945"/>
        <path fill="#383A48" d="M194.594 120h-49.188c-.563 0-1.006-.528-1.006-1.2 0-.672.443-1.2 1.006-1.2h49.188c.563 0 1.006.528 1.006 1.2 0 .672-.443 1.2-1.006 1.2M169.789 128.8H144.61c-.566 0-1.011-.528-1.011-1.2 0-.672.445-1.2 1.011-1.2h25.178c.566 0 1.011.528 1.011 1.2 0 .672-.445 1.2-1.011 1.2M96.4 65.116L97.516 64l3.684 3.684-1.116 1.116z"/>
        <path fill="#383A48" d="M96.4 67.684L100.084 64l1.116 1.116-3.684 3.684zM86.428 67.572h3.144v-3.144h-3.144v3.144zM84.4 69.6h7.2v-7.2h-7.2v7.2zM75.6 69.6h4.8v-2.4h-4.8zM126.4 181.6a1.2 1.2 0 1 1 0 2.4 1.2 1.2 0 0 1 0-2.4M126.4 185.6a1.2 1.2 0 1 1 0 2.4 1.2 1.2 0 0 1 0-2.4M126.4 191.2a1.2 1.2 0 1 1 0 2.4 1.2 1.2 0 0 1 0-2.4M126.4 196.8a1.2 1.2 0 1 1 0 2.4 1.2 1.2 0 0 1 0-2.4M126.4 200.8a1.2 1.2 0 1 1 0 2.4 1.2 1.2 0 0 1 0-2.4M122.4 145.6a1.2 1.2 0 1 1 0 2.4 1.2 1.2 0 0 1 0-2.4M122.4 151.2a1.2 1.2 0 1 1 0 2.4 1.2 1.2 0 0 1 0-2.4M122.4 156.8a1.2 1.2 0 1 1 0 2.4 1.2 1.2 0 0 1 0-2.4M122.4 160.8a1.2 1.2 0 1 1 0 2.4 1.2 1.2 0 0 1 0-2.4M122.4 166.4a1.2 1.2 0 1 1 0 2.4 1.2 1.2 0 0 1 0-2.4M122.4 171.2a1.2 1.2 0 1 1 0 2.4 1.2 1.2 0 0 1 0-2.4M122.4 176a1.2 1.2 0 1 1 0 2.4 1.2 1.2 0 0 1 0-2.4M122.4 181.6a1.2 1.2 0 1 1 0 2.4 1.2 1.2 0 0 1 0-2.4M122.4 185.6a1.2 1.2 0 1 1 0 2.4 1.2 1.2 0 0 1 0-2.4M122.4 191.2a1.2 1.2 0 1 1 0 2.4 1.2 1.2 0 0 1 0-2.4M122.4 196.8a1.2 1.2 0 1 1 0 2.4 1.2 1.2 0 0 1 0-2.4M122.4 200.8a1.2 1.2 0 1 1 0 2.4 1.2 1.2 0 0 1 0-2.4M116.8 122.4a1.2 1.2 0 1 1 0 2.4 1.2 1.2 0 0 1 0-2.4M116.8 126.4a1.2 1.2 0 1 1 0 2.4 1.2 1.2 0 0 1 0-2.4M116.8 131.2a1.2 1.2 0 1 1 0 2.4 1.2 1.2 0 0 1 0-2.4M116.8 136.8a1.2 1.2 0 1 1 0 2.4 1.2 1.2 0 0 1 0-2.4M116.8 141.6a1.2 1.2 0 1 1 0 2.4 1.2 1.2 0 0 1 0-2.4M116.8 145.6a1.2 1.2 0 1 1 0 2.4 1.2 1.2 0 0 1 0-2.4M116.8 151.2a1.2 1.2 0 1 1 0 2.4 1.2 1.2 0 0 1 0-2.4M116.8 156.8a1.2 1.2 0 1 1 0 2.4 1.2 1.2 0 0 1 0-2.4M116.8 160.8a1.2 1.2 0 1 1 0 2.4 1.2 1.2 0 0 1 0-2.4M116.8 166.4a1.2 1.2 0 1 1 0 2.4 1.2 1.2 0 0 1 0-2.4M116.8 171.2a1.2 1.2 0 1 1 0 2.4 1.2 1.2 0 0 1 0-2.4M116.8 176a1.2 1.2 0 1 1 0 2.4 1.2 1.2 0 0 1 0-2.4M116.8 181.6a1.2 1.2 0 1 1 0 2.4 1.2 1.2 0 0 1 0-2.4M116.8 185.6a1.2 1.2 0 1 1 0 2.4 1.2 1.2 0 0 1 0-2.4M116.8 191.2a1.2 1.2 0 1 1 0 2.4 1.2 1.2 0 0 1 0-2.4M116.8 196.8a1.2 1.2 0 1 1 0 2.4 1.2 1.2 0 0 1 0-2.4M116.8 200.8a1.2 1.2 0 1 1 0 2.4 1.2 1.2 0 0 1 0-2.4M112 101.6a1.2 1.2 0 1 1 0 2.4 1.2 1.2 0 0 1 0-2.4M112 106.4a1.2 1.2 0 1 1 0 2.4 1.2 1.2 0 0 1 0-2.4M112 111.2a1.2 1.2 0 1 1 0 2.4 1.2 1.2 0 0 1 0-2.4M112 116.8a1.2 1.2 0 1 1 0 2.4 1.2 1.2 0 0 1 0-2.4M112 122.4a1.2 1.2 0 1 1 0 2.4 1.2 1.2 0 0 1 0-2.4M112 126.4a1.2 1.2 0 1 1 0 2.4 1.2 1.2 0 0 1 0-2.4M112 131.2a1.2 1.2 0 1 1 0 2.4 1.2 1.2 0 0 1 0-2.4M112 136.8a1.2 1.2 0 1 1 0 2.4 1.2 1.2 0 0 1 0-2.4M112 141.6a1.2 1.2 0 1 1 0 2.4 1.2 1.2 0 0 1 0-2.4M112 145.6a1.2 1.2 0 1 1 0 2.4 1.2 1.2 0 0 1 0-2.4M112 151.2a1.2 1.2 0 1 1 0 2.4 1.2 1.2 0 0 1 0-2.4M112 156.8a1.2 1.2 0 1 1 0 2.4 1.2 1.2 0 0 1 0-2.4M112 160.8a1.2 1.2 0 1 1 0 2.4 1.2 1.2 0 0 1 0-2.4M112 166.4a1.2 1.2 0 1 1 0 2.4 1.2 1.2 0 0 1 0-2.4M112 171.2a1.2 1.2 0 1 1 0 2.4 1.2 1.2 0 0 1 0-2.4M112 176a1.2 1.2 0 1 1 0 2.4 1.2 1.2 0 0 1 0-2.4M112 181.6a1.2 1.2 0 1 1 0 2.4 1.2 1.2 0 0 1 0-2.4M112 185.6a1.2 1.2 0 1 1 0 2.4 1.2 1.2 0 0 1 0-2.4M112 191.2a1.2 1.2 0 1 1 0 2.4 1.2 1.2 0 0 1 0-2.4M112 196.8a1.2 1.2 0 1 1 0 2.4 1.2 1.2 0 0 1 0-2.4M112 200.8a1.2 1.2 0 1 1 0 2.4 1.2 1.2 0 0 1 0-2.4M107.2 101.6a1.2 1.2 0 1 1 0 2.4 1.2 1.2 0 0 1 0-2.4M107.2 106.4a1.2 1.2 0 1 1 0 2.4 1.2 1.2 0 0 1 0-2.4M107.2 111.2a1.2 1.2 0 1 1 0 2.4 1.2 1.2 0 0 1 0-2.4M107.2 116.8a1.2 1.2 0 1 1 0 2.4 1.2 1.2 0 0 1 0-2.4M107.2 122.4a1.2 1.2 0 1 1 0 2.4 1.2 1.2 0 0 1 0-2.4M107.2 126.4a1.2 1.2 0 1 1 0 2.4 1.2 1.2 0 0 1 0-2.4M107.2 131.2a1.2 1.2 0 1 1 0 2.4 1.2 1.2 0 0 1 0-2.4M107.2 136.8a1.2 1.2 0 1 1 0 2.4 1.2 1.2 0 0 1 0-2.4M107.2 141.6a1.2 1.2 0 1 1 0 2.4 1.2 1.2 0 0 1 0-2.4M107.2 145.6a1.2 1.2 0 1 1 0 2.4 1.2 1.2 0 0 1 0-2.4M107.2 151.2a1.2 1.2 0 1 1 0 2.4 1.2 1.2 0 0 1 0-2.4M107.2 156.8a1.2 1.2 0 1 1 0 2.4 1.2 1.2 0 0 1 0-2.4M107.2 160.8a1.2 1.2 0 1 1 0 2.4 1.2 1.2 0 0 1 0-2.4M107.2 166.4a1.2 1.2 0 1 1 0 2.4 1.2 1.2 0 0 1 0-2.4M107.2 171.2a1.2 1.2 0 1 1 0 2.4 1.2 1.2 0 0 1 0-2.4M107.2 176a1.2 1.2 0 1 1 0 2.4 1.2 1.2 0 0 1 0-2.4M107.2 181.6a1.2 1.2 0 1 1 0 2.4 1.2 1.2 0 0 1 0-2.4M107.2 185.6a1.2 1.2 0 1 1 0 2.4 1.2 1.2 0 0 1 0-2.4M107.2 191.2a1.2 1.2 0 1 1 0 2.4 1.2 1.2 0 0 1 0-2.4M107.2 196.8a1.2 1.2 0 1 1 0 2.4 1.2 1.2 0 0 1 0-2.4M107.2 200.8a1.2 1.2 0 1 1 0 2.4 1.2 1.2 0 0 1 0-2.4M101.6 101.6a1.2 1.2 0 1 1 0 2.4 1.2 1.2 0 0 1 0-2.4M101.6 106.4a1.2 1.2 0 1 1 0 2.4 1.2 1.2 0 0 1 0-2.4M101.6 111.2a1.2 1.2 0 1 1 0 2.4 1.2 1.2 0 0 1 0-2.4M101.6 116.8a1.2 1.2 0 1 1 0 2.4 1.2 1.2 0 0 1 0-2.4M101.6 122.4a1.2 1.2 0 1 1 0 2.4 1.2 1.2 0 0 1 0-2.4M101.6 126.4a1.2 1.2 0 1 1 0 2.4 1.2 1.2 0 0 1 0-2.4M101.6 166.4a1.2 1.2 0 1 1 0 2.4 1.2 1.2 0 0 1 0-2.4M101.6 171.2a1.2 1.2 0 1 1 0 2.4 1.2 1.2 0 0 1 0-2.4M101.6 176a1.2 1.2 0 1 1 0 2.4 1.2 1.2 0 0 1 0-2.4M101.6 181.6a1.2 1.2 0 1 1 0 2.4 1.2 1.2 0 0 1 0-2.4M101.6 185.6a1.2 1.2 0 1 1 0 2.4 1.2 1.2 0 0 1 0-2.4M101.6 191.2a1.2 1.2 0 1 1 0 2.4 1.2 1.2 0 0 1 0-2.4M101.6 196.8a1.2 1.2 0 1 1 0 2.4 1.2 1.2 0 0 1 0-2.4M101.6 200.8a1.2 1.2 0 1 1 0 2.4 1.2 1.2 0 0 1 0-2.4M96 101.6a1.2 1.2 0 1 1 0 2.4 1.2 1.2 0 0 1 0-2.4M96 106.4a1.2 1.2 0 1 1 0 2.4 1.2 1.2 0 0 1 0-2.4M96 111.2a1.2 1.2 0 1 1 0 2.4 1.2 1.2 0 0 1 0-2.4M96 116.8a1.2 1.2 0 1 1 0 2.4 1.2 1.2 0 0 1 0-2.4M96 122.4a1.2 1.2 0 1 1 0 2.4 1.2 1.2 0 0 1 0-2.4M96 126.4a1.2 1.2 0 1 1 0 2.4 1.2 1.2 0 0 1 0-2.4M96 131.2a1.2 1.2 0 1 1 0 2.4 1.2 1.2 0 0 1 0-2.4M96 166.4a1.2 1.2 0 1 1 0 2.4 1.2 1.2 0 0 1 0-2.4M96 171.2a1.2 1.2 0 1 1 0 2.4 1.2 1.2 0 0 1 0-2.4M96 176a1.2 1.2 0 1 1 0 2.4 1.2 1.2 0 0 1 0-2.4M96 181.6a1.2 1.2 0 1 1 0 2.4 1.2 1.2 0 0 1 0-2.4M92 101.6a1.2 1.2 0 1 1 0 2.4 1.2 1.2 0 0 1 0-2.4M92 106.4a1.2 1.2 0 1 1 0 2.4 1.2 1.2 0 0 1 0-2.4M92 111.2a1.2 1.2 0 1 1 0 2.4 1.2 1.2 0 0 1 0-2.4M92 116.8a1.2 1.2 0 1 1 0 2.4 1.2 1.2 0 0 1 0-2.4M92 122.4a1.2 1.2 0 1 1 0 2.4 1.2 1.2 0 0 1 0-2.4M92 126.4a1.2 1.2 0 1 1 0 2.4 1.2 1.2 0 0 1 0-2.4M92 131.2a1.2 1.2 0 1 1 0 2.4 1.2 1.2 0 0 1 0-2.4M92 136.8a1.2 1.2 0 1 1 0 2.4 1.2 1.2 0 0 1 0-2.4M92 141.6a1.2 1.2 0 1 1 0 2.4 1.2 1.2 0 0 1 0-2.4M92 166.4a1.2 1.2 0 1 1 0 2.4 1.2 1.2 0 0 1 0-2.4M92 171.2a1.2 1.2 0 1 1 0 2.4 1.2 1.2 0 0 1 0-2.4M92 176a1.2 1.2 0 1 1 0 2.4 1.2 1.2 0 0 1 0-2.4M92 181.6a1.2 1.2 0 1 1 0 2.4 1.2 1.2 0 0 1 0-2.4M88 106.4a1.2 1.2 0 1 1 0 2.4 1.2 1.2 0 0 1 0-2.4M88 111.2a1.2 1.2 0 1 1 0 2.4 1.2 1.2 0 0 1 0-2.4M88 116.8a1.2 1.2 0 1 1 0 2.4 1.2 1.2 0 0 1 0-2.4M88 122.4a1.2 1.2 0 1 1 0 2.4 1.2 1.2 0 0 1 0-2.4M88 126.4a1.2 1.2 0 1 1 0 2.4 1.2 1.2 0 0 1 0-2.4M88 131.2a1.2 1.2 0 1 1 0 2.4 1.2 1.2 0 0 1 0-2.4M88 136.8a1.2 1.2 0 1 1 0 2.4 1.2 1.2 0 0 1 0-2.4M88 141.6a1.2 1.2 0 1 1 0 2.4 1.2 1.2 0 0 1 0-2.4M88 145.6a1.2 1.2 0 1 1 0 2.4 1.2 1.2 0 0 1 0-2.4M88 151.2a1.2 1.2 0 1 1 0 2.4 1.2 1.2 0 0 1 0-2.4M88 166.4a1.2 1.2 0 1 1 0 2.4 1.2 1.2 0 0 1 0-2.4M88 171.2a1.2 1.2 0 1 1 0 2.4 1.2 1.2 0 0 1 0-2.4M88 176a1.2 1.2 0 1 1 0 2.4 1.2 1.2 0 0 1 0-2.4M88 181.6a1.2 1.2 0 1 1 0 2.4 1.2 1.2 0 0 1 0-2.4M81.6 116.8a1.2 1.2 0 1 1 0 2.4 1.2 1.2 0 0 1 0-2.4M81.6 122.4a1.2 1.2 0 1 1 0 2.4 1.2 1.2 0 0 1 0-2.4M81.6 126.4a1.2 1.2 0 1 1 0 2.4 1.2 1.2 0 0 1 0-2.4M81.6 131.2a1.2 1.2 0 1 1 0 2.4 1.2 1.2 0 0 1 0-2.4M81.6 136.8a1.2 1.2 0 1 1 0 2.4 1.2 1.2 0 0 1 0-2.4M81.6 141.6a1.2 1.2 0 1 1 0 2.4 1.2 1.2 0 0 1 0-2.4M81.6 145.6a1.2 1.2 0 1 1 0 2.4 1.2 1.2 0 0 1 0-2.4M81.6 151.2a1.2 1.2 0 1 1 0 2.4 1.2 1.2 0 0 1 0-2.4M81.6 156.8a1.2 1.2 0 1 1 0 2.4 1.2 1.2 0 0 1 0-2.4M81.6 160.8a1.2 1.2 0 1 1 0 2.4 1.2 1.2 0 0 1 0-2.4M81.6 166.4a1.2 1.2 0 1 1 0 2.4 1.2 1.2 0 0 1 0-2.4M81.6 171.2a1.2 1.2 0 1 1 0 2.4 1.2 1.2 0 0 1 0-2.4M81.6 176a1.2 1.2 0 1 1 0 2.4 1.2 1.2 0 0 1 0-2.4M81.6 181.6a1.2 1.2 0 1 1 0 2.4 1.2 1.2 0 0 1 0-2.4M76.8 131.2a1.2 1.2 0 1 1 0 2.4 1.2 1.2 0 0 1 0-2.4M76.8 136.8a1.2 1.2 0 1 1 0 2.4 1.2 1.2 0 0 1 0-2.4M76.8 141.6a1.2 1.2 0 1 1 0 2.4 1.2 1.2 0 0 1 0-2.4M76.8 145.6a1.2 1.2 0 1 1 0 2.4 1.2 1.2 0 0 1 0-2.4M76.8 151.2a1.2 1.2 0 1 1 0 2.4 1.2 1.2 0 0 1 0-2.4M76.8 156.8a1.2 1.2 0 1 1 0 2.4 1.2 1.2 0 0 1 0-2.4M76.8 160.8a1.2 1.2 0 1 1 0 2.4 1.2 1.2 0 0 1 0-2.4M76.8 166.4a1.2 1.2 0 1 1 0 2.4 1.2 1.2 0 0 1 0-2.4M76.8 171.2a1.2 1.2 0 1 1 0 2.4 1.2 1.2 0 0 1 0-2.4M76.8 176a1.2 1.2 0 1 1 0 2.4 1.2 1.2 0 0 1 0-2.4M76.8 181.6a1.2 1.2 0 1 1 0 2.4 1.2 1.2 0 0 1 0-2.4M72 141.6a1.2 1.2 0 1 1 0 2.4 1.2 1.2 0 0 1 0-2.4M72 145.6a1.2 1.2 0 1 1 0 2.4 1.2 1.2 0 0 1 0-2.4M72 151.2a1.2 1.2 0 1 1 0 2.4 1.2 1.2 0 0 1 0-2.4M72 156.8a1.2 1.2 0 1 1 0 2.4 1.2 1.2 0 0 1 0-2.4M72 160.8a1.2 1.2 0 1 1 0 2.4 1.2 1.2 0 0 1 0-2.4M72 166.4a1.2 1.2 0 1 1 0 2.4 1.2 1.2 0 0 1 0-2.4M72 171.2a1.2 1.2 0 1 1 0 2.4 1.2 1.2 0 0 1 0-2.4M72 176a1.2 1.2 0 1 1 0 2.4 1.2 1.2 0 0 1 0-2.4M72 181.6a1.2 1.2 0 1 1 0 2.4 1.2 1.2 0 0 1 0-2.4M72 185.6a1.2 1.2 0 1 1 0 2.4 1.2 1.2 0 0 1 0-2.4M67.2 151.2a1.2 1.2 0 1 1 0 2.4 1.2 1.2 0 0 1 0-2.4M67.2 156.8a1.2 1.2 0 1 1 0 2.4 1.2 1.2 0 0 1 0-2.4M67.2 160.8a1.2 1.2 0 1 1 0 2.4 1.2 1.2 0 0 1 0-2.4M67.2 166.4a1.2 1.2 0 1 1 0 2.4 1.2 1.2 0 0 1 0-2.4M67.2 171.2a1.2 1.2 0 1 1 0 2.4 1.2 1.2 0 0 1 0-2.4M67.2 176a1.2 1.2 0 1 1 0 2.4 1.2 1.2 0 0 1 0-2.4M67.2 181.6a1.2 1.2 0 1 1 0 2.4 1.2 1.2 0 0 1 0-2.4M67.2 185.6a1.2 1.2 0 1 1 0 2.4 1.2 1.2 0 0 1 0-2.4M67.2 191.2a1.2 1.2 0 1 1 0 2.4 1.2 1.2 0 0 1 0-2.4M67.2 196.8a1.2 1.2 0 1 1 0 2.4 1.2 1.2 0 0 1 0-2.4M62.4 160.8a1.2 1.2 0 1 1 0 2.4 1.2 1.2 0 0 1 0-2.4M62.4 166.4a1.2 1.2 0 1 1 0 2.4 1.2 1.2 0 0 1 0-2.4M62.4 171.2a1.2 1.2 0 1 1 0 2.4 1.2 1.2 0 0 1 0-2.4M62.4 176a1.2 1.2 0 1 1 0 2.4 1.2 1.2 0 0 1 0-2.4M62.4 181.6a1.2 1.2 0 1 1 0 2.4 1.2 1.2 0 0 1 0-2.4M62.4 185.6a1.2 1.2 0 1 1 0 2.4 1.2 1.2 0 0 1 0-2.4M62.4 191.2a1.2 1.2 0 1 1 0 2.4 1.2 1.2 0 0 1 0-2.4M62.4 196.8a1.2 1.2 0 1 1 0 2.4 1.2 1.2 0 0 1 0-2.4M62.4 200.8a1.2 1.2 0 1 1 0 2.4 1.2 1.2 0 0 1 0-2.4M57.6 166.4a1.2 1.2 0 1 1 0 2.4 1.2 1.2 0 0 1 0-2.4M57.6 171.2a1.2 1.2 0 1 1 0 2.4 1.2 1.2 0 0 1 0-2.4M57.6 176a1.2 1.2 0 1 1 0 2.4 1.2 1.2 0 0 1 0-2.4M57.6 181.6a1.2 1.2 0 1 1 0 2.4 1.2 1.2 0 0 1 0-2.4M57.6 185.6a1.2 1.2 0 1 1 0 2.4 1.2 1.2 0 0 1 0-2.4M57.6 191.2a1.2 1.2 0 1 1 0 2.4 1.2 1.2 0 0 1 0-2.4M57.6 196.8a1.2 1.2 0 1 1 0 2.4 1.2 1.2 0 0 1 0-2.4M57.6 200.8a1.2 1.2 0 1 1 0 2.4 1.2 1.2 0 0 1 0-2.4M53.6 176a1.2 1.2 0 1 1 0 2.4 1.2 1.2 0 0 1 0-2.4M53.6 181.6a1.2 1.2 0 1 1 0 2.4 1.2 1.2 0 0 1 0-2.4M53.6 185.6a1.2 1.2 0 1 1 0 2.4 1.2 1.2 0 0 1 0-2.4M53.6 191.2a1.2 1.2 0 1 1 0 2.4 1.2 1.2 0 0 1 0-2.4M53.6 196.8a1.2 1.2 0 1 1 0 2.4 1.2 1.2 0 0 1 0-2.4M53.6 200.8a1.2 1.2 0 1 1 0 2.4 1.2 1.2 0 0 1 0-2.4M46.4 185.6a1.2 1.2 0 1 1 0 2.4 1.2 1.2 0 0 1 0-2.4M46.4 191.2a1.2 1.2 0 1 1 0 2.4 1.2 1.2 0 0 1 0-2.4M46.4 196.8a1.2 1.2 0 1 1 0 2.4 1.2 1.2 0 0 1 0-2.4M46.4 200.8a1.2 1.2 0 1 1 0 2.4 1.2 1.2 0 0 1 0-2.4M42.4 196.8a1.2 1.2 0 1 1 0 2.4 1.2 1.2 0 0 1 0-2.4M42.4 200.8a1.2 1.2 0 1 1 0 2.4 1.2 1.2 0 0 1 0-2.4"/>
        <path fill="#383A48" d="M101.6 126.4a1.2 1.2 0 1 1 0 2.4 1.2 1.2 0 0 1 0-2.4M101.6 166.4a1.2 1.2 0 1 1 0 2.4 1.2 1.2 0 0 1 0-2.4M96 126.4a1.2 1.2 0 1 1 0 2.4 1.2 1.2 0 0 1 0-2.4M96 166.4a1.2 1.2 0 1 1 0 2.4 1.2 1.2 0 0 1 0-2.4M92 126.4a1.2 1.2 0 1 1 0 2.4 1.2 1.2 0 0 1 0-2.4M92 131.2a1.2 1.2 0 1 1 0 2.4 1.2 1.2 0 0 1 0-2.4M92 136.8a1.2 1.2 0 1 1 0 2.4 1.2 1.2 0 0 1 0-2.4M92 141.6a1.2 1.2 0 1 1 0 2.4 1.2 1.2 0 0 1 0-2.4M92 166.4a1.2 1.2 0 1 1 0 2.4 1.2 1.2 0 0 1 0-2.4M88 126.4a1.2 1.2 0 1 1 0 2.4 1.2 1.2 0 0 1 0-2.4M88 131.2a1.2 1.2 0 1 1 0 2.4 1.2 1.2 0 0 1 0-2.4M88 136.8a1.2 1.2 0 1 1 0 2.4 1.2 1.2 0 0 1 0-2.4M88 141.6a1.2 1.2 0 1 1 0 2.4 1.2 1.2 0 0 1 0-2.4M88 145.6a1.2 1.2 0 1 1 0 2.4 1.2 1.2 0 0 1 0-2.4M88 151.2a1.2 1.2 0 1 1 0 2.4 1.2 1.2 0 0 1 0-2.4M88 166.4a1.2 1.2 0 1 1 0 2.4 1.2 1.2 0 0 1 0-2.4M81.6 126.4a1.2 1.2 0 1 1 0 2.4 1.2 1.2 0 0 1 0-2.4M81.6 131.2a1.2 1.2 0 1 1 0 2.4 1.2 1.2 0 0 1 0-2.4M81.6 136.8a1.2 1.2 0 1 1 0 2.4 1.2 1.2 0 0 1 0-2.4M81.6 141.6a1.2 1.2 0 1 1 0 2.4 1.2 1.2 0 0 1 0-2.4M81.6 145.6a1.2 1.2 0 1 1 0 2.4 1.2 1.2 0 0 1 0-2.4M81.6 151.2a1.2 1.2 0 1 1 0 2.4 1.2 1.2 0 0 1 0-2.4M81.6 156.8a1.2 1.2 0 1 1 0 2.4 1.2 1.2 0 0 1 0-2.4M81.6 160.8a1.2 1.2 0 1 1 0 2.4 1.2 1.2 0 0 1 0-2.4M81.6 166.4a1.2 1.2 0 1 1 0 2.4 1.2 1.2 0 0 1 0-2.4"/>
        <path fill="#FFB81C" d="M65.572 165.427h20.603l-1.492-38.997H83.54l-17.967 38.997zM87.177 204l-1.288-20.738H58.091L48.034 204H26l50.323-100h26.736l9.341 100H87.177z"/>
        <path fill="#383A48" d="M67.996 164.377h17.53l-1.358-35.847-16.172 35.847zm18.568 2.007H66.439c-.34 0-.659-.18-.839-.462a.974.974 0 0 1-.06-.963l17.55-38.838a.99.99 0 0 1 .918-.582h1.118c.54 0 .979.422.998.964l1.458 38.837c.02.281-.1.542-.28.743-.22.18-.479.3-.738.3zm1.916 36.409h22.62l-8.944-97.586H77.56l-48.156 97.586H48.67l9.543-20.071a.998.998 0 0 1 .899-.562h27.152c.52 0 .959.421.998.943l1.218 19.69zm23.699 2.007H87.542c-.52 0-.958-.421-.998-.943l-1.198-19.71H59.75l-9.544 20.07a.999.999 0 0 1-.898.563H27.787a.979.979 0 0 1-.839-.482c-.18-.3-.2-.662-.04-.983l49.154-99.553a.999.999 0 0 1 .899-.562h26.114c.519 0 .938.401.998.903l9.124 99.593a.97.97 0 0 1-.26.763c-.2.22-.479.341-.758.341z"/>
        <path fill="#FFB81C" d="M228.235 53.264c-10.028-2.317-19.955 4.262-22.164 14.69a20.065 20.065 0 0 0 1.095 11.895L204.4 92.8l10.823-3.745A18.19 18.19 0 0 0 220.197 91c10.027 2.317 19.955-4.262 22.163-14.689 2.209-10.406-4.118-20.73-14.125-23.047"/>
        <path fill="#383A48" d="M207.568 79.519l-2.392 10.773 9.246-3.07c.262-.08.563-.06.804.08a17.368 17.368 0 0 0 4.744 1.786c9.567 2.127 19.075-3.932 21.205-13.482 1.025-4.634.181-9.369-2.352-13.361-2.532-3.993-6.512-6.761-11.135-7.785a17.738 17.738 0 0 0-13.386 2.348c-4 2.548-6.774 6.5-7.8 11.114a17.536 17.536 0 0 0 1.046 10.914c.06.221.08.462.02.683M203.81 92.8c-.24 0-.482-.08-.683-.26a1.006 1.006 0 0 1-.301-.964l2.713-12.238a19.631 19.631 0 0 1-1.045-11.857c1.146-5.156 4.22-9.55 8.683-12.379 4.462-2.828 9.748-3.771 14.914-2.628 5.166 1.144 9.568 4.213 12.402 8.667 2.834 4.454 3.779 9.73 2.633 14.887-2.05 9.188-10.251 15.468-19.316 15.468-1.407 0-2.854-.16-4.281-.462a19.776 19.776 0 0 1-4.885-1.785l-10.512 3.49a1 1 0 0 1-.322.061"/>
        <path fill="#383A48" d="M223.683 79.2a.85.85 0 0 1-.727-.397l-5.53-7.552c-.344-.463-.287-1.17.115-1.545.402-.397 1.014-.331 1.34.132l4.764 6.492 6.238-9.494c.325-.486.919-.574 1.34-.221.42.375.497 1.06.19 1.545l-6.964 10.598a.961.961 0 0 1-.766.442M46.37 101.436l-3.332-2.225 2.007-3.425a.966.966 0 0 0-.08-1.102 1.027 1.027 0 0 0-1.084-.335l-3.854 1.162-1.485-3.681a1.026 1.026 0 0 0-.943-.63c-.421 0-.783.256-.943.63l-1.485 3.68-3.853-1.16a1.027 1.027 0 0 0-1.084.334.966.966 0 0 0-.08 1.102l2.007 3.425-3.332 2.225a.967.967 0 0 0-.401 1.023c.08.394.421.69.823.748l3.973.59-.3 3.938c-.041.413.2.787.561.964a1.02 1.02 0 0 0 1.124-.157l2.95-2.677 2.95 2.677c.18.157.442.256.682.256.14 0 .301-.04.522-.099.361-.177.582-.57.562-.964l-.3-3.937 3.973-.59a1 1 0 0 0 .822-.749c.1-.393-.06-.787-.4-1.023"/>
    </g>
</svg>
