<svg xmlns="http://www.w3.org/2000/svg" xmlns:xlink="http://www.w3.org/1999/xlink" width="193" height="185" viewBox="0 0 193 185">
    <defs>
        <path id="a" d="M0 184.5h191.7V0H0z"/>
    </defs>
    <g fill="none" fill-rule="evenodd" transform="matrix(-1 0 0 1 192.3 .1)">
        <path fill="#383A48" d="M190.665.9H34.355c-.59 0-1.055.465-1.055 1.058v111.284c0 .593.464 1.058 1.055 1.058h156.29c.59 0 1.055-.465 1.055-1.058V1.958A1.03 1.03 0 0 0 190.665.9"/>
        <mask id="b" fill="#fff">
            <use xlink:href="#a"/>
        </mask>
        <path fill="#84A1D5" d="M22.5 124.2h156.6V12.6H22.5z" mask="url(#b)"/>
        <path fill="#383A48" d="M23.71 122.985h154.178V13.815H23.71v109.17zm155.255 2.115H22.655c-.59 0-1.055-.465-1.055-1.058V12.758c0-.593.464-1.058 1.055-1.058h156.289c.59 0 1.055.465 1.055 1.058v111.284c.02.571-.465 1.058-1.034 1.058z" mask="url(#b)"/>
        <path fill="#383A48" d="M175.05 14.4a1.35 1.35 0 1 1 0 2.7 1.35 1.35 0 0 1 0-2.7M175.05 18.9a1.35 1.35 0 1 1 0 2.7 1.35 1.35 0 0 1 0-2.7M175.05 23.4a1.35 1.35 0 1 1 0 2.7 1.35 1.35 0 0 1 0-2.7M175.05 29.7a1.35 1.35 0 1 1 0 2.7 1.35 1.35 0 0 1 0-2.7M175.05 34.2a1.35 1.35 0 1 1 0 2.7 1.35 1.35 0 0 1 0-2.7M175.05 39.6a1.35 1.35 0 1 1 0 2.7 1.35 1.35 0 0 1 0-2.7M175.05 45.9a1.35 1.35 0 1 1 0 2.7 1.35 1.35 0 0 1 0-2.7M175.05 50.4a1.35 1.35 0 1 1 0 2.7 1.35 1.35 0 0 1 0-2.7M175.05 55.8a1.35 1.35 0 1 1 0 2.7 1.35 1.35 0 0 1 0-2.7M175.05 60.3a1.35 1.35 0 1 1 0 2.7 1.35 1.35 0 0 1 0-2.7M175.05 65.7a1.35 1.35 0 1 1 0 2.7 1.35 1.35 0 0 1 0-2.7M175.05 71.1a1.35 1.35 0 1 1 0 2.7 1.35 1.35 0 0 1 0-2.7M175.05 76.5a1.35 1.35 0 1 1 0 2.7 1.35 1.35 0 0 1 0-2.7M175.05 82.8a1.35 1.35 0 1 1 0 2.7 1.35 1.35 0 0 1 0-2.7M175.05 87.3a1.35 1.35 0 1 1 0 2.7 1.35 1.35 0 0 1 0-2.7M175.05 91.8a1.35 1.35 0 1 1 0 2.7 1.35 1.35 0 0 1 0-2.7M175.05 97.2a1.35 1.35 0 1 1 0 2.7 1.35 1.35 0 0 1 0-2.7M175.05 102.6a1.35 1.35 0 1 1 0 2.7 1.35 1.35 0 0 1 0-2.7M175.05 107.1a1.35 1.35 0 1 1 0 2.7 1.35 1.35 0 0 1 0-2.7M175.05 113.4a1.35 1.35 0 1 1 0 2.7 1.35 1.35 0 0 1 0-2.7M175.05 119.7a1.35 1.35 0 1 1 0 2.7 1.35 1.35 0 0 1 0-2.7M170.55 14.4a1.35 1.35 0 1 1 0 2.7 1.35 1.35 0 0 1 0-2.7M170.55 18.9a1.35 1.35 0 1 1 0 2.7 1.35 1.35 0 0 1 0-2.7M170.55 23.4a1.35 1.35 0 1 1 0 2.7 1.35 1.35 0 0 1 0-2.7M170.55 29.7a1.35 1.35 0 1 1 0 2.7 1.35 1.35 0 0 1 0-2.7M170.55 34.2a1.35 1.35 0 1 1 0 2.7 1.35 1.35 0 0 1 0-2.7M170.55 39.6a1.35 1.35 0 1 1 0 2.7 1.35 1.35 0 0 1 0-2.7M170.55 45.9a1.35 1.35 0 1 1 0 2.7 1.35 1.35 0 0 1 0-2.7M170.55 50.4a1.35 1.35 0 1 1 0 2.7 1.35 1.35 0 0 1 0-2.7M170.55 55.8a1.35 1.35 0 1 1 0 2.7 1.35 1.35 0 0 1 0-2.7M170.55 60.3a1.35 1.35 0 1 1 0 2.7 1.35 1.35 0 0 1 0-2.7M170.55 65.7a1.35 1.35 0 1 1 0 2.7 1.35 1.35 0 0 1 0-2.7M170.55 71.1a1.35 1.35 0 1 1 0 2.7 1.35 1.35 0 0 1 0-2.7M170.55 76.5a1.35 1.35 0 1 1 0 2.7 1.35 1.35 0 0 1 0-2.7M170.55 82.8a1.35 1.35 0 1 1 0 2.7 1.35 1.35 0 0 1 0-2.7M170.55 87.3a1.35 1.35 0 1 1 0 2.7 1.35 1.35 0 0 1 0-2.7M170.55 91.8a1.35 1.35 0 1 1 0 2.7 1.35 1.35 0 0 1 0-2.7M170.55 97.2a1.35 1.35 0 1 1 0 2.7 1.35 1.35 0 0 1 0-2.7M170.55 102.6a1.35 1.35 0 1 1 0 2.7 1.35 1.35 0 0 1 0-2.7M170.55 107.1a1.35 1.35 0 1 1 0 2.7 1.35 1.35 0 0 1 0-2.7M170.55 113.4a1.35 1.35 0 1 1 0 2.7 1.35 1.35 0 0 1 0-2.7M170.55 119.7a1.35 1.35 0 1 1 0 2.7 1.35 1.35 0 0 1 0-2.7M166.05 14.4a1.35 1.35 0 1 1 0 2.7 1.35 1.35 0 0 1 0-2.7M166.05 18.9a1.35 1.35 0 1 1 0 2.7 1.35 1.35 0 0 1 0-2.7M166.05 23.4a1.35 1.35 0 1 1 0 2.7 1.35 1.35 0 0 1 0-2.7M166.05 29.7a1.35 1.35 0 1 1 0 2.7 1.35 1.35 0 0 1 0-2.7M166.05 34.2a1.35 1.35 0 1 1 0 2.7 1.35 1.35 0 0 1 0-2.7M166.05 39.6a1.35 1.35 0 1 1 0 2.7 1.35 1.35 0 0 1 0-2.7M166.05 45.9a1.35 1.35 0 1 1 0 2.7 1.35 1.35 0 0 1 0-2.7M166.05 50.4a1.35 1.35 0 1 1 0 2.7 1.35 1.35 0 0 1 0-2.7M166.05 55.8a1.35 1.35 0 1 1 0 2.7 1.35 1.35 0 0 1 0-2.7M166.05 60.3a1.35 1.35 0 1 1 0 2.7 1.35 1.35 0 0 1 0-2.7M166.05 65.7a1.35 1.35 0 1 1 0 2.7 1.35 1.35 0 0 1 0-2.7M166.05 71.1a1.35 1.35 0 1 1 0 2.7 1.35 1.35 0 0 1 0-2.7M166.05 76.5a1.35 1.35 0 1 1 0 2.7 1.35 1.35 0 0 1 0-2.7M166.05 82.8a1.35 1.35 0 1 1 0 2.7 1.35 1.35 0 0 1 0-2.7M166.05 87.3a1.35 1.35 0 1 1 0 2.7 1.35 1.35 0 0 1 0-2.7M166.05 91.8a1.35 1.35 0 1 1 0 2.7 1.35 1.35 0 0 1 0-2.7M166.05 97.2a1.35 1.35 0 1 1 0 2.7 1.35 1.35 0 0 1 0-2.7M166.05 102.6a1.35 1.35 0 1 1 0 2.7 1.35 1.35 0 0 1 0-2.7M166.05 107.1a1.35 1.35 0 1 1 0 2.7 1.35 1.35 0 0 1 0-2.7M166.05 113.4a1.35 1.35 0 1 1 0 2.7 1.35 1.35 0 0 1 0-2.7M166.05 119.7a1.35 1.35 0 1 1 0 2.7 1.35 1.35 0 0 1 0-2.7M159.75 14.4a1.35 1.35 0 1 1 0 2.7 1.35 1.35 0 0 1 0-2.7M159.75 18.9a1.35 1.35 0 1 1 0 2.7 1.35 1.35 0 0 1 0-2.7M159.75 23.4a1.35 1.35 0 1 1 0 2.7 1.35 1.35 0 0 1 0-2.7M159.75 29.7a1.35 1.35 0 1 1 0 2.7 1.35 1.35 0 0 1 0-2.7M159.75 34.2a1.35 1.35 0 1 1 0 2.7 1.35 1.35 0 0 1 0-2.7M159.75 39.6a1.35 1.35 0 1 1 0 2.7 1.35 1.35 0 0 1 0-2.7M159.75 45.9a1.35 1.35 0 1 1 0 2.7 1.35 1.35 0 0 1 0-2.7M159.75 50.4a1.35 1.35 0 1 1 0 2.7 1.35 1.35 0 0 1 0-2.7M159.75 55.8a1.35 1.35 0 1 1 0 2.7 1.35 1.35 0 0 1 0-2.7M159.75 60.3a1.35 1.35 0 1 1 0 2.7 1.35 1.35 0 0 1 0-2.7M159.75 65.7a1.35 1.35 0 1 1 0 2.7 1.35 1.35 0 0 1 0-2.7M159.75 71.1a1.35 1.35 0 1 1 0 2.7 1.35 1.35 0 0 1 0-2.7M159.75 76.5a1.35 1.35 0 1 1 0 2.7 1.35 1.35 0 0 1 0-2.7M159.75 82.8a1.35 1.35 0 1 1 0 2.7 1.35 1.35 0 0 1 0-2.7M159.75 87.3a1.35 1.35 0 1 1 0 2.7 1.35 1.35 0 0 1 0-2.7M159.75 91.8a1.35 1.35 0 1 1 0 2.7 1.35 1.35 0 0 1 0-2.7M159.75 97.2a1.35 1.35 0 1 1 0 2.7 1.35 1.35 0 0 1 0-2.7M159.75 102.6a1.35 1.35 0 1 1 0 2.7 1.35 1.35 0 0 1 0-2.7M159.75 107.1a1.35 1.35 0 1 1 0 2.7 1.35 1.35 0 0 1 0-2.7M159.75 113.4a1.35 1.35 0 1 1 0 2.7 1.35 1.35 0 0 1 0-2.7M159.75 119.7a1.35 1.35 0 1 1 0 2.7 1.35 1.35 0 0 1 0-2.7M155.25 14.4a1.35 1.35 0 1 1 0 2.7 1.35 1.35 0 0 1 0-2.7M155.25 18.9a1.35 1.35 0 1 1 0 2.7 1.35 1.35 0 0 1 0-2.7M155.25 23.4a1.35 1.35 0 1 1 0 2.7 1.35 1.35 0 0 1 0-2.7M155.25 29.7a1.35 1.35 0 1 1 0 2.7 1.35 1.35 0 0 1 0-2.7M155.25 34.2a1.35 1.35 0 1 1 0 2.7 1.35 1.35 0 0 1 0-2.7M155.25 39.6a1.35 1.35 0 1 1 0 2.7 1.35 1.35 0 0 1 0-2.7M155.25 45.9a1.35 1.35 0 1 1 0 2.7 1.35 1.35 0 0 1 0-2.7M155.25 50.4a1.35 1.35 0 1 1 0 2.7 1.35 1.35 0 0 1 0-2.7M155.25 55.8a1.35 1.35 0 1 1 0 2.7 1.35 1.35 0 0 1 0-2.7M155.25 60.3a1.35 1.35 0 1 1 0 2.7 1.35 1.35 0 0 1 0-2.7M155.25 65.7a1.35 1.35 0 1 1 0 2.7 1.35 1.35 0 0 1 0-2.7M155.25 71.1a1.35 1.35 0 1 1 0 2.7 1.35 1.35 0 0 1 0-2.7M155.25 76.5a1.35 1.35 0 1 1 0 2.7 1.35 1.35 0 0 1 0-2.7M155.25 82.8a1.35 1.35 0 1 1 0 2.7 1.35 1.35 0 0 1 0-2.7M155.25 87.3a1.35 1.35 0 1 1 0 2.7 1.35 1.35 0 0 1 0-2.7M155.25 91.8a1.35 1.35 0 1 1 0 2.7 1.35 1.35 0 0 1 0-2.7M155.25 97.2a1.35 1.35 0 1 1 0 2.7 1.35 1.35 0 0 1 0-2.7M155.25 102.6a1.35 1.35 0 1 1 0 2.7 1.35 1.35 0 0 1 0-2.7M155.25 107.1a1.35 1.35 0 1 1 0 2.7 1.35 1.35 0 0 1 0-2.7M155.25 113.4a1.35 1.35 0 1 1 0 2.7 1.35 1.35 0 0 1 0-2.7M155.25 119.7a1.35 1.35 0 1 1 0 2.7 1.35 1.35 0 0 1 0-2.7M149.85 14.4a1.35 1.35 0 1 1 0 2.7 1.35 1.35 0 0 1 0-2.7M149.85 18.9a1.35 1.35 0 1 1 0 2.7 1.35 1.35 0 0 1 0-2.7M149.85 23.4a1.35 1.35 0 1 1 0 2.7 1.35 1.35 0 0 1 0-2.7M149.85 29.7a1.35 1.35 0 1 1 0 2.7 1.35 1.35 0 0 1 0-2.7M149.85 34.2a1.35 1.35 0 1 1 0 2.7 1.35 1.35 0 0 1 0-2.7M149.85 39.6a1.35 1.35 0 1 1 0 2.7 1.35 1.35 0 0 1 0-2.7M149.85 45.9a1.35 1.35 0 1 1 0 2.7 1.35 1.35 0 0 1 0-2.7M149.85 50.4a1.35 1.35 0 1 1 0 2.7 1.35 1.35 0 0 1 0-2.7M149.85 55.8a1.35 1.35 0 1 1 0 2.7 1.35 1.35 0 0 1 0-2.7M149.85 60.3a1.35 1.35 0 1 1 0 2.7 1.35 1.35 0 0 1 0-2.7M149.85 65.7a1.35 1.35 0 1 1 0 2.7 1.35 1.35 0 0 1 0-2.7M149.85 71.1a1.35 1.35 0 1 1 0 2.7 1.35 1.35 0 0 1 0-2.7M149.85 76.5a1.35 1.35 0 1 1 0 2.7 1.35 1.35 0 0 1 0-2.7M149.85 82.8a1.35 1.35 0 1 1 0 2.7 1.35 1.35 0 0 1 0-2.7M149.85 87.3a1.35 1.35 0 1 1 0 2.7 1.35 1.35 0 0 1 0-2.7M149.85 91.8a1.35 1.35 0 1 1 0 2.7 1.35 1.35 0 0 1 0-2.7M149.85 97.2a1.35 1.35 0 1 1 0 2.7 1.35 1.35 0 0 1 0-2.7M149.85 102.6a1.35 1.35 0 1 1 0 2.7 1.35 1.35 0 0 1 0-2.7M149.85 107.1a1.35 1.35 0 1 1 0 2.7 1.35 1.35 0 0 1 0-2.7M149.85 113.4a1.35 1.35 0 1 1 0 2.7 1.35 1.35 0 0 1 0-2.7M149.85 119.7a1.35 1.35 0 1 1 0 2.7 1.35 1.35 0 0 1 0-2.7M144.45 14.4a1.35 1.35 0 1 1 0 2.7 1.35 1.35 0 0 1 0-2.7M144.45 18.9a1.35 1.35 0 1 1 0 2.7 1.35 1.35 0 0 1 0-2.7M144.45 23.4a1.35 1.35 0 1 1 0 2.7 1.35 1.35 0 0 1 0-2.7M144.45 29.7a1.35 1.35 0 1 1 0 2.7 1.35 1.35 0 0 1 0-2.7M144.45 34.2a1.35 1.35 0 1 1 0 2.7 1.35 1.35 0 0 1 0-2.7M144.45 39.6a1.35 1.35 0 1 1 0 2.7 1.35 1.35 0 0 1 0-2.7M144.45 45.9a1.35 1.35 0 1 1 0 2.7 1.35 1.35 0 0 1 0-2.7M144.45 50.4a1.35 1.35 0 1 1 0 2.7 1.35 1.35 0 0 1 0-2.7M144.45 55.8a1.35 1.35 0 1 1 0 2.7 1.35 1.35 0 0 1 0-2.7M144.45 60.3a1.35 1.35 0 1 1 0 2.7 1.35 1.35 0 0 1 0-2.7M144.45 65.7a1.35 1.35 0 1 1 0 2.7 1.35 1.35 0 0 1 0-2.7M144.45 71.1a1.35 1.35 0 1 1 0 2.7 1.35 1.35 0 0 1 0-2.7M144.45 76.5a1.35 1.35 0 1 1 0 2.7 1.35 1.35 0 0 1 0-2.7M144.45 82.8a1.35 1.35 0 1 1 0 2.7 1.35 1.35 0 0 1 0-2.7M144.45 87.3a1.35 1.35 0 1 1 0 2.7 1.35 1.35 0 0 1 0-2.7M144.45 91.8a1.35 1.35 0 1 1 0 2.7 1.35 1.35 0 0 1 0-2.7M144.45 97.2a1.35 1.35 0 1 1 0 2.7 1.35 1.35 0 0 1 0-2.7M144.45 102.6a1.35 1.35 0 1 1 0 2.7 1.35 1.35 0 0 1 0-2.7M144.45 107.1a1.35 1.35 0 1 1 0 2.7 1.35 1.35 0 0 1 0-2.7M144.45 113.4a1.35 1.35 0 1 1 0 2.7 1.35 1.35 0 0 1 0-2.7M144.45 119.7a1.35 1.35 0 1 1 0 2.7 1.35 1.35 0 0 1 0-2.7M138.15 14.4a1.35 1.35 0 1 1 0 2.7 1.35 1.35 0 0 1 0-2.7M138.15 18.9a1.35 1.35 0 1 1 0 2.7 1.35 1.35 0 0 1 0-2.7M138.15 23.4a1.35 1.35 0 1 1 0 2.7 1.35 1.35 0 0 1 0-2.7M138.15 29.7a1.35 1.35 0 1 1 0 2.7 1.35 1.35 0 0 1 0-2.7M138.15 34.2a1.35 1.35 0 1 1 0 2.7 1.35 1.35 0 0 1 0-2.7M138.15 39.6a1.35 1.35 0 1 1 0 2.7 1.35 1.35 0 0 1 0-2.7M138.15 45.9a1.35 1.35 0 1 1 0 2.7 1.35 1.35 0 0 1 0-2.7M138.15 50.4a1.35 1.35 0 1 1 0 2.7 1.35 1.35 0 0 1 0-2.7M138.15 55.8a1.35 1.35 0 1 1 0 2.7 1.35 1.35 0 0 1 0-2.7M138.15 60.3a1.35 1.35 0 1 1 0 2.7 1.35 1.35 0 0 1 0-2.7M138.15 65.7a1.35 1.35 0 1 1 0 2.7 1.35 1.35 0 0 1 0-2.7M138.15 71.1a1.35 1.35 0 1 1 0 2.7 1.35 1.35 0 0 1 0-2.7M138.15 76.5a1.35 1.35 0 1 1 0 2.7 1.35 1.35 0 0 1 0-2.7M138.15 82.8a1.35 1.35 0 1 1 0 2.7 1.35 1.35 0 0 1 0-2.7M138.15 87.3a1.35 1.35 0 1 1 0 2.7 1.35 1.35 0 0 1 0-2.7M138.15 91.8a1.35 1.35 0 1 1 0 2.7 1.35 1.35 0 0 1 0-2.7M138.15 97.2a1.35 1.35 0 1 1 0 2.7 1.35 1.35 0 0 1 0-2.7M138.15 102.6a1.35 1.35 0 1 1 0 2.7 1.35 1.35 0 0 1 0-2.7M138.15 107.1a1.35 1.35 0 1 1 0 2.7 1.35 1.35 0 0 1 0-2.7M138.15 113.4a1.35 1.35 0 1 1 0 2.7 1.35 1.35 0 0 1 0-2.7M138.15 119.7a1.35 1.35 0 1 1 0 2.7 1.35 1.35 0 0 1 0-2.7M133.65 14.4a1.35 1.35 0 1 1 0 2.7 1.35 1.35 0 0 1 0-2.7M133.65 18.9a1.35 1.35 0 1 1 0 2.7 1.35 1.35 0 0 1 0-2.7M133.65 23.4a1.35 1.35 0 1 1 0 2.7 1.35 1.35 0 0 1 0-2.7M133.65 29.7a1.35 1.35 0 1 1 0 2.7 1.35 1.35 0 0 1 0-2.7M133.65 34.2a1.35 1.35 0 1 1 0 2.7 1.35 1.35 0 0 1 0-2.7M133.65 39.6a1.35 1.35 0 1 1 0 2.7 1.35 1.35 0 0 1 0-2.7M133.65 45.9a1.35 1.35 0 1 1 0 2.7 1.35 1.35 0 0 1 0-2.7M133.65 50.4a1.35 1.35 0 1 1 0 2.7 1.35 1.35 0 0 1 0-2.7M133.65 55.8a1.35 1.35 0 1 1 0 2.7 1.35 1.35 0 0 1 0-2.7M133.65 60.3a1.35 1.35 0 1 1 0 2.7 1.35 1.35 0 0 1 0-2.7M133.65 65.7a1.35 1.35 0 1 1 0 2.7 1.35 1.35 0 0 1 0-2.7M133.65 71.1a1.35 1.35 0 1 1 0 2.7 1.35 1.35 0 0 1 0-2.7M133.65 76.5a1.35 1.35 0 1 1 0 2.7 1.35 1.35 0 0 1 0-2.7M133.65 82.8a1.35 1.35 0 1 1 0 2.7 1.35 1.35 0 0 1 0-2.7M133.65 87.3a1.35 1.35 0 1 1 0 2.7 1.35 1.35 0 0 1 0-2.7M133.65 91.8a1.35 1.35 0 1 1 0 2.7 1.35 1.35 0 0 1 0-2.7M133.65 97.2a1.35 1.35 0 1 1 0 2.7 1.35 1.35 0 0 1 0-2.7M133.65 102.6a1.35 1.35 0 1 1 0 2.7 1.35 1.35 0 0 1 0-2.7M133.65 107.1a1.35 1.35 0 1 1 0 2.7 1.35 1.35 0 0 1 0-2.7M133.65 113.4a1.35 1.35 0 1 1 0 2.7 1.35 1.35 0 0 1 0-2.7M133.65 119.7a1.35 1.35 0 1 1 0 2.7 1.35 1.35 0 0 1 0-2.7M129.15 14.4a1.35 1.35 0 1 1 0 2.7 1.35 1.35 0 0 1 0-2.7M129.15 18.9a1.35 1.35 0 1 1 0 2.7 1.35 1.35 0 0 1 0-2.7M129.15 23.4a1.35 1.35 0 1 1 0 2.7 1.35 1.35 0 0 1 0-2.7M129.15 29.7a1.35 1.35 0 1 1 0 2.7 1.35 1.35 0 0 1 0-2.7M129.15 34.2a1.35 1.35 0 1 1 0 2.7 1.35 1.35 0 0 1 0-2.7M129.15 39.6a1.35 1.35 0 1 1 0 2.7 1.35 1.35 0 0 1 0-2.7M129.15 45.9a1.35 1.35 0 1 1 0 2.7 1.35 1.35 0 0 1 0-2.7M129.15 50.4a1.35 1.35 0 1 1 0 2.7 1.35 1.35 0 0 1 0-2.7M129.15 55.8a1.35 1.35 0 1 1 0 2.7 1.35 1.35 0 0 1 0-2.7M129.15 60.3a1.35 1.35 0 1 1 0 2.7 1.35 1.35 0 0 1 0-2.7M129.15 65.7a1.35 1.35 0 1 1 0 2.7 1.35 1.35 0 0 1 0-2.7M129.15 71.1a1.35 1.35 0 1 1 0 2.7 1.35 1.35 0 0 1 0-2.7M129.15 76.5a1.35 1.35 0 1 1 0 2.7 1.35 1.35 0 0 1 0-2.7M129.15 82.8a1.35 1.35 0 1 1 0 2.7 1.35 1.35 0 0 1 0-2.7M129.15 87.3a1.35 1.35 0 1 1 0 2.7 1.35 1.35 0 0 1 0-2.7M129.15 91.8a1.35 1.35 0 1 1 0 2.7 1.35 1.35 0 0 1 0-2.7M129.15 97.2a1.35 1.35 0 1 1 0 2.7 1.35 1.35 0 0 1 0-2.7M129.15 102.6a1.35 1.35 0 1 1 0 2.7 1.35 1.35 0 0 1 0-2.7M129.15 107.1a1.35 1.35 0 1 1 0 2.7 1.35 1.35 0 0 1 0-2.7M129.15 113.4a1.35 1.35 0 1 1 0 2.7 1.35 1.35 0 0 1 0-2.7M129.15 119.7a1.35 1.35 0 1 1 0 2.7 1.35 1.35 0 0 1 0-2.7M122.85 14.4a1.35 1.35 0 1 1 0 2.7 1.35 1.35 0 0 1 0-2.7M122.85 18.9a1.35 1.35 0 1 1 0 2.7 1.35 1.35 0 0 1 0-2.7M122.85 23.4a1.35 1.35 0 1 1 0 2.7 1.35 1.35 0 0 1 0-2.7M122.85 29.7a1.35 1.35 0 1 1 0 2.7 1.35 1.35 0 0 1 0-2.7M122.85 34.2a1.35 1.35 0 1 1 0 2.7 1.35 1.35 0 0 1 0-2.7M122.85 39.6a1.35 1.35 0 1 1 0 2.7 1.35 1.35 0 0 1 0-2.7M122.85 45.9a1.35 1.35 0 1 1 0 2.7 1.35 1.35 0 0 1 0-2.7M122.85 50.4a1.35 1.35 0 1 1 0 2.7 1.35 1.35 0 0 1 0-2.7M122.85 55.8a1.35 1.35 0 1 1 0 2.7 1.35 1.35 0 0 1 0-2.7M122.85 60.3a1.35 1.35 0 1 1 0 2.7 1.35 1.35 0 0 1 0-2.7M122.85 65.7a1.35 1.35 0 1 1 0 2.7 1.35 1.35 0 0 1 0-2.7M122.85 71.1a1.35 1.35 0 1 1 0 2.7 1.35 1.35 0 0 1 0-2.7M122.85 76.5a1.35 1.35 0 1 1 0 2.7 1.35 1.35 0 0 1 0-2.7M122.85 82.8a1.35 1.35 0 1 1 0 2.7 1.35 1.35 0 0 1 0-2.7M122.85 87.3a1.35 1.35 0 1 1 0 2.7 1.35 1.35 0 0 1 0-2.7M122.85 91.8a1.35 1.35 0 1 1 0 2.7 1.35 1.35 0 0 1 0-2.7M122.85 97.2a1.35 1.35 0 1 1 0 2.7 1.35 1.35 0 0 1 0-2.7M122.85 102.6a1.35 1.35 0 1 1 0 2.7 1.35 1.35 0 0 1 0-2.7M122.85 107.1a1.35 1.35 0 1 1 0 2.7 1.35 1.35 0 0 1 0-2.7M122.85 113.4a1.35 1.35 0 1 1 0 2.7 1.35 1.35 0 0 1 0-2.7M122.85 119.7a1.35 1.35 0 1 1 0 2.7 1.35 1.35 0 0 1 0-2.7M118.35 14.4a1.35 1.35 0 1 1 0 2.7 1.35 1.35 0 0 1 0-2.7M118.35 18.9a1.35 1.35 0 1 1 0 2.7 1.35 1.35 0 0 1 0-2.7M118.35 23.4a1.35 1.35 0 1 1 0 2.7 1.35 1.35 0 0 1 0-2.7M118.35 29.7a1.35 1.35 0 1 1 0 2.7 1.35 1.35 0 0 1 0-2.7M118.35 34.2a1.35 1.35 0 1 1 0 2.7 1.35 1.35 0 0 1 0-2.7M118.35 39.6a1.35 1.35 0 1 1 0 2.7 1.35 1.35 0 0 1 0-2.7M118.35 45.9a1.35 1.35 0 1 1 0 2.7 1.35 1.35 0 0 1 0-2.7M118.35 50.4a1.35 1.35 0 1 1 0 2.7 1.35 1.35 0 0 1 0-2.7M118.35 55.8a1.35 1.35 0 1 1 0 2.7 1.35 1.35 0 0 1 0-2.7M118.35 60.3a1.35 1.35 0 1 1 0 2.7 1.35 1.35 0 0 1 0-2.7M118.35 65.7a1.35 1.35 0 1 1 0 2.7 1.35 1.35 0 0 1 0-2.7M118.35 71.1a1.35 1.35 0 1 1 0 2.7 1.35 1.35 0 0 1 0-2.7M118.35 76.5a1.35 1.35 0 1 1 0 2.7 1.35 1.35 0 0 1 0-2.7M118.35 82.8a1.35 1.35 0 1 1 0 2.7 1.35 1.35 0 0 1 0-2.7M118.35 87.3a1.35 1.35 0 1 1 0 2.7 1.35 1.35 0 0 1 0-2.7M118.35 91.8a1.35 1.35 0 1 1 0 2.7 1.35 1.35 0 0 1 0-2.7M118.35 97.2a1.35 1.35 0 1 1 0 2.7 1.35 1.35 0 0 1 0-2.7M118.35 102.6a1.35 1.35 0 1 1 0 2.7 1.35 1.35 0 0 1 0-2.7M118.35 107.1a1.35 1.35 0 1 1 0 2.7 1.35 1.35 0 0 1 0-2.7M118.35 113.4a1.35 1.35 0 1 1 0 2.7 1.35 1.35 0 0 1 0-2.7M118.35 119.7a1.35 1.35 0 1 1 0 2.7 1.35 1.35 0 0 1 0-2.7M113.85 14.4a1.35 1.35 0 1 1 0 2.7 1.35 1.35 0 0 1 0-2.7M113.85 18.9a1.35 1.35 0 1 1 0 2.7 1.35 1.35 0 0 1 0-2.7M113.85 23.4a1.35 1.35 0 1 1 0 2.7 1.35 1.35 0 0 1 0-2.7M113.85 29.7a1.35 1.35 0 1 1 0 2.7 1.35 1.35 0 0 1 0-2.7M113.85 34.2a1.35 1.35 0 1 1 0 2.7 1.35 1.35 0 0 1 0-2.7M113.85 39.6a1.35 1.35 0 1 1 0 2.7 1.35 1.35 0 0 1 0-2.7M113.85 45.9a1.35 1.35 0 1 1 0 2.7 1.35 1.35 0 0 1 0-2.7M113.85 50.4a1.35 1.35 0 1 1 0 2.7 1.35 1.35 0 0 1 0-2.7M113.85 55.8a1.35 1.35 0 1 1 0 2.7 1.35 1.35 0 0 1 0-2.7M113.85 60.3a1.35 1.35 0 1 1 0 2.7 1.35 1.35 0 0 1 0-2.7M113.85 65.7a1.35 1.35 0 1 1 0 2.7 1.35 1.35 0 0 1 0-2.7M113.85 71.1a1.35 1.35 0 1 1 0 2.7 1.35 1.35 0 0 1 0-2.7M113.85 76.5a1.35 1.35 0 1 1 0 2.7 1.35 1.35 0 0 1 0-2.7M113.85 82.8a1.35 1.35 0 1 1 0 2.7 1.35 1.35 0 0 1 0-2.7M113.85 87.3a1.35 1.35 0 1 1 0 2.7 1.35 1.35 0 0 1 0-2.7M113.85 91.8a1.35 1.35 0 1 1 0 2.7 1.35 1.35 0 0 1 0-2.7M113.85 97.2a1.35 1.35 0 1 1 0 2.7 1.35 1.35 0 0 1 0-2.7M113.85 102.6a1.35 1.35 0 1 1 0 2.7 1.35 1.35 0 0 1 0-2.7M113.85 107.1a1.35 1.35 0 1 1 0 2.7 1.35 1.35 0 0 1 0-2.7M113.85 113.4a1.35 1.35 0 1 1 0 2.7 1.35 1.35 0 0 1 0-2.7M113.85 119.7a1.35 1.35 0 1 1 0 2.7 1.35 1.35 0 0 1 0-2.7M108.45 14.4a1.35 1.35 0 1 1 0 2.7 1.35 1.35 0 0 1 0-2.7M108.45 18.9a1.35 1.35 0 1 1 0 2.7 1.35 1.35 0 0 1 0-2.7M108.45 23.4a1.35 1.35 0 1 1 0 2.7 1.35 1.35 0 0 1 0-2.7M108.45 29.7a1.35 1.35 0 1 1 0 2.7 1.35 1.35 0 0 1 0-2.7M108.45 34.2a1.35 1.35 0 1 1 0 2.7 1.35 1.35 0 0 1 0-2.7M108.45 39.6a1.35 1.35 0 1 1 0 2.7 1.35 1.35 0 0 1 0-2.7M108.45 45.9a1.35 1.35 0 1 1 0 2.7 1.35 1.35 0 0 1 0-2.7M108.45 50.4a1.35 1.35 0 1 1 0 2.7 1.35 1.35 0 0 1 0-2.7M108.45 55.8a1.35 1.35 0 1 1 0 2.7 1.35 1.35 0 0 1 0-2.7M108.45 60.3a1.35 1.35 0 1 1 0 2.7 1.35 1.35 0 0 1 0-2.7M108.45 65.7a1.35 1.35 0 1 1 0 2.7 1.35 1.35 0 0 1 0-2.7M108.45 71.1a1.35 1.35 0 1 1 0 2.7 1.35 1.35 0 0 1 0-2.7M108.45 76.5a1.35 1.35 0 1 1 0 2.7 1.35 1.35 0 0 1 0-2.7M108.45 82.8a1.35 1.35 0 1 1 0 2.7 1.35 1.35 0 0 1 0-2.7M108.45 87.3a1.35 1.35 0 1 1 0 2.7 1.35 1.35 0 0 1 0-2.7M108.45 91.8a1.35 1.35 0 1 1 0 2.7 1.35 1.35 0 0 1 0-2.7M108.45 97.2a1.35 1.35 0 1 1 0 2.7 1.35 1.35 0 0 1 0-2.7M108.45 102.6a1.35 1.35 0 1 1 0 2.7 1.35 1.35 0 0 1 0-2.7M108.45 107.1a1.35 1.35 0 1 1 0 2.7 1.35 1.35 0 0 1 0-2.7M108.45 113.4a1.35 1.35 0 1 1 0 2.7 1.35 1.35 0 0 1 0-2.7M108.45 119.7a1.35 1.35 0 1 1 0 2.7 1.35 1.35 0 0 1 0-2.7M102.15 14.4a1.35 1.35 0 1 1 0 2.7 1.35 1.35 0 0 1 0-2.7M102.15 18.9a1.35 1.35 0 1 1 0 2.7 1.35 1.35 0 0 1 0-2.7M102.15 23.4a1.35 1.35 0 1 1 0 2.7 1.35 1.35 0 0 1 0-2.7M102.15 29.7a1.35 1.35 0 1 1 0 2.7 1.35 1.35 0 0 1 0-2.7M102.15 34.2a1.35 1.35 0 1 1 0 2.7 1.35 1.35 0 0 1 0-2.7M102.15 39.6a1.35 1.35 0 1 1 0 2.7 1.35 1.35 0 0 1 0-2.7M102.15 45.9a1.35 1.35 0 1 1 0 2.7 1.35 1.35 0 0 1 0-2.7M102.15 50.4a1.35 1.35 0 1 1 0 2.7 1.35 1.35 0 0 1 0-2.7M102.15 55.8a1.35 1.35 0 1 1 0 2.7 1.35 1.35 0 0 1 0-2.7M102.15 60.3a1.35 1.35 0 1 1 0 2.7 1.35 1.35 0 0 1 0-2.7M102.15 65.7a1.35 1.35 0 1 1 0 2.7 1.35 1.35 0 0 1 0-2.7M102.15 71.1a1.35 1.35 0 1 1 0 2.7 1.35 1.35 0 0 1 0-2.7M102.15 76.5a1.35 1.35 0 1 1 0 2.7 1.35 1.35 0 0 1 0-2.7M102.15 82.8a1.35 1.35 0 1 1 0 2.7 1.35 1.35 0 0 1 0-2.7M102.15 87.3a1.35 1.35 0 1 1 0 2.7 1.35 1.35 0 0 1 0-2.7M102.15 91.8a1.35 1.35 0 1 1 0 2.7 1.35 1.35 0 0 1 0-2.7M102.15 97.2a1.35 1.35 0 1 1 0 2.7 1.35 1.35 0 0 1 0-2.7M102.15 102.6a1.35 1.35 0 1 1 0 2.7 1.35 1.35 0 0 1 0-2.7M102.15 107.1a1.35 1.35 0 1 1 0 2.7 1.35 1.35 0 0 1 0-2.7M102.15 113.4a1.35 1.35 0 1 1 0 2.7 1.35 1.35 0 0 1 0-2.7M102.15 119.7a1.35 1.35 0 1 1 0 2.7 1.35 1.35 0 0 1 0-2.7M96.75 14.4a1.35 1.35 0 1 1 0 2.7 1.35 1.35 0 0 1 0-2.7M96.75 18.9a1.35 1.35 0 1 1 0 2.7 1.35 1.35 0 0 1 0-2.7M96.75 23.4a1.35 1.35 0 1 1 0 2.7 1.35 1.35 0 0 1 0-2.7M96.75 29.7a1.35 1.35 0 1 1 0 2.7 1.35 1.35 0 0 1 0-2.7M96.75 34.2a1.35 1.35 0 1 1 0 2.7 1.35 1.35 0 0 1 0-2.7M96.75 39.6a1.35 1.35 0 1 1 0 2.7 1.35 1.35 0 0 1 0-2.7M96.75 45.9a1.35 1.35 0 1 1 0 2.7 1.35 1.35 0 0 1 0-2.7M96.75 50.4a1.35 1.35 0 1 1 0 2.7 1.35 1.35 0 0 1 0-2.7M96.75 55.8a1.35 1.35 0 1 1 0 2.7 1.35 1.35 0 0 1 0-2.7M96.75 60.3a1.35 1.35 0 1 1 0 2.7 1.35 1.35 0 0 1 0-2.7M96.75 65.7a1.35 1.35 0 1 1 0 2.7 1.35 1.35 0 0 1 0-2.7M96.75 71.1a1.35 1.35 0 1 1 0 2.7 1.35 1.35 0 0 1 0-2.7M96.75 76.5a1.35 1.35 0 1 1 0 2.7 1.35 1.35 0 0 1 0-2.7M96.75 82.8a1.35 1.35 0 1 1 0 2.7 1.35 1.35 0 0 1 0-2.7M96.75 87.3a1.35 1.35 0 1 1 0 2.7 1.35 1.35 0 0 1 0-2.7M96.75 91.8a1.35 1.35 0 1 1 0 2.7 1.35 1.35 0 0 1 0-2.7M96.75 97.2a1.35 1.35 0 1 1 0 2.7 1.35 1.35 0 0 1 0-2.7M96.75 102.6a1.35 1.35 0 1 1 0 2.7 1.35 1.35 0 0 1 0-2.7M96.75 107.1a1.35 1.35 0 1 1 0 2.7 1.35 1.35 0 0 1 0-2.7M96.75 113.4a1.35 1.35 0 1 1 0 2.7 1.35 1.35 0 0 1 0-2.7M96.75 119.7a1.35 1.35 0 1 1 0 2.7 1.35 1.35 0 0 1 0-2.7M92.25 14.4a1.35 1.35 0 1 1 0 2.7 1.35 1.35 0 0 1 0-2.7M92.25 18.9a1.35 1.35 0 1 1 0 2.7 1.35 1.35 0 0 1 0-2.7M92.25 23.4a1.35 1.35 0 1 1 0 2.7 1.35 1.35 0 0 1 0-2.7M92.25 29.7a1.35 1.35 0 1 1 0 2.7 1.35 1.35 0 0 1 0-2.7M92.25 34.2a1.35 1.35 0 1 1 0 2.7 1.35 1.35 0 0 1 0-2.7M92.25 39.6a1.35 1.35 0 1 1 0 2.7 1.35 1.35 0 0 1 0-2.7M92.25 45.9a1.35 1.35 0 1 1 0 2.7 1.35 1.35 0 0 1 0-2.7M92.25 50.4a1.35 1.35 0 1 1 0 2.7 1.35 1.35 0 0 1 0-2.7M92.25 55.8a1.35 1.35 0 1 1 0 2.7 1.35 1.35 0 0 1 0-2.7M92.25 60.3a1.35 1.35 0 1 1 0 2.7 1.35 1.35 0 0 1 0-2.7M92.25 65.7a1.35 1.35 0 1 1 0 2.7 1.35 1.35 0 0 1 0-2.7M92.25 71.1a1.35 1.35 0 1 1 0 2.7 1.35 1.35 0 0 1 0-2.7M92.25 76.5a1.35 1.35 0 1 1 0 2.7 1.35 1.35 0 0 1 0-2.7M92.25 82.8a1.35 1.35 0 1 1 0 2.7 1.35 1.35 0 0 1 0-2.7M92.25 87.3a1.35 1.35 0 1 1 0 2.7 1.35 1.35 0 0 1 0-2.7M92.25 91.8a1.35 1.35 0 1 1 0 2.7 1.35 1.35 0 0 1 0-2.7M92.25 97.2a1.35 1.35 0 1 1 0 2.7 1.35 1.35 0 0 1 0-2.7M92.25 102.6a1.35 1.35 0 1 1 0 2.7 1.35 1.35 0 0 1 0-2.7M92.25 107.1a1.35 1.35 0 1 1 0 2.7 1.35 1.35 0 0 1 0-2.7M92.25 113.4a1.35 1.35 0 1 1 0 2.7 1.35 1.35 0 0 1 0-2.7M92.25 119.7a1.35 1.35 0 1 1 0 2.7 1.35 1.35 0 0 1 0-2.7M87.75 14.4a1.35 1.35 0 1 1 0 2.7 1.35 1.35 0 0 1 0-2.7M87.75 18.9a1.35 1.35 0 1 1 0 2.7 1.35 1.35 0 0 1 0-2.7M87.75 23.4a1.35 1.35 0 1 1 0 2.7 1.35 1.35 0 0 1 0-2.7M87.75 29.7a1.35 1.35 0 1 1 0 2.7 1.35 1.35 0 0 1 0-2.7M87.75 34.2a1.35 1.35 0 1 1 0 2.7 1.35 1.35 0 0 1 0-2.7M87.75 39.6a1.35 1.35 0 1 1 0 2.7 1.35 1.35 0 0 1 0-2.7M87.75 45.9a1.35 1.35 0 1 1 0 2.7 1.35 1.35 0 0 1 0-2.7M87.75 50.4a1.35 1.35 0 1 1 0 2.7 1.35 1.35 0 0 1 0-2.7M87.75 55.8a1.35 1.35 0 1 1 0 2.7 1.35 1.35 0 0 1 0-2.7M87.75 60.3a1.35 1.35 0 1 1 0 2.7 1.35 1.35 0 0 1 0-2.7M87.75 65.7a1.35 1.35 0 1 1 0 2.7 1.35 1.35 0 0 1 0-2.7M87.75 71.1a1.35 1.35 0 1 1 0 2.7 1.35 1.35 0 0 1 0-2.7M87.75 76.5a1.35 1.35 0 1 1 0 2.7 1.35 1.35 0 0 1 0-2.7M87.75 82.8a1.35 1.35 0 1 1 0 2.7 1.35 1.35 0 0 1 0-2.7M87.75 87.3a1.35 1.35 0 1 1 0 2.7 1.35 1.35 0 0 1 0-2.7M87.75 91.8a1.35 1.35 0 1 1 0 2.7 1.35 1.35 0 0 1 0-2.7M87.75 97.2a1.35 1.35 0 1 1 0 2.7 1.35 1.35 0 0 1 0-2.7M87.75 102.6a1.35 1.35 0 1 1 0 2.7 1.35 1.35 0 0 1 0-2.7M87.75 107.1a1.35 1.35 0 1 1 0 2.7 1.35 1.35 0 0 1 0-2.7M87.75 113.4a1.35 1.35 0 1 1 0 2.7 1.35 1.35 0 0 1 0-2.7M87.75 119.7a1.35 1.35 0 1 1 0 2.7 1.35 1.35 0 0 1 0-2.7M81.45 14.4a1.35 1.35 0 1 1 0 2.7 1.35 1.35 0 0 1 0-2.7M81.45 18.9a1.35 1.35 0 1 1 0 2.7 1.35 1.35 0 0 1 0-2.7M81.45 23.4a1.35 1.35 0 1 1 0 2.7 1.35 1.35 0 0 1 0-2.7M81.45 29.7a1.35 1.35 0 1 1 0 2.7 1.35 1.35 0 0 1 0-2.7M81.45 34.2a1.35 1.35 0 1 1 0 2.7 1.35 1.35 0 0 1 0-2.7M81.45 39.6a1.35 1.35 0 1 1 0 2.7 1.35 1.35 0 0 1 0-2.7M81.45 45.9a1.35 1.35 0 1 1 0 2.7 1.35 1.35 0 0 1 0-2.7M81.45 50.4a1.35 1.35 0 1 1 0 2.7 1.35 1.35 0 0 1 0-2.7M81.45 55.8a1.35 1.35 0 1 1 0 2.7 1.35 1.35 0 0 1 0-2.7M81.45 60.3a1.35 1.35 0 1 1 0 2.7 1.35 1.35 0 0 1 0-2.7M81.45 65.7a1.35 1.35 0 1 1 0 2.7 1.35 1.35 0 0 1 0-2.7M81.45 71.1a1.35 1.35 0 1 1 0 2.7 1.35 1.35 0 0 1 0-2.7M81.45 76.5a1.35 1.35 0 1 1 0 2.7 1.35 1.35 0 0 1 0-2.7M81.45 82.8a1.35 1.35 0 1 1 0 2.7 1.35 1.35 0 0 1 0-2.7M81.45 87.3a1.35 1.35 0 1 1 0 2.7 1.35 1.35 0 0 1 0-2.7M81.45 91.8a1.35 1.35 0 1 1 0 2.7 1.35 1.35 0 0 1 0-2.7M81.45 97.2a1.35 1.35 0 1 1 0 2.7 1.35 1.35 0 0 1 0-2.7M81.45 102.6a1.35 1.35 0 1 1 0 2.7 1.35 1.35 0 0 1 0-2.7M81.45 107.1a1.35 1.35 0 1 1 0 2.7 1.35 1.35 0 0 1 0-2.7M81.45 113.4a1.35 1.35 0 1 1 0 2.7 1.35 1.35 0 0 1 0-2.7M81.45 119.7a1.35 1.35 0 1 1 0 2.7 1.35 1.35 0 0 1 0-2.7M76.95 14.4a1.35 1.35 0 1 1 0 2.7 1.35 1.35 0 0 1 0-2.7M76.95 18.9a1.35 1.35 0 1 1 0 2.7 1.35 1.35 0 0 1 0-2.7M76.95 23.4a1.35 1.35 0 1 1 0 2.7 1.35 1.35 0 0 1 0-2.7M76.95 29.7a1.35 1.35 0 1 1 0 2.7 1.35 1.35 0 0 1 0-2.7M76.95 34.2a1.35 1.35 0 1 1 0 2.7 1.35 1.35 0 0 1 0-2.7M76.95 39.6a1.35 1.35 0 1 1 0 2.7 1.35 1.35 0 0 1 0-2.7M76.95 45.9a1.35 1.35 0 1 1 0 2.7 1.35 1.35 0 0 1 0-2.7M76.95 50.4a1.35 1.35 0 1 1 0 2.7 1.35 1.35 0 0 1 0-2.7M76.95 55.8a1.35 1.35 0 1 1 0 2.7 1.35 1.35 0 0 1 0-2.7M76.95 60.3a1.35 1.35 0 1 1 0 2.7 1.35 1.35 0 0 1 0-2.7M76.95 65.7a1.35 1.35 0 1 1 0 2.7 1.35 1.35 0 0 1 0-2.7M76.95 71.1a1.35 1.35 0 1 1 0 2.7 1.35 1.35 0 0 1 0-2.7M76.95 76.5a1.35 1.35 0 1 1 0 2.7 1.35 1.35 0 0 1 0-2.7M76.95 82.8a1.35 1.35 0 1 1 0 2.7 1.35 1.35 0 0 1 0-2.7M76.95 87.3a1.35 1.35 0 1 1 0 2.7 1.35 1.35 0 0 1 0-2.7M76.95 91.8a1.35 1.35 0 1 1 0 2.7 1.35 1.35 0 0 1 0-2.7M76.95 97.2a1.35 1.35 0 1 1 0 2.7 1.35 1.35 0 0 1 0-2.7M76.95 102.6a1.35 1.35 0 1 1 0 2.7 1.35 1.35 0 0 1 0-2.7M76.95 107.1a1.35 1.35 0 1 1 0 2.7 1.35 1.35 0 0 1 0-2.7M76.95 113.4a1.35 1.35 0 1 1 0 2.7 1.35 1.35 0 0 1 0-2.7M76.95 119.7a1.35 1.35 0 1 1 0 2.7 1.35 1.35 0 0 1 0-2.7M72.45 14.4a1.35 1.35 0 1 1 0 2.7 1.35 1.35 0 0 1 0-2.7M72.45 18.9a1.35 1.35 0 1 1 0 2.7 1.35 1.35 0 0 1 0-2.7M72.45 23.4a1.35 1.35 0 1 1 0 2.7 1.35 1.35 0 0 1 0-2.7M72.45 29.7a1.35 1.35 0 1 1 0 2.7 1.35 1.35 0 0 1 0-2.7M72.45 34.2a1.35 1.35 0 1 1 0 2.7 1.35 1.35 0 0 1 0-2.7M72.45 39.6a1.35 1.35 0 1 1 0 2.7 1.35 1.35 0 0 1 0-2.7M72.45 45.9a1.35 1.35 0 1 1 0 2.7 1.35 1.35 0 0 1 0-2.7M72.45 50.4a1.35 1.35 0 1 1 0 2.7 1.35 1.35 0 0 1 0-2.7M72.45 55.8a1.35 1.35 0 1 1 0 2.7 1.35 1.35 0 0 1 0-2.7M72.45 60.3a1.35 1.35 0 1 1 0 2.7 1.35 1.35 0 0 1 0-2.7M72.45 65.7a1.35 1.35 0 1 1 0 2.7 1.35 1.35 0 0 1 0-2.7M72.45 71.1a1.35 1.35 0 1 1 0 2.7 1.35 1.35 0 0 1 0-2.7M72.45 76.5a1.35 1.35 0 1 1 0 2.7 1.35 1.35 0 0 1 0-2.7M72.45 82.8a1.35 1.35 0 1 1 0 2.7 1.35 1.35 0 0 1 0-2.7M72.45 87.3a1.35 1.35 0 1 1 0 2.7 1.35 1.35 0 0 1 0-2.7M72.45 91.8a1.35 1.35 0 1 1 0 2.7 1.35 1.35 0 0 1 0-2.7M72.45 97.2a1.35 1.35 0 1 1 0 2.7 1.35 1.35 0 0 1 0-2.7M72.45 102.6a1.35 1.35 0 1 1 0 2.7 1.35 1.35 0 0 1 0-2.7M72.45 107.1a1.35 1.35 0 1 1 0 2.7 1.35 1.35 0 0 1 0-2.7M72.45 113.4a1.35 1.35 0 1 1 0 2.7 1.35 1.35 0 0 1 0-2.7M72.45 119.7a1.35 1.35 0 1 1 0 2.7 1.35 1.35 0 0 1 0-2.7M65.25 14.4a1.35 1.35 0 1 1 0 2.7 1.35 1.35 0 0 1 0-2.7M65.25 18.9a1.35 1.35 0 1 1 0 2.7 1.35 1.35 0 0 1 0-2.7M65.25 23.4a1.35 1.35 0 1 1 0 2.7 1.35 1.35 0 0 1 0-2.7M65.25 29.7a1.35 1.35 0 1 1 0 2.7 1.35 1.35 0 0 1 0-2.7M65.25 34.2a1.35 1.35 0 1 1 0 2.7 1.35 1.35 0 0 1 0-2.7M65.25 39.6a1.35 1.35 0 1 1 0 2.7 1.35 1.35 0 0 1 0-2.7M65.25 45.9a1.35 1.35 0 1 1 0 2.7 1.35 1.35 0 0 1 0-2.7M65.25 50.4a1.35 1.35 0 1 1 0 2.7 1.35 1.35 0 0 1 0-2.7M65.25 55.8a1.35 1.35 0 1 1 0 2.7 1.35 1.35 0 0 1 0-2.7M65.25 60.3a1.35 1.35 0 1 1 0 2.7 1.35 1.35 0 0 1 0-2.7M65.25 65.7a1.35 1.35 0 1 1 0 2.7 1.35 1.35 0 0 1 0-2.7M65.25 71.1a1.35 1.35 0 1 1 0 2.7 1.35 1.35 0 0 1 0-2.7M65.25 76.5a1.35 1.35 0 1 1 0 2.7 1.35 1.35 0 0 1 0-2.7M65.25 82.8a1.35 1.35 0 1 1 0 2.7 1.35 1.35 0 0 1 0-2.7M65.25 87.3a1.35 1.35 0 1 1 0 2.7 1.35 1.35 0 0 1 0-2.7M65.25 91.8a1.35 1.35 0 1 1 0 2.7 1.35 1.35 0 0 1 0-2.7M65.25 97.2a1.35 1.35 0 1 1 0 2.7 1.35 1.35 0 0 1 0-2.7M65.25 102.6a1.35 1.35 0 1 1 0 2.7 1.35 1.35 0 0 1 0-2.7M65.25 107.1a1.35 1.35 0 1 1 0 2.7 1.35 1.35 0 0 1 0-2.7M65.25 113.4a1.35 1.35 0 1 1 0 2.7 1.35 1.35 0 0 1 0-2.7M65.25 119.7a1.35 1.35 0 1 1 0 2.7 1.35 1.35 0 0 1 0-2.7M60.75 14.4a1.35 1.35 0 1 1 0 2.7 1.35 1.35 0 0 1 0-2.7M60.75 18.9a1.35 1.35 0 1 1 0 2.7 1.35 1.35 0 0 1 0-2.7M60.75 23.4a1.35 1.35 0 1 1 0 2.7 1.35 1.35 0 0 1 0-2.7M60.75 29.7a1.35 1.35 0 1 1 0 2.7 1.35 1.35 0 0 1 0-2.7M60.75 34.2a1.35 1.35 0 1 1 0 2.7 1.35 1.35 0 0 1 0-2.7M60.75 39.6a1.35 1.35 0 1 1 0 2.7 1.35 1.35 0 0 1 0-2.7M60.75 45.9a1.35 1.35 0 1 1 0 2.7 1.35 1.35 0 0 1 0-2.7M60.75 50.4a1.35 1.35 0 1 1 0 2.7 1.35 1.35 0 0 1 0-2.7M60.75 55.8a1.35 1.35 0 1 1 0 2.7 1.35 1.35 0 0 1 0-2.7M60.75 60.3a1.35 1.35 0 1 1 0 2.7 1.35 1.35 0 0 1 0-2.7M60.75 65.7a1.35 1.35 0 1 1 0 2.7 1.35 1.35 0 0 1 0-2.7M60.75 71.1a1.35 1.35 0 1 1 0 2.7 1.35 1.35 0 0 1 0-2.7M60.75 76.5a1.35 1.35 0 1 1 0 2.7 1.35 1.35 0 0 1 0-2.7M60.75 82.8a1.35 1.35 0 1 1 0 2.7 1.35 1.35 0 0 1 0-2.7M60.75 87.3a1.35 1.35 0 1 1 0 2.7 1.35 1.35 0 0 1 0-2.7M60.75 91.8a1.35 1.35 0 1 1 0 2.7 1.35 1.35 0 0 1 0-2.7M60.75 97.2a1.35 1.35 0 1 1 0 2.7 1.35 1.35 0 0 1 0-2.7M60.75 102.6a1.35 1.35 0 1 1 0 2.7 1.35 1.35 0 0 1 0-2.7M60.75 107.1a1.35 1.35 0 1 1 0 2.7 1.35 1.35 0 0 1 0-2.7M60.75 113.4a1.35 1.35 0 1 1 0 2.7 1.35 1.35 0 0 1 0-2.7M60.75 119.7a1.35 1.35 0 1 1 0 2.7 1.35 1.35 0 0 1 0-2.7M55.35 14.4a1.35 1.35 0 1 1 0 2.7 1.35 1.35 0 0 1 0-2.7M55.35 18.9a1.35 1.35 0 1 1 0 2.7 1.35 1.35 0 0 1 0-2.7M55.35 23.4a1.35 1.35 0 1 1 0 2.7 1.35 1.35 0 0 1 0-2.7M55.35 29.7a1.35 1.35 0 1 1 0 2.7 1.35 1.35 0 0 1 0-2.7M55.35 34.2a1.35 1.35 0 1 1 0 2.7 1.35 1.35 0 0 1 0-2.7M55.35 39.6a1.35 1.35 0 1 1 0 2.7 1.35 1.35 0 0 1 0-2.7M55.35 45.9a1.35 1.35 0 1 1 0 2.7 1.35 1.35 0 0 1 0-2.7M55.35 50.4a1.35 1.35 0 1 1 0 2.7 1.35 1.35 0 0 1 0-2.7M55.35 55.8a1.35 1.35 0 1 1 0 2.7 1.35 1.35 0 0 1 0-2.7M55.35 60.3a1.35 1.35 0 1 1 0 2.7 1.35 1.35 0 0 1 0-2.7M55.35 65.7a1.35 1.35 0 1 1 0 2.7 1.35 1.35 0 0 1 0-2.7M55.35 71.1a1.35 1.35 0 1 1 0 2.7 1.35 1.35 0 0 1 0-2.7M55.35 76.5a1.35 1.35 0 1 1 0 2.7 1.35 1.35 0 0 1 0-2.7M55.35 82.8a1.35 1.35 0 1 1 0 2.7 1.35 1.35 0 0 1 0-2.7M55.35 87.3a1.35 1.35 0 1 1 0 2.7 1.35 1.35 0 0 1 0-2.7M55.35 91.8a1.35 1.35 0 1 1 0 2.7 1.35 1.35 0 0 1 0-2.7M55.35 97.2a1.35 1.35 0 1 1 0 2.7 1.35 1.35 0 0 1 0-2.7M55.35 102.6a1.35 1.35 0 1 1 0 2.7 1.35 1.35 0 0 1 0-2.7M55.35 107.1a1.35 1.35 0 1 1 0 2.7 1.35 1.35 0 0 1 0-2.7M55.35 113.4a1.35 1.35 0 1 1 0 2.7 1.35 1.35 0 0 1 0-2.7M55.35 119.7a1.35 1.35 0 1 1 0 2.7 1.35 1.35 0 0 1 0-2.7M50.85 14.4a1.35 1.35 0 1 1 0 2.7 1.35 1.35 0 0 1 0-2.7M50.85 18.9a1.35 1.35 0 1 1 0 2.7 1.35 1.35 0 0 1 0-2.7M50.85 23.4a1.35 1.35 0 1 1 0 2.7 1.35 1.35 0 0 1 0-2.7M50.85 29.7a1.35 1.35 0 1 1 0 2.7 1.35 1.35 0 0 1 0-2.7M50.85 34.2a1.35 1.35 0 1 1 0 2.7 1.35 1.35 0 0 1 0-2.7M50.85 39.6a1.35 1.35 0 1 1 0 2.7 1.35 1.35 0 0 1 0-2.7M50.85 45.9a1.35 1.35 0 1 1 0 2.7 1.35 1.35 0 0 1 0-2.7M50.85 50.4a1.35 1.35 0 1 1 0 2.7 1.35 1.35 0 0 1 0-2.7M50.85 55.8a1.35 1.35 0 1 1 0 2.7 1.35 1.35 0 0 1 0-2.7M50.85 60.3a1.35 1.35 0 1 1 0 2.7 1.35 1.35 0 0 1 0-2.7M50.85 65.7a1.35 1.35 0 1 1 0 2.7 1.35 1.35 0 0 1 0-2.7M50.85 71.1a1.35 1.35 0 1 1 0 2.7 1.35 1.35 0 0 1 0-2.7M50.85 76.5a1.35 1.35 0 1 1 0 2.7 1.35 1.35 0 0 1 0-2.7M50.85 82.8a1.35 1.35 0 1 1 0 2.7 1.35 1.35 0 0 1 0-2.7M50.85 87.3a1.35 1.35 0 1 1 0 2.7 1.35 1.35 0 0 1 0-2.7M50.85 91.8a1.35 1.35 0 1 1 0 2.7 1.35 1.35 0 0 1 0-2.7M50.85 97.2a1.35 1.35 0 1 1 0 2.7 1.35 1.35 0 0 1 0-2.7M50.85 102.6a1.35 1.35 0 1 1 0 2.7 1.35 1.35 0 0 1 0-2.7M50.85 107.1a1.35 1.35 0 1 1 0 2.7 1.35 1.35 0 0 1 0-2.7M50.85 113.4a1.35 1.35 0 1 1 0 2.7 1.35 1.35 0 0 1 0-2.7M50.85 119.7a1.35 1.35 0 1 1 0 2.7 1.35 1.35 0 0 1 0-2.7M44.55 14.4a1.35 1.35 0 1 1 0 2.7 1.35 1.35 0 0 1 0-2.7M44.55 18.9a1.35 1.35 0 1 1 0 2.7 1.35 1.35 0 0 1 0-2.7M44.55 23.4a1.35 1.35 0 1 1 0 2.7 1.35 1.35 0 0 1 0-2.7M44.55 29.7a1.35 1.35 0 1 1 0 2.7 1.35 1.35 0 0 1 0-2.7M44.55 34.2a1.35 1.35 0 1 1 0 2.7 1.35 1.35 0 0 1 0-2.7M44.55 39.6a1.35 1.35 0 1 1 0 2.7 1.35 1.35 0 0 1 0-2.7M44.55 45.9a1.35 1.35 0 1 1 0 2.7 1.35 1.35 0 0 1 0-2.7M44.55 50.4a1.35 1.35 0 1 1 0 2.7 1.35 1.35 0 0 1 0-2.7M44.55 55.8a1.35 1.35 0 1 1 0 2.7 1.35 1.35 0 0 1 0-2.7M44.55 60.3a1.35 1.35 0 1 1 0 2.7 1.35 1.35 0 0 1 0-2.7M44.55 65.7a1.35 1.35 0 1 1 0 2.7 1.35 1.35 0 0 1 0-2.7M44.55 71.1a1.35 1.35 0 1 1 0 2.7 1.35 1.35 0 0 1 0-2.7M44.55 76.5a1.35 1.35 0 1 1 0 2.7 1.35 1.35 0 0 1 0-2.7M44.55 82.8a1.35 1.35 0 1 1 0 2.7 1.35 1.35 0 0 1 0-2.7M44.55 87.3a1.35 1.35 0 1 1 0 2.7 1.35 1.35 0 0 1 0-2.7M44.55 91.8a1.35 1.35 0 1 1 0 2.7 1.35 1.35 0 0 1 0-2.7M44.55 97.2a1.35 1.35 0 1 1 0 2.7 1.35 1.35 0 0 1 0-2.7M44.55 102.6a1.35 1.35 0 1 1 0 2.7 1.35 1.35 0 0 1 0-2.7M44.55 107.1a1.35 1.35 0 1 1 0 2.7 1.35 1.35 0 0 1 0-2.7M44.55 113.4a1.35 1.35 0 1 1 0 2.7 1.35 1.35 0 0 1 0-2.7M44.55 119.7a1.35 1.35 0 1 1 0 2.7 1.35 1.35 0 0 1 0-2.7M40.05 14.4a1.35 1.35 0 1 1 0 2.7 1.35 1.35 0 0 1 0-2.7M40.05 18.9a1.35 1.35 0 1 1 0 2.7 1.35 1.35 0 0 1 0-2.7M40.05 23.4a1.35 1.35 0 1 1 0 2.7 1.35 1.35 0 0 1 0-2.7M40.05 29.7a1.35 1.35 0 1 1 0 2.7 1.35 1.35 0 0 1 0-2.7M40.05 34.2a1.35 1.35 0 1 1 0 2.7 1.35 1.35 0 0 1 0-2.7M40.05 39.6a1.35 1.35 0 1 1 0 2.7 1.35 1.35 0 0 1 0-2.7M40.05 45.9a1.35 1.35 0 1 1 0 2.7 1.35 1.35 0 0 1 0-2.7M40.05 50.4a1.35 1.35 0 1 1 0 2.7 1.35 1.35 0 0 1 0-2.7M40.05 55.8a1.35 1.35 0 1 1 0 2.7 1.35 1.35 0 0 1 0-2.7M40.05 60.3a1.35 1.35 0 1 1 0 2.7 1.35 1.35 0 0 1 0-2.7M40.05 65.7a1.35 1.35 0 1 1 0 2.7 1.35 1.35 0 0 1 0-2.7M40.05 71.1a1.35 1.35 0 1 1 0 2.7 1.35 1.35 0 0 1 0-2.7M40.05 76.5a1.35 1.35 0 1 1 0 2.7 1.35 1.35 0 0 1 0-2.7M40.05 82.8a1.35 1.35 0 1 1 0 2.7 1.35 1.35 0 0 1 0-2.7M40.05 87.3a1.35 1.35 0 1 1 0 2.7 1.35 1.35 0 0 1 0-2.7M40.05 91.8a1.35 1.35 0 1 1 0 2.7 1.35 1.35 0 0 1 0-2.7M40.05 97.2a1.35 1.35 0 1 1 0 2.7 1.35 1.35 0 0 1 0-2.7M40.05 102.6a1.35 1.35 0 1 1 0 2.7 1.35 1.35 0 0 1 0-2.7M40.05 107.1a1.35 1.35 0 1 1 0 2.7 1.35 1.35 0 0 1 0-2.7M40.05 113.4a1.35 1.35 0 1 1 0 2.7 1.35 1.35 0 0 1 0-2.7M40.05 119.7a1.35 1.35 0 1 1 0 2.7 1.35 1.35 0 0 1 0-2.7M35.55 14.4a1.35 1.35 0 1 1 0 2.7 1.35 1.35 0 0 1 0-2.7M35.55 18.9a1.35 1.35 0 1 1 0 2.7 1.35 1.35 0 0 1 0-2.7M35.55 23.4a1.35 1.35 0 1 1 0 2.7 1.35 1.35 0 0 1 0-2.7M35.55 29.7a1.35 1.35 0 1 1 0 2.7 1.35 1.35 0 0 1 0-2.7M35.55 34.2a1.35 1.35 0 1 1 0 2.7 1.35 1.35 0 0 1 0-2.7M35.55 39.6a1.35 1.35 0 1 1 0 2.7 1.35 1.35 0 0 1 0-2.7M35.55 45.9a1.35 1.35 0 1 1 0 2.7 1.35 1.35 0 0 1 0-2.7M35.55 50.4a1.35 1.35 0 1 1 0 2.7 1.35 1.35 0 0 1 0-2.7M35.55 55.8a1.35 1.35 0 1 1 0 2.7 1.35 1.35 0 0 1 0-2.7M35.55 60.3a1.35 1.35 0 1 1 0 2.7 1.35 1.35 0 0 1 0-2.7M35.55 65.7a1.35 1.35 0 1 1 0 2.7 1.35 1.35 0 0 1 0-2.7M35.55 71.1a1.35 1.35 0 1 1 0 2.7 1.35 1.35 0 0 1 0-2.7M35.55 76.5a1.35 1.35 0 1 1 0 2.7 1.35 1.35 0 0 1 0-2.7M35.55 82.8a1.35 1.35 0 1 1 0 2.7 1.35 1.35 0 0 1 0-2.7M35.55 87.3a1.35 1.35 0 1 1 0 2.7 1.35 1.35 0 0 1 0-2.7M35.55 91.8a1.35 1.35 0 1 1 0 2.7 1.35 1.35 0 0 1 0-2.7M35.55 97.2a1.35 1.35 0 1 1 0 2.7 1.35 1.35 0 0 1 0-2.7M35.55 102.6a1.35 1.35 0 1 1 0 2.7 1.35 1.35 0 0 1 0-2.7M35.55 107.1a1.35 1.35 0 1 1 0 2.7 1.35 1.35 0 0 1 0-2.7M35.55 113.4a1.35 1.35 0 1 1 0 2.7 1.35 1.35 0 0 1 0-2.7M35.55 119.7a1.35 1.35 0 1 1 0 2.7 1.35 1.35 0 0 1 0-2.7M29.25 14.4a1.35 1.35 0 1 1 0 2.7 1.35 1.35 0 0 1 0-2.7M29.25 18.9a1.35 1.35 0 1 1 0 2.7 1.35 1.35 0 0 1 0-2.7M29.25 23.4a1.35 1.35 0 1 1 0 2.7 1.35 1.35 0 0 1 0-2.7M29.25 29.7a1.35 1.35 0 1 1 0 2.7 1.35 1.35 0 0 1 0-2.7M29.25 34.2a1.35 1.35 0 1 1 0 2.7 1.35 1.35 0 0 1 0-2.7M29.25 39.6a1.35 1.35 0 1 1 0 2.7 1.35 1.35 0 0 1 0-2.7M29.25 45.9a1.35 1.35 0 1 1 0 2.7 1.35 1.35 0 0 1 0-2.7M29.25 50.4a1.35 1.35 0 1 1 0 2.7 1.35 1.35 0 0 1 0-2.7M29.25 55.8a1.35 1.35 0 1 1 0 2.7 1.35 1.35 0 0 1 0-2.7M29.25 60.3a1.35 1.35 0 1 1 0 2.7 1.35 1.35 0 0 1 0-2.7M29.25 65.7a1.35 1.35 0 1 1 0 2.7 1.35 1.35 0 0 1 0-2.7M29.25 71.1a1.35 1.35 0 1 1 0 2.7 1.35 1.35 0 0 1 0-2.7M29.25 76.5a1.35 1.35 0 1 1 0 2.7 1.35 1.35 0 0 1 0-2.7M29.25 82.8a1.35 1.35 0 1 1 0 2.7 1.35 1.35 0 0 1 0-2.7M29.25 87.3a1.35 1.35 0 1 1 0 2.7 1.35 1.35 0 0 1 0-2.7M29.25 91.8a1.35 1.35 0 1 1 0 2.7 1.35 1.35 0 0 1 0-2.7M29.25 97.2a1.35 1.35 0 1 1 0 2.7 1.35 1.35 0 0 1 0-2.7M29.25 102.6a1.35 1.35 0 1 1 0 2.7 1.35 1.35 0 0 1 0-2.7M29.25 107.1a1.35 1.35 0 1 1 0 2.7 1.35 1.35 0 0 1 0-2.7M29.25 113.4a1.35 1.35 0 1 1 0 2.7 1.35 1.35 0 0 1 0-2.7M29.25 119.7a1.35 1.35 0 1 1 0 2.7 1.35 1.35 0 0 1 0-2.7M23.85 14.4a1.35 1.35 0 1 1 0 2.7 1.35 1.35 0 0 1 0-2.7M23.85 18.9a1.35 1.35 0 1 1 0 2.7 1.35 1.35 0 0 1 0-2.7M23.85 23.4a1.35 1.35 0 1 1 0 2.7 1.35 1.35 0 0 1 0-2.7M23.85 29.7a1.35 1.35 0 1 1 0 2.7 1.35 1.35 0 0 1 0-2.7M23.85 34.2a1.35 1.35 0 1 1 0 2.7 1.35 1.35 0 0 1 0-2.7M23.85 39.6a1.35 1.35 0 1 1 0 2.7 1.35 1.35 0 0 1 0-2.7M23.85 45.9a1.35 1.35 0 1 1 0 2.7 1.35 1.35 0 0 1 0-2.7M23.85 50.4a1.35 1.35 0 1 1 0 2.7 1.35 1.35 0 0 1 0-2.7M23.85 55.8a1.35 1.35 0 1 1 0 2.7 1.35 1.35 0 0 1 0-2.7M23.85 60.3a1.35 1.35 0 1 1 0 2.7 1.35 1.35 0 0 1 0-2.7M23.85 65.7a1.35 1.35 0 1 1 0 2.7 1.35 1.35 0 0 1 0-2.7M23.85 71.1a1.35 1.35 0 1 1 0 2.7 1.35 1.35 0 0 1 0-2.7M23.85 76.5a1.35 1.35 0 1 1 0 2.7 1.35 1.35 0 0 1 0-2.7M23.85 82.8a1.35 1.35 0 1 1 0 2.7 1.35 1.35 0 0 1 0-2.7M23.85 87.3a1.35 1.35 0 1 1 0 2.7 1.35 1.35 0 0 1 0-2.7M23.85 91.8a1.35 1.35 0 1 1 0 2.7 1.35 1.35 0 0 1 0-2.7M23.85 97.2a1.35 1.35 0 1 1 0 2.7 1.35 1.35 0 0 1 0-2.7M23.85 102.6a1.35 1.35 0 1 1 0 2.7 1.35 1.35 0 0 1 0-2.7M23.85 107.1a1.35 1.35 0 1 1 0 2.7 1.35 1.35 0 0 1 0-2.7M23.85 113.4a1.35 1.35 0 1 1 0 2.7 1.35 1.35 0 0 1 0-2.7M23.85 119.7a1.35 1.35 0 1 1 0 2.7 1.35 1.35 0 0 1 0-2.7" mask="url(#b)"/>
        <path fill="#003087" d="M11.7 132.3h156.6V20.7H11.7z" mask="url(#b)"/>
        <path fill="#383A48" d="M12.91 131.085h154.18V21.915H12.91v109.17zm155.235 2.115H11.855c-.59 0-1.055-.465-1.055-1.058V20.858c0-.593.464-1.058 1.055-1.058h156.29c.59 0 1.055.465 1.055 1.058v111.284a1.06 1.06 0 0 1-1.055 1.058z" mask="url(#b)"/>
        <path fill="#FFF" d="M18.9 126.9h139.5V29.7H18.9z" mask="url(#b)"/>
        <path fill="#383A48" d="M20.11 124.791h137.98V30.91H20.11v93.882zm139.014 2.109H19.055c-.59 0-1.055-.464-1.055-1.054V29.854c0-.59.464-1.054 1.055-1.054h140.09c.59 0 1.055.464 1.055 1.054v96.013a1.072 1.072 0 0 1-1.076 1.033z" mask="url(#b)"/>
        <path fill="#FFB81C" d="M107.698 54.894c-.252 0-.42.105-.587.21-1.09.754-2.537 3.667-1.783 8.236 0 .063.021.126.021.168 2.516-3.249 3.586-5.764 3.67-7.189.041-.838-.21-1.006-.525-1.174-.314-.188-.587-.251-.796-.251m-41.41 5.47c-.754.67-2.075 2.683-2.725 5.932 2.537-2.578 3.397-4.821 2.852-5.743l-.126-.189M128.203 90a3.05 3.05 0 0 1-.86-.126c-8.596-2.431-15.494-6.183-20.442-11.15-1.363-1.362-2.495-2.725-3.418-4.066-5.514 4.988-11.95 9.201-17.968 11.716-4.654 1.95-8.512 2.704-11.678 2.704-4.76 0-8.01-1.677-10.106-3.521-2.662-2.327-4.403-5.072-5.472-7.944-2.222 1.07-4.55 1.929-6.835 2.494-6.73 1.677-12.56.818-16.878-2.452a3.143 3.143 0 0 1 3.795-5.01c1.929 1.468 5.493 2.872 11.573 1.363 2.349-.586 4.78-1.572 7.066-2.808a24.655 24.655 0 0 1 1.027-8.467c1.594-5.135 4.53-8.426 7.842-8.803 3.375-.377 5.325 2.305 6.017 3.479 2.411 4.15.461 9.662-5.263 14.713a32.75 32.75 0 0 1-2.809 2.222c.63 2.221 1.824 4.527 4.067 6.476 4.152 3.605 11.322 1.404 15.243-.23 5.787-2.432 12.077-6.644 17.318-11.633a24.533 24.533 0 0 1-1.258-4.569c-1.048-6.183.671-11.862 4.382-14.44 2.453-1.698 5.41-1.803 8.135-.252 2.558 1.467 3.879 3.961 3.69 7.021-.293 4.653-3.983 9.746-7.317 13.435a23.49 23.49 0 0 0 3.334 4.15c4.193 4.192 10.147 7.398 17.717 9.536a3.152 3.152 0 0 1 2.18 3.877A3.246 3.246 0 0 1 128.203 90" mask="url(#b)"/>
        <path fill="#383A48" d="M123.3 111.6l-6.661 22.5H96.3z" mask="url(#b)"/>
        <path fill="#383A48" d="M99.385 132.882h17.06l5.566-18.934-22.626 18.934zm17.85 2.118H96.463c-.448 0-.853-.275-1.002-.699-.15-.423-.022-.89.32-1.165l27.551-23.084a1.096 1.096 0 0 1 1.28-.085c.384.254.575.741.448 1.186l-6.782 23.085c-.15.444-.576.762-1.045.762z" mask="url(#b)"/>
        <path fill="#003087" d="M35.1 159.78L95.88 99l20.22 20.22L55.32 180z" mask="url(#b)"/>
        <path fill="#383A48" d="M36.742 159.455l18.645 18.853 59.028-59.685L95.77 99.771l-59.028 59.684zM55.387 180.9a.989.989 0 0 1-.741-.321l-20.128-20.352a1.097 1.097 0 0 1-.318-.75c0-.279.106-.557.318-.75L95.05 97.52a1.04 1.04 0 0 1 1.504 0l20.128 20.352c.19.193.318.472.318.75 0 .279-.106.557-.318.75L56.13 180.579a1.022 1.022 0 0 1-.742.321z" mask="url(#b)"/>
        <path fill="#FFB81C" d="M45.45 153.9c8.201 0 14.85 6.649 14.85 14.85s-6.649 14.85-14.85 14.85-14.85-6.649-14.85-14.85 6.649-14.85 14.85-14.85" mask="url(#b)"/>
        <path fill="#383A48" d="M45.01 156.022a13.19 13.19 0 0 0-9.33 3.856c-5.153 5.15-5.153 13.498 0 18.647 5.153 5.149 13.508 5.149 18.661 0 5.153-5.15 5.153-13.498 0-18.647a13.226 13.226 0 0 0-9.33-3.856m0 28.478a15.28 15.28 0 0 1-10.837-4.47A15.22 15.22 0 0 1 29.7 169.2c0-4.09 1.59-7.924 4.474-10.827 5.98-5.955 15.693-5.976 21.652 0A15.22 15.22 0 0 1 60.3 169.2c0 4.09-1.59 7.925-4.474 10.828A15.232 15.232 0 0 1 45.01 184.5" mask="url(#b)"/>
        <path fill="#FFB81C" d="M96.3 99.045l7.636-8.145 19.364 20.655-7.636 8.145z" mask="url(#b)"/>
        <path fill="#383A48" d="M97.077 99.141l18.897 18.884 6.527-6.523-18.896-18.884-6.528 6.523zm18.897 21.459c-.28 0-.559-.107-.752-.322l-20.4-20.386a1.062 1.062 0 0 1 0-1.523l8.053-8.047c.193-.193.472-.322.751-.322.28 0 .559.107.752.322l20.4 20.386c.43.429.43 1.094 0 1.523l-8.053 8.047a1.079 1.079 0 0 1-.751.322z" mask="url(#b)"/>
        <path fill="#FFB81C" d="M122.243 108.9L105.3 91.936l22.386-9.136 3.714 3.692z" mask="url(#b)"/>
        <path fill="#383A48" d="M108.105 91.79l14.079 15.015 7.918-20.703-2.606-2.78-19.391 8.467zm14.442 18.01a.92.92 0 0 1-.707-.323L105.6 92.156a1.138 1.138 0 0 1-.283-.97c.06-.344.303-.646.606-.775l21.432-9.329c.384-.172.808-.064 1.09.237l3.556 3.792c.282.302.383.775.222 1.163l-8.746 22.858c-.122.323-.404.582-.728.646-.06 0-.141.022-.202.022z" mask="url(#b)"/>
        <path fill="#FFB81C" d="M83.7 110.623l7.522-8.023 19.478 20.777-7.522 8.023z" mask="url(#b)"/>
        <path fill="#383A48" d="M84.491 110.699l19.004 18.99 6.414-6.41-19.004-18.99-6.414 6.41zm19.004 21.601c-.28 0-.562-.108-.756-.324l-20.515-20.5a1.068 1.068 0 0 1 0-1.533l7.904-7.92a1.07 1.07 0 0 1 1.533 0l20.515 20.501c.195.195.324.475.324.756 0 .28-.108.56-.324.755l-7.925 7.92a.96.96 0 0 1-.756.345z" mask="url(#b)"/>
        <path fill="#FFB81C" d="M83.57 139.897l-12.08 12.088c-2.55 2.553-6.705 2.553-9.277 0-2.55-2.552-2.55-6.708 0-9.282l12.081-12.088c2.551-2.553 6.705-2.553 9.277 0 2.572 2.573 2.572 6.73 0 9.282" mask="url(#b)"/>
        <path fill="#383A48" d="M1.054 76.5a.99.99 0 0 1-.738-.316 1.044 1.044 0 0 1 0-1.498l36.57-36.57a1.044 1.044 0 0 1 1.498 0 1.044 1.044 0 0 1 0 1.498L1.793 76.204c-.211.19-.485.296-.739.296M127.8 162h7.2v-2.7h-7.2z" mask="url(#b)"/>
        <path fill="#383A48" d="M129.6 164.7h2.7v-7.2h-2.7zM12.6 4.5h7.2V1.8h-7.2z" mask="url(#b)"/>
        <path fill="#383A48" d="M15.3 7.2H18V0h-2.7z" mask="url(#b)"/>
    </g>
</svg>
