<svg xmlns="http://www.w3.org/2000/svg" xmlns:xlink="http://www.w3.org/1999/xlink" width="218" height="139" viewBox="0 0 218 139">
    <defs>
        <path id="a" d="M0 .148h2.704v2.461H0z"/>
        <path id="c" d="M0 .05h2.704v2.46H0z"/>
        <path id="e" d="M0 .222h2.704v2.461H0z"/>
        <path id="g" d="M0 139h219V0H0z"/>
    </defs>
    <g fill="none" fill-rule="evenodd" transform="translate(-1)">
        <path fill="#383A48" d="M172.586 40.617c-.757 0-1.351-.62-1.351-1.41v-5.303c0-.79.594-1.41 1.351-1.41s1.352.62 1.352 1.41v5.303c0 .79-.622 1.41-1.352 1.41M172.586 58.669c-.757 0-1.351-.62-1.351-1.41v-5.303c0-.79.594-1.41 1.351-1.41s1.352.62 1.352 1.41v5.303c0 .79-.622 1.41-1.352 1.41M166.221 47.838h-5.294c-.789 0-1.408-.596-1.408-1.354 0-.758.62-1.354 1.408-1.354h5.294c.789 0 1.409.596 1.409 1.354 0 .758-.648 1.354-1.409 1.354M184.246 47.838h-5.295c-.788 0-1.408-.596-1.408-1.354 0-.758.62-1.354 1.408-1.354h5.295c.789 0 1.408.596 1.408 1.354 0 .758-.62 1.354-1.408 1.354M168.057 42.422c-.35 0-.7-.135-.943-.405l-3.586-3.591a1.338 1.338 0 0 1 0-1.917c.54-.54 1.375-.54 1.914 0l3.586 3.59c.539.541.539 1.378 0 1.918-.27.27-.62.405-.97.405M180.674 55.058c-.35 0-.7-.135-.943-.405l-3.586-3.59a1.338 1.338 0 0 1 0-1.918c.54-.54 1.375-.54 1.914 0l3.586 3.591c.54.54.54 1.377 0 1.917-.27.27-.62.405-.97.405M164.471 55.058c-.35 0-.7-.135-.943-.405a1.338 1.338 0 0 1 0-1.917l3.586-3.59c.539-.54 1.374-.54 1.914 0 .539.54.539 1.376 0 1.916l-3.586 3.618c-.27.243-.62.378-.97.378M177.089 42.422c-.35 0-.701-.135-.944-.405a1.338 1.338 0 0 1 0-1.917l3.586-3.591c.539-.54 1.375-.54 1.914 0 .54.54.54 1.377 0 1.917l-3.586 3.591c-.27.27-.62.405-.97.405M60.833 0c.747 0 1.352.606 1.352 1.354A1.353 1.353 0 1 1 60.833 0M60.833 7.22c.747 0 1.352.607 1.352 1.355a1.353 1.353 0 1 1-1.352-1.354M60.833 12.636c.747 0 1.352.606 1.352 1.354a1.353 1.353 0 1 1-1.352-1.354M53.623 0a1.353 1.353 0 1 1-.002 2.706A1.353 1.353 0 0 1 53.623 0M53.623 7.22a1.353 1.353 0 1 1-.002 2.706 1.353 1.353 0 0 1 .002-2.705M53.623 12.636a1.353 1.353 0 1 1-.002 2.706 1.353 1.353 0 0 1 .002-2.706M46.414 0c.746 0 1.351.606 1.351 1.354A1.353 1.353 0 1 1 46.414 0M46.414 7.22c.746 0 1.351.607 1.351 1.355a1.353 1.353 0 1 1-1.351-1.354M46.414 12.636c.746 0 1.351.606 1.351 1.354a1.353 1.353 0 1 1-1.351-1.354M40.105 0c.747 0 1.352.606 1.352 1.354A1.353 1.353 0 1 1 40.105 0M40.105 7.22c.747 0 1.352.607 1.352 1.355a1.353 1.353 0 1 1-1.352-1.354M40.105 12.636c.747 0 1.352.606 1.352 1.354a1.353 1.353 0 1 1-1.352-1.354M34.698 0a1.353 1.353 0 1 1-.002 2.706A1.353 1.353 0 0 1 34.698 0M34.698 7.22a1.353 1.353 0 1 1-.002 2.706 1.353 1.353 0 0 1 .002-2.705M34.698 12.636a1.353 1.353 0 1 1-.002 2.706 1.353 1.353 0 0 1 .002-2.706M28.389 0c.747 0 1.352.606 1.352 1.354A1.353 1.353 0 1 1 28.389 0M28.389 7.22c.747 0 1.352.607 1.352 1.355a1.353 1.353 0 1 1-1.352-1.354M28.389 12.636c.747 0 1.352.606 1.352 1.354a1.353 1.353 0 1 1-1.352-1.354M21.179 0c.747 0 1.352.606 1.352 1.354A1.353 1.353 0 1 1 21.179 0M21.179 7.22c.747 0 1.352.607 1.352 1.355a1.353 1.353 0 1 1-1.352-1.354M21.179 12.636c.747 0 1.352.606 1.352 1.354a1.353 1.353 0 1 1-1.352-1.354M14.87 0a1.353 1.353 0 1 1-.002 2.706A1.353 1.353 0 0 1 14.87 0M14.87 7.22a1.353 1.353 0 1 1-.002 2.706 1.353 1.353 0 0 1 .002-2.705M14.87 12.636a1.353 1.353 0 1 1-.002 2.706 1.353 1.353 0 0 1 .002-2.706M8.562 0A1.353 1.353 0 1 1 7.21 1.354C7.21.606 7.815 0 8.562 0M8.562 7.22c.746 0 1.352.607 1.352 1.355A1.353 1.353 0 1 1 8.562 7.22M8.562 12.636c.746 0 1.352.606 1.352 1.354a1.353 1.353 0 1 1-1.352-1.354"/>
        <g transform="translate(.901)">
            <mask id="b" fill="#fff">
                <use xlink:href="#a"/>
            </mask>
            <path fill="#383A48" d="M1.352.148c.747 0 1.352.55 1.352 1.23 0 .68-.605 1.231-1.352 1.231C.605 2.61 0 2.06 0 1.38 0 .699.605.148 1.352.148" mask="url(#b)"/>
        </g>
        <g transform="translate(.901 7.22)">
            <mask id="d" fill="#fff">
                <use xlink:href="#c"/>
            </mask>
            <path fill="#383A48" d="M1.352.05c.747 0 1.352.55 1.352 1.23 0 .68-.605 1.23-1.352 1.23C.605 2.51 0 1.96 0 1.28 0 .6.605.05 1.352.05" mask="url(#d)"/>
        </g>
        <g transform="translate(.901 12.636)">
            <mask id="f" fill="#fff">
                <use xlink:href="#e"/>
            </mask>
            <path fill="#383A48" d="M1.352.222c.747 0 1.352.55 1.352 1.23 0 .68-.605 1.231-1.352 1.231C.605 2.683 0 2.133 0 1.453 0 .772.605.221 1.352.221" mask="url(#f)"/>
        </g>
        <path fill="#F3F6E6" d="M19.827 14.442h127.975V98.25l-24.413 21.238 3.424 17.707H19.827z"/>
        <path fill="#383A48" d="M20.622 136.401h103.464l-3.117-16.163c-.078-.442.078-.91.416-1.221l23.82-20.867V16.138H20.622V136.4zM125.645 139H19.324a1.286 1.286 0 0 1-1.3-1.3V14.839c0-.727.572-1.299 1.3-1.299h127.18c.727 0 1.298.572 1.298 1.3v83.909c0 .363-.155.727-.441.987l-23.69 20.763 3.246 16.995c.078.39-.025.78-.285 1.065a1.262 1.262 0 0 1-.987.442z"/>
        <mask id="h" fill="#fff">
            <use xlink:href="#g"/>
        </mask>
        <path fill="#F6E049" d="M19.827 44.227h127.975V14.442H19.827z" mask="url(#h)"/>
        <path fill="#383A48" d="M20.622 42.512h124.583V15.254H20.622v27.258zm125.882 2.618H19.324a1.291 1.291 0 0 1-1.3-1.31V13.947c0-.734.572-1.31 1.3-1.31h127.18c.727 0 1.298.576 1.298 1.31V43.82c0 .707-.571 1.309-1.298 1.309z" mask="url(#h)"/>
        <path fill="#383A48" d="M147.28 13.539h-7.968c-.797 0-1.423.567-1.423 1.288v62.411c0 .721.626 1.288 1.423 1.288h7.969c.797 0 1.423-.567 1.423-1.288V14.827c0-.721-.626-1.288-1.423-1.288M123.47 27.162l1.885-1.89 6.225 6.235-1.886 1.89z" mask="url(#h)"/>
        <path fill="#383A48" d="M124.37 31.507l6.225-6.234 1.886 1.888-6.224 6.235zM111.87 31.502h4.3v-4.335h-4.328l.028 4.335zm-2.82 2.797h9.913V24.37h-9.914V34.3zM98.235 34.299h7.21V31.59h-7.21z" mask="url(#h)"/>
        <path fill="#003087" d="M84.545 66.939c-5.03-5.01-13.222-5.01-18.253 0l-4.108 4.092-4.11-4.092c-5.03-5.01-13.221-5.01-18.252 0-5.03 5.01-5.03 13.167 0 18.176L62.21 107.41l18.252-18.176 4.11-4.092c5.003-5.035 5.003-13.166-.027-18.202" mask="url(#h)"/>
        <path fill="#383A48" d="M48.481 64.03c-3.109 0-6.007 1.208-8.194 3.388-4.532 4.517-4.532 11.845 0 16.362l21.448 21.38 21.447-21.38c4.532-4.517 4.532-11.845 0-16.362a11.562 11.562 0 0 0-8.194-3.389c-3.11 0-6.008 1.209-8.195 3.389l-4.11 4.097a1.307 1.307 0 0 1-1.87 0l-4.11-4.097c-2.214-2.18-5.112-3.389-8.222-3.389m13.254 44.283c-.343 0-.685-.132-.923-.394L38.417 85.593c-5.56-5.542-5.56-14.525 0-20.067a14.174 14.174 0 0 1 10.064-4.15c3.795 0 7.378 1.471 10.065 4.15l3.189 3.178 3.188-3.178a14.174 14.174 0 0 1 10.065-4.15c3.794 0 7.377 1.471 10.065 4.15 5.56 5.542 5.56 14.525 0 20.067l-22.396 22.325c-.237.262-.58.394-.922.394" mask="url(#h)"/>
        <path fill="#FFB81C" d="M218.099 137.195h-38.917c0-16.324-13.258-29.633-29.577-29.633-16.32 0-29.577 13.283-29.577 29.633H81.111c0-18.326 7.135-35.56 20.055-48.505 12.92-12.944 30.122-20.093 48.413-20.093 18.291 0 35.492 7.149 48.413 20.093 12.972 12.971 20.107 30.18 20.107 48.505" mask="url(#h)"/>
        <path fill="#383A48" d="M180.027 136.398h36.377c-.338-17.514-7.297-33.935-19.682-46.349-12.697-12.725-29.574-19.726-47.542-19.726-17.967 0-34.845 7-47.542 19.726-12.385 12.414-19.343 28.835-19.68 46.349h36.376c.675-16.473 14.255-29.668 30.846-29.668 16.592 0 30.146 13.22 30.847 29.668M217.702 139h-38.948a1.287 1.287 0 0 1-1.298-1.301c0-15.64-12.697-28.366-28.302-28.366s-28.301 12.726-28.301 28.366c0 .728-.572 1.301-1.299 1.301H80.607a1.287 1.287 0 0 1-1.298-1.301c0-18.685 7.27-36.277 20.46-49.497 13.19-13.22 30.717-20.507 49.385-20.507 18.643 0 36.195 7.286 49.386 20.507 13.19 13.22 20.46 30.786 20.46 49.497 0 .728-.597 1.301-1.298 1.301" mask="url(#h)"/>
        <path fill="#F6E049" d="M173.603 137.195v-.052c-.026-12.863-10.57-23.336-23.547-23.336-12.951 0-23.521 10.446-23.548 23.336v.052H95.531c0-14.474 5.677-28.066 15.96-38.304 10.308-10.24 23.991-15.852 38.565-15.852 14.573 0 28.256 5.64 38.565 15.852 10.308 10.238 15.96 23.83 15.96 38.304h-30.978z" mask="url(#h)"/>
        <path fill="#383A48" d="M173.777 136.396h28.18c-.338-13.669-5.792-26.453-15.454-36.138-9.973-9.998-23.245-15.518-37.349-15.518-14.103 0-27.375 5.52-37.349 15.518-9.661 9.685-15.142 22.495-15.453 36.138h28.18c.675-13.018 11.48-23.433 24.622-23.433 13.143.027 23.947 10.415 24.623 23.433M203.282 139H172.53a1.287 1.287 0 0 1-1.299-1.302v-.052c-.026-12.159-9.921-22.079-22.077-22.079-12.129 0-22.05 9.894-22.077 22.08v.051c0 .73-.57 1.302-1.298 1.302H95.027a1.287 1.287 0 0 1-1.299-1.302c0-14.84 5.766-28.796 16.233-39.289 10.467-10.493 24.389-16.273 39.193-16.273 14.805 0 28.726 5.78 39.193 16.273 10.467 10.493 16.233 24.448 16.233 39.29 0 .728-.571 1.301-1.298 1.301" mask="url(#h)"/>
        <path fill="#AAC6FC" d="M188.358 137.195h-15.493c-.026-12.817-10.556-23.251-23.515-23.251-12.933 0-23.488 10.408-23.514 23.25H109.95c0-10.382 4.075-20.117 11.47-27.444 7.393-7.328 17.243-11.367 27.694-11.367 10.477 0 20.3 4.039 27.721 11.367 7.446 7.327 11.522 17.088 11.522 27.445" mask="url(#h)"/>
        <path fill="#383A48" d="M173.743 136.405h12.899c-.314-9.55-4.239-18.502-11.094-25.3-7.169-7.111-16.693-11.03-26.819-11.03-10.125 0-19.65 3.919-26.818 11.03-6.855 6.798-10.754 15.75-11.094 25.3h13.292c.706-12.949 11.59-23.303 24.804-23.303 13.265.026 24.123 10.354 24.83 23.303M187.976 139h-15.515a1.29 1.29 0 0 1-1.308-1.297c-.027-12.119-9.996-22.006-22.24-22.006-12.22 0-22.214 9.86-22.24 22.006a1.29 1.29 0 0 1-1.309 1.297h-15.908a1.29 1.29 0 0 1-1.308-1.297c0-10.744 4.212-20.838 11.879-28.442 7.666-7.603 17.844-11.78 28.676-11.78 10.832 0 21.01 4.177 28.676 11.78 7.667 7.604 11.88 17.698 11.88 28.442.025.726-.55 1.297-1.283 1.297" mask="url(#h)"/>
    </g>
</svg>
