<svg xmlns="http://www.w3.org/2000/svg" xmlns:xlink="http://www.w3.org/1999/xlink" width="35" height="35" viewBox="0 0 35 35">
    <defs>
        <path id="a" d="M0 0h35v35H0z"/>
    </defs>
    <g fill="none" fill-rule="evenodd">
        <mask id="b" fill="#fff">
            <use xlink:href="#a"/>
        </mask>
        <path fill="#383A48" d="M24.208 14.542l.01.384c0 3.93-2.991 8.464-8.463 8.464a8.4 8.4 0 0 1-4.56-1.34c.234.028.47.041.71.041a5.966 5.966 0 0 0 3.694-1.27 2.975 2.975 0 0 1-2.778-2.066c.182.037.368.055.56.055.271 0 .534-.037.784-.104a2.978 2.978 0 0 1-2.386-2.917v-.036c.402.221.86.356 1.347.372a2.97 2.97 0 0 1-1.322-2.475c0-.546.146-1.057.402-1.496a8.444 8.444 0 0 0 6.13 3.109 2.974 2.974 0 0 1 5.07-2.713 5.96 5.96 0 0 0 1.89-.722 2.98 2.98 0 0 1-1.308 1.644 5.909 5.909 0 0 0 1.709-.468 5.948 5.948 0 0 1-1.489 1.538M17.501 0C7.835 0 0 7.835 0 17.5 0 27.167 7.835 35 17.5 35 27.167 35 35 27.166 35 17.5 35 7.836 27.166 0 17.5 0" mask="url(#b)"/>
    </g>
</svg>
