<?xml version="1.0" encoding="UTF-8"?>
<svg width="104px" height="26px" viewBox="0 0 104 26" version="1.1" xmlns="http://www.w3.org/2000/svg" xmlns:xlink="http://www.w3.org/1999/xlink">
    <!-- Generator: Sketch 52.2 (67145) - http://www.bohemiancoding.com/sketch -->
    <title>Group 15</title>
    <desc>Created with Sketch.</desc>
    <g id="todas-las-pantallas" stroke="none" stroke-width="1" fill="none" fill-rule="evenodd">
        <g id="Desktop---Home_" transform="translate(-412.000000, -2334.000000)" fill="#63605E">
            <g id="Group-15" transform="translate(412.000000, 2334.000000)">
                <path d="M87.7982,0.849610345 C87.2557,0.937972414 86.73,1.07440345 86.2232,1.25466207 C86.3247,1.36635172 86.4339,1.47238621 86.5494,1.57276552 C86.947,1.30273103 87.3642,1.06097241 87.7982,0.849610345 Z M96.7582,4.63998966 C96.2969,3.98823103 95.7558,3.39938621 95.1489,2.8883 C94.8507,3.14843793 94.5315,3.39019655 94.1941,3.60933448 C94.6498,4.17414483 95.0481,4.78985172 95.3778,5.44655862 C95.858,5.2048 96.3193,4.93547241 96.7582,4.63998966 Z M94.8017,2.60836897 C94.1731,2.12838621 93.4829,1.72828276 92.7458,1.42219655 C92.6247,1.56711034 92.4924,1.70495517 92.351,1.83361034 C92.9187,2.25704138 93.4402,2.73843793 93.9092,3.27073103 C94.2242,3.06926552 94.5231,2.8480069 94.8017,2.60836897 Z M92.3111,1.25466207 C91.805,1.07440345 91.2786,0.937972414 90.7361,0.849610345 C91.1708,1.06097241 91.588,1.30273103 91.9842,1.57276552 C92.1004,1.47238621 92.2096,1.36635172 92.3111,1.25466207 Z M89.2668,0.228955172 C94.64,0.228955172 98.9919,4.66261034 98.9919,10.1276276 C98.9919,15.5926448 94.64,20.0270069 89.2668,20.0270069 C83.8943,20.0270069 79.5424,15.5926448 79.5424,10.1276276 C79.5424,4.66261034 83.8943,0.228955172 89.2668,0.228955172 Z M90.888,2.24007586 C91.147,2.13474828 91.3906,2.00467931 91.616,1.85340345 C91.1015,1.51621379 90.5541,1.2270931 89.9794,0.992403448 C90.3035,1.39038621 90.6073,1.80745517 90.888,2.24007586 Z M89.4852,2.54828276 C89.8247,2.53202414 90.1516,2.47688621 90.4617,2.38781724 C90.1614,1.93257586 89.8352,1.49642069 89.4852,1.08147241 L89.4852,2.54828276 Z M90.7074,2.77307586 C90.321,2.89607586 89.9108,2.9703 89.4852,2.98938621 L89.4852,4.59828276 C90.1915,4.58131724 90.8754,4.48235172 91.525,4.31128276 C91.2835,3.77969655 91.0105,3.26578276 90.7074,2.77307586 Z M92.0003,2.11919655 C91.7322,2.31571379 91.4382,2.48324828 91.1246,2.61755862 C91.4298,3.12086897 91.7056,3.64538621 91.9478,4.18757586 C92.5057,4.01014483 93.0349,3.77898966 93.527,3.50047241 C93.0678,2.98726552 92.5561,2.52424828 92.0003,2.11919655 Z M87.6463,2.24007586 C87.9277,1.80745517 88.2308,1.39038621 88.5549,0.992403448 C87.9802,1.2270931 87.4328,1.51621379 86.9183,1.85340345 C87.143,2.00467931 87.3873,2.13474828 87.6463,2.24007586 Z M89.0491,1.08147241 C88.6991,1.49642069 88.3729,1.93257586 88.0726,2.38781724 C88.3827,2.47688621 88.7103,2.53202414 89.0491,2.54828276 L89.0491,1.08147241 Z M83.8117,17.7083862 C84.0252,17.7889724 84.3311,17.8822828 84.7084,17.8582483 C85.2061,17.8271448 85.8599,17.5754897 86.4815,17.3400931 C87.1045,17.1039897 88.7376,16.7116621 89.1275,16.6331966 C89.516,16.554731 89.6091,16.3815414 89.7029,16.2083517 C89.796,16.035869 89.7344,15.7842138 89.6875,15.4859034 C89.6406,15.1868862 89.5629,14.7160931 89.5475,14.2756966 C89.5321,13.8360069 89.516,13.4429724 88.8314,13.0032828 C88.1468,12.5628862 87.7114,12.044731 87.7576,11.6516966 C87.8045,11.259369 88.256,10.9292483 88.256,10.9292483 C88.256,10.9292483 88.1468,10.5991276 88.1937,10.4577483 C88.2399,10.316369 88.6606,10.363731 88.6606,10.363731 C88.6606,10.363731 88.5983,9.89223103 88.6291,9.76640345 C88.6606,9.64057586 88.8783,9.70348966 88.8783,9.70348966 L89.0806,9.57766207 C89.0806,9.57766207 88.9245,9.24754138 88.8629,9.02769655 C88.8006,8.80785172 88.9245,8.63536897 89.1744,8.63536897 C89.4222,8.63536897 89.7344,8.60355862 90.4806,8.43107586 C91.2275,8.25788621 91.5544,6.81228276 93.3128,6.52952414 C95.0712,6.24605862 96.4404,7.59835172 96.4404,7.59835172 C96.4404,7.59835172 99.2411,10.2534552 97.4043,13.254231 C95.8118,15.8591448 93.779,15.2031448 93.779,15.2031448 C93.779,15.2031448 93.4213,15.3756276 93.5928,16.1298862 C93.7636,16.8841448 94.8374,17.5125759 94.8374,17.5125759 L94.9235,17.5535759 C97.0991,15.8336966 98.4977,13.1467828 98.4977,10.1276276 C98.4977,8.2395069 97.9468,6.47721379 97.0039,5.00404138 C96.5475,5.31083448 96.0666,5.59147241 95.5675,5.84312759 C95.6984,6.13366207 95.816,6.43055862 95.9203,6.73523103 C95.7383,6.62707586 95.5472,6.53093793 95.3498,6.44823103 C95.2945,6.30826552 95.2357,6.17042069 95.1741,6.03328276 C95.0222,6.10397241 94.8682,6.17183448 94.7128,6.23686897 C94.4111,6.16123103 94.1038,6.11952414 93.8014,6.11669655 C94.206,5.97461034 94.6015,5.81485172 94.9851,5.63671379 C94.6603,4.99343793 94.2676,4.39116207 93.8175,3.83978276 C93.2897,4.14516207 92.7213,4.39893793 92.1228,4.59333448 C92.3482,5.14047241 92.5414,5.70457586 92.6996,6.28352414 C92.5477,6.32947241 92.4126,6.38248966 92.2901,6.43974828 C92.1305,5.84948966 91.9338,5.27478276 91.7021,4.71845517 C90.9972,4.91002414 90.2531,5.0210069 89.4852,5.03867931 L89.4852,6.88367931 C90.3392,6.86883448 91.1722,6.77693793 91.9765,6.61576552 C91.721,6.78471379 91.5334,6.97698966 91.3633,7.16926552 C90.7501,7.26045517 90.1229,7.31276552 89.4852,7.32407586 L89.4852,7.95957586 C89.3879,7.96593793 89.2843,7.96947241 89.1744,7.96947241 C89.1303,7.96947241 89.089,7.9723 89.0491,7.97724828 L89.0491,5.03867931 C88.7054,5.03019655 88.3659,5.00404138 88.0334,4.96021379 C87.9312,4.78702414 87.8108,4.61878276 87.6764,4.45902414 C88.1216,4.53961034 88.5801,4.58767931 89.0491,4.59828276 L89.0491,2.98938621 C88.6235,2.9703 88.2126,2.89607586 87.8269,2.77307586 C87.5917,3.15621379 87.374,3.55136897 87.1759,3.95783448 C87.0632,3.86240345 86.9449,3.77192069 86.8224,3.6870931 C87.0037,3.32092069 87.1997,2.96464483 87.4097,2.61755862 C87.0954,2.48324828 86.8021,2.31571379 86.534,2.11919655 C86.1469,2.40124828 85.7815,2.71157586 85.4399,3.04664483 C85.2684,3.00281724 85.0948,2.9695931 84.9198,2.9505069 C85.3097,2.54404138 85.7325,2.1700931 86.1833,1.83361034 C86.0419,1.70495517 85.9103,1.56711034 85.7892,1.42148966 C85.0507,1.72828276 84.3605,2.12838621 83.7326,2.60836897 C81.5787,4.25543793 80.1528,6.83914483 80.0429,9.76357586 C80.0996,9.71126552 80.9718,8.9153 81.3785,8.82411034 C81.7985,8.72867931 82.1254,7.99067931 82.1254,7.86485172 C82.1254,7.73973103 81.3309,5.78657586 82.2962,4.4865931 C83.1369,3.35555862 84.4277,2.77378276 86.4661,3.92107586 C88.5052,5.06836897 88.116,6.71826552 87.7268,7.25267931 C87.3376,7.78638621 87.1661,7.95957586 87.2291,8.21052414 C87.2914,8.46217931 87.4776,8.65092069 87.3999,8.77604138 C87.3222,8.90186897 86.9337,8.94923103 86.9337,8.94923103 C86.9337,8.94923103 87.0261,9.21643793 87.0114,9.31045517 C86.9953,9.40447241 86.7776,9.38892069 86.7776,9.38892069 C86.7776,9.38892069 86.8238,9.54655862 86.793,9.65612759 C86.7622,9.76640345 86.4045,9.70348966 86.4045,9.70348966 C86.4045,9.70348966 86.4815,10.3792828 85.5953,10.2690069 C84.7084,10.158731 84.5215,9.87667931 84.2569,10.0802655 C83.9923,10.2845586 84.0392,10.5517655 84.2254,11.3371276 C84.4123,12.1231966 84.4907,13.8989207 84.4907,13.8989207 L85.0276,14.2834724 C85.0276,14.2834724 85.8438,14.3230586 86.0391,14.3386103 C86.233,14.3541621 86.4507,14.4093 86.576,14.4170759 C86.6999,14.4255586 87.2137,14.0169724 87.4853,13.9533517 C87.7576,13.8911448 87.8437,13.9696103 87.8437,14.0403 C87.8437,14.1109897 87.766,14.3068 87.766,14.3068 C87.766,14.3068 88.2014,14.1420931 88.3568,14.1816793 C88.5129,14.2212655 88.5983,14.3859724 88.4821,14.9514897 C88.3645,15.5170069 88.1237,15.878231 87.6337,15.933369 C87.143,15.9885069 86.8161,15.7524034 86.4661,15.7608862 C86.1161,15.7686621 85.0815,16.2557138 84.2492,16.1850241 C83.4169,16.1143345 83.1992,15.7608862 83.1992,15.7608862 C83.1992,15.7608862 82.9115,16.2953 82.8723,16.507369 C82.8464,16.6501621 82.866,16.8184034 82.8814,16.9131276 C83.1733,17.1980069 83.4848,17.4630931 83.8117,17.7083862 Z" id="Fill-15"></path>
                <path d="M84.6153,20.8436138 C84.1015,20.937631 82.8331,20.7807 82.0869,19.8617345 C81.4513,19.0792 81.0908,17.1988552 81.1923,17.1196828 C81.2931,17.0412172 82.243,17.8032517 83.2223,18.7066655 C84.203,19.6107862 85.1284,20.7495966 84.6153,20.8436138 M82.3123,21.0012517 C82.2346,21.1108207 80.8696,21.5038552 79.4024,20.6393207 C77.9093,19.7599414 77.1841,18.1234759 77.2086,18.047131 C77.2555,17.9057517 78.2516,18.1411483 80.1339,19.2099759 C82.0169,20.2780966 82.4215,20.8909759 82.3123,21.0012517 M81.0369,19.1315103 C80.9277,19.1781655 79.5893,18.5179241 79.2001,16.8369241 C78.8116,15.1552172 79.3219,13.9930793 79.4339,13.9457172 C79.6208,13.8672517 80.2116,14.8576138 80.6477,16.3809759 C81.0831,17.9057517 81.2077,19.0841483 81.0369,19.1315103 M79.3555,18.416131 C79.1924,18.471269 77.7378,17.8583897 76.6878,16.5774931 C75.7925,15.4860448 75.3725,13.6792172 75.4586,13.6233724 C75.544,13.5689414 76.7648,14.6370621 77.7609,15.7765793 C78.757,16.9153897 79.5193,18.3609931 79.3555,18.416131 M78.4308,15.9730966 C78.2124,15.9257345 77.5824,15.2011655 77.6678,13.4035276 C77.7224,12.2569414 78.61,10.7894241 78.7724,10.7950793 C78.9901,10.8028552 79.0916,11.8667345 78.9978,13.2621483 C78.9047,14.6603897 78.6478,16.0197517 78.4308,15.9730966 M75.1086,9.23213103 C75.2717,9.10630345 76.0263,10.4105276 76.5009,11.4942 C76.9034,12.4145793 77.4186,14.3938897 77.2086,14.4645793 C77.0756,14.5091138 75.9955,13.8283724 75.3879,12.177769 C74.8993,10.8495103 75.0246,9.29716552 75.1086,9.23213103 M78.757,7.8649931 C78.9047,7.90457931 78.8424,9.09075172 78.3993,10.3320621 C77.9555,11.5733724 77.3486,12.6733034 77.217,12.5948379 C77.084,12.5156655 76.8355,11.0474414 77.2555,9.93125172 C77.6755,8.81576897 78.6093,7.8254069 78.757,7.8649931 M77.1932,8.84687241 C77.0763,8.69771724 77.0182,7.36592414 77.9016,6.23064828 C78.757,5.13142414 79.5039,4.78504483 79.6439,4.85644138 C79.7839,4.92713103 79.317,6.1839931 78.7416,7.07114828 C78.1613,7.96678621 77.2898,8.97057931 77.1932,8.84687241 M76.9363,6.63145862 C76.7375,6.53107931 76.7529,5.50607931 77.2555,4.45492414 C77.6993,3.52888966 78.6555,2.63254483 78.8193,2.69545862 C78.9824,2.75837241 78.6359,4.08875172 78.267,4.9349069 C77.9478,5.66513103 77.1071,6.7177 76.9363,6.63145862 M76.1355,5.11516552 C76.2909,5.08406207 76.6955,6.2469069 76.7732,7.81763103 C76.8516,9.38906207 76.6955,10.6148207 76.5863,10.6148207 C76.4778,10.6148207 75.6763,9.93902759 75.6294,8.27357931 C75.5832,6.60742414 75.9801,5.14626897 76.1355,5.11516552 M92.3174,25.3218034 C92.0836,25.4009759 92.0059,24.3795103 90.0613,23.0434759 C89.7512,22.8307 89.4614,22.6525621 89.194,22.5034069 C88.9686,22.6348897 88.7285,22.7854586 88.4744,22.9600621 C86.5291,24.2960966 86.4514,25.3175621 86.2176,25.2383897 C85.9845,25.160631 85.6107,24.7357862 85.6107,24.7357862 C85.6107,24.7357862 86.9379,23.0858897 88.5297,22.167631 C87.5994,21.7498552 87.0737,21.7392517 87.0737,21.7392517 C87.0737,21.7392517 86.401,22.8702862 84.3199,22.7451655 C82.2346,22.6193379 81.13,22.1478379 80.7877,21.9124414 C80.7051,21.8558897 80.3523,21.4883034 82.9969,21.2366483 C85.4805,21.0005448 87.4433,21.1525276 89.1681,21.8488207 C90.9405,21.0818379 92.9579,20.9086483 95.5381,21.1532345 C98.1834,21.4048897 97.8299,21.7724759 97.7473,21.8290276 C97.405,22.0644241 96.3004,22.536631 94.2158,22.6617517 C92.134,22.7868724 91.462,21.6565448 91.462,21.6565448 C91.462,21.6565448 90.874,21.6678552 89.8422,22.1605621 C91.5047,23.0554931 92.9236,24.8192 92.9236,24.8192 C92.9236,24.8192 92.5505,25.2433379 92.3174,25.3218034 M93.9197,20.7609069 C93.4059,20.6661828 94.332,19.5273724 95.312,18.6239586 C96.2927,17.7198379 97.2412,16.9578034 97.3434,17.036269 C97.4442,17.1154414 97.0837,18.9957862 96.4481,19.7783207 C95.7012,20.6979931 94.4335,20.8549241 93.9197,20.7609069 M96.2227,20.9178379 C96.1142,20.8075621 96.5181,20.1946828 98.4011,19.1265621 C100.2841,18.0577345 101.2795,17.8223379 101.3264,17.9637172 C101.3516,18.0400621 100.6264,19.6765276 99.1319,20.5566138 C97.6647,21.4204414 96.3004,21.0274069 96.2227,20.9178379 M97.4988,19.0480966 C97.3273,19.0007345 97.4519,17.8223379 97.888,16.2975621 C98.3234,14.7742 98.9149,13.7845448 99.1011,13.8623034 C99.2131,13.9103724 99.7241,15.0725103 99.3342,16.7542172 C98.9457,18.4352172 97.6073,19.0947517 97.4988,19.0480966 M99.1788,18.3334241 C99.0157,18.2782862 99.778,16.8319759 100.7741,15.6931655 C101.7695,14.5543552 102.991,13.4855276 103.0771,13.5406655 C103.1618,13.5958034 102.7425,15.402631 101.8472,16.4940793 C100.7972,17.7749759 99.3426,18.3878552 99.1788,18.3334241 M100.1049,15.8896828 C99.8872,15.9363379 99.6303,14.5776828 99.5372,13.1787345 C99.4434,11.7833207 99.5449,10.7201483 99.7626,10.7123724 C99.925,10.7060103 100.8133,12.1735276 100.8672,13.3201138 C100.9526,15.1177517 100.3226,15.8423207 100.1049,15.8896828 M103.4271,9.14871724 C103.5111,9.21375172 103.6357,10.7660966 103.1464,12.0950621 C102.5402,13.7449586 101.4594,14.4257 101.3264,14.3811655 C101.1164,14.3104759 101.6316,12.3311655 102.0341,11.4114931 C102.5087,10.3271138 103.2633,9.02288966 103.4271,9.14871724 M99.778,7.78157931 C99.9264,7.7419931 100.8595,8.73235517 101.2795,9.84783793 C101.6995,10.9640276 101.4503,12.4322517 101.3187,12.5114241 C101.1864,12.5898897 100.5795,11.4899586 100.1364,10.2486483 C99.6926,9.00733793 99.6303,7.82116552 99.778,7.78157931 M101.3418,8.76345862 C101.2452,8.88716552 100.3744,7.88337241 99.7941,6.98773448 C99.218,6.09987241 98.7511,4.84371724 98.8911,4.77302759 C99.0311,4.70163103 99.778,5.04730345 100.6341,6.14723448 C101.5168,7.28321724 101.4587,8.61430345 101.3418,8.76345862 M101.5987,6.54875172 C101.4272,6.63428621 100.5872,5.58171724 100.268,4.8514931 C99.8991,4.00604483 99.5526,2.67495862 99.7157,2.61204483 C99.8788,2.54983793 100.8364,3.44476897 101.2795,4.37151034 C101.7821,5.42266552 101.7982,6.44766552 101.5987,6.54875172 M102.4002,5.03175172 C102.5556,5.06356207 102.9518,6.52471724 102.9056,8.19016552 C102.8587,9.85561379 102.0579,10.5314069 101.948,10.5314069 C101.8402,10.5314069 101.6841,9.30564828 101.7618,7.73421724 C101.8402,6.1634931 102.2441,5.00064828 102.4002,5.03175172" id="Fill-16"></path>
                <path d="M68.2122,22.39405 L68.2122,9.31363621 L71.6576,9.31363621 L71.6576,7.33361897 L68.2122,7.33361897 L68.2122,4.93299828 C68.1226,3.28310172 69.0438,2.86320517 70.6482,2.86320517 C71.1235,2.86320517 71.5988,2.92329138 72.0741,2.95298103 L72.0741,0.582756897 C71.3909,0.462584483 70.7371,0.283032759 70.0539,0.283032759 C67.9448,0.283032759 65.4794,1.15322241 65.3898,4.45301552 L65.3898,7.33361897 L62.4785,7.33361897 L62.4785,9.31363621 L65.3898,9.31363621 L65.3898,22.39405 L68.2122,22.39405 Z M51.9869,13.4235328 C51.9869,10.9635328 53.3834,8.95311897 55.7305,8.95311897 C58.4633,8.95311897 59.5924,10.9034466 59.5329,13.4235328 L51.9869,13.4235328 Z M62.5044,15.40355 L62.5044,13.9932914 C62.5044,9.82330862 60.3946,6.97310172 55.9384,6.88332586 C51.2141,6.88332586 49.0161,10.5733259 49.0161,14.9836534 C49.0161,19.4236707 50.918,22.8436362 55.7004,22.8436362 C59.2655,22.8436362 61.8793,21.1336534 62.3259,17.7136879 L59.3544,17.7136879 C59.0282,19.9043603 57.9285,20.7738431 55.7305,20.7738431 C52.8486,20.7738431 51.779,18.0438086 51.9869,15.40355 L62.5044,15.40355 Z M47.9773,12.1631362 C47.8282,8.89373966 45.4517,6.88332586 42.3031,6.88332586 C37.5795,6.88332586 35.3808,10.5733259 35.3808,14.9836534 C35.3808,19.4236707 37.282,22.8436362 42.0651,22.8436362 C45.3628,22.8436362 47.8583,20.7738431 48.0963,17.3835672 L45.2732,17.3835672 C45.1248,19.5438431 43.967,20.7738431 42.0952,20.7738431 C39.3911,20.7738431 38.3516,18.403619 38.3516,14.863481 C38.3516,11.3233431 39.3911,8.95311897 42.0952,8.95311897 C44.1147,8.95311897 45.0065,10.2728948 45.1549,12.1631362 L47.9773,12.1631362 Z M30.5081,3.82246379 L33.8653,3.82246379 L33.8653,0.732618966 L30.5081,0.732618966 L30.5081,3.82246379 Z M30.7755,22.39405 L33.5979,22.39405 L33.5979,7.33361897 L30.7755,7.33361897 L30.7755,22.39405 Z M18.214,7.33361897 L15.4511,7.33361897 L15.4511,22.39405 L18.2735,22.39405 L18.2735,14.2039466 C18.2735,11.2632569 19.0456,10.6030155 19.4621,10.1838259 C20.65,8.98351552 22.1949,9.07329138 22.1949,9.07329138 C24.5721,9.07329138 25.6123,10.4234638 25.6123,12.9138603 L25.6123,22.39405 L28.4333,22.39405 L28.4333,11.9835845 C28.4333,7.15336034 23.8287,6.88332586 22.7899,6.88332586 C21.3038,6.88332586 19.2241,7.66303276 18.2735,9.55398103 L18.214,9.55398103 L18.214,7.33361897 Z M10.0114,15.0734293 C10.0114,15.4339466 9.982,17.2033086 9.4472,18.6135672 C8.8529,20.1736879 7.2786,20.7738431 6.1201,20.7738431 C3.416,20.7738431 2.8217,18.8539121 2.8217,16.2433431 L2.8217,7.33361897 L8.17124146e-13,7.33361897 L8.17124146e-13,17.4132569 C8.17124146e-13,20.4437224 1.7822,22.8436362 4.9021,22.8436362 C6.9811,22.8436362 8.883,22.0639293 10.0114,20.1736879 L10.0709,20.1736879 L10.0709,22.39405 L12.8338,22.39405 L12.8338,7.33361897 L10.0114,7.33361897 L10.0114,15.0734293 Z" id="Fill-17"></path>
            </g>
        </g>
    </g>
</svg>