<svg xmlns="http://www.w3.org/2000/svg" width="103" height="26" viewBox="0 0 103 26">
    <g fill="#63605E" fill-rule="evenodd">
        <path d="M83.17 18.158c.21.081.507.176.877.15.485-.03 1.123-.285 1.733-.523.608-.237 2.204-.635 2.583-.714.38-.08.472-.254.563-.43.091-.174.03-.428-.015-.73-.046-.3-.123-.777-.137-1.222-.015-.444-.03-.84-.699-1.285-.67-.444-1.095-.968-1.05-1.365.047-.397.486-.73.486-.73s-.106-.334-.06-.475c.046-.144.457-.096.457-.096s-.062-.477-.031-.604c.03-.126.243-.064.243-.064l.198-.125s-.152-.334-.214-.557c-.06-.221.062-.396.306-.396.243 0 .546-.033 1.277-.207.728-.175 1.048-1.635 2.765-1.92 1.718-.287 3.056 1.08 3.056 1.08s2.736 2.68.943 5.714c-1.558 2.63-3.543 1.968-3.543 1.968s-.348.174-.181.936c.166.762 1.215 1.397 1.215 1.397l.085.042c2.124-1.738 3.491-4.452 3.491-7.502a9.83 9.83 0 0 0-1.46-5.177c-.447.31-.916.594-1.404.849.13.292.244.593.347.9a4.37 4.37 0 0 0-.559-.289 10.985 10.985 0 0 0-.17-.42c-.15.072-.3.14-.452.205a3.764 3.764 0 0 0-.89-.12c.395-.144.781-.307 1.155-.486a9.999 9.999 0 0 0-1.14-1.815 8.487 8.487 0 0 1-1.654.761c.218.553.408 1.122.562 1.708-.147.047-.28.1-.4.158a14.414 14.414 0 0 0-.574-1.74 8.748 8.748 0 0 1-2.166.324v1.864a13.109 13.109 0 0 0 2.433-.27c-.248.17-.432.365-.6.559-.597.092-1.21.145-1.833.157v.64c-.095.007-.196.011-.303.011a.877.877 0 0 0-.123.008v-2.97a8.94 8.94 0 0 1-.992-.078 3.84 3.84 0 0 0-.348-.506c.434.08.883.128 1.34.14V3.288a4.477 4.477 0 0 1-1.195-.219c-.228.387-.44.786-.635 1.197a4.395 4.395 0 0 0-.345-.273c.176-.37.368-.73.574-1.08a4.304 4.304 0 0 1-.856-.505 9.798 9.798 0 0 0-1.069.937 3.913 3.913 0 0 0-.507-.097c.38-.41.793-.788 1.233-1.128a4.129 4.129 0 0 1-.385-.415 8.841 8.841 0 0 0-2.01 1.199c-2.103 1.662-3.496 4.273-3.603 7.228.055-.054.908-.857 1.305-.95.41-.095.729-.841.729-.968s-.776-2.1.167-3.414c.82-1.142 2.083-1.73 4.073-.571 1.993 1.16 1.612 2.826 1.232 3.366-.38.539-.547.714-.487.969.062.253.244.444.168.57-.076.128-.455.174-.455.174s.09.27.075.366c-.014.096-.227.079-.227.079s.046.158.014.27c-.03.111-.38.047-.38.047s.077.684-.791.571c-.865-.11-1.048-.396-1.306-.189-.258.207-.214.476-.03 1.27.182.793.259 2.587.259 2.587l.524.388s.797.04.986.056c.192.016.404.072.526.08.12.008.623-.405.889-.468.266-.064.349.016.349.087 0 .07-.077.27-.077.27s.426-.166.58-.128c.151.04.234.206.12.779-.114.57-.348.936-.828.991-.479.056-.798-.181-1.14-.175-.342.008-1.353.5-2.166.43-.814-.072-1.026-.43-1.026-.43s-.281.54-.32.756c-.025.144-.006.313.01.408.286.288.589.557.908.805zM88.287 1.36c-.342.42-.66.86-.954 1.318.302.091.623.147.954.163V1.361zm-1.37 1.17c.274-.436.571-.858.887-1.26a9.302 9.302 0 0 0-1.599.87c.22.151.458.283.712.39zm4.253-.123a4.33 4.33 0 0 1-.855.505c.297.508.567 1.037.804 1.587a8.143 8.143 0 0 0 1.543-.696 9.652 9.652 0 0 0-1.492-1.396zm-1.264.661a4.44 4.44 0 0 1-1.193.219v1.625a8.33 8.33 0 0 0 1.992-.29 14.09 14.09 0 0 0-.799-1.554zm-1.193-.227a3.99 3.99 0 0 0 .954-.163 14.68 14.68 0 0 0-.954-1.318v1.481zm1.37-.31c.253-.108.492-.24.712-.392a9.255 9.255 0 0 0-1.6-.869c.318.402.613.824.888 1.26zM88.5.5C93.748.5 98 4.979 98 10.5c0 5.52-4.252 10-9.5 10-5.25 0-9.5-4.48-9.5-10 0-5.521 4.25-10 9.5-10zm2.972 1.036a8.756 8.756 0 0 0-1.537-.41c.424.213.83.458 1.219.73.114-.1.22-.207.318-.32zm2.434 1.368a8.805 8.805 0 0 0-2.01-1.199 4.129 4.129 0 0 1-.384.415c.555.429 1.063.914 1.522 1.452.308-.203.6-.427.872-.668zm1.91 2.05a9.324 9.324 0 0 0-1.57-1.769 8.282 8.282 0 0 1-.933.729c.444.571.834 1.194 1.156 1.858.47-.246.92-.518 1.347-.817zm-8.752-3.828a8.71 8.71 0 0 0-1.538.41c.098.113.205.22.318.32a9.725 9.725 0 0 1 1.22-.73z"/>
        <path d="M101.912 5.847c.153.03.544 1.446.498 3.059-.045 1.612-.835 2.267-.942 2.267-.107 0-.26-1.187-.182-2.709.075-1.522.473-2.647.626-2.617m-.787 1.467c-.169.085-.996-.935-1.308-1.642-.363-.82-.705-2.108-.544-2.169.16-.06 1.102.807 1.538 1.704.494 1.019.51 2.01.314 2.107m-.254 2.147c-.094.12-.95-.853-1.521-1.72-.566-.86-1.025-2.077-.888-2.145.138-.069.872.266 1.714 1.332.868 1.099.81 2.389.695 2.533m-1.537-.952c.146-.037 1.063.921 1.477 2.002.413 1.08.167 2.504.039 2.578-.132.077-.729-.987-1.163-2.19-.436-1.202-.498-2.351-.353-2.39m3.588 1.324c.083.063.206 1.566-.276 2.855-.596 1.598-1.659 2.255-1.789 2.213-.207-.069.3-1.986.696-2.876.467-1.05 1.208-2.313 1.369-2.192m-3.266 6.53c-.215.045-.467-1.271-.558-2.626-.093-1.352.006-2.381.22-2.389.16-.006 1.034 1.415 1.088 2.526.083 1.741-.537 2.442-.75 2.488m-.91 2.366c-.162-.054.588-1.452 1.568-2.556.98-1.103 2.18-2.138 2.264-2.086.084.054-.328 1.805-1.209 2.862-1.033 1.24-2.463 1.834-2.624 1.78m-1.651.692c-.169-.045-.047-1.186.382-2.662.428-1.477 1.01-2.435 1.193-2.358.11.044.611 1.172.23 2.799-.384 1.629-1.699 2.268-1.805 2.22m-1.256 1.811c-.107-.106.29-.698 2.142-1.733 1.852-1.035 2.83-1.263 2.877-1.126.025.074-.688 1.658-2.157 2.51-1.443.837-2.785.457-2.862.35m-2.264-.152c-.505-.09.405-1.193 1.369-2.07.965-.875 1.898-1.613 1.997-1.536.1.075-.254 1.897-.88 2.654-.734.89-1.982 1.044-2.486.952m-1.576 4.417c-.23.077-.306-.911-2.218-2.206a10.4 10.4 0 0 0-.853-.522c-.221.126-.457.273-.708.442-1.912 1.293-1.988 2.282-2.217 2.206-.23-.076-.597-.487-.597-.487s1.306-1.598 2.868-2.486c-.913-.405-1.431-.417-1.431-.417s-.66 1.097-2.707.975c-2.05-.122-3.137-.578-3.474-.807-.081-.054-.428-.41 2.173-.653 2.442-.229 4.372-.083 6.068.591 1.742-.743 3.727-.91 6.263-.673 2.601.245 2.254.6 2.173.655-.336.23-1.423.685-3.473.806-2.047.122-2.708-.973-2.708-.973s-.579.011-1.592.488c1.635.868 3.03 2.576 3.03 2.576s-.366.41-.597.485M76.087 5.927c.153-.03.552 1.096.628 2.617.076 1.522-.076 2.71-.184 2.71-.107 0-.896-.654-.942-2.268-.045-1.613.345-3.028.498-3.059m.787 1.47c-.194-.098-.179-1.092.314-2.11.436-.897 1.378-1.764 1.538-1.703.161.061-.18 1.35-.542 2.168-.314.708-1.141 1.727-1.31 1.644m.252 2.146c-.113-.146-.17-1.434.697-2.535.842-1.064 1.576-1.4 1.714-1.33.137.067-.322 1.285-.888 2.145-.57.868-1.426 1.839-1.523 1.72m1.539-.95c.145.036.083 1.185-.353 2.388-.436 1.201-1.031 2.267-1.161 2.191-.131-.076-.376-1.5.037-2.579.414-1.081 1.331-2.04 1.477-2m-3.588 1.323c.161-.123.903 1.14 1.369 2.19.397.892.903 2.809.697 2.877-.131.043-1.194-.617-1.79-2.215-.48-1.287-.358-2.789-.276-2.852m3.267 6.528c-.214-.046-.834-.749-.75-2.489.055-1.11.927-2.532 1.086-2.526.214.009.314 1.038.221 2.39-.091 1.354-.343 2.67-.557 2.625m.91 2.367c-.16.052-1.591-.542-2.623-1.781-.881-1.057-1.294-2.809-1.21-2.861.085-.054 1.285.981 2.265 2.084.979 1.103 1.729 2.504 1.568 2.558m1.653.692c-.107.045-1.424-.594-1.805-2.222-.383-1.63.117-2.755.228-2.801.184-.076.765.883 1.193 2.36.429 1.476.552 2.617.384 2.663m1.255 1.81c-.077.106-1.42.488-2.862-.35-1.469-.852-2.181-2.438-2.157-2.51.045-.137 1.025.09 2.875 1.125 1.852 1.035 2.25 1.629 2.144 1.735m2.263-.152c-.504.09-1.75-.06-2.485-.95-.627-.758-.98-2.58-.88-2.657.099-.075 1.033.663 1.996 1.538.964.874 1.874 1.977 1.369 2.069M9.361 14.985c0 .348-.028 2.06-.528 3.424-.555 1.508-2.028 2.088-3.112 2.088-2.527 0-3.082-1.857-3.082-4.38V7.5H0v9.748c0 2.93 1.666 5.252 4.583 5.252 1.945 0 3.723-.755 4.778-2.583h.056v2.147H12V7.5H9.361v7.485zM17.766 6.936H15V21.5h2.826v-7.921c0-2.843.774-3.481 1.19-3.888 1.189-1.16 2.738-1.073 2.738-1.073 2.379 0 3.42 1.306 3.42 3.714V21.5H28V11.433C28 6.76 23.39 6.5 22.348 6.5c-1.488 0-3.571.755-4.522 2.583h-.06V6.936zM30 3.638h3V.5h-3v3.138zm.239 18.862h2.521V7.204H30.24V22.5zM47.888 11.793c-.14-3.279-2.384-5.293-5.356-5.293C38.075 6.5 36 10.199 36 14.62c0 4.451 1.794 7.88 6.307 7.88 3.114 0 5.468-2.075 5.693-5.475h-2.663c-.14 2.167-1.233 3.4-3.001 3.4-2.55 0-3.531-2.376-3.531-5.925 0-3.55.98-5.925 3.53-5.925 1.908 0 2.749 1.323 2.89 3.218h2.663zM52.084 13.057c0-2.466 1.449-4.482 3.885-4.482 2.836 0 4.008 1.955 3.947 4.482h-7.832zM63 15.04v-1.413c0-4.18-2.189-7.037-6.814-7.127C51.281 6.5 49 10.199 49 14.62c0 4.451 1.974 7.88 6.939 7.88 3.699 0 6.413-1.715 6.875-5.144h-3.082c-.34 2.196-1.48 3.068-3.763 3.068-2.992 0-4.101-2.736-3.885-5.384H63z"/>
        <path d="M67.975 22.5V9.486h3.593v-1.97h-3.593v-2.39c-.092-1.64.868-2.059 2.539-2.059.496 0 .991.06 1.486.09V.797C71.288.677 70.608.5 69.895.5c-2.198 0-4.768.865-4.86 4.148v2.867H62v1.97h3.035V22.5h2.94z"/>
    </g>
</svg>
